<?xml version="1.0" standalone="no"?>
<!DOCTYPE svg PUBLIC "-//W3C//DTD SVG 1.1//EN" "http://www.w3.org/Graphics/SVG/1.1/DTD/svg11.dtd" >
<svg xmlns="http://www.w3.org/2000/svg">
<metadata></metadata>
<defs>
<font id="great_lakes_nfregular" horiz-adv-x="1007" >
<font-face units-per-em="2048" ascent="1823" descent="-225" />
<missing-glyph horiz-adv-x="460" />
<glyph horiz-adv-x="2048" />
<glyph horiz-adv-x="2048" />
<glyph unicode="&#xd;" horiz-adv-x="2048" />
<glyph unicode=" "  horiz-adv-x="460" />
<glyph unicode="&#x09;" horiz-adv-x="460" />
<glyph unicode="&#xa0;" horiz-adv-x="460" />
<glyph unicode="!" horiz-adv-x="679" d="M41 1735h598l-119 -1186h-362zM109 0v471h460v-471h-460z" />
<glyph unicode="&#x22;" horiz-adv-x="989" d="M41 1114v621h907l-178 -621h-299v457l-131 -457h-299z" />
<glyph unicode="#" horiz-adv-x="1163" d="M41 782v252l195 -33l30 173l-225 38v252l266 -45l53 314h254l-61 -357l152 -24l65 381h254l-74 -422l172 -29v-254l-213 37l-30 -172l243 -41v-254l-284 47l-111 -645h-252l117 688l-152 25l-123 -713h-251l129 756zM481 958l152 -24l31 172l-152 27z" />
<glyph unicode="$" horiz-adv-x="944" d="M41 883v450q0 31 13.5 58.5t36 49t50 35t58.5 13.5h123v246h323v-246h258v-313h-399v-138h241q31 0 58.5 -13t49 -34.5t35 -49.5t13.5 -58v-449q0 -31 -13.5 -58.5t-35 -49t-49 -34.5t-58.5 -13h-100v-279h-323v279h-263v313h379v133h-239q-59 0 -109 49q-49 49 -49 109z " />
<glyph unicode="%" horiz-adv-x="1617" d="M41 946v713q0 29 24.5 53.5t53.5 24.5h387q29 0 54.5 -24.5t25.5 -53.5v-713q0 -29 -25.5 -53.5t-54.5 -24.5h-387q-29 0 -53.5 25t-24.5 53zM270 1026h84v553h-84v-553zM272 0l762 1733h314l-764 -1733h-312zM1032 78v713q0 29 24.5 53t53.5 24h387q29 0 54.5 -24.5 t25.5 -52.5v-713q0 -29 -25.5 -53.5t-54.5 -24.5h-387q-29 0 -53.5 24.5t-24.5 53.5zM1262 158h84v553h-84v-553z" />
<glyph unicode="&#x26;" horiz-adv-x="1222" d="M41 156v604q0 76 113 164q-113 98 -113 170v485q0 31 13.5 58.5t35 49t49 35t58.5 13.5h432l73 -314h-241v-348h250v172h315v-172h156v-313h-156v-604q0 -31 -13.5 -58.5t-35 -49t-49 -35t-58.5 -13.5h-673q-31 0 -58.5 13.5t-49 35t-35 49t-13.5 58.5zM461 313h250v447 h-250v-447z" />
<glyph unicode="'" horiz-adv-x="559" d="M41 1114v621h477l-178 -621h-299z" />
<glyph unicode="(" horiz-adv-x="665" d="M41 -63v1642q0 59 49 107q51 49 111 49h348l76 -314h-121v-1325h121l-74 -315h-350q-59 0 -111 49q-49 45 -49 107z" />
<glyph unicode=")" horiz-adv-x="665" d="M41 96h121v1325h-121l76 314h348q59 0 108 -49q51 -45 52 -107v-1642q0 -61 -52 -107q-49 -49 -108 -49h-350z" />
<glyph unicode="*" horiz-adv-x="995" d="M41 1386l160 271l139 -80v160h315v-162l140 82l159 -271l-141 -83l137 -80l-157 -273l-138 82v-164h-315v164l-137 -82l-160 273l141 80z" />
<glyph unicode="+" horiz-adv-x="1406" d="M41 629v473h426v426h473v-426h426v-473h-426v-426h-473v426h-426z" />
<glyph unicode="," horiz-adv-x="544" d="M41 0v475h463v-424l-203 -256h-133v205h-127z" />
<glyph unicode="-" horiz-adv-x="669" d="M41 629v473h588v-473h-588z" />
<glyph unicode="." horiz-adv-x="544" d="M41 0v473h463v-473h-463z" />
<glyph unicode="/" horiz-adv-x="1107" d="M41 -150l553 1881h473l-553 -1881h-473z" />
<glyph unicode="0" horiz-adv-x="1169" d="M41 156v1423q0 31 13.5 58.5t35 49t49 35t58.5 13.5h774q31 0 58.5 -13.5t50 -35t35.5 -49t13 -58.5v-1423q0 -31 -13 -58.5t-35.5 -49t-50.5 -35t-58 -13.5h-774q-31 0 -58.5 13.5t-49 35t-35 49t-13.5 58.5zM500 313h166v1108h-166v-1108z" />
<glyph unicode="1" horiz-adv-x="702" d="M41 1421l76 314h545v-1735h-463v1421h-158z" />
<glyph unicode="2" horiz-adv-x="985" d="M41 0l389 1421h-332l76 314h610q63 0 109.5 -48.5t46.5 -111.5q0 -12 -1 -21.5t-3 -17.5l-334 -1223h342l-76 -313h-827z" />
<glyph unicode="3" horiz-adv-x="962" d="M41 313h461v447h-355v313h355v348h-461l74 314h649q31 0 58.5 -13.5t50 -35t36 -49t13.5 -58.5v-485q0 -72 -117 -170q117 -84 117 -164v-604q0 -31 -13.5 -58.5t-36 -49t-50 -35t-58.5 -13.5h-649z" />
<glyph unicode="4" horiz-adv-x="1198" d="M41 408l600 1327h430v-1012h86v-315h-86v-408h-426v408h-604zM528 723h117v260z" />
<glyph unicode="5" horiz-adv-x="1050" d="M41 760v975h801l76 -314h-455v-348h391q31 0 58.5 -13t49 -34.5t35 -49.5t13.5 -58v-762q0 -31 -13.5 -58.5t-35 -49t-49 -35t-58.5 -13.5h-721l-74 313h531v447h-549z" />
<glyph unicode="6" horiz-adv-x="1099" d="M41 156v1423q0 31 13.5 58.5t35 49t49 35t58.5 13.5h620l76 -314h-393v-239h399q31 0 59.5 -13.5t51 -35t36 -50t13.5 -59.5v-868q0 -59 -51 -109q-51 -47 -109 -47h-702q-31 0 -58.5 13.5t-49 35t-35 49t-13.5 58.5zM500 313h96v555h-96v-555z" />
<glyph unicode="7" horiz-adv-x="1103" d="M41 1421l76 314h946l-535 -1735h-477l441 1421h-451z" />
<glyph unicode="8" horiz-adv-x="1153" d="M41 156v604q0 76 113 164q-113 98 -113 170v485q0 31 13.5 58.5t35 49t49 35t58.5 13.5h759q31 0 58.5 -13.5t49 -35t35 -49t13.5 -58.5v-485q0 -70 -113 -170q113 -88 113 -164v-604q0 -31 -13.5 -58.5t-35 -49t-49 -35t-58.5 -13.5h-759q-31 0 -58.5 13.5t-49 35 t-35 49t-13.5 58.5zM479 313h195v447h-195v-447zM479 1073h195v348h-195v-348z" />
<glyph unicode="9" horiz-adv-x="1099" d="M41 815v764q0 31 13.5 58.5t35 49t49 35t58.5 13.5h702q59 0 109 -49q51 -45 51 -107v-1423q0 -59 -51 -109q-51 -47 -109 -47h-749l-74 313h520v346h-399q-31 0 -58.5 13.5t-49 35t-35 49t-13.5 58.5zM500 973h96v448h-96v-448z" />
<glyph unicode=":" horiz-adv-x="544" d="M41 0v473h463v-473h-463zM41 631v473h463v-473h-463z" />
<glyph unicode=";" horiz-adv-x="544" d="M41 0v475h463v-424l-203 -256h-133v205h-127zM41 631v473h463v-473h-463z" />
<glyph unicode="&#x3c;" horiz-adv-x="1406" d="M41 608v537l1325 508v-473l-791 -303l791 -304v-473z" />
<glyph unicode="=" horiz-adv-x="1406" d="M41 330v473h1325v-473h-1325zM41 903v473h1325v-473h-1325z" />
<glyph unicode="&#x3e;" horiz-adv-x="1406" d="M41 100v473l790 304l-790 303v473l1325 -508v-537z" />
<glyph unicode="?" horiz-adv-x="942" d="M41 1421v314h700q59 0 109 -49q51 -49 51 -107v-467q0 -53 -59 -102l-201 -166v-279h-459v248q0 55 56 102l200 166v340h-397zM174 0v471h463v-471h-463z" />
<glyph unicode="@" horiz-adv-x="1478" d="M41 156v1423q0 31 13.5 58.5t35 49t49 35t58.5 13.5h1083q31 0 58.5 -13.5t50 -35t36 -49t13.5 -58.5v-1055q0 -31 -13.5 -58.5t-36 -49t-50 -34.5t-58.5 -13h-696q-31 0 -58.5 13t-49 34.5t-35 49.5t-13.5 58v334q0 31 13.5 58.5t35 49t49 35t58.5 13.5h153v37h-188v315 h344q31 0 58.5 -13.5t50 -35t36 -49t13.5 -58.5v-528h73v739h-770v-1108h1080l-74 -313h-1163q-31 0 -58.5 13.5t-49 35t-35 49t-13.5 58.5zM686 700h64v62h-64v-62z" />
<glyph unicode="A" horiz-adv-x="1374" d="M41 0l334 1421h-156l72 314h633l409 -1735h-469l-26 121l-4 4h-295q0 2 -29 -125h-469zM612 438h150l-76 314z" />
<glyph unicode="B" horiz-adv-x="1138" d="M41 0v1735h899q31 0 59.5 -13.5t50 -35t35 -49t13.5 -58.5v-485q0 -70 -113 -170q113 -86 113 -164v-604q0 -31 -13.5 -58.5t-36 -49t-50 -35t-58.5 -13.5h-899zM504 313h174v447h-174v-447zM504 1073h174v348h-174v-348z" />
<glyph unicode="C" horiz-adv-x="907" d="M41 156v1423q0 31 13.5 58.5t35 49t49 35t58.5 13.5h669v-314h-364v-1108h364v-313h-669q-31 0 -58.5 13.5t-49 35t-35 49t-13.5 58.5z" />
<glyph unicode="D" horiz-adv-x="1169" d="M41 0v1735h930q31 0 58.5 -13.5t50 -35t35.5 -49t13 -58.5v-1423q0 -31 -13 -58.5t-35.5 -49t-50.5 -35t-58 -13.5h-930zM500 313h166v1108h-166v-1108z" />
<glyph unicode="E" horiz-adv-x="829" d="M41 0v1735h672l75 -314h-284v-348h274v-313h-274v-447h284l-75 -313h-672z" />
<glyph unicode="F" horiz-adv-x="835" d="M41 0v1735h680l74 -314h-291v-348h272v-313h-272v-760h-463z" />
<glyph unicode="G" horiz-adv-x="1099" d="M41 156v1423q0 31 13.5 58.5t35 49t49 35t58.5 13.5h741l72 -314h-510v-1108h96v734h463v-891q0 -59 -51 -109q-51 -47 -109 -47h-702q-31 0 -58.5 13.5t-49 35t-35 49t-13.5 58.5z" />
<glyph unicode="H" horiz-adv-x="1169" d="M41 0v1735h459v-502h166v502h462v-1735h-462v918h-166v-918h-459z" />
<glyph unicode="I" horiz-adv-x="544" d="M41 0v1735h463v-1735h-463z" />
<glyph unicode="J" horiz-adv-x="1099" d="M41 156v360h459v-203h96v1422h463v-1579q0 -59 -51 -109q-51 -47 -109 -47h-702q-31 0 -58.5 13.5t-49 35t-35 49t-13.5 58.5z" />
<glyph unicode="K" horiz-adv-x="1132" d="M41 0v1735h461v-316l205 316h374l-362 -557l373 -310v-868h-461v707l-129 108v-815h-461z" />
<glyph unicode="L" horiz-adv-x="823" d="M41 0v1735h461v-1422h280l-73 -313h-668z" />
<glyph unicode="M" horiz-adv-x="1654" d="M41 0v1735h463v-115q16 47 59 81t90 34h248q51 0 95 -37t59 -86q12 49 57 86t96 37h248q31 0 58.5 -13.5t50 -35t36 -49t13.5 -58.5v-1579h-461v1409h-94v-1409h-461v1409h-94v-1409h-463z" />
<glyph unicode="N" horiz-adv-x="1171" d="M41 0v1735h461v-115q16 47 59 81t92 34h320q31 0 58.5 -13.5t50 -35t35.5 -49t13 -58.5v-1579h-462v1409h-166v-1409h-461z" />
<glyph unicode="O" horiz-adv-x="1169" d="M41 156v1423q0 31 13.5 58.5t35 49t49 35t58.5 13.5h774q31 0 58.5 -13.5t50 -35t35.5 -49t13 -58.5v-1423q0 -31 -13 -58.5t-35.5 -49t-50.5 -35t-58 -13.5h-774q-31 0 -58.5 13.5t-49 35t-35 49t-13.5 58.5zM500 313h166v1108h-166v-1108z" />
<glyph unicode="P" horiz-adv-x="1138" d="M41 0v1735h899q31 0 58.5 -13.5t50 -35t36 -49t13.5 -58.5v-750q0 -31 -13.5 -58.5t-36 -49t-50 -34.5t-58.5 -13h-436v-674h-463zM504 989h174v432h-174v-432z" />
<glyph unicode="Q" horiz-adv-x="1169" d="M41 156v1423q0 31 13.5 58.5t36 49t50 35t58.5 13.5h774q31 0 58.5 -13.5t49 -35t34.5 -49t13 -58.5v-1423q0 -31 -13 -58.5t-34.5 -49t-49 -35t-58.5 -13.5h-35l80 -238h-477l-82 238h-260q-31 0 -58.5 13.5t-50 35t-36 49t-13.5 58.5zM502 313h166v1108h-166v-1108z " />
<glyph unicode="R" horiz-adv-x="1255" d="M41 0v1735h899q31 0 58.5 -13.5t49 -35t35 -49t13.5 -58.5v-752q0 -47 -33 -89t-78 -58l229 -680h-477l-227 672h-10v-672h-459zM500 987h176v434h-176v-434z" />
<glyph unicode="S" horiz-adv-x="1034" d="M41 313h436v447h-241q-31 0 -58.5 13t-49.5 35.5t-35 50.5t-13 59v661q0 31 13 58.5t35 49t49.5 35t58.5 13.5h686l71 -314h-454v-348h241q31 0 58.5 -13t50 -34.5t36 -49.5t13.5 -58v-762q0 -31 -13.5 -58.5t-36 -49t-50 -35t-58.5 -13.5h-665z" />
<glyph unicode="T" horiz-adv-x="1107" d="M41 1421l76 314h874l76 -314h-283v-1421h-462v1421h-281z" />
<glyph unicode="U" horiz-adv-x="1169" d="M41 156v1579h459v-1422h166v1422h462v-1579q0 -31 -13 -58.5t-35.5 -49t-50.5 -35t-58 -13.5h-774q-31 0 -58.5 13.5t-49 35t-35 49t-13.5 58.5z" />
<glyph unicode="V" horiz-adv-x="1374" d="M41 1735h469l178 -752l176 752h469l-409 -1735h-473z" />
<glyph unicode="W" horiz-adv-x="1654" d="M41 160v1575h463v-1407h94v1407h459v-1407h96v1407h461v-1575q0 -59 -49 -111q-49 -49 -109 -49h-477q-49 0 -93 37t-59 86q-14 -49 -58 -86t-93 -37h-479q-59 0 -109 49q-47 53 -47 111z" />
<glyph unicode="X" horiz-adv-x="1169" d="M41 0v760q0 78 115 164q-115 96 -115 170v641h473v-662h141v662h473v-641q0 -74 -114 -170q115 -90 114 -164v-760h-473v760h-141v-760h-473z" />
<glyph unicode="Y" horiz-adv-x="1435" d="M41 1735h467l186 -834l230 834h471l-471 -1735h-473l153 563h-176q-25 0 -49.5 10.5t-46 27.5t-36.5 40t-22 47z" />
<glyph unicode="Z" horiz-adv-x="1026" d="M41 0l387 1421h-342v314h899l-387 -1422h385v-313h-942z" />
<glyph unicode="[" horiz-adv-x="782" d="M41 -225v1960h627l73 -314h-239v-1333h239l-73 -313h-627z" />
<glyph unicode="\" horiz-adv-x="1107" d="M41 1731h473l553 -1881h-473z" />
<glyph unicode="]" horiz-adv-x="782" d="M41 88h240v1333h-240l74 314h626v-1960h-626z" />
<glyph unicode="^" horiz-adv-x="36" />
<glyph unicode="_" horiz-adv-x="1024" d="M0 0h1022v-207h-1022v207z" />
<glyph unicode="`" horiz-adv-x="815" d="M41 1815l82 190l651 -281l-86 -194z" />
<glyph unicode="a" horiz-adv-x="1181" d="M41 0l285 1208h-133l61 267h539l348 -1475h-400l-22 102l-4 4h-250q0 -2 -25 -106h-399zM526 373h127l-63 266z" />
<glyph unicode="b" horiz-adv-x="980" d="M41 0v1475h764q53 0 94 -40t41 -94v-411q0 -61 -96 -146q96 -70 96 -139v-512q0 -53 -41 -93t-94 -40h-764zM434 266h150v379h-150v-379zM434 911h150v297h-150v-297z" />
<glyph unicode="c" horiz-adv-x="784" d="M41 133v1208q0 51 41 92.5t92 41.5h569v-267h-309v-942h309v-266h-569q-51 0 -92 40t-41 93z" />
<glyph unicode="d" d="M41 0v1475h790q51 0 93.5 -41t42.5 -93v-1208q0 -53 -42 -93t-94 -40h-790zM432 266h141v942h-141v-942z" />
<glyph unicode="e" horiz-adv-x="718" d="M41 0v1475h571l66 -267h-244v-297h234v-266h-234v-379h244l-66 -266h-571z" />
<glyph unicode="f" horiz-adv-x="722" d="M41 0v1475h577l64 -267h-248v-297h232v-266h-232v-645h-393z" />
<glyph unicode="g" horiz-adv-x="948" d="M41 133v1208q0 51 41 92.5t92 41.5h631l59 -267h-432v-942h82v623h393v-756q0 -53 -45 -92q-41 -41 -92 -41h-596q-51 0 -92 40t-41 93z" />
<glyph unicode="h" d="M41 0v1475h391v-426h141v426h394v-1475h-394v780h-141v-780h-391z" />
<glyph unicode="i" horiz-adv-x="475" d="M41 0v1475h393v-1475h-393z" />
<glyph unicode="j" horiz-adv-x="948" d="M41 133v305h391v-172h82v1209h393v-1342q0 -53 -45 -92q-41 -41 -92 -41h-596q-51 0 -92 40t-41 93z" />
<glyph unicode="k" horiz-adv-x="974" d="M41 0v1475h393v-269l174 269h318l-308 -474l316 -264v-737h-391v600l-109 92v-692h-393z" />
<glyph unicode="l" horiz-adv-x="712" d="M41 0v1475h393v-1209h238l-64 -266h-567z" />
<glyph unicode="m" horiz-adv-x="1419" d="M41 0v1475h393v-99q16 41 51 70t76 29h211q43 0 81 -32t50 -73q10 41 49 73t82 32h211q51 0 92 -41t41 -93v-1341h-391v1198h-80v-1198h-393v1198h-80v-1198h-393z" />
<glyph unicode="n" d="M41 0v1475h393v-99q14 41 50 70t77 29h273q51 0 92 -41t41 -93v-1341h-394v1198h-139v-1198h-393z" />
<glyph unicode="o" d="M41 133v1208q0 51 41 92.5t92 41.5h657q51 0 93.5 -41t42.5 -93v-1208q0 -53 -42 -93t-94 -40h-657q-51 0 -92 40t-41 93zM432 266h141v942h-141v-942z" />
<glyph unicode="p" horiz-adv-x="980" d="M41 0v1475h764q53 0 94 -41t41 -93v-636q0 -51 -41 -91.5t-94 -40.5h-371v-573h-393zM434 842h150v366h-150v-366z" />
<glyph unicode="q" d="M41 133v1208q0 51 42 92.5t93 41.5h658q51 0 92 -41t41 -93v-1208q0 -53 -41 -93t-92 -40h-29l67 -203h-405l-70 203h-221q-51 0 -93 40t-42 93zM434 266h139v942h-139v-942z" />
<glyph unicode="r" horiz-adv-x="1079" d="M41 0v1475h764q53 0 93 -41t40 -93v-639q0 -41 -27.5 -74.5t-66.5 -49.5l194 -578h-405l-193 571h-8v-571h-391zM432 840h150v368h-150v-368z" />
<glyph unicode="s" horiz-adv-x="892" d="M41 266h371v379h-205q-51 0 -92 42t-41 93v561q0 51 41 92.5t92 41.5h584l61 -267h-387v-297h205q51 0 93 -40t42 -91v-647q0 -53 -42 -93t-93 -40h-566z" />
<glyph unicode="t" horiz-adv-x="954" d="M41 1208l65 267h744l63 -267h-239v-1208h-393v1208h-240z" />
<glyph unicode="u" d="M41 133v1342h391v-1209h141v1209h394v-1342q0 -53 -42 -93t-94 -40h-657q-51 0 -92 40t-41 93z" />
<glyph unicode="v" horiz-adv-x="1181" d="M41 1475h399l152 -639l149 639h400l-348 -1475h-404z" />
<glyph unicode="w" horiz-adv-x="1419" d="M41 135v1340h393v-1196h80v1196h391v-1196h82v1196h391v-1340q0 -47 -41 -94q-45 -41 -92 -41h-405q-43 0 -81 31.5t-48 72.5q-12 -41 -50 -72.5t-79 -31.5h-408q-51 0 -92 41q-41 47 -41 94z" />
<glyph unicode="x" d="M41 0v645q0 68 98 139q-98 82 -98 146v545h403v-564h119v564h404v-545q0 -59 -99 -146q98 -76 99 -139v-645h-404v645h-119v-645h-403z" />
<glyph unicode="y" horiz-adv-x="1232" d="M41 1475h397l158 -709l197 709h399l-399 -1475h-404l131 479h-149q-41 0 -81 33t-50 74z" />
<glyph unicode="z" horiz-adv-x="884" d="M41 0l330 1208h-291v267h764l-330 -1209h328v-266h-801z" />
<glyph unicode="{" horiz-adv-x="890" d="M41 623v211q35 0 68.5 11t60.5 32.5t43 51t16 64.5v586q0 31 13.5 58.5t35 49t49 35t58.5 13.5h465v-314h-160v-520l-198 -168l198 -180v-465h160v-313h-465q-31 0 -58.5 13t-49 34.5t-35 49.5t-13.5 58v531q0 35 -16 64.5t-43 51t-60.5 34t-68.5 12.5z" />
<glyph unicode="|" horiz-adv-x="73" />
<glyph unicode="}" horiz-adv-x="890" d="M41 88h160v465l198 180l-198 168v520h-160v314h465q31 0 58.5 -13.5t49 -35t35 -49t13.5 -58.5v-586q0 -35 16 -64.5t43 -51t60.5 -32.5t68.5 -11v-211q-35 0 -68.5 -12.5t-60.5 -34t-43 -51t-16 -64.5v-531q0 -31 -13.5 -58.5t-35 -49t-49 -34.5t-58.5 -13h-465v313z " />
<glyph unicode="~" horiz-adv-x="73" />
<glyph unicode="&#xa1;" horiz-adv-x="679" d="M41 -186l119 1185h362l117 -1185h-598zM111 1077v471h460v-471h-460z" />
<glyph unicode="&#xa2;" horiz-adv-x="923" d="M41 508v719q0 31 13.5 58.5t36 49t50 34.5t58.5 13h120v353h322v-353h168l74 -313h-398v-401h398l-74 -316h-168v-352h-322v352h-120q-31 0 -58.5 13.5t-50 35t-36 49t-13.5 58.5z" />
<glyph unicode="&#xa3;" horiz-adv-x="1003" d="M41 557v209h143l52 821q2 27 16 53.5t35.5 48t48 34t55.5 12.5h385l76 -314h-164l-41 -655h174v-209h-186l-14 -244h342l-74 -313h-832v313h101l14 244h-131z" />
<glyph unicode="&#xa4;" horiz-adv-x="1116" d="M41 633l80 207h74v55h-142l78 209h64v475q0 31 13 58.5t35.5 49t50.5 35t58 13.5h561l74 -314h-330v-317h418l-82 -209h-336v-55h316l-78 -207h-238v-320h330l-74 -313h-561q-31 0 -58.5 13.5t-50 35t-35.5 49t-13 58.5v477h-154z" />
<glyph unicode="&#xa5;" horiz-adv-x="1495" d="M41 633v207h219l-22 55h-197v209h170v631h461v-891l76 -72l75 72v891h463v-631h168v-209h-199q-6 -20 -22 -55h221v-207h-397l-78 -74v-559h-463v559l-78 74h-397z" />
<glyph unicode="&#xa6;" horiz-adv-x="36" />
<glyph unicode="&#xa7;" horiz-adv-x="3135" d="M41 53v269q0 49 36 85.5t87 36.5h422v-102h-422q-20 0 -21 -20v-23h443v-100h-443v-146h-102zM41 1473v210h334v-714h-213v504h-121zM334 510v268q0 51 36 86t87 35h422v-98h-422q-20 0 -21 -23v-20h443v-103h-443v-145h-102zM518 969v329q0 80 31 150t83 122t121.5 82.5 t149.5 30.5h594v-331q0 -80 -30.5 -149.5t-83 -122t-122 -82t-149.5 -29.5h-594zM643 53v180q0 43 16.5 81t45 67t67.5 45t82 16h330v-178q0 -43 -16.5 -82t-45 -67.5t-66.5 -45t-81 -16.5h-332zM729 1178h383q35 0 66.5 13t55 36.5t38 55.5t14.5 69v121h-383 q-72 0 -123 -51.5t-51 -123.5v-120zM745 156h230q45 0 76.5 30.5t31.5 77.5v78h-229q-45 0 -77 -31.5t-32 -77.5v-77zM973 510v389h571v-133q0 -59 -40 -104.5t-99 -51.5l94 -100h-137l-94 100h-146v103h269q23 0 38 15t15 38v33h-371v-289h-100zM1276 53v389h55 q72 0 140.5 -24.5t125.5 -67.5q78 -63 129 -151v245h101v-391h-150q-16 68 -49 120t-92 97q-35 27 -75 44.5t-85 23.5v-285h-100zM1630 635q0 41 23 70q-23 33 -23 73q0 51 35 86t88 35h420v-98h-420q-23 0 -22 -23q0 -20 22 -20h420v-103h-420q-23 0 -22 -20q0 -23 22 -23 h420v-102h-420q-53 0 -88 36t-35 89zM1640 969v329q0 80 30 150t82 122t123 82.5t150 30.5h594v-331q0 -80 -30.5 -149.5t-82.5 -122t-122 -82t-150 -29.5h-594zM1851 1178h383q72 0 123 51t51 123v121h-383q-72 0 -123 -51.5t-51 -123.5v-120zM1913 342v102h561v-102h-285 v-186h121v-103h-223v289h-174zM2259 635q0 41 25 70q-25 31 -25 73q0 51 36 86t87 35h420v-98h-420q-23 0 -23 -23q0 -20 23 -20h420v-103h-420q-23 0 -23 -20q0 -23 23 -23h420v-102h-420q-51 0 -87 36t-36 89zM2544 53v103h356q49 0 80 43h-436v49q0 41 15 76.5t42 62.5 t61.5 42t75.5 15h357v-102h-357q-51 0 -78 -43h435v-51q0 -41 -15.5 -76t-41 -61.5t-61.5 -42t-77 -15.5h-356zM2763 1473v210h332v-714h-209v504h-123z" />
<glyph unicode="&#xa8;" horiz-adv-x="645" d="M41 1657q0 51 39 88t90 37t89 -37t38 -88t-38 -89t-89 -38q-53 0 -91 37t-38 90zM350 1657q0 51 37 88t88 37q53 0 91 -36t38 -89t-38 -90t-91 -37q-51 0 -88 38t-37 89z" />
<glyph unicode="&#xa9;" horiz-adv-x="1824" d="M41 870q0 180 68.5 339t186.5 278t276.5 187.5t338.5 68.5t339 -68.5t278 -187.5t187.5 -277.5t68.5 -339.5q0 -180 -68.5 -338.5t-187.5 -276.5t-277.5 -186.5t-339.5 -68.5q-180 0 -338.5 68.5t-276.5 186.5t-186.5 276.5t-68.5 338.5zM152 870q0 -158 59 -296 t162.5 -241.5t242 -162.5t295.5 -59q158 0 296.5 59t241.5 162.5t163.5 242t60.5 295.5q0 158 -60.5 296.5t-163.5 241.5t-241.5 163.5t-296.5 60.5t-296 -60.5t-241.5 -163.5t-162.5 -241.5t-59 -296.5zM602 350v1030q0 43 35 78t80 35h483v-227h-262v-801h262v-227h-483 q-45 0 -80 34.5t-35 77.5z" />
<glyph unicode="&#xaa;" horiz-adv-x="729" d="M41 866l168 711h-78l35 158h317l205 -869h-235l-13 62l-2 2h-147q0 -6 -15 -64h-235zM328 1085h73l-36 158z" />
<glyph unicode="&#xab;" horiz-adv-x="851" d="M41 868l233 371h250l-237 -371l237 -372h-250zM328 868l233 371h250l-238 -371l238 -372h-250z" />
<glyph unicode="&#xac;" horiz-adv-x="1406" d="M41 629v473h1325v-756h-473v283h-852z" />
<glyph unicode="&#xad;" horiz-adv-x="669" d="M41 629v473h588v-473h-588z" />
<glyph unicode="&#xae;" horiz-adv-x="999" d="M41 1276q0 94 36 178t98.5 146.5t145 98.5t179.5 36q94 0 178 -36t146.5 -98.5t98 -146.5t35.5 -178q0 -96 -35.5 -179t-98 -145.5t-146.5 -98.5t-178 -36q-96 0 -179 36t-145.5 98.5t-98.5 145.5t-36 179zM119 1276q0 -80 29.5 -148.5t82 -121t121 -82t148.5 -29.5 t148.5 29.5t120.5 82t82 121t30 148.5t-30 148.5t-82 120.5t-120.5 82t-148.5 30t-148.5 -30t-121 -82t-82 -120.5t-29.5 -148.5zM324 1001v560h290q18 0 34 -14.5t16 -35.5v-243q0 -16 -10.5 -28.5t-24.5 -18.5l73 -220h-153l-78 218v-218h-147zM471 1321h57v139h-57v-139z " />
<glyph unicode="&#xb0;" horiz-adv-x="626" d="M41 1233v426q0 29 24.5 53.5t53.5 24.5h387q29 0 54.5 -24.5t25.5 -53.5v-426q0 -29 -25.5 -53.5t-54.5 -24.5h-387q-29 0 -53.5 24.5t-24.5 53.5zM270 1313h84v266h-84v-266z" />
<glyph unicode="&#xb1;" horiz-adv-x="1406" d="M41 0v473h426v156h-426v473h426v426h473v-426h426v-473h-426v-156h426v-473h-1325z" />
<glyph unicode="&#xb2;" horiz-adv-x="487" d="M41 956l174 639h-147l32 142h275q29 0 50 -21.5t21 -50.5q0 -6 -1 -10t-1 -8l-151 -549h153l-32 -142h-373z" />
<glyph unicode="&#xb3;" horiz-adv-x="477" d="M41 1092h207v200h-160v142h160v155h-207l33 142h293q27 0 48 -21.5t21 -48.5v-219q0 -33 -51 -76q51 -37 51 -74v-272q0 -27 -21.5 -48.5t-47.5 -21.5h-293z" />
<glyph unicode="&#xb4;" horiz-adv-x="815" d="M41 1724l651 281l82 -190l-647 -285z" />
<glyph unicode="&#xb6;" horiz-adv-x="1353" d="M41 156v1423q0 31 13.5 58.5t36 49t50 35t58.5 13.5h1114v-1960h-279v1673h-121v-1673h-278v225h-436q-31 0 -58.5 13.5t-50 35t-36 49t-13.5 58.5z" />
<glyph unicode="&#xb7;" horiz-adv-x="544" d="M41 631v473h463v-473h-463z" />
<glyph unicode="&#xb8;" horiz-adv-x="598" d="M41 -334h309v55h-219v420h209v-209h115q39 0 70.5 -32.5t31.5 -71.5v-266q0 -41 -31.5 -74t-70.5 -33h-414v211z" />
<glyph unicode="&#xb9;" horiz-adv-x="362" d="M41 1595l35 142h246v-781h-209v639h-72z" />
<glyph unicode="&#xba;" horiz-adv-x="626" d="M41 946v713q0 29 24.5 53.5t53.5 24.5h387q29 0 54.5 -24.5t25.5 -53.5v-713q0 -29 -25.5 -53.5t-54.5 -24.5h-387q-29 0 -53.5 25t-24.5 53zM270 1026h84v553h-84v-553z" />
<glyph unicode="&#xbb;" horiz-adv-x="851" d="M41 496l238 372l-238 371h250l233 -371l-233 -372h-250zM328 496l237 372l-237 371h250l233 -371l-233 -372h-250z" />
<glyph unicode="&#xbc;" horiz-adv-x="1576" d="M41 1536l47 199h342v-1094h-291v895h-98zM264 0l764 1735h297l-764 -1735h-297zM834 256l376 838h271v-639h55v-199h-55v-256h-269v256h-378zM1139 455h73v163z" />
<glyph unicode="&#xbd;" horiz-adv-x="1708" d="M41 1536l47 199h342v-1094h-291v895h-98zM264 0l764 1735h297l-764 -1735h-297zM1100 0l243 895h-208l47 199h385q41 0 69.5 -31t28.5 -72q0 -8 -1 -13t-1 -11l-211 -770h215l-47 -197h-520z" />
<glyph unicode="&#xbe;" horiz-adv-x="1710" d="M41 838h289v282h-224v197h224v219h-289l45 199h410q39 0 68.5 -31t29.5 -68v-307q0 -47 -72 -106q72 -51 72 -103v-381q0 -39 -29.5 -68.5t-68.5 -29.5h-410zM397 0l764 1735h297l-764 -1735h-297zM967 256l376 838h271v-639h55v-199h-55v-256h-268v256h-379zM1272 455 h74v163z" />
<glyph unicode="&#xbf;" horiz-adv-x="942" d="M41 -31v467q0 53 59 103l201 166v278h459v-248q0 -57 -55 -102l-201 -166v-340h397v-313h-700q-59 0 -111 49q-49 49 -49 106zM305 1077v471h463v-471h-463z" />
<glyph unicode="&#xc0;" horiz-adv-x="1374" d="M41 0l334 1421h-156l72 314h633l409 -1735h-469l-26 121l-4 4h-295q0 2 -29 -125h-469zM320 2075l82 190l651 -281l-86 -194zM612 438h150l-76 314z" />
<glyph unicode="&#xc1;" horiz-adv-x="1374" d="M41 0l334 1421h-156l72 314h633l409 -1735h-469l-26 121l-4 4h-295q0 2 -29 -125h-469zM320 1984l651 281l82 -190l-647 -285zM612 438h150l-76 314z" />
<glyph unicode="&#xc2;" horiz-adv-x="1374" d="M41 0l334 1421h-156l72 314h633l409 -1735h-469l-26 121l-4 4h-295q0 2 -29 -125h-469zM285 1952l401 338l404 -338l-133 -162l-271 225l-266 -225zM612 438h150l-76 314z" />
<glyph unicode="&#xc3;" horiz-adv-x="1374" d="M41 0l334 1421h-156l72 314h633l409 -1735h-469l-26 121l-4 4h-295q0 2 -29 -125h-469zM266 1847l84 242q20 68 113 67q8 0 395 -120l49 145l199 -68l-82 -241q-10 -29 -41 -49.5t-62 -20.5q-10 0 -26 4l-379 119l-51 -145zM612 438h150l-76 314z" />
<glyph unicode="&#xc4;" horiz-adv-x="1374" d="M41 0l334 1421h-156l72 314h633l409 -1735h-469l-26 121l-4 4h-295q0 2 -29 -125h-469zM406 1917q0 51 39 88t90 37t89 -37t38 -88t-38 -89t-89 -38q-53 0 -91 37t-38 90zM612 438h150l-76 314zM715 1917q0 51 37 88t88 37q53 0 91 -36t38 -89t-38 -90t-91 -37 q-51 0 -88 38t-37 89z" />
<glyph unicode="&#xc5;" horiz-adv-x="1374" d="M41 0l334 1421h-156l72 314h633l409 -1735h-469l-26 121l-4 4h-295q0 2 -29 -125h-469zM399 2081q0 57 22.5 109t61.5 91t91 61.5t112 22.5q59 0 111.5 -22.5t92 -61.5t62 -91t22.5 -109q0 -59 -22.5 -111.5t-62 -92.5t-92 -63.5t-111.5 -23.5t-111.5 23.5t-91.5 63.5 t-61.5 92t-22.5 112zM608 2081q0 -33 22.5 -57.5t55.5 -24.5t56.5 24.5t23.5 57.5q0 31 -25 54t-55 23q-31 0 -54.5 -23.5t-23.5 -53.5zM612 438h150l-76 314z" />
<glyph unicode="&#xc6;" horiz-adv-x="1564" d="M41 760v313h127v506q0 31 13.5 58.5t35 49t49 35t58.5 13.5h1112l73 -314h-260v-348h275v-313h-275v-447h260l-73 -313h-490q-31 0 -58.5 13.5t-50 35t-36 49t-13.5 58.5v604h-161v-760h-459v760h-127zM627 1073h161v348h-161v-348z" />
<glyph unicode="&#xc7;" horiz-adv-x="907" d="M41 156v1423q0 31 13.5 58.5t35 49t49 35t58.5 13.5h669v-314h-364v-1108h364v-313h-669q-31 0 -58.5 13.5t-49 35t-35 49t-13.5 58.5zM272 -334h309v55h-219v420h209v-209h115q39 0 70.5 -32.5t31.5 -71.5v-266q0 -41 -31.5 -74t-70.5 -33h-414v211z" />
<glyph unicode="&#xc8;" horiz-adv-x="829" d="M41 0v1735h672l75 -314h-284v-348h274v-313h-274v-447h284l-75 -313h-672zM47 2075l82 190l651 -281l-86 -194z" />
<glyph unicode="&#xc9;" horiz-adv-x="829" d="M41 0v1735h672l75 -314h-284v-348h274v-313h-274v-447h284l-75 -313h-672zM47 1984l651 281l82 -190l-647 -285z" />
<glyph unicode="&#xca;" horiz-adv-x="829" d="M14 1952l401 338l404 -338l-133 -162l-271 225l-266 -225zM41 0v1735h672l75 -314h-284v-348h274v-313h-274v-447h284l-75 -313h-672z" />
<glyph unicode="&#xcb;" horiz-adv-x="829" d="M41 0v1735h672l75 -314h-284v-348h274v-313h-274v-447h284l-75 -313h-672zM133 1917q0 51 39 88t90 37t89 -37t38 -88t-38 -89t-89 -38q-53 0 -91 37t-38 90zM442 1917q0 51 37 88t88 37q53 0 91 -36t38 -89t-38 -90t-91 -37q-51 0 -88 38t-37 89z" />
<glyph unicode="&#xcc;" horiz-adv-x="544" d="M-92 2075l82 190l651 -281l-86 -194zM41 0v1735h463v-1735h-463z" />
<glyph unicode="&#xcd;" horiz-adv-x="544" d="M-92 1984l651 281l82 -190l-647 -285zM41 0v1735h463v-1735h-463z" />
<glyph unicode="&#xce;" horiz-adv-x="544" d="M-127 1952l401 338l404 -338l-133 -162l-271 225l-266 -225zM41 0v1735h463v-1735h-463z" />
<glyph unicode="&#xcf;" horiz-adv-x="544" d="M-6 1917q0 51 39 88t90 37t89 -37t38 -88t-38 -89t-89 -38q-53 0 -91 37t-38 90zM41 0v1735h463v-1735h-463zM303 1917q0 51 37 88t88 37q53 0 91 -36t38 -89t-38 -90t-91 -37q-51 0 -88 38t-37 89z" />
<glyph unicode="&#xd0;" horiz-adv-x="1269" d="M41 760v313h100v662h932q31 0 58.5 -13.5t49 -35t35 -49t13.5 -58.5v-1423q0 -31 -13.5 -58.5t-35 -49t-49 -35t-58.5 -13.5h-932v760h-100zM604 313h164v1108h-164v-348h80v-313h-80v-447z" />
<glyph unicode="&#xd1;" horiz-adv-x="1171" d="M41 0v1735h461v-115q16 47 59 81t92 34h320q31 0 58.5 -13.5t50 -35t35.5 -49t13 -58.5v-1579h-462v1409h-166v-1409h-461zM166 1847l84 242q20 68 113 67q8 0 395 -120l49 145l199 -68l-82 -241q-10 -29 -41 -49.5t-62 -20.5q-10 0 -26 4l-379 119l-51 -145z" />
<glyph unicode="&#xd2;" horiz-adv-x="1169" d="M41 156v1423q0 31 13.5 58.5t35 49t49 35t58.5 13.5h774q31 0 58.5 -13.5t50 -35t35.5 -49t13 -58.5v-1423q0 -31 -13 -58.5t-35.5 -49t-50.5 -35t-58 -13.5h-774q-31 0 -58.5 13.5t-49 35t-35 49t-13.5 58.5zM217 2075l82 190l651 -281l-86 -194zM500 313h166v1108h-166 v-1108z" />
<glyph unicode="&#xd3;" horiz-adv-x="1169" d="M41 156v1423q0 31 13.5 58.5t35 49t49 35t58.5 13.5h774q31 0 58.5 -13.5t50 -35t35.5 -49t13 -58.5v-1423q0 -31 -13 -58.5t-35.5 -49t-50.5 -35t-58 -13.5h-774q-31 0 -58.5 13.5t-49 35t-35 49t-13.5 58.5zM217 1984l651 281l82 -190l-647 -285zM500 313h166v1108 h-166v-1108z" />
<glyph unicode="&#xd4;" horiz-adv-x="1169" d="M41 156v1423q0 31 13.5 58.5t35 49t49 35t58.5 13.5h774q31 0 58.5 -13.5t50 -35t35.5 -49t13 -58.5v-1423q0 -31 -13 -58.5t-35.5 -49t-50.5 -35t-58 -13.5h-774q-31 0 -58.5 13.5t-49 35t-35 49t-13.5 58.5zM182 1952l401 338l404 -338l-133 -162l-271 225l-266 -225z M500 313h166v1108h-166v-1108z" />
<glyph unicode="&#xd5;" horiz-adv-x="1169" d="M41 156v1423q0 31 13.5 58.5t35 49t49 35t58.5 13.5h774q31 0 58.5 -13.5t50 -35t35.5 -49t13 -58.5v-1423q0 -31 -13 -58.5t-35.5 -49t-50.5 -35t-58 -13.5h-774q-31 0 -58.5 13.5t-49 35t-35 49t-13.5 58.5zM164 1847l84 242q20 68 113 67q8 0 395 -120l49 145l199 -68 l-82 -241q-10 -29 -41 -49.5t-62 -20.5q-10 0 -26 4l-379 119l-51 -145zM500 313h166v1108h-166v-1108z" />
<glyph unicode="&#xd6;" horiz-adv-x="1169" d="M41 156v1423q0 31 13.5 58.5t35 49t49 35t58.5 13.5h774q31 0 58.5 -13.5t50 -35t35.5 -49t13 -58.5v-1423q0 -31 -13 -58.5t-35.5 -49t-50.5 -35t-58 -13.5h-774q-31 0 -58.5 13.5t-49 35t-35 49t-13.5 58.5zM303 1917q0 51 39 88t90 37t89 -37t38 -88t-38 -89t-89 -38 q-53 0 -91 37t-38 90zM500 313h166v1108h-166v-1108zM612 1917q0 51 37 88t88 37q53 0 91 -36t38 -89t-38 -90t-91 -37q-51 0 -88 38t-37 89z" />
<glyph unicode="&#xd7;" horiz-adv-x="1353" d="M41 563l301 301l-301 303l334 334l301 -301l303 301l334 -334l-301 -303l301 -301l-334 -334l-301 301l-303 -301z" />
<glyph unicode="&#xd8;" horiz-adv-x="1169" d="M41 156v1423q0 31 13.5 58.5t36 49t50 35t58.5 13.5h919l-28 -62q39 -47 38 -94v-1423q0 -31 -13 -58.5t-34.5 -49t-49 -35t-58.5 -13.5h-920l25 59q-37 45 -37 97zM502 1077l143 344h-143v-344zM522 313h146v342z" />
<glyph unicode="&#xd9;" horiz-adv-x="1169" d="M41 156v1579h459v-1422h166v1422h462v-1579q0 -31 -13 -58.5t-35.5 -49t-50.5 -35t-58 -13.5h-774q-31 0 -58.5 13.5t-49 35t-35 49t-13.5 58.5zM217 2075l82 190l651 -281l-86 -194z" />
<glyph unicode="&#xda;" horiz-adv-x="1169" d="M41 156v1579h459v-1422h166v1422h462v-1579q0 -31 -13 -58.5t-35.5 -49t-50.5 -35t-58 -13.5h-774q-31 0 -58.5 13.5t-49 35t-35 49t-13.5 58.5zM217 1984l651 281l82 -190l-647 -285z" />
<glyph unicode="&#xdb;" horiz-adv-x="1169" d="M41 156v1579h459v-1422h166v1422h462v-1579q0 -31 -13 -58.5t-35.5 -49t-50.5 -35t-58 -13.5h-774q-31 0 -58.5 13.5t-49 35t-35 49t-13.5 58.5zM182 1952l401 338l404 -338l-133 -162l-271 225l-266 -225z" />
<glyph unicode="&#xdc;" horiz-adv-x="1169" d="M41 156v1579h459v-1422h166v1422h462v-1579q0 -31 -13 -58.5t-35.5 -49t-50.5 -35t-58 -13.5h-774q-31 0 -58.5 13.5t-49 35t-35 49t-13.5 58.5zM303 1917q0 51 39 88t90 37t89 -37t38 -88t-38 -89t-89 -38q-53 0 -91 37t-38 90zM612 1917q0 51 37 88t88 37q53 0 91 -36 t38 -89t-38 -90t-91 -37q-51 0 -88 38t-37 89z" />
<glyph unicode="&#xdd;" horiz-adv-x="1435" d="M41 1735h467l186 -834l230 834h471l-471 -1735h-473l153 563h-176q-25 0 -49.5 10.5t-46 27.5t-36.5 40t-22 47zM350 1984l651 281l82 -190l-647 -285z" />
<glyph unicode="&#xde;" horiz-adv-x="1138" d="M41 0v1735h463v-336h436q31 0 58.5 -13.5t50 -35t36 -49t13.5 -58.5v-749q0 -31 -13.5 -58.5t-36 -49t-50 -35t-58.5 -13.5h-436v-338h-463zM504 651h174v432h-174v-432z" />
<glyph unicode="&#xdf;" horiz-adv-x="1288" d="M41 643v268h149v430q0 51 42 92.5t94 41.5h714q51 0 92.5 -41t41.5 -93v-284q0 -33 -37 -72l-248 -266v-76h227q51 0 91 -41t40 -92v-377q0 -53 -40 -93t-91 -40h-463v266h203v111h-98q-53 0 -94 41q-43 43 -43 92v268q0 43 36 84l125 131v215h-198v-1208h-394v643h-149z " />
<glyph unicode="&#xe0;" horiz-adv-x="1181" d="M41 0l285 1208h-133l61 267h539l348 -1475h-400l-22 102l-4 4h-250q0 -2 -25 -106h-399zM223 1815l82 190l651 -281l-86 -194zM526 373h127l-63 266z" />
<glyph unicode="&#xe1;" horiz-adv-x="1181" d="M41 0l285 1208h-133l61 267h539l348 -1475h-400l-22 102l-4 4h-250q0 -2 -25 -106h-399zM223 1724l651 281l82 -190l-647 -285zM526 373h127l-63 266z" />
<glyph unicode="&#xe2;" horiz-adv-x="1181" d="M41 0l285 1208h-133l61 267h539l348 -1475h-400l-22 102l-4 4h-250q0 -2 -25 -106h-399zM188 1692l401 338l404 -338l-133 -162l-271 225l-266 -225zM526 373h127l-63 266z" />
<glyph unicode="&#xe3;" horiz-adv-x="1181" d="M41 0l285 1208h-133l61 267h539l348 -1475h-400l-22 102l-4 4h-250q0 -2 -25 -106h-399zM170 1587l84 242q20 68 113 67q8 0 395 -120l49 145l199 -68l-82 -241q-10 -29 -41 -49.5t-62 -20.5q-10 0 -26 4l-379 119l-51 -145zM526 373h127l-63 266z" />
<glyph unicode="&#xe4;" horiz-adv-x="1181" d="M41 0l285 1208h-133l61 267h539l348 -1475h-400l-22 102l-4 4h-250q0 -2 -25 -106h-399zM309 1657q0 51 39 88t90 37t89 -37t38 -88t-38 -89t-89 -38q-53 0 -91 37t-38 90zM526 373h127l-63 266zM618 1657q0 51 37 88t88 37q53 0 91 -36t38 -89t-38 -90t-91 -37 q-51 0 -88 38t-37 89z" />
<glyph unicode="&#xe5;" horiz-adv-x="1181" d="M41 0l285 1208h-133l61 267h539l348 -1475h-400l-22 102l-4 4h-250q0 -2 -25 -106h-399zM303 1821q0 57 22.5 109t61.5 91t91 61.5t112 22.5q59 0 111.5 -22.5t92 -61.5t62 -91t22.5 -109q0 -59 -22.5 -111.5t-62 -92.5t-92 -63.5t-111.5 -23.5t-111.5 23.5t-91.5 63.5 t-61.5 92t-22.5 112zM512 1821q0 -33 22.5 -57.5t55.5 -24.5t56.5 24.5t23.5 57.5q0 31 -25 54t-55 23q-31 0 -54.5 -23.5t-23.5 -53.5zM526 373h127l-63 266z" />
<glyph unicode="&#xe6;" horiz-adv-x="1343" d="M41 645v266h109v430q0 51 39.5 92.5t93.5 41.5h944l63 -267h-221v-297h234v-266h-234v-379h221l-63 -266h-416q-51 0 -92 40t-41 93v512h-139v-645h-389v645h-109zM539 911h139v297h-139v-297z" />
<glyph unicode="&#xe7;" horiz-adv-x="784" d="M41 133v1208q0 51 41 92.5t92 41.5h569v-267h-309v-942h309v-266h-569q-51 0 -92 40t-41 93zM195 -334h309v55h-219v420h209v-209h115q39 0 70.5 -32.5t31.5 -71.5v-266q0 -41 -31.5 -74t-70.5 -33h-414v211z" />
<glyph unicode="&#xe8;" horiz-adv-x="718" d="M-4 1815l82 190l651 -281l-86 -194zM41 0v1475h571l66 -267h-244v-297h234v-266h-234v-379h244l-66 -266h-571z" />
<glyph unicode="&#xe9;" horiz-adv-x="718" d="M-4 1724l651 281l82 -190l-647 -285zM41 0v1475h571l66 -267h-244v-297h234v-266h-234v-379h244l-66 -266h-571z" />
<glyph unicode="&#xea;" horiz-adv-x="718" d="M-41 1692l401 338l404 -338l-133 -162l-271 225l-266 -225zM41 0v1475h571l66 -267h-244v-297h234v-266h-234v-379h244l-66 -266h-571z" />
<glyph unicode="&#xeb;" horiz-adv-x="718" d="M41 0v1475h571l66 -267h-244v-297h234v-266h-234v-379h244l-66 -266h-571zM78 1657q0 51 39 88t90 37t89 -37t38 -88t-38 -89t-89 -38q-53 0 -91 37t-38 90zM387 1657q0 51 37 88t88 37q53 0 91 -36t38 -89t-38 -90t-91 -37q-51 0 -88 38t-37 89z" />
<glyph unicode="&#xec;" horiz-adv-x="475" d="M-127 1815l82 190l651 -281l-86 -194zM41 0v1475h393v-1475h-393z" />
<glyph unicode="&#xed;" horiz-adv-x="475" d="M-127 1724l651 281l82 -190l-647 -285zM41 0v1475h393v-1475h-393z" />
<glyph unicode="&#xee;" horiz-adv-x="475" d="M-162 1692l401 338l404 -338l-133 -162l-271 225l-266 -225zM41 0v1475h393v-1475h-393z" />
<glyph unicode="&#xef;" horiz-adv-x="475" d="M-41 1657q0 51 39 88t90 37t89 -37t38 -88t-38 -89t-89 -38q-53 0 -91 37t-38 90zM41 0v1475h393v-1475h-393zM268 1657q0 51 37 88t88 37q53 0 91 -36t38 -89t-38 -90t-91 -37q-51 0 -88 38t-37 89z" />
<glyph unicode="&#xf0;" horiz-adv-x="1091" d="M41 645v266h86v564h793q51 0 91 -41t40 -93v-1208q0 -53 -40 -93t-91 -40h-793v645h-86zM520 266h139v942h-139v-297h68v-266h-68v-379z" />
<glyph unicode="&#xf1;" d="M41 0v1475h393v-99q14 41 50 70t77 29h273q51 0 92 -41t41 -93v-1341h-394v1198h-139v-1198h-393zM84 1587l84 242q20 68 113 67q8 0 395 -120l49 145l199 -68l-82 -241q-10 -29 -41 -49.5t-62 -20.5q-10 0 -26 4l-379 119l-51 -145z" />
<glyph unicode="&#xf2;" d="M41 133v1208q0 51 41 92.5t92 41.5h657q51 0 93.5 -41t42.5 -93v-1208q0 -53 -42 -93t-94 -40h-657q-51 0 -92 40t-41 93zM137 1815l82 190l651 -281l-86 -194zM432 266h141v942h-141v-942z" />
<glyph unicode="&#xf3;" d="M41 133v1208q0 51 41 92.5t92 41.5h657q51 0 93.5 -41t42.5 -93v-1208q0 -53 -42 -93t-94 -40h-657q-51 0 -92 40t-41 93zM137 1724l651 281l82 -190l-647 -285zM432 266h141v942h-141v-942z" />
<glyph unicode="&#xf4;" d="M41 133v1208q0 51 41 92.5t92 41.5h657q51 0 93.5 -41t42.5 -93v-1208q0 -53 -42 -93t-94 -40h-657q-51 0 -92 40t-41 93zM100 1692l401 338l404 -338l-133 -162l-271 225l-266 -225zM432 266h141v942h-141v-942z" />
<glyph unicode="&#xf5;" d="M41 133v1208q0 51 41 92.5t92 41.5h657q51 0 93.5 -41t42.5 -93v-1208q0 -53 -42 -93t-94 -40h-657q-51 0 -92 40t-41 93zM84 1587l84 242q20 68 113 67q8 0 395 -120l49 145l199 -68l-82 -241q-10 -29 -41 -49.5t-62 -20.5q-10 0 -26 4l-379 119l-51 -145zM432 266h141 v942h-141v-942z" />
<glyph unicode="&#xf6;" d="M41 133v1208q0 51 41 92.5t92 41.5h657q51 0 93.5 -41t42.5 -93v-1208q0 -53 -42 -93t-94 -40h-657q-51 0 -92 40t-41 93zM221 1657q0 51 39 88t90 37t89 -37t38 -88t-38 -89t-89 -38q-53 0 -91 37t-38 90zM432 266h141v942h-141v-942zM530 1657q0 51 37 88t88 37 q53 0 91 -36t38 -89t-38 -90t-91 -37q-51 0 -88 38t-37 89z" />
<glyph unicode="&#xf7;" horiz-adv-x="1406" d="M41 629v473h1325v-473h-1325z" />
<glyph unicode="&#xf8;" d="M41 133v1208q0 51 42 92.5t93 41.5h780l-24 -54q35 -37 35 -80v-1208q0 -53 -41 -93t-92 -40h-783l23 51q-33 35 -33 82zM434 915l121 293h-121v-293zM451 266h122v291z" />
<glyph unicode="&#xf9;" d="M41 133v1342h391v-1209h141v1209h394v-1342q0 -53 -42 -93t-94 -40h-657q-51 0 -92 40t-41 93zM137 1815l82 190l651 -281l-86 -194z" />
<glyph unicode="&#xfa;" d="M41 133v1342h391v-1209h141v1209h394v-1342q0 -53 -42 -93t-94 -40h-657q-51 0 -92 40t-41 93zM137 1724l651 281l82 -190l-647 -285z" />
<glyph unicode="&#xfb;" d="M41 133v1342h391v-1209h141v1209h394v-1342q0 -53 -42 -93t-94 -40h-657q-51 0 -92 40t-41 93zM100 1692l401 338l404 -338l-133 -162l-271 225l-266 -225z" />
<glyph unicode="&#xfc;" d="M41 133v1342h391v-1209h141v1209h394v-1342q0 -53 -42 -93t-94 -40h-657q-51 0 -92 40t-41 93zM221 1657q0 51 39 88t90 37t89 -37t38 -88t-38 -89t-89 -38q-53 0 -91 37t-38 90zM530 1657q0 51 37 88t88 37q53 0 91 -36t38 -89t-38 -90t-91 -37q-51 0 -88 38t-37 89z " />
<glyph unicode="&#xfd;" horiz-adv-x="1232" d="M41 1475h397l158 -709l197 709h399l-399 -1475h-404l131 479h-149q-41 0 -81 33t-50 74zM250 1724l651 281l82 -190l-647 -285z" />
<glyph unicode="&#xfe;" horiz-adv-x="980" d="M41 0v1475h393v-285h371q53 0 94 -41t41 -92v-637q0 -51 -41 -92t-94 -41h-371v-287h-393zM434 553h150v369h-150v-369z" />
<glyph unicode="&#xff;" horiz-adv-x="1232" d="M41 1475h397l158 -709l197 709h399l-399 -1475h-404l131 479h-149q-41 0 -81 33t-50 74zM334 1657q0 51 39 88t90 37t89 -37t38 -88t-38 -89t-89 -38q-53 0 -91 37t-38 90zM643 1657q0 51 37 88t88 37q53 0 91 -36t38 -89t-38 -90t-91 -37q-51 0 -88 38t-37 89z" />
<glyph unicode="&#x152;" horiz-adv-x="1454" d="M41 156v1423q0 59 49 107q51 49 111 49h1140l72 -314h-283v-348h275v-313h-275v-447h283l-72 -313h-1140q-57 0 -111 47q-49 49 -49 109zM504 313h166v1108h-166v-1108z" />
<glyph unicode="&#x153;" horiz-adv-x="1249" d="M41 133v1208q0 51 43 93q45 41 94 41h969l61 -267h-241v-297h233v-266h-233v-379h241l-61 -266h-969q-49 0 -94 41q-43 39 -43 92zM434 266h141v942h-141v-942z" />
<glyph unicode="&#x178;" horiz-adv-x="1435" d="M41 1735h467l186 -834l230 834h471l-471 -1735h-473l153 563h-176q-25 0 -49.5 10.5t-46 27.5t-36.5 40t-22 47zM436 1917q0 51 39 88t90 37t89 -37t38 -88t-38 -89t-89 -38q-53 0 -91 37t-38 90zM745 1917q0 51 37 88t88 37q53 0 91 -36t38 -89t-38 -90t-91 -37 q-51 0 -88 38t-37 89z" />
<glyph unicode="&#x2c6;" horiz-adv-x="886" d="M41 1692l401 338l404 -338l-133 -162l-271 225l-266 -225z" />
<glyph unicode="&#x2dc;" horiz-adv-x="921" d="M41 1587l84 242q20 68 113 67q8 0 395 -120l49 145l199 -68l-82 -241q-10 -29 -41 -49.5t-62 -20.5q-10 0 -26 4l-379 119l-51 -145z" />
<glyph unicode="&#x2000;" horiz-adv-x="1182" />
<glyph unicode="&#x2001;" horiz-adv-x="2365" />
<glyph unicode="&#x2002;" horiz-adv-x="1182" />
<glyph unicode="&#x2003;" horiz-adv-x="2365" />
<glyph unicode="&#x2004;" horiz-adv-x="788" />
<glyph unicode="&#x2005;" horiz-adv-x="591" />
<glyph unicode="&#x2006;" horiz-adv-x="394" />
<glyph unicode="&#x2007;" horiz-adv-x="394" />
<glyph unicode="&#x2008;" horiz-adv-x="295" />
<glyph unicode="&#x2009;" horiz-adv-x="473" />
<glyph unicode="&#x200a;" horiz-adv-x="131" />
<glyph unicode="&#x2010;" horiz-adv-x="669" d="M41 629v473h588v-473h-588z" />
<glyph unicode="&#x2011;" horiz-adv-x="669" d="M41 629v473h588v-473h-588z" />
<glyph unicode="&#x2012;" horiz-adv-x="669" d="M41 629v473h588v-473h-588z" />
<glyph unicode="&#x2013;" horiz-adv-x="1038" d="M41 629v473h956v-473h-956z" />
<glyph unicode="&#x2014;" horiz-adv-x="2062" d="M41 629v473h1980v-473h-1980z" />
<glyph unicode="&#x2018;" horiz-adv-x="559" d="M41 1112l178 621h299v-621h-477z" />
<glyph unicode="&#x2019;" horiz-adv-x="559" d="M41 1114v621h477l-178 -621h-299z" />
<glyph unicode="&#x201a;" horiz-adv-x="559" d="M41 -152v621h477l-178 -621h-299z" />
<glyph unicode="&#x201c;" horiz-adv-x="989" d="M41 1112l178 621h299v-457l131 457h299v-621h-907z" />
<glyph unicode="&#x201d;" horiz-adv-x="989" d="M41 1114v621h907l-178 -621h-299v457l-131 -457h-299z" />
<glyph unicode="&#x201e;" horiz-adv-x="989" d="M41 -152v621h907l-178 -621h-299v457l-131 -457h-299z" />
<glyph unicode="&#x2022;" horiz-adv-x="843" d="M41 891q0 158 111 268q113 113 270 113q158 0 268 -113q113 -110 113 -268t-113 -270q-111 -111 -268 -111q-158 0 -270 111q-111 113 -111 270z" />
<glyph unicode="&#x2026;" horiz-adv-x="1527" d="M41 0v473h422v-473h-422zM553 0v473h422v-473h-422zM1065 0v473h422v-473h-422z" />
<glyph unicode="&#x202f;" horiz-adv-x="473" />
<glyph unicode="&#x2039;" horiz-adv-x="565" d="M41 868l233 371h250l-237 -371l237 -372h-250z" />
<glyph unicode="&#x203a;" horiz-adv-x="565" d="M41 496l238 372l-238 371h250l233 -371l-233 -372h-250z" />
<glyph unicode="&#x205f;" horiz-adv-x="591" />
<glyph unicode="&#x20ac;" horiz-adv-x="1116" d="M41 633l80 207h74v55h-142l78 209h64v475q0 31 13 58.5t35.5 49t50.5 35t58 13.5h561l74 -314h-330v-317h418l-82 -209h-336v-55h316l-78 -207h-238v-320h330l-74 -313h-561q-31 0 -58.5 13.5t-50 35t-35.5 49t-13 58.5v477h-154z" />
<glyph unicode="&#x2122;" horiz-adv-x="1140" d="M41 1608l31 123h346l28 -123h-110v-564h-184v564h-111zM477 1044v687h182v-45q8 20 24.5 32.5t35.5 12.5h98q20 0 37.5 -14.5t24.5 -33.5q4 18 21.5 33t37.5 15h98q25 0 44.5 -18.5t19.5 -43.5v-625h-182v560h-37v-560h-185v560h-37v-560h-182z" />
<glyph unicode="&#xe000;" horiz-adv-x="1474" d="M0 0v1475h1475v-1475h-1475z" />
</font>
</defs>
</svg>
