<svg xmlns="http://www.w3.org/2000/svg" width="19.062" height="21.062"><defs><clipPath id="a"><path d="M0 1224h792v-1224h-792v1224z"/></clipPath></defs><path d="M7.86 8.198s4.043-.005 8.901-.005c1.27 0 2.301 1.027 2.301 2.303 0 1.274-1.031 2.305-2.301 2.305-4.069 0-8.89.003-8.89.003s.77.779 4.32 4.33c.897.899.897 2.354 0 3.255-.901.899-2.36.899-3.257 0-2.876-2.879-8.261-8.259-8.261-8.259-.896-.904-.896-2.359 0-3.257 0 0 4.647-4.649 8.195-8.196.897-.9 2.357-.9 3.252 0 .905.899.905 2.356 0 3.257l-4.26 4.265" fill="#373535" clip-path="url(#a)"/></svg>