<svg xmlns="http://www.w3.org/2000/svg" width="23" height="26"><path fill="#D7DF23" d="M9.413 10.434s4.716-.006 10.379-.006c1.481 0 2.686 1.199 2.686 2.686 0 1.484-1.204 2.686-2.686 2.686-4.744 0-10.366.005-10.366.005s.898.906 5.04 5.049c1.044 1.047 1.044 2.746 0 3.797-1.052 1.048-2.753 1.048-3.801 0-3.354-3.357-9.635-9.633-9.635-9.633-1.044-1.052-1.044-2.749 0-3.799 0 0 5.42-5.419 9.557-9.557 1.049-1.049 2.751-1.049 3.796 0 1.052 1.049 1.052 2.751 0 3.799-3.354 3.352-4.97 4.973-4.97 4.973z"/></svg>