<svg xmlns="http://www.w3.org/2000/svg" width="200" height="200" viewBox="-231 272 200 200" enable-background="new -231 272 200 200"><rect x="-231" y="272" stroke="#000" stroke-width="1.355" stroke-miterlimit="10" width="200" height="200"/><g fill="#fff"><path d="M-208.265 319.48c.833-3.288 1.776-6.149 2.824-8.58 1.048-2.432 2.172-4.339 3.371-5.723 1.198-1.382 2.396-2.076 3.596-2.076 1.22 0 2.435.694 3.643 2.076 1.209 1.384 2.339 3.291 3.387 5.723 1.047 2.431 1.979 5.292 2.793 8.58.813 3.294 1.434 6.883 1.861 10.772l8.572 75.276c.597 5.686.886 10.939.866 15.763-.021 4.823-.332 8.919-.931 12.285-.878 4.787-2.15 7.181-3.821 7.181h-3.242v-21.652h1.797c0-1.495-.139-3.403-.417-5.723l-8.54-75.39c-.214-1.645-.53-3.271-.946-4.88-.418-1.606-.9-3.065-1.446-4.375-.546-1.31-1.139-2.355-1.782-3.142-.642-.785-1.242-1.178-1.797-1.178-.579 0-1.171.393-1.783 1.178-.61.786-1.187 1.832-1.734 3.142-.544 1.31-1.039 2.769-1.477 4.375-.438 1.609-.775 3.235-1.011 4.88l-8.411 75.39c-.3 2.17-.449 4.078-.449 5.723h1.766v21.652h-3.21c-1.67 0-2.943-2.394-3.822-7.181-.663-3.366-.995-7.404-.995-12.117 0-4.936.31-10.245.931-15.931l8.476-75.276c.454-3.887 1.097-7.478 1.931-10.772zm12.616 61.928v21.652h-5.587v-21.652h5.587zM-144.675 307.591c1.453 0 2.813.954 4.076 2.861 1.262 1.908 2.363 4.508 3.307 7.798.94 3.291 1.69 7.163 2.246 11.611.557 4.452.835 9.182.835 14.192v6.506c0 5.013-.278 9.705-.835 14.081-.556 4.375-1.306 8.245-2.246 11.612-.942 3.365-2.044 6-3.307 7.908-1.264 1.908-2.623 2.861-4.076 2.861h-17.241v58.785h-6.164v-80.329h23.402c1.177 0 2.184-1.458 3.018-4.375.833-2.916 1.251-6.431 1.251-10.546v-6.507c0-4.264-.418-7.854-1.251-10.771-.834-2.917-1.841-4.375-3.018-4.375h-23.08v-21.314h23.083zM-101.566 307.591c1.453 0 2.813.954 4.076 2.861 1.263 1.908 2.364 4.508 3.306 7.798.941 3.291 1.69 7.163 2.246 11.611.557 4.452.837 9.182.837 14.192v6.506c0 5.013-.28 9.705-.837 14.081-.556 4.375-1.304 8.245-2.246 11.612-.942 3.365-2.043 6-3.306 7.908-1.264 1.908-2.623 2.861-4.076 2.861h-17.241v58.785h-6.164v-80.329h23.402c1.177 0 2.185-1.458 3.018-4.375.834-2.916 1.252-6.431 1.252-10.546v-6.507c0-4.264-.418-7.854-1.252-10.771-.833-2.917-1.841-4.375-3.018-4.375h-23.08v-21.314h23.083zM-45.652 307.927v21.315h-25.841c-1.201 0-2.223 1.459-3.067 4.375-.845 2.918-1.268 6.508-1.268 10.772v6.506c0 4.114.422 7.629 1.268 10.547.845 2.916 1.867 4.375 3.067 4.375h18.394c1.456 0 2.82.953 4.094 2.859 1.273 1.908 2.391 4.508 3.354 7.8.963 3.29 1.718 7.16 2.262 11.61.546 4.453.821 9.183.821 14.191v6.508c0 5.011-.273 9.743-.821 14.192-.544 4.451-1.298 8.32-2.262 11.611-.963 3.292-2.082 5.89-3.354 7.798-1.274 1.906-2.639 2.861-4.094 2.861h-25.779v-21.315h25.779c1.242 0 2.275-1.496 3.1-4.488.824-2.989 1.234-6.543 1.234-10.659v-6.506c0-4.112-.412-7.629-1.234-10.545-.825-2.918-1.858-4.376-3.1-4.376h-18.394c-1.458 0-2.823-.954-4.094-2.86-1.273-1.907-2.383-4.545-3.323-7.91-.941-3.364-1.686-7.237-2.231-11.612-.546-4.374-.82-9.067-.82-14.081v-6.506c0-5.01.272-9.74.82-14.192.543-4.448 1.287-8.317 2.231-11.611.94-3.29 2.05-5.89 3.323-7.798 1.271-1.907 2.636-2.861 4.094-2.861h25.841z"/></g></svg>