<svg xmlns="http://www.w3.org/2000/svg" xmlns:xlink="http://www.w3.org/1999/xlink" width="200" height="200" viewBox="-232 270.5 200 200" enable-background="new -232 270.5 200 200"><rect x="-232" y="270.5" fill="#F15A29" width="200" height="200"/><polygon fill="#D7DF23" stroke="#fff" stroke-width="1.826" stroke-miterlimit="10" points="-227.805,427.651 -174.922,351.236 -122.039,427.651"/><polygon fill="#fff" points="-74.171,430.354 -79.763,430.354 -185.527,430.354 -191.112,430.354 -188.308,426.309 -135.425,349.912 -132.61,345.872 -129.799,349.912 -76.959,426.309"/><polygon fill="#D7DF23" points="-185.527,427.651 -132.627,351.236 -79.763,427.651"/><path fill="#00AEEF" stroke="#fff" stroke-width="1.826" stroke-miterlimit="10" d="M-92.674 321.569c0-6.271-10.059-11.355-22.443-11.355-10.383 0-19.049 3.61-21.588 8.473-14.065.149-25.336 3.555-25.644 7.772-6.827.137-12.287 3.499-12.287 7.636 0 4.248 5.701 7.683 12.708 7.683 3.169 0 6.018-.713 8.241-1.872 1.927 5.342 11.571 9.423 23.254 9.423 13.059 0 23.653-5.095 23.653-11.356 0-1.98-1.146-3.804-2.974-5.421 9.784-1.232 17.08-5.67 17.08-10.983z"/><path fill="#00AEEF" stroke="#fff" stroke-width="1.325" stroke-miterlimit="10" d="M-159.105 308.321c0-4.553-7.305-8.247-16.293-8.247-7.54 0-13.833 2.621-15.678 6.151-10.209.107-18.394 2.581-18.619 5.646-4.955.097-8.919 2.541-8.919 5.543 0 3.084 4.138 5.576 9.227 5.576 2.302 0 4.373-.52 5.982-1.356 1.4 3.875 8.402 6.837 16.887 6.837 9.481 0 17.172-3.698 17.172-8.245 0-1.434-.832-2.759-2.159-3.938 7.099-.89 12.4-4.11 12.4-7.967z"/><path d="M-59.11 288.828h-68.235c-12.108 0-21.923 8.188-21.923 18.292v138.232c0 10.104 9.815 18.288 21.923 18.288h68.235c12.111 0 21.926-8.186 21.926-18.288v-138.232c0-10.103-9.815-18.292-21.926-18.292zm-47.613 11.951h26.979c2.984 0 5.394 2.013 5.394 4.496 0 2.493-2.412 4.517-5.394 4.517h-26.979c-2.972 0-5.392-2.023-5.392-4.517 0-2.483 2.422-4.496 5.392-4.496zm13.496 151.937c-5.554 0-10.051-3.76-10.051-8.382 0-4.627 4.497-8.383 10.051-8.383 5.545 0 10.05 3.756 10.05 8.383 0 4.622-4.505 8.382-10.05 8.382zm41.423-23.621h-82.853v-109.778h82.853v109.778z"/><rect x="-109.304" y="359.162" fill="#fff" width="54.021" height="33.956"/><polyline fill="#fff" points="-94.337,391.761 -104.141,399.573 -83.534,391.207 -95.165,391.207"/><path d="M-59.447 357.73h-45.763c-3.167 0-5.734 2.142-5.734 4.786v27.313c0 2.645 2.566 4.788 5.734 4.788h6.32l-9.634 9.093 19.987-9.093h29.088c3.17 0 5.742-2.144 5.742-4.788v-27.315c0-2.645-2.569-4.784-5.74-4.784zm3.532 32.099c0 1.626-1.583 2.945-3.526 2.945h-29.661l-.493.226-8.956 4.081 1.316-1.245 3.241-3.062h-11.215c-1.953 0-3.531-1.319-3.531-2.945v-27.314c0-1.624 1.578-2.944 3.531-2.944h45.769c1.944 0 3.526 1.32 3.526 2.944l-.001 27.314zM-90.708 384.094l-.349-1.572-.055-.054-3.896-.002c0-.018-.128.523-.38 1.624l-6.197-.005 4.428-18.488-2.055-.002.951-4.076 8.361.008 5.387 22.575-6.195-.008zm-2.344-9.782l-.979 4.079h1.976l-.997-4.079zM-72.064 384.112l-2.995-8.743h-.136l-.009 8.741-6.061-.006.025-22.568 11.879.011c.27 0 .528.058.768.174.245.116.46.267.65.453.19.187.344.4.461.641.114.241.173.493.173.76l-.008 9.779c-.002.408-.146.796-.435 1.158-.291.364-.634.616-1.03.76l3.022 8.849-6.304-.009zm-.794-18.492l-2.327-.003-.005 5.648 2.327.003.005-5.648zM-101.021 386.98c-.345.594-.516 1.273-.516 1.96s.17 1.368.516 1.962h-.19c-.434-.7-.59-1.354-.59-1.962 0-.606.155-1.261.59-1.96h.19zM-99.771 386.98h.354l.935 3.116h-.301l-.256-.908h-1.11l-.257.908h-.301l.936-3.116zm.668 1.974l-.488-1.756h-.008l-.488 1.756h.984zM-97.876 387.779h.267v1.635c0 .374.128.521.408.521.301 0 .514-.236.514-.595v-1.56h.267v2.319h-.24v-.321h-.008c-.135.256-.365.374-.603.374-.36 0-.604-.184-.604-.62l-.001-1.753zM-94.341 387.779h.241v2.155c0 .642-.241.97-.772.97-.457 0-.697-.238-.702-.568h.265c0 .218.209.349.444.349.322 0 .497-.223.497-.632v-.369h-.009c-.085.283-.307.416-.55.416-.365 0-.727-.236-.727-1.161 0-.8.234-1.21.754-1.21.257 0 .467.147.549.41h.011l-.001-.36zm-.528 2.1c.313 0 .501-.226.501-.969 0-.738-.188-.967-.501-.967s-.501.229-.501.967c0 .743.188.969.501.969zM-93.219 387.779h.24v.323h.009c.125-.258.338-.376.599-.376.284 0 .457.171.491.407h.008c.107-.258.299-.407.598-.407.33 0 .546.184.546.599v1.771h-.266v-1.732c0-.275-.128-.421-.369-.421-.266 0-.479.236-.479.595v1.559h-.265v-1.734c0-.276-.13-.42-.37-.42-.264 0-.479.236-.479.593v1.56h-.265v-2.315h.002zM-88.395 389.329c-.04.495-.313.82-.758.82-.499 0-.789-.339-.789-1.213 0-.803.291-1.21.812-1.21.524 0 .758.354.758 1.129v.095h-1.285v.108c0 .668.24.873.501.873.28 0 .451-.195.496-.603h.265zm-.261-.597c-.009-.578-.173-.788-.5-.788-.328 0-.493.21-.501.788h1.001zM-87.604 387.779h.241v.323h.008c.135-.258.364-.376.604-.376.36 0 .603.184.603.621v1.752h-.267v-1.68c0-.317-.133-.476-.403-.476-.312 0-.52.236-.52.594v1.559h-.266v-2.317zM-85.185 387.997h-.325v-.218h.325v-.643h.266v.643h.417v.218h-.417v1.664c0 .184.081.245.255.245l.163-.027v.218l-.187.027c-.359 0-.496-.096-.496-.405v-1.722zM-82.411 389.329c-.039.495-.313.82-.759.82-.497 0-.789-.339-.789-1.213 0-.803.292-1.21.812-1.21.523 0 .758.354.758 1.129v.095h-1.285v.108c0 .668.24.873.501.873.28 0 .45-.195.496-.603h.266zm-.26-.597c-.011-.578-.173-.788-.501-.788s-.493.21-.501.788h1.002zM-80.379 389.714h-.01c-.069.265-.296.436-.576.436-.52 0-.754-.411-.754-1.213 0-.8.234-1.21.754-1.21.293 0 .492.157.549.401h.011v-1.146h.265v3.118h-.24l.001-.386zm-.541.218c.271 0 .515-.136.515-.995 0-.855-.244-.992-.515-.992-.266 0-.514.137-.514.992 0 .861.248.995.514.995zM-77.895 386.98h.945c.529 0 .822.296.822.782 0 .374-.151.71-.573.79v.009c.395.034.529.257.542.737l.008.342c.005.17.024.336.133.459h-.331c-.066-.11-.081-.271-.087-.438l-.008-.261c-.02-.551-.12-.726-.63-.726h-.538v1.424h-.283v-3.118zm.286 1.459h.488c.449 0 .711-.201.711-.611 0-.381-.165-.612-.679-.612h-.52v1.223zM-73.864 389.329c-.041.495-.313.82-.758.82-.498 0-.79-.339-.79-1.213 0-.803.292-1.21.812-1.21.525 0 .759.354.759 1.129v.095h-1.286v.108c0 .668.241.873.501.873.28 0 .452-.195.497-.603h.265zm-.262-.597c-.01-.578-.173-.788-.5-.788-.328 0-.494.21-.501.788h1.001zM-73.124 388.47c0-.476.232-.743.728-.743.488 0 .665.25.665.615v1.372c0 .133.044.194.14.194h.075v.191l-.125.027c-.207 0-.341-.047-.341-.287v-.079h-.008c-.106.306-.347.392-.608.392-.413 0-.599-.252-.599-.654 0-.307.143-.55.476-.643l.5-.139c.188-.053.227-.097.227-.365 0-.299-.169-.404-.408-.404-.316 0-.453.189-.453.525h-.268v-.002zm1.128.318h-.009c-.028.08-.177.128-.284.152l-.221.058c-.267.07-.404.204-.404.479 0 .271.143.454.372.454.323 0 .545-.24.545-.653v-.49h.001zM-70.815 386.98h.267v3.116h-.267v-3.116zM-69.648 386.98h.266v.444h-.266v-.444zm0 .799h.266v2.32h-.266v-2.32zM-68.398 387.997h-.324v-.218h.324v-.643h.265v.643h.417v.218h-.417v1.664c0 .184.082.245.254.245l.163-.027v.218l-.186.027c-.36 0-.496-.096-.496-.405v-1.722zM-67.3 387.779h.284l.528 2.009h.009l.475-2.009h.285l-.688 2.507c-.125.454-.265.581-.626.581l-.176-.009v-.218l.174.01c.163 0 .274-.066.349-.311l.068-.218-.682-2.342zM-65.375 390.902c.347-.594.514-1.275.514-1.962s-.167-1.366-.514-1.96h.191c.435.699.592 1.354.592 1.96 0 .608-.155 1.262-.592 1.962h-.191zM-82.513 331.806c-.955-.642-1.858-1.123-2.708-1.451-.875-.328-1.716-.661-2.556-.964-.839-.307-1.973-.686-3.419-1.118-1.111-.348-2.207-.688-3.325-1.055-.802-.265-1.454-.478-1.963-.614-.512-.149-.996-.328-1.479-.526l.212.309.2.232c.278.28.553.587.793.893.504.643 1.026 1.294 1.564 1.931.846.991 1.626 2.052 2.354 3.173 1.426 2.185 2.477 4.526 3.134 7.042-.11.16-.237.309-.381.438-.352.316-.729.592-1.126.837-1.137.69-2.369 1.116-3.68 1.273.056-.121-.048-.42-.36-.918-.297-.491-1.002-.985-2.106-1.483-1.098-.521-2.287-.966-3.563-1.334l.148-.288c.19-.499.275-1.008.262-1.521-.024-1.167-.179-2.302-.463-3.416.356-.163.631-.409.842-.719.133-.21.194-.404.165-.629-.035-.229-.096-.479-.203-.76-.12-.294-.344-.494-.688-.628.107.255.257.601.465 1.042.193.446-.035.896-.655 1.328.043-.658-.104-1.352-.424-2.056.091.693.076 1.352-.042 1.938-.322-.228-.531-.525-.607-.897-.092-.396-.106-.79-.056-1.208.02-.24-.016-.495-.139-.752-.348 1.035-.264 2.025.23 2.948-.137.018-.293-.019-.436-.091-.16-.097-.325-.275-.469-.536-.152-.256-.164-.672-.002-1.228-.384.357-.438.788-.123 1.284l.08.139c.334.6.847.978 1.541 1.123.584 1.82.6 3.398.048 4.73l-.992-.335c-.676-.369-1.218-.789-1.624-1.248-.394-.462-.654-.945-.789-1.47-.148-.507-.219-1.099-.256-1.74-.024-.649-.048-1.256-.059-1.813-.019-.563-.203-1.369-.568-2.438.106-.189.245-.471.413-.856.165-.371.194-.794.088-1.236-.12-.447-.334-.813-.662-1.054-.324-.26-.703-.714-1.138-1.37-.278-.443-.502-.919-.657-1.423-.167-.522-.338-1.027-.532-1.549l-.044.174-.173.69c-.076.288-.219.702-.435 1.229-.212.545-.416 1.007-.621 1.398-.206.396-.339.832-.441 1.324-.048.26-.034.453.051.591.303.413.696.801 1.227 1.174.527.37 1.252.724 2.189 1.046.143.189.268.405.353.636.075.226.174.758.28 1.592.101.834.22 1.671.359 2.514.155.847.316 1.504.517 1.963.182.47.453.857.825 1.179.347.317.802.756 1.349 1.304.542.536.937 1.2 1.185 1.979-.709.021-1.471-.256-2.343-.829-.051-.188-.125-.36-.227-.55-.227-.383-.501-.714-.839-.992-.606-.499-1.185-.999-1.735-1.503.069.309.217.583.457.832.255.258.542.494.889.734.354.245.61.628.802 1.165-.851-.298-1.682-.81-2.465-1.522.069.161.146.316.234.457.438.71 1.035 1.241 1.81 1.615-.915-.037-1.734-.336-2.437-.924.048.159.124.306.229.428.292.336.613.641.975.874.633.396 1.234.378 1.83-.05.137.354.036.599-.311.753l-.132.05c-.289.063-.561.024-.835-.12.019.077.067.133.135.196.164.148.349.242.566.292.325.052.557-.053.738-.289.185-.203.266-.454.225-.751.841.435 1.723.633 2.643.602.438 1.546 1.226 2.76 2.371 3.622-.394-.019-.788-.02-1.169-.026-.554-.013-1.113-.021-1.683-.021-1.089.013-2.134-.144-3.16-.441l-2.306-3.197c-.978-1.366-1.747-2.778-2.335-4.237-.535-1.261-.93-2.269-1.204-3.046l-.11-.324c-.053.345-.086.686-.1 1.023-.045.731-.108 1.46-.166 2.17-.269 2.979.018 5.895.825 8.769.744 2.636 1.722 5.193 2.932 7.662.155.326.341.638.549.946.453.673 1.008 1.261 1.634 1.791.042.049.053.114.016.177-.042.07-.128.133-.238.167-.117.023-.325.016-.623-.042-.303-.041-.52-.154-.669-.36l.079.203c.045.103.147.226.315.378.157.146.412.203.736.158.333-.029.581-.206.762-.512.093.088.138.18.13.298-.005.105-.035.227-.106.35-.084.137-.245.256-.506.408-.268.112-.509.153-.753.138l.042.061c.148.188.321.275.532.254.208-.021.418-.084.626-.191.403-.261.601-.665.578-1.238.35.168.563.418.573.758.013.121-.027.274-.117.441-.083.18-.336.297-.736.341.27.103.542.117.818.044.238-.067.441-.196.584-.423.047-.088.066-.173.072-.274-.035-.47-.267-.827-.664-1.081.384.061.653.165.821.345.161.167.288.38.386.624.097.233-.076.533-.517.875l.142.108c.14.093.336.048.579-.126.322-.199.442-.514.328-.922-.04-.193-.104-.374-.186-.558-.187-.41-.491-.648-.909-.739.381-.264.703-.245.945.045.243.303.429.397.544.318.112-.085.171-.16.143-.2-.143-.435-.471-.708-.968-.781 1.366-.748 2.707-1.565 3.979-2.493.99-.675 1.88-1.454 2.687-2.309.167-.167.308-.338.436-.545.245-.354.47-.729.679-1.112.275-.547.509-1.086.664-1.651.266-.313.704-.436 1.312-.401.305.023.604.124.855.282.328.185.666.261 1.037.216.131 0 .264-.002.395-.023.557-.023 1.157.102 1.79.372.625.284 1.222.383 1.788.345.582-.062 1.359-.053 2.394.013 1.012.059 2.224-.115 3.632-.554.298-.086.573-.19.854-.31.473-.188.929-.276 1.42-.26.483.023.952.025 1.428.008.689-.024 1.341-.146 1.975-.386.57-.215 1.085-.512 1.511-.921l.091-.066.035-.092-.119-.149c-.137-.134-.334-.233-.559-.275-.503-.084-1.017-.159-1.521-.218-1.004-.137-1.986-.14-2.973-.029-.263.022-.52.011-.756-.068-.983-.295-1.811-.532-2.471-.728-.672-.198-1.346-.412-2.017-.63-.67-.216-1.347-.34-2.05-.364-.694-.044-1.278-.085-1.744-.16-.468-.07-.829-.135-1.082-.22-.008.136.042.325.156.601.095.267.26.585.447.978-1.187-.375-2.315-.496-3.372-.358.495-.275.997-.538 1.504-.787l1.48-.774c1.735-.817 3.377-1.814 4.917-2.984.881-.653 1.731-1.378 2.569-2.137.63-.585 1.167-1.252 1.55-2.008.036-.081.11-.11.221-.069.1.025.181.109.206.253.046.144.046.246.029.297l-.063.107c-.129.133-.268.26-.422.376.015.068.031.128.08.154.065.053.122.061.22.03.108-.004.223-.051.321-.143.24-.237.248-.599 0-1.107l.701.456c.131.1.203.245.187.438-.013.215-.139.357-.347.451-.217.095-.336.234-.379.418.125.134.26.166.441.078.294-.143.484-.367.545-.678.048-.215.012-.422-.088-.639-.223-.448-.658-.757-1.295-.92.385-.065.708-.084.953-.065.156.014.294.045.412.121.114.065.215.264.322.58.112.32.287.363.477.123.062-.318-.017-.641-.243-.921-.087-.126-.199-.204-.308-.273-.606-.307-1.224-.283-1.843.075-.125-.156-.17-.331-.115-.508.051-.187.108-.335.175-.462.173-.274.435-.423.807-.465.311-.025.585.076.822.299.079.056.129.14.143.236.051.255.203.46.422.634.224-.088.303-.234.234-.467-.16-.631-.545-.993-1.179-1.117-.352-.07-.68-.038-.969.116-.653.307-.961.815-.91 1.535-.234-.339-.368-.705-.412-1.103-.009-.233.064-.427.247-.588.128-.058.213-.139.253-.244.048-.134.001-.233-.125-.321-.166-.105-.299-.069-.408.096-.411.668-.411 1.317-.014 1.935-.371-.338-1.028-.821-1.975-1.453zm-11.34 11.88c.24-.166.446-.184.609-.034.173.145.297.275.384.396l.011.013c-.193-.168-.428-.314-.69-.438.133.687.354 1.106.65 1.308.314.181.6.344.862.467.254.126.54.091.838-.069l.104-.115c-.008-.141-.045-.251-.114-.322.557.35 1.138.663 1.734.922.388.18.713.218.984.148.263-.078.394-.144.411-.193.023-.059.008-.106-.024-.134.181.171.36.325.563.427.208.104.354.123.453.05l.239-.24c.068-.092.096-.184.078-.286.014.065.101.171.28.341.154.166.28.196.377.113.071-.089.076-.251-.016-.483.545.35 1.09.578 1.63.698.125.042.248 0 .377-.104.118-.113.145-.244.113-.396l-.029-.099c.051.159.299.329.723.504.446.156.781.151 1-.036.234-.204.367-.369.42-.529.045-.146.072-.271.072-.371.024.115.131.271.318.463.199.187.339.247.457.182.215-.21.339-.56.348-1.037-.008.134.058.297.16.467.106.174.219.292.347.36.129.07.343.089.625.059.28-.038.525-.293.704-.799.285.307.514.466.728.483-.143-.235-.152-.474-.022-.704.614.566 1.054.837 1.318.832.273 0 .418-.053.438-.168l.033-.281.011-.135c.312.298.538.41.708.309.12-.124.156-.304.095-.528.369.145.633.252.818.288.186.066.368.074.558.05.173-.027.329-.06.425-.117-.381.221-.823.232-1.3.05-.132-.054-.264-.096-.4-.131l.005.154c-.005.136-.035.255-.106.365l-.031.046c-.201.021-.428-.083-.651-.282.061.221-.011.396-.189.485-.52-.017-.909-.126-1.159-.35-.267-.223-.406-.357-.424-.391-.168.14-.176.347-.011.625-.216.025-.465-.092-.728-.341-.234.296-.533.524-.885.672-.13.05-.261.054-.371.016-.114-.02-.207-.083-.298-.176-.133-.149-.261-.32-.374-.485-.064.268-.173.504-.303.719-.029.05-.081.063-.166.069-.099 0-.213-.062-.331-.165-.125-.113-.21-.226-.253-.343-.077.361-.258.638-.566.829-.273.105-.573.103-.844-.013-.285-.11-.552-.243-.809-.395-.012.365-.153.521-.452.491l-.149-.042c-.484-.139-.938-.336-1.387-.596.036.183-.012.326-.147.434l-.087-.022c-.198-.085-.367-.218-.516-.374-.161.493-.475.603-.92.328l-.359-.237c-.26.15-.546.203-.833.169-.42-.061-.817-.163-1.182-.337-.251-.103-.482-.224-.711-.38l-.315-.188c0 .124-.035.215-.113.25-.228.232-.626.232-1.182.01-.554-.241-.932-.602-1.127-1.077-.201-.487-.3-.693-.274-.633-.082-.012-.14.012-.198.085-.051.058-.163.239-.316.527-.004-.246.129-.449.354-.628zm4.351 1.036l.125-.112c.463-.37.873-.568 1.25-.572.349.478.309.832-.146 1.077-.227.007-.467-.016-.692-.082-.204-.075-.389-.182-.537-.311zm4.334-1.215c.453-.079.886-.013 1.292.181l.066.037c-.163.239-.402.407-.706.479-.095-.331-.317-.579-.652-.697zm-.192.193c.329.3.405.502.25.635-.435.18-.872.188-1.278.02.199-.358.484-.608.878-.756l.15.101zm-1.539.434c.155.064.308.166.441.29-.267.267-.621.432-1.035.5l.043-.097c.042-.152.048-.315-.005-.473-.038-.141-.115-.264-.227-.386.304.026.565.093.783.166z"/><path fill="#E5E8B7" d="M-93.244 343.651c-.163-.149-.371-.132-.609.034-.225.18-.358.38-.358.626.151-.288.264-.469.314-.529.059-.073.118-.095.198-.084-.024-.061.074.145.274.633.198.475.576.836 1.128 1.076.556.226.955.226 1.182-.008.078-.034.114-.126.114-.251l.316.189c.226.156.458.276.71.379.366.175.764.277 1.182.337.287.036.573-.02.834-.169l.358.237c.444.274.758.166.919-.326.148.154.316.288.516.372l.085.023c.139-.107.187-.253.149-.433.449.26.902.455 1.386.596l.15.041c.297.027.44-.126.452-.492.256.152.525.286.808.396.272.112.571.115.845.013.309-.194.489-.471.566-.832.042.118.127.231.252.344.12.103.232.166.331.166.086-.009.137-.019.165-.068.133-.218.242-.452.304-.722.115.165.243.336.375.487.091.093.186.155.3.174.109.039.24.035.37-.015.353-.146.651-.377.886-.672.262.251.509.365.728.343-.167-.281-.157-.485.011-.626.018.032.155.168.423.39.252.225.641.333 1.161.352.176-.092.249-.265.189-.488.224.202.448.305.65.283l.032-.046c.07-.108.099-.229.104-.363l-.005-.154c.137.032.269.075.4.13.479.182.922.17 1.3-.051-.093.059-.25.089-.424.117-.192.023-.373.016-.558-.05-.185-.037-.45-.142-.82-.287.063.225.027.402-.093.526-.169.102-.396-.011-.706-.308l-.013.137-.032.278c-.021.115-.166.17-.438.17-.263.006-.704-.266-1.318-.834-.131.233-.122.471.024.706-.216-.02-.442-.179-.728-.485-.182.509-.425.761-.705.8-.283.029-.495.012-.625-.059-.128-.069-.241-.188-.348-.361-.1-.17-.168-.333-.161-.466-.007.477-.131.826-.346 1.036-.118.066-.256.005-.456-.182-.189-.191-.296-.347-.32-.462 0 .102-.025.226-.069.373-.053.157-.187.322-.421.527-.22.188-.555.194-1 .037-.426-.174-.674-.347-.725-.504l.03.097c.031.153.005.283-.113.398-.13.105-.253.146-.376.105-.541-.121-1.087-.351-1.631-.699.091.233.085.394.017.481-.099.085-.223.055-.376-.113-.182-.17-.268-.274-.28-.341.018.104-.013.195-.08.289l-.239.238c-.099.073-.247.056-.453-.05-.204-.101-.382-.255-.562-.425.03.026.045.073.025.132-.019.05-.147.116-.411.193-.271.071-.598.03-.986-.147-.595-.258-1.175-.574-1.735-.922.072.072.106.183.114.321l-.101.115c-.301.16-.586.197-.84.069-.261-.123-.546-.286-.862-.467-.294-.198-.516-.621-.649-1.309.26.125.496.273.688.438l-.01-.012c-.086-.116-.21-.247-.383-.392z"/><path fill="#E5E8B7" d="M-89.379 344.609l-.125.112c.149.129.334.236.539.311.226.066.465.088.692.082.455-.245.496-.597.147-1.077-.379.004-.79.202-1.253.572z"/><path fill="#E5E8B7" d="M-83.875 343.688c-.405-.195-.839-.26-1.292-.184.335.121.557.368.654.7.306-.075.542-.24.705-.479l-.067-.037z"/><path fill="#E5E8B7" d="M-85.109 344.335c.155-.133.079-.335-.252-.635l-.148-.103c-.395.146-.682.398-.879.757.407.166.843.161 1.279-.019z"/><path fill="#E5E8B7" d="M-86.458 344.424c-.136-.124-.287-.226-.441-.29-.217-.076-.479-.14-.782-.165.115.122.189.247.227.386.053.157.047.32.005.473l-.043.097c.413-.07.767-.235 1.034-.501z"/><defs><rect id="a" x="-135.19" y="376.234" width="43.853" height="52.86"/></defs><clipPath id="b"><use xlink:href="#a" overflow="visible"/></clipPath><g clip-path="url(#b)"><path d="M-126.468 386.902c-.658-.215-1.314-.185-2.002.121-.719.278-1.217.771-1.467 1.386-.127.248-.28.462-.532.554 1.155-.462 2.563-.709 4.22-.802-.187-.215-.343-.366-.535-.463-.184-.121-.402-.154-.62-.212.369-.248.838-.311 1.373-.248-.095-.154-.219-.245-.437-.336zM-119.343 402.263c-.25-.618-.279-1.174-.061-1.606h.09c6.005.74 9.065 1.145 9.221 1.145 1.003 0 1.878-.464 2.693-1.326.656-.769.968-1.383.968-1.968 0-2.187-.938-4.034-2.816-5.514-2.778-2.217-7.659-3.508-14.625-3.844-7.191.185-11.629 1.415-13.192 3.722-.5.771-.812 1.756-.875 2.987-.061.864-.061 1.539-.125 2-.035.34-.064.585-.094.71h-.059c-.066-.279-.099-.526-.125-.71-.125-.767-.192-1.232-.286-1.384-.311-1.046-.904-1.569-1.72-1.569-.627 0-1.121.153-1.53.462-.377.275-.558.737-.595 1.294 0 .275.063.679.251 1.198.124.403.313.926.563 1.481.343 1.105.653 1.876.875 2.308l-.313.215c-.123.063-.56.246-1.313.554-.376-.707-1.125-2.096-2.189-4.092l-.249-.466c-.968-1.814-1.721-3.232-2.251-4.313.28-.245.372-.612.347-1.04-.066-.494-.252-.926-.626-1.324-.191-.217-.471-.34-.781-.366-.782.09-1.221.522-1.283 1.291-.09.677.157 1.197.721 1.599.402.249.781.307 1.154.123.093-.026.16-.062.248-.123l4.163 9.11c-.376.218-1.252.617-2.628 1.171-1.373.523-2.063.955-2.063 1.17 0 .244.936 2.061 2.812 5.51 1.848 3.449 2.779 5.386 2.816 5.756.063.4.091.706.091.862-.029.155-.064.369-.128.587-.09.186-.591.523-1.529.984-.875.277-1.717.462-2.404.585l-.435-2.033-.502-.123c-.753-.153-2.035-.183-3.845-.183-1.846 0-3.191-.219-4.096-.616-.969-.402-1.906-.525-2.812-.402-.938.124-1.814.523-2.628 1.201-.56.427-1.028.923-1.406 1.446-.345.554-.563.952-.657 1.234-.061.308-.154.736-.216 1.318-.189.958-.25 1.818-.285 2.467v1.628c.035.401.067 1.23.096 2.524.125 1.507.373 2.927.717 4.187 1.066 4.034 3.037 6.065 5.912 6.065 3.873 0 7.34-.246 10.467-.737.535-.095 1.004-.155 1.439-.249-.436.367-.905.8-1.406 1.354-2.78 2.832-4.875 6.063-6.286 9.665-1.026 2.615-1.779 4.865-2.215 6.802-.532 2.129-.753 4.311-.753 6.465 0 1.632.032 2.678.064 3.141.063.245.122.492.157.739-.436-.399-.937-.862-1.498-1.384-1.037-.952-1.88-1.572-2.535-1.787-.029.157-.029.278-.029.37 0 .553-.125 1.723-.345 3.477-.843-.335-1.566-.613-2.097-.768l-.059-.216c-.124-.369-.313-1.261-.596-2.648-.22-1.077-.496-1.97-.813-2.675-.563-1.386-1.563-1.848-3.001-1.356-.592.188-1.09.492-1.563.955-.467.432-.845 1.418-1.124 3.019-.316 1.567-.5 2.768-.567 3.572l-.152 3.564c-.032 1.541.152 3.325.5 5.327.374 1.998.876 4.001 1.533 5.909 2.093 6.155 4.374 9.233 6.969 9.233.751 0 1.281-.463 1.505-1.414.089-.373.12-.957.12-1.756 0-1.171-.251-3.078-.813-5.696-.06-.367-.434-2.092-1.122-5.17-.347-1.446-.565-3.263-.719-5.418 0-.218 0-1.017.063-2.37.31.125.718.309 1.19.523.121.061.248.155.373.188-.155 1.104-.218 1.935-.218 2.49 0 .432.714 1.264 2.156 2.588 1.533 1.416 2.809 2.123 3.782 2.123 1.246 0 2.496-.922 3.657-2.801.312-.493.719-1.14 1.188-1.938.405-.586.777-.893 1.062-.893.966 0 1.688 0 2.094.028h1.029c.253 0 .813-.092 1.687-.337.848-.214 1.628-.649 2.25-1.291.441.153.847.368 1.253.585 1.534.889 3.156 2.584 4.941 5.077.34.491.842 1.692 1.527 3.538.656 1.788 1.313 2.956 1.906 3.571.283-.152.69-1.075 1.25-2.771.97 1.908 1.688 3.328 2.159 4.22-.249 1.046-.372 1.908-.372 2.676 0 .031.062.493.153 1.386.158.398.375.769.686.984.562.341 1.222.493 1.905.493.693 0 1.63-1.11 2.85-3.293 1.221-2.187 2.063-4.25 2.593-6.158.501-1.845.812-2.984 1-3.415 1.405-3.728 2.217-6.065 2.533-7.021.746-2.492 1.118-4.771 1.118-6.895.099-.739.035-1.446-.181-2.124-.377-1.383-1.256-2.061-2.564-2.061-1.314 0-2.439.706-3.376 2.124-.937 1.416-1.535 2.71-1.787 3.878-.279 1.169-.81 3.723-1.593 7.665-.838 3.908-1.402 6.588-1.813 8.003-.154-.275-.341-.524-.561-.801-.753-1.08-1.281-1.848-1.622-2.311l.467-1.229c1.34-3.723 2.033-5.818 2.033-6.311 0-.525-1.905-1.815-5.725-3.788-1.813-.95-3.214-1.629-4.152-1.938-.031-.184-.093-.429-.125-.737-.124-.584-.157-.957-.157-1.077 0-3.479.903-7.326 2.719-11.604 1.688-3.881 3.782-7.298 6.283-10.249.189.401.252.646.252.767 0 .277.309 1.201.875 2.738.313.802.624 1.632.934 2.435.036.187.068.614.129 1.294.032.705.217 1.694.501 3.016.312 1.263 1.221 1.721 2.781 1.386 1.563-.402 4.437-1.604 8.596-3.665 3.437-1.659 5.409-2.679 5.939-3.052-.157-.365-.405-1.074-.751-2.058.067-.123.157-.248.25-.367.436-.617.626-1.019.626-1.263 0-.341-.095-.68-.343-1.11l.093-.153c.125-.369.25-.675.376-.891.435-.832 1.253-1.293 2.471-1.293.123 0 .714.248 1.845.677 1.091.461 1.999.675 2.716.675.626 0 1.973-1.075 3.944-3.232 1.904-2.092 2.841-3.289 2.841-3.63 0-.184-.031-.339-.059-.463-.162-.276-.409-.402-.786-.402-.808 0-1.497.278-2.06.836-.348.308-.783.925-1.248 1.814-.502.864-.912 1.6-1.289 2.187-.341.613-.778.8-1.279.646-.501-.187-1.157-.308-1.908-.37-.809-.092-1.53-.125-2.125-.152 2.781-.278 4.562-.77 5.313-1.541.221-.274.472-.677.693-1.196.28-.617.468-1.079.687-1.357.374-.493 1.095-1.291 2.124-2.37.878-1.016 1.313-1.816 1.313-2.526.096-.245.096-.458.032-.645-.157-.307-.563-.493-1.279-.493-.656 0-1.218.403-1.719 1.202-.064.062-.374.921-.938 2.495-.565 1.539-1.222 2.678-1.97 3.447-.749.737-1.967.984-3.625.675 2.25-.586 3.934-2.306 5.094-5.109.842-2.03 1.248-4.062 1.248-6.096-.028-.461-.059-.894-.182-1.354-.253-.864-.689-1.294-1.255-1.294-.971 0-1.653.617-2.089 1.786-.221.646-.314 2.032-.285 4.156 0 2.156-.28 3.693-.904 4.676-.596.953-1.597 1.446-3.031 1.42l.062-.063c.781-.863 1.373-1.663 1.812-2.37.406-.741.688-1.358.843-1.908.125-.557.184-.895.184-1.05 0-.861-.088-1.72-.339-2.646-.406-1.663-1.093-2.465-2.033-2.465-.312 0-.621.157-.842.465-.189.246-.28.49-.28.802 0 .586.185 1.294.594 2.124.372.832.56 1.444.56 1.875 0 1.539-.749 3.202-2.283 4.896-.782.803-1.314 1.324-1.594 1.633l-.28.275-.094-.09c-.219-.554-.375-.89-.47-1.078-.217-.398-.559-.586-.999-.586-.187 0-.438.188-.781.493-.312.309-.56.462-.751.462-.907 0-1.625-.551-2.154-1.693-.03-.063-.373-.769-.999-2.096-.75-.982-1.629-1.138-2.628-.398-.906.645-1.346 1.324-1.346 2.123 0 1.321.44 2.523 1.252 3.508 1.594 1.938 4.349 2.557 8.257 1.911-.221.799-.378 1.416-.378 1.753-.655-.43-1.188-.557-1.598-.462-.274.092-.496.278-.59.586-.72-.339-1.189-.586-1.342-.706-.222-.156-.47.089-.719.614-.438.769-.783 1.386-1.035 1.784-1.186 1.726-2.626 2.588-4.343 2.588-1.405 0-2.438-.895-2.999-2.708-.187-.524-.347-1.266-.472-2.097-.125-.83-.215-1.295-.279-1.446-.377-1.448-.881-2.585-1.533-3.387-.062-.121-.187-.213-.25-.306-.315-.339-.72-.617-1.125-.831-.126-.095-.252-.154-.405-.218l1.215-.551c.474-.281.845-.587 1.161-.984l.092-.095-.189-.123c-.839-.434-1.41-.709-1.748-.861l1.374-1.016c.125-.127.25-.249.374-.31.376-.247.723-.434 1.035-.557.751-.247 2.156-.675 4.219-1.257 1.657-.617 2.5-1.326 2.5-2.095 0-.031-.092-.187-.312-.491-.189-.313-.314-.496-.314-.616 0-.092.093-.342.25-.742.155-.368.223-.677.223-.982 0-.617-.03-1.168-.155-1.6-.472.059-.755.027-.941-.094-.186-.49-.219-1.016-.095-1.479.158-.49.188-.98.095-1.477-.157-.985-.594-1.51-1.311-1.51-.439 0-.875.219-1.378.646-.531.555-.937.892-1.216 1.078-.126-.248-.221-.431-.313-.551-.123-.249-.313-.37-.498-.434-.222-.031-.598.063-1.062.311-.534.243-.812.52-.94.827-.251-.243-.498-.46-.719-.644-.473-.309-.875-.494-1.312-.494-.313 0-.657.278-.998.83l-.093.187c-.598-1.384-1.095-2.648-1.564-3.755 0-.4.095-.556.312-.498.249.098.626.498 1.157 1.175.533.678.999 1.015 1.439 1.015.937 0 1.749-.428 2.471-1.32.34-.493.752-1.019 1.189-1.665.531-.613.714-.556.621.187-.061.708.253 1.077.941 1.077.715 0 1.218-.308 1.498-.953.221-.433.311-.895.311-1.48 0-.8-.247-1.414-.713-1.845-.409-.37-.967-.525-1.657-.4-1.626.217-2.971 1.385-4.038 3.478-.747 1.293-1.093 1.262-.998-.154.096-1.385-.343-2.091-1.341-2.122-.564-.034-1.032.09-1.378.337-.273.214-.496.523-.655.924-.248-.587-.409-1.104-.562-1.541-.219-.765-.467-1.841-.75-3.166l-.064-.339c.435.493.907.739 1.439.739.219 0 .405-.06.591-.152.193-.094.346-.217.502-.372.499-.398.843-.677 1.061-.769l.656.832c.564.522 1.221.771 1.969.771.438 0 .752-.126.94-.369.028-.031.188-.31.468-.833l.25.217c.185.124.407.214.688.214.283 0 .531-.308.781-.861.125-.372.218-.679.28-.984.879.244 1.66.368 2.375.368.439 0 .594-.063.502-.125-.147-.095-.336-.436-.554-1.018zm-3.407 1.997c-.44.031-.813-.306-1.188-1.013-.189.707-.469 1.168-.718 1.478-.28.305-.719.367-1.375.215-.628-.188-1.062-.493-1.314-.924l-.436-.83c-.093.245-.346.584-.719.983-.25.246-.496.399-.784.46-.184.095-.433.095-.653.095-.563-.095-.97-.341-1.28-.832-.38-.524-.598-1.139-.629-1.786-.093-1.202-.184-2.4-.248-3.632l-.099-.705.13.088c.909.617 1.845 1.234 2.778 1.786 1.13.677 2.316 1.295 3.476 1.846 1.154.524 2.346.984 3.656 1.417.185.738-.034 1.201-.597 1.354zm-25.628-11.236c-.409-.154-.565-.493-.47-.985.062-.522.372-.736.937-.615.468.153.625.433.503.894-.161.461-.473.706-.97.706zm5.873 14.01l-1.967.921c-.252-.524-.502-.985-.715-1.416.621-.248 1.373-.524 2.123-.892l.559 1.387zm.782-.37l-.562-1.358c.654-.306 1.374-.645 2.097-1.046.028.031.153.369.372 1.019l.157.462-2.064.923zm-.47 1.137l.691 1.753-1.688.739-.066-.123-.813-1.509 1.876-.86zm3.406.493l-1.94.893-.682-1.722 2.004-.896c.182.465.404 1.08.618 1.725zm-1.591 1.661l1.909-.861.466 1.23-1.972.707-.403-1.076zm2.655 1.169c.189.527.405 1.044.626 1.598-.686.218-1.279.466-1.841.714l-.032.059-.685-1.693 1.932-.678zm-3.467-.8l.405.988-1.563.55c-.126-.278-.281-.55-.438-.831l1.596-.707zm.751 1.786l.686 1.722c-.375.187-.78.37-1.253.586l-.058-.06c-.283-.587-.595-1.171-.878-1.727l1.503-.521zm5.873 8.649c.156-.244.25-.488.311-.737.162-.462.162-1.016 0-1.541-.274-1.138-.562-2.244-.9-3.322.749 1.569 1.373 3.2 1.846 4.863.374 1.26.626 2.554.779 3.911.029.272.064.581.029.952l-2.532-.494c.031.215.125.618.313 1.231.154.586.313 1.17.563 1.662-2.5.275-4.938.74-7.313 1.383-1.346.31-2.94 1.019-4.816 2.098-1.874 1.047-3.746 1.601-5.627 1.631-1.905 0-3.002-.337-3.279-1.049-.313-.674-.439-1.165-.468-1.414 0-1.079.374-1.935 1.186-2.554.28-.219.624-.37.997-.491.942-.188 1.91-.312 2.874-.37 1.756-.281 3.411-.801 4.944-1.631l.093-1.755c3.129.185 6.189-.152 9.22-1.016.75-.218 1.309-.679 1.78-1.357zm12.912-4.492c.063.43.155.553.283.399.374-1.017.812-1.663 1.308-1.911.441-.243.939-.271 1.504-.091l.029.065c.371.769.501 1.476.315 2.091-.16.617-.253 1.293-.221 2.033-2.53.863-4.941 1.26-7.221 1.202l-1.563-3.664c.058-.648.31-1.045.782-1.141.87-.122 1.407.093 1.658.617.216.489.373.86.402 1.074.536-1.199 1.125-1.725 1.722-1.538.592.155.968.432 1.002.864z"/><path fill="#EDEEEF" d="M-123.938 403.247c.376.707.749 1.044 1.188 1.013.563-.15.781-.616.595-1.354-1.31-.431-2.501-.893-3.656-1.417-1.158-.551-2.347-1.169-3.474-1.846-.936-.552-1.871-1.169-2.78-1.786l-.128-.088.096.705c.064 1.231.154 2.43.25 3.632.029.647.248 1.262.626 1.786.312.491.717.737 1.281.83.219 0 .467 0 .654-.093.285-.061.534-.214.784-.46.372-.402.624-.738.718-.983l.436.83c.252.43.686.736 1.314.924.655.152 1.095.088 1.375-.215.255-.31.534-.771.721-1.478z"/><path fill="#66818B" d="M-148.848 392.039c-.095.492.062.831.47.985.497 0 .809-.245.969-.707.122-.461-.035-.74-.503-.894-.563-.12-.875.094-.936.616z"/><path fill="#FFF200" d="M-144.475 407.955l1.969-.921-.562-1.387c-.75.367-1.502.644-2.123.892.215.43.467.892.716 1.416z"/><path fill="#66818B" d="M-142.285 405.306l.562 1.358 2.067-.925-.157-.461c-.219-.649-.347-.987-.374-1.019-.724.402-1.443.741-2.098 1.047z"/><path fill="#66818B" d="M-141.502 409.554l-.691-1.753-1.876.86.813 1.509.066.123 1.688-.739z"/><path fill="#FFF200" d="M-140.725 409.187l1.941-.893c-.216-.645-.438-1.26-.622-1.725l-2.001.896.682 1.722z"/><path fill="#FFF200" d="M-138.468 409.094l-1.908.861.403 1.079 1.97-.709-.465-1.231z"/><path fill="#66818B" d="M-137.097 412.722c-.221-.554-.437-1.073-.626-1.598l-1.932.678.685 1.694.032-.061c.562-.247 1.155-.493 1.841-.713z"/><path fill="#DE8F4D" d="M-140.786 411.313l-.405-.987-1.597.709c.157.278.312.552.438.829l1.564-.551z"/><path fill="#F9E9DB" d="M-139.754 413.832l-.686-1.722-1.504.522c.284.557.596 1.142.878 1.727l.058.06c.474-.215.88-.4 1.254-.587z"/><path fill="#EDEEEF" d="M-121.372 416.666c-.128.153-.22.03-.283-.399-.034-.432-.41-.709-.999-.862-.599-.188-1.189.336-1.724 1.537-.027-.214-.188-.587-.402-1.075-.25-.522-.788-.74-1.658-.616-.473.094-.723.49-.782 1.14l1.564 3.663c2.279.061 4.691-.339 7.22-1.201-.032-.739.059-1.416.219-2.032.186-.615.058-1.321-.313-2.092l-.031-.064c-.563-.182-1.061-.151-1.503.091-.496.247-.934.893-1.308 1.91z"/><path d="M-131.941 388.099c.752-.461 1.44-.709 2.067-.709 0-.645-.344-.98-1.005-.95-.996.119-1.904.523-2.75 1.141-.56.49-1.092 1.168-1.527 2.061.499-.34.878-.522 1.121-.555l-1.154 1.231c1.406-.983 2.997-1.66 4.72-1.973.092-.03 0-.148-.217-.246-.28-.153-.689-.153-1.255 0z"/></g></svg>