<svg xmlns="http://www.w3.org/2000/svg" xmlns:xlink="http://www.w3.org/1999/xlink" width="200" height="200" viewBox="-231 270.5 200 200" enable-background="new -231 270.5 200 200"><defs><rect id="a" x="-231" y="270.5" width="200" height="200"/></defs><clipPath id="b"><use xlink:href="#a" overflow="visible"/></clipPath><g clip-path="url(#b)"><path fill="#5B4B43" d="M11.044 465.604c0 15.418-12.114 28.029-26.926 28.029h-215.492c-14.806 0-26.921-12.611-26.921-28.029l-.329-195.269c0-15.416 12.116-28.034 26.921-28.034h215.493c14.812 0 26.925 12.618 26.925 28.034l.329 195.269z"/><defs><path id="c" d="M-18.326 244.809c14.6 0 26.546 10.929 26.546 24.293v196.85c0 13.36-11.946 24.295-26.546 24.295h-210.907c-14.599 0-26.548-10.935-26.548-24.295v-196.85c0-13.364 11.949-24.293 26.548-24.293h210.907z"/></defs><clipPath id="d"><use xlink:href="#c" overflow="visible"/></clipPath><g clip-path="url(#d)"><defs><rect id="e" x="-270.327" y="223.222" width="293.091" height="288.613"/></defs><defs><rect id="g" x="-270.327" y="223.222" width="293.091" height="288.613"/></defs><defs><rect id="i" x="-270.327" y="223.222" width="293.091" height="288.613"/></defs><defs><rect id="k" x="-270.327" y="223.222" width="293.091" height="288.613"/></defs><defs><rect id="m" x="-270.327" y="223.222" width="293.091" height="288.613"/></defs><clipPath id="f"><use xlink:href="#e" overflow="visible"/></clipPath><clipPath id="h" clip-path="url(#f)"><use xlink:href="#g" overflow="visible"/></clipPath><clipPath id="j" clip-path="url(#h)"><use xlink:href="#i" overflow="visible"/></clipPath><clipPath id="l" clip-path="url(#j)"><use xlink:href="#k" overflow="visible"/></clipPath><clipPath id="n" clip-path="url(#l)"><use xlink:href="#m" overflow="visible"/></clipPath><g clip-path="url(#n)"><rect x="-270.422" y="223.122" fill="#D7DF23" width="293.285" height="288.809"/><path fill="#1B181C" d="M22.961 223.024v289.002h-293.483v-289.002h293.483zm-.199 288.81v-288.612h-293.089v288.613l293.089-.001z"/></g><g clip-path="url(#n)"><linearGradient id="o" gradientUnits="userSpaceOnUse" x1="-1357.628" y1="-158.138" x2="-1336.769" y2="-417.227" gradientTransform="matrix(.028 1 1 -.028 278.396 1767.001)"><stop offset=".41" stop-color="#58B5E1"/><stop offset=".561" stop-color="#57B3E0"/><stop offset=".655" stop-color="#53ADDC"/><stop offset=".734" stop-color="#4CA3D5"/><stop offset=".803" stop-color="#4395CC"/><stop offset=".867" stop-color="#3785C0"/><stop offset=".927" stop-color="#2872B2"/><stop offset=".983" stop-color="#0F5EA5"/><stop offset="1" stop-color="#0357A0"/></linearGradient><path fill="url(#o)" d="M31.053 324.811l-36.905 11.109s2.528 17.249 6.16 20.579c3.63 3.334 7.412 8.952 2.567 9.375-4.853.42-2.428 7.507-5.813 9.317-3.382 1.814-17.935-8.37-21.278-3.7-3.341 4.674 7.056 15.545 3.849 18.781-3.204 3.237-5.805 44.119-26.057 37.012-20.261-7.107-2.327 10.422 2.613 10.281 4.938-.137-4.362 9.855-6.628 11.917-2.262 2.068-7.941 3.655-10.083 6.579-2.14 2.921 8.495 8.867 3.529 18.045-4.965 9.18-22.267-6.415-29.034.811-6.768 7.224 4.494 14.923 2.78 15.829-1.722.906-6.781-3.532-9.815-2.873-3.035.653 1.502 1.546.201 7.02-1.295 5.476-6.584-1.406-10.707-3.295-4.12-1.888-6.328 2.178-7.658 6.509-1.326 4.332-5.215.434-7.399 5.358-2.18 4.926-17.511 11.983-17.511 11.983h163.67l3.519-190.637z"/><linearGradient id="p" gradientUnits="userSpaceOnUse" x1="-1114.909" y1="-466.261" x2="-922.006" y2="-466.261" gradientTransform="matrix(0 -1 -1 0 -520.499 -598.5)"><stop offset="0" stop-color="#fff"/><stop offset="1" stop-color="#F0E6D6"/></linearGradient><path fill="url(#p)" d="M32.058 323.506l-3.561 192.903h-169.031l3.982-1.835c4.171-1.919 15.364-7.732 17.032-11.494 1.341-3.028 3.401-3.294 4.907-3.486 1.325-.171 1.993-.256 2.459-1.766 1.229-4.019 2.8-6.401 4.804-7.283 1.285-.567 2.699-.509 4.195.18 1.365.623 2.78 1.705 4.155 2.751 1.538 1.179 3.652 2.788 4.478 2.5.282-.098.54-.572.71-1.3.143-.601.212-1.17.212-1.704 0-1.5-.565-2.432-.981-3.109-.28-.469-.528-.867-.528-1.352 0-1.184 1.335-1.471 1.836-1.579 1.935-.418 4.275.734 6.335 1.748.659.327 1.709.847 2.457 1.094-.227-.317-.5-.68-.744-.998-1.581-2.084-3.965-5.236-3.965-8.779 0-2.071.821-4.003 2.446-5.733 3.69-3.941 9.751-2.003 15.619-.125 6.896 2.208 11.23 3.275 13.271-.484.819-1.521 1.219-2.993 1.219-4.505 0-3.118-1.77-5.796-3.19-7.945-1.093-1.658-1.96-2.966-1.96-4.247 0-.54.153-1.031.473-1.459 1.393-1.9 4.022-3.238 6.355-4.423 1.553-.787 3.012-1.534 3.854-2.299 2.363-2.155 7.739-8.231 7.739-10.175v-.033c-.062-.02-.189-.044-.416-.036-2.323.063-6.325-2.725-9.06-5.343-1.492-1.432-3.999-4.138-3.999-6.201 0-.75.33-1.391.926-1.804.925-.641 2.946-1.214 9.81 1.195 3.266 1.143 6.124 1.026 8.725-.366 7.753-4.146 11.205-18.412 13.495-27.857 1.236-5.103 1.868-7.596 2.814-8.553.146-.149.344-.421.344-1.047 0-1.522-1.165-3.939-2.288-6.274-1.401-2.914-2.849-5.922-2.849-8.468 0-1.119.285-2.084.846-2.874 2.386-3.33 8.247-.985 13.916 1.281 2.972 1.191 6.68 2.671 7.695 2.126 1.094-.585 1.402-2.155 1.725-3.816.459-2.367 1.031-5.315 4.464-5.615 1.407-.125 1.399-.672 1.407-.976 0-1.456-1.957-4.352-4.552-6.732-3.774-3.465-6.192-19.349-6.458-21.149l-.12-.815 38.997-11.739zm-5.484 190.977l3.476-188.362-34.806 10.477c.821 5.219 3.108 16.793 5.726 19.203 2.388 2.188 5.176 5.635 5.176 8.139 0 .787-.309 2.641-3.188 2.893-1.874.163-2.234 1.576-2.72 4.058-.369 1.935-.801 4.129-2.704 5.147-1.744.932-4.694-.163-9.366-2.033-4.497-1.801-10.092-4.038-11.582-1.957-.33.463-.491 1.042-.491 1.766 0 2.111 1.35 4.923 2.664 7.642 1.271 2.648 2.474 5.145 2.474 7.1 0 .982-.302 1.789-.898 2.391-.607.618-1.474 4.195-2.314 7.657-2.363 9.775-5.94 24.55-14.461 29.103-3.081 1.646-6.549 1.809-10.307.487-6.388-2.238-7.816-1.587-8.038-1.435-.047.034-.091.065-.091.23 0 .777 1.052 2.566 3.406 4.819 2.804 2.685 6.228 4.837 7.636 4.798.804-.023 1.437.173 1.868.585.256.248.563.693.563 1.411 0 3.543-8.28 11.514-8.367 11.59-1.037.941-2.615 1.748-4.291 2.6-2.13 1.085-4.546 2.311-5.664 3.834-.073.099-.099.201-.099.337 0 .707.794 1.914 1.639 3.196 1.564 2.361 3.51 5.304 3.51 8.994 0 1.81-.487 3.628-1.453 5.408-1.349 2.491-3.585 3.634-6.839 3.482-2.672-.122-5.769-1.114-8.765-2.072-5.274-1.688-10.73-3.437-13.577-.398-1.295 1.383-1.93 2.832-1.93 4.426 0 2.908 2.156 5.747 3.583 7.627.979 1.291 1.568 2.065 1.568 2.822 0 .487-.26.922-.697 1.148-1.266.664-2.924-.152-5.027-1.191-1.682-.83-3.782-1.862-5.043-1.591l-.074.016.029.042c.472.771 1.259 2.068 1.259 4.103 0 .679-.089 1.397-.263 2.142-.341 1.439-.999 2.339-1.963 2.676-1.832.642-4.018-1.027-6.334-2.792-1.281-.98-2.612-1.994-3.774-2.529-.979-.446-1.819-.501-2.58-.167-1.432.632-2.687 2.682-3.732 6.083-.829 2.698-2.629 2.932-4.07 3.117-1.382.174-2.471.316-3.373 2.348-1.627 3.681-9.421 8.146-14.247 10.634h158.551v-.004z"/></g><path clip-path="url(#n)" fill="#00AEEF" d="M-74.819 237.794c0 21.896-4.319 43.142-12.843 63.147-8.236 19.318-20.017 36.663-35.027 51.56-15.004 14.896-66.276 50.894-110.365 57.466-22.025 3.283-50.306 1.891-70.463-6.572-19.463-8.174-35.312-35.997-50.315-50.892-15.01-14.896-26.794-32.243-35.027-51.562-8.524-20.006-12.847-41.25-12.847-63.147 0-21.893 4.323-43.14 12.847-63.144 8.233-19.321 20.017-36.668 35.027-51.562 15.003-14.896 32.485-26.591 51.949-34.762 20.154-8.461 41.562-12.753 63.622-12.753 22.059 0 43.467 4.292 63.623 12.753 19.464 8.171 36.944 19.866 51.948 34.762 15.01 14.894 26.791 32.24 35.027 51.562 8.525 20.004 12.844 41.248 12.844 63.144zm-308.175 0c0 79.207 64.926 133.673 144.734 133.673 79.805 0 136.352-54.465 136.352-133.673 0-79.206-56.548-143.647-136.352-143.647-79.808 0-144.734 64.441-144.734 143.647z"/><g clip-path="url(#n)"><linearGradient id="q" gradientUnits="userSpaceOnUse" x1="-1058.571" y1="-194.105" x2="-1136.39" y2="-583.779" gradientTransform="matrix(0 -1 -1 0 -520.499 -598.5)"><stop offset="0" stop-color="#BFCE30"/><stop offset=".086" stop-color="#BBCC32"/><stop offset=".181" stop-color="#AEC736"/><stop offset=".282" stop-color="#9ABF3C"/><stop offset=".309" stop-color="#93BC3E"/><stop offset=".515" stop-color="#68AA44"/><stop offset=".97" stop-color="#286935"/></linearGradient><path fill="url(#q)" d="M-262.846 440.349s27.569 21.742 50.444 17.514c22.885-4.229 52.371-10.582 55.227-1.916 2.853 8.664 59.829 16.862 49.266 23.793-10.559 6.932-41.312 32.095-41.312 32.095h-121.105l-1.47-71.485c-.002-.001 4.255-7.51 8.95-.001z"/><linearGradient id="r" gradientUnits="userSpaceOnUse" x1="-1110.717" y1="-331.296" x2="-1035.125" y2="-331.296" gradientTransform="matrix(0 -1 -1 0 -520.499 -598.5)"><stop offset="0" stop-color="#fff"/><stop offset="1" stop-color="#F0E6D6"/></linearGradient><path fill="url(#r)" d="M-106.214 477.951c0 .756-.498 1.464-1.479 2.105-10.419 6.845-40.97 31.822-41.28 32.072l-.105.088h-121.63l-1.483-71.968.05-.091c.082-.141 2.004-3.475 4.814-3.532 1.697-.038 3.304 1.128 4.779 3.459.651.509 7.368 5.656 16.535 10.27 8.842 4.444 21.837 9.292 33.54 7.13 1.855-.344 3.754-.698 5.681-1.06 11.137-2.096 22.654-4.259 32.008-4.959 10.868-.81 16.745.616 17.979 4.362 1.274 3.863 14.857 7.931 26.835 11.524 12.747 3.821 23.756 7.123 23.756 10.6zm-43.146 33.498c2.018-1.649 31.093-25.373 41.233-32.03.752-.493 1.13-.985 1.13-1.468 0-1.244-2.347-2.79-6.986-4.604-4.351-1.703-10.115-3.432-16.215-5.26-12.759-3.824-25.949-7.779-27.351-12.026-2.514-7.638-28.341-2.782-49.098 1.118-1.928.36-3.824.719-5.683 1.061-11.925 2.203-25.101-2.701-34.052-7.204-9.674-4.871-16.642-10.332-16.71-10.387l-.054-.042-.032-.056c-1.329-2.12-2.72-3.182-4.132-3.154-2.142.044-3.788 2.551-4.095 3.054l1.461 70.998h120.584z"/></g><path clip-path="url(#n)" fill="#F7F4EC" stroke="#59595B" stroke-width=".432" stroke-miterlimit="10" d="M-303.073 85.582c-19.827 8.321-37.626 20.233-52.913 35.404-15.281 15.168-27.281 32.837-35.667 52.506-8.68 20.374-13.083 42.01-13.083 64.302 0 22.297 4.404 43.928 13.083 64.304 6.596 15.477 15.431 29.71 26.34 42.467l-17.687 8.803 2.735 5.327 19.074-9.494c1.691 1.836 3.424 3.64 5.205 5.407 4.819 4.782 9.751 10.96 14.968 17.503 5.374 6.735 10.934 13.698 16.859 19.737 6.869 7.01 13.237 11.683 19.455 14.293 9.756 4.096 22.02 6.835 35.472 7.92 12.295.992 24.96.598 36.629-1.142 13.997-2.086 28.211-6.986 41-12.623l13.161.187v8.452c-5.603 1.174-10.028 5.529-11.221 11.048h-91.084v5.967h91.084c1.192 5.519 5.616 9.873 11.221 11.045l.418 75.035h6.066l-.355-62.711 65.894-.212 7.899 15.152c-8.792 10.25-20.241 20.771-33.89 31.1-16.329 12.35-30.158 20.132-30.293 20.21l1.934 3.347 1.929 3.347c.579-.323 14.357-8.075 31.1-20.728 9.851-7.444 18.659-15.038 26.182-22.566 9.486-9.493 16.958-18.933 22.207-28.054 6.468-11.23 12.183-22.992 17.708-34.365 13.337-27.454 25.932-53.386 47.596-70.074 28.526-21.978 40.471-17.37 40.589-17.321l-.132-.064 3.599-6.833c-1.373-.702-12.92-5.658-38.119 10.534l.062-35.01 110.927-55.215-3.53-6.873-107.38 53.448.077-43.708 30.827-.112-.012-3.465-30.808.111.031-18.74-7.819-.015-.033 18.786-39.56.141v-32.857h-7.823v49.294h-9.923c.858-6.85 1.296-13.781 1.296-20.781 0-11.575-1.19-22.979-3.548-34.113l63.501-31.609-2.734-5.328-62.157 30.938c-2.074-8.225-4.787-16.302-8.151-24.189-8.383-19.675-20.385-37.338-35.671-52.506-15.279-15.171-33.085-27.081-52.908-35.404-20.539-8.622-42.342-12.991-64.811-12.991-22.476-.003-44.282 4.366-64.816 12.988zm69.566 321.435c-24.054 3.585-51.066 1.085-68.82-6.366-12.34-5.181-23.313-18.933-33.924-32.23-5.332-6.683-10.365-12.989-15.432-18.019-1.323-1.313-2.618-2.646-3.893-3.999l15.455-7.692c26.994 23.072 63.024 35.741 101.86 35.741 20.004 0 38.869-3.344 56.071-9.95 9.095-3.492 17.604-7.842 25.469-13.019l8.846 17.236c-6.182 4.278-13.153 8.743-20.626 13.063-16.522 9.554-41.209 21.686-65.006 25.235zm65.508-157.212l9.848-4.9 14.393 28.037-9.833 5.233-14.408-28.37zm11.305 30.015l-23.579 12.549-4.06-7.903c7.174-4.42 11.947-12.265 11.947-21.188 0-3.627-.787-7.08-2.208-10.191l3.453-1.718 14.447 28.451zm-21.748-16.542c0 10.48-8.662 19.01-19.305 19.01-10.646 0-19.303-8.529-19.303-19.01 0-10.484 8.658-19.011 19.303-19.011 10.643.002 19.305 8.527 19.305 19.011zm-44.671 0c0 3.377.686 6.6 1.928 9.543l-10.888 5.418-18-36.73 29.72-13.995 7.914 15.411c-6.455 4.534-10.674 11.965-10.674 20.353zm4.905 14.747c4.62 6.198 12.067 10.23 20.459 10.23 2.768 0 5.436-.44 7.932-1.252l17.832 34.742-31.398 15.022-26.055-53.154 11.23-5.588zm11.662 60.261l-11.359 5.436-26.918-52.445 12.247-6.099 26.03 53.108zm-.228 27.121l-10.036-19.56 11.318-5.415 10.773 21.979c-3.92 1.161-7.937 2.164-12.055 2.996zm-6.212 1.12c-8.104 1.289-16.544 1.956-25.274 1.956-15.772 0-30.789-2.143-44.74-6.144l55.697-23.705 14.317 27.893zm10.659-27.609l31.434-15.039 11.388 22.184c-9.591 6.41-20.257 11.56-31.821 15.303l-11.001-22.448zm23.642-43.457l23.566-12.541 20.685 40.73c-5.923 7.042-12.648 13.367-20.083 18.897l-24.168-47.086zm26.663-14.188l9.854-5.24 17.527 34.155c-2.276 3.641-4.739 7.137-7.375 10.485l-20.006-39.4zm24.63 10.319l15.101-7.516c-2.376 6.995-5.294 13.65-8.729 19.933l-6.372-12.417zm-2.733-5.326l-6.712-13.07 30.729-16.351c-.832 6.674-2.101 13.133-3.786 19.349l-20.231 10.072zm24.481-33.607l-32.78 17.442-14.313-27.891 46.719-23.258c.71 6.14 1.08 12.426 1.08 18.841-.001 5.059-.241 10.017-.706 14.866zm-72.083-4.7c-4.643-5.873-11.891-9.658-20.021-9.658-3.308 0-6.47.627-9.37 1.764l-42.843-83.461-5.408 2.693 33.926 66.083-29.683 13.979-8.378-17.087-3.168 1.506 8.372 17.079-26.968 12.697 1.044 2.153 26.979-12.703 18.035 36.8-103.778 51.655c-25.575-23.385-40.972-56.205-40.972-93.665 0-77.561 63.567-140.666 141.702-140.666 67.842 0 120.794 48.183 131.387 115.565l-70.856 35.266zm-72.506 46.008l20.19 39.333-56.945 24.238 1.826 4.165c-18.476-5.599-35.031-14.485-48.936-25.992l83.865-41.744zm202.687 23.473l8.893 16.501-32.38 16.121-8.618-16.643 32.105-15.979zm-18.516.585l-39.63 19.729c4.812-6.264 9.143-12.849 12.999-19.729h26.631zm-16.732 16.959l8.619 16.646-60.069 29.908c-.399-.479-.686-.891-.88-1.204l-5.001-9.75c8.622-6.203 15.448-11.875 19.584-15.979 2.772-2.752 9.497-5.56 9.497-5.56l28.25-14.061zm-89.592 55.84c2.445-1.325 4.77-2.635 6.955-3.895 7.316-4.231 14.178-8.61 20.317-12.835l4.063 7.913c.102.244.293.655.608 1.182l7.979 15.553-39.921-.564v-7.354h-.001zm-6.056 7.268l-8.072-.115c2.779-1.303 5.477-2.63 8.072-3.958v4.073zm6.056 10.841v-8.368l41.156.582 9.669 18.832h-39.604c-1.192-5.518-5.616-9.874-11.221-11.046zm78.028 50.244l-5.268-10.099 12.33-.04c-2.031 3.328-4.388 6.712-7.062 10.139zm19.427-33.23c-3.289 6.606-6.709 13.211-10.343 19.621l-16.164.051-10.27-19.672h36.777zm-43.568 0l10.271 19.694-64.104.21-.055-8.861c5.603-1.172 10.028-5.524 11.22-11.045h42.668v.002zm-56.912 5.39c-4.693 0-8.506-3.756-8.506-8.376 0-4.615 3.813-8.374 8.506-8.374 4.688 0 8.501 3.76 8.501 8.374.003 4.62-3.814 8.376-8.501 8.376zm58.924-36.307c15.522 1.492 45.205 2.354 55.451 2.616-2.618 5.185-5.158 10.412-7.663 15.574-1.087 2.242-2.186 4.496-3.289 6.757h-42.784l-14.285-27.831c3.609 1.46 7.807 2.426 12.57 2.884zm.587-5.94c-5.971-.575-10.147-1.99-13.013-3.47l57.8-28.071 15.434 29.813c-.765 1.419-1.522 2.844-2.274 4.278-12.538-.302-43.49-1.157-57.947-2.55zm68.378-15.813c-2.114 3.362-4.145 6.836-6.123 10.379l-14.311-27.641 32.653-15.855 5.454 10.118c-6.194 6.421-12.038 14.035-17.673 22.999zm31.579-35.078c-.962.706-1.936 1.443-2.93 2.209-2.872 2.212-5.665 4.635-8.391 7.274l-4.88-9.059 16.214-7.874-.013 7.45zm.029-15.58l-19.6 9.759-8.893-16.501 28.522-14.198-.029 20.94zm.096-56.345l-.045 26.763-39.472 19.648v-46.411h39.517zm-47.34 0v49.171h-28.122c2.327-4.337 4.467-8.79 6.409-13.349 4.932-11.57 8.478-23.547 10.629-35.822h11.084zm7.823-20.668l39.553-.144-.02 13.112h-39.533v-12.968zm-22.512-7.812c0 21.496-4.242 42.354-12.613 61.992-8.081 18.964-19.648 35.993-34.378 50.615-3.841 3.806-10.112 9.031-18.054 14.79l-8.821-17.177c4.838-3.529 9.407-7.385 13.683-11.561 12.482-12.175 22.189-26.726 28.858-43.258 6.826-16.945 10.293-35.586 10.293-55.402 0-7.342-.477-14.582-1.414-21.693l19.348-9.632c2.064 10.241 3.098 20.706 3.098 31.326zm-97.977-146.724c19.104 8.019 36.251 19.499 50.987 34.118 14.73 14.624 26.297 31.652 34.378 50.615 3.423 8.023 6.152 16.252 8.18 24.644l-18.959 9.438c-1.708-9.96-4.353-19.652-7.915-29-6.705-17.577-16.384-33.266-28.767-46.628-12.569-13.557-27.412-24.164-44.131-31.527-17.424-7.675-36.336-11.564-56.209-11.564-81.477 0-147.763 65.777-147.763 146.629 0 19.711 3.922 38.39 11.651 55.518 6.987 15.478 16.889 29.288 29.459 41.098l-14.834 7.386c-10.945-12.567-19.773-26.651-26.316-42.007-8.371-19.637-12.611-40.495-12.611-61.994 0-21.496 4.24-42.354 12.611-61.99 8.083-18.963 19.649-35.991 34.381-50.615 14.731-14.619 31.886-26.1 50.985-34.118 19.783-8.302 40.786-12.514 62.437-12.514 21.649-.002 42.653 4.21 62.436 12.511z"/></g><g clip-path="url(#d)"><path fill="#F9F5EB" d="M-34.54 394.395c0 5.446-11.512 9.863-25.715 9.863-14.205 0-25.716-4.417-25.716-9.863 0-5.467 11.511-9.875 25.716-9.875 14.203 0 25.715 4.407 25.715 9.875z"/><path fill="#F5F1E8" d="M-34.998 394.395c0 5.349-11.306 9.688-25.257 9.688-13.951 0-25.256-4.339-25.256-9.688 0-5.37 11.305-9.699 25.256-9.699 13.951-.001 25.257 4.328 25.257 9.699z"/><path fill="#F1EDE4" d="M-35.457 394.395c0 5.252-11.101 9.512-24.798 9.512-13.698 0-24.798-4.26-24.798-9.512 0-5.272 11.1-9.522 24.798-9.522 13.697-.001 24.798 4.248 24.798 9.522z"/><path fill="#EEEAE1" d="M-35.915 394.395c0 5.154-10.896 9.336-24.34 9.336-13.445 0-24.339-4.182-24.339-9.336 0-5.175 10.895-9.347 24.339-9.347 13.444 0 24.34 4.172 24.34 9.347z"/><path fill="#EAE6DE" d="M-36.374 394.395c0 5.058-10.69 9.16-23.881 9.16s-23.881-4.103-23.881-9.16c0-5.079 10.689-9.171 23.881-9.171 13.191 0 23.881 4.091 23.881 9.171z"/><path fill="#E7E3DB" d="M-36.832 394.395c0 4.96-10.486 8.984-23.423 8.984-12.938 0-23.423-4.024-23.423-8.984 0-4.982 10.485-8.995 23.423-8.995 12.938-.001 23.423 4.012 23.423 8.995z"/><path fill="#E4E0D8" d="M-37.291 394.395c0 4.863-10.28 8.808-22.964 8.808-12.685 0-22.964-3.946-22.964-8.808 0-4.884 10.279-8.819 22.964-8.819 12.684-.001 22.964 3.934 22.964 8.819z"/><path fill="#E1DDD5" d="M-37.749 394.395c0 4.766-10.075 8.632-22.506 8.632-12.432 0-22.505-3.866-22.505-8.632 0-4.786 10.074-8.645 22.505-8.645s22.506 3.858 22.506 8.645z"/><path fill="#DEDAD2" d="M-38.207 394.395c0 4.669-9.87 8.456-22.048 8.456-12.178 0-22.047-3.788-22.047-8.456 0-4.688 9.869-8.469 22.047-8.469s22.048 3.778 22.048 8.469z"/><path fill="#DBD7CF" d="M-38.666 394.395c0 4.57-9.665 8.279-21.589 8.279-11.925 0-21.587-3.709-21.587-8.279 0-4.591 9.662-8.293 21.587-8.293 11.924 0 21.589 3.702 21.589 8.293z"/><path fill="#D8D4CC" d="M-39.124 394.395c0 4.474-9.462 8.104-21.131 8.104-11.672 0-21.129-3.63-21.129-8.104 0-4.495 9.457-8.116 21.129-8.116 11.67-.001 21.131 3.62 21.131 8.116z"/><path fill="#D5D1CA" d="M-39.583 394.395c0 4.375-9.254 7.928-20.671 7.928-11.419 0-20.671-3.553-20.671-7.928 0-4.396 9.252-7.942 20.671-7.942 11.415-.001 20.671 3.545 20.671 7.942z"/><path fill="#D2CEC7" d="M-40.041 394.395c0 4.279-9.049 7.753-20.214 7.753-11.168 0-20.214-3.473-20.214-7.753 0-4.3 9.046-7.767 20.214-7.767 11.165 0 20.214 3.467 20.214 7.767z"/><path fill="#CFCBC5" d="M-40.5 394.395c0 4.182-8.842 7.577-19.755 7.577-10.914 0-19.756-3.396-19.756-7.577 0-4.202 8.842-7.59 19.756-7.59 10.912-.001 19.755 3.387 19.755 7.59z"/><path fill="#CDC9C2" d="M-40.958 394.395c0 4.086-8.639 7.401-19.297 7.401-10.662 0-19.298-3.315-19.298-7.401 0-4.105 8.636-7.415 19.298-7.415 10.659-.001 19.297 3.308 19.297 7.415z"/><path fill="#CAC6C0" d="M-41.417 394.395c0 3.986-8.433 7.223-18.838 7.223-10.407 0-18.839-3.236-18.839-7.223 0-4.007 8.432-7.238 18.839-7.238 10.405-.002 18.838 3.229 18.838 7.238z"/><path fill="#C7C3BD" d="M-41.876 394.395c0 3.891-8.227 7.047-18.379 7.047-10.153 0-18.381-3.157-18.381-7.047 0-3.911 8.226-7.063 18.381-7.063 10.152-.001 18.379 3.151 18.379 7.063z"/><path fill="#C5C1BB" d="M-42.334 394.395c0 3.792-8.023 6.871-17.92 6.871-9.901 0-17.921-3.079-17.921-6.871 0-3.814 8.021-6.888 17.921-6.888 9.897 0 17.92 3.073 17.92 6.888z"/><path fill="#C2BEB8" d="M-42.793 394.395c0 3.695-7.819 6.695-17.462 6.695-9.646 0-17.462-3-17.462-6.695 0-3.717 7.816-6.712 17.462-6.712 9.643 0 17.462 2.995 17.462 6.712z"/><path fill="#C0BBB6" d="M-43.25 394.395c0 3.598-7.614 6.521-17.005 6.521-9.396 0-17.004-2.923-17.004-6.521 0-3.618 7.609-6.536 17.004-6.536 9.391-.001 17.005 2.915 17.005 6.536z"/><path fill="#BDB9B3" d="M-43.709 394.395c0 3.501-7.409 6.344-16.545 6.344-9.141 0-16.546-2.843-16.546-6.344 0-3.522 7.405-6.36 16.546-6.36 9.136-.001 16.545 2.837 16.545 6.36z"/><path fill="#BBB6B1" d="M-44.168 394.395c0 3.403-7.202 6.168-16.086 6.168-8.889 0-16.087-2.765-16.087-6.168 0-3.425 7.198-6.185 16.087-6.185 8.884 0 16.086 2.76 16.086 6.185z"/><path fill="#B8B4AF" d="M-44.627 394.395c0 3.307-6.998 5.992-15.628 5.992-8.635 0-15.629-2.686-15.629-5.992 0-3.328 6.994-6.009 15.629-6.009 8.63 0 15.628 2.68 15.628 6.009z"/><path fill="#B5B1AC" d="M-45.086 394.395c0 3.21-6.792 5.815-15.168 5.815-8.383 0-15.17-2.605-15.17-5.815 0-3.231 6.791-5.834 15.17-5.834s15.168 2.602 15.168 5.834z"/><path fill="#B3AFAA" d="M-45.545 394.395c0 3.111-6.583 5.64-14.71 5.64-8.128 0-14.712-2.527-14.712-5.64 0-3.132 6.583-5.656 14.712-5.656 8.127-.001 14.71 2.524 14.71 5.656z"/><path fill="#B0ADA8" d="M-46.003 394.395c0 3.014-6.381 5.464-14.251 5.464-7.877 0-14.252-2.45-14.252-5.464 0-3.036 6.378-5.48 14.252-5.48 7.873-.001 14.251 2.443 14.251 5.48z"/><path fill="#AEAAA6" d="M-46.462 394.395c0 2.918-6.174 5.288-13.793 5.288-7.624 0-13.794-2.37-13.794-5.288 0-2.938 6.17-5.305 13.794-5.305 7.619-.003 13.793 2.366 13.793 5.305z"/><path fill="#ACA8A3" d="M-46.918 394.395c0 2.821-5.97 5.112-13.336 5.112-7.369 0-13.336-2.291-13.336-5.112 0-2.841 5.967-5.129 13.336-5.129 7.366-.002 13.336 2.288 13.336 5.129z"/><path fill="#A9A5A1" d="M-47.376 394.395c0 2.723-5.767 4.937-12.879 4.937-7.117 0-12.879-2.213-12.879-4.937 0-2.743 5.762-4.954 12.879-4.954 7.112-.001 12.879 2.21 12.879 4.954z"/><path fill="#A7A39F" d="M-47.834 394.395c0 2.626-5.56 4.761-12.42 4.761-6.864 0-12.421-2.135-12.421-4.761 0-2.647 5.556-4.778 12.421-4.778 6.857-.001 12.42 2.13 12.42 4.778z"/><path fill="#A4A19D" d="M-48.293 394.395c0 2.527-5.357 4.584-11.962 4.584-6.61 0-11.962-2.057-11.962-4.584 0-2.548 5.352-4.603 11.962-4.603 6.605-.002 11.962 2.054 11.962 4.603z"/><path fill="#A29F9B" d="M-48.753 394.395c0 2.432-5.151 4.408-11.502 4.408-6.357 0-11.504-1.979-11.504-4.408 0-2.452 5.146-4.429 11.504-4.429 6.351 0 11.502 1.976 11.502 4.429z"/><path fill="#A09C99" d="M-49.212 394.395c0 2.333-4.944 4.231-11.042 4.231-6.104 0-11.046-1.898-11.046-4.231 0-2.354 4.942-4.253 11.046-4.253 6.097 0 11.042 1.898 11.042 4.253z"/><path fill="#9D9A96" d="M-49.67 394.395c0 2.235-4.74 4.056-10.585 4.056-5.851 0-10.586-1.82-10.586-4.056 0-2.258 4.735-4.076 10.586-4.076 5.845-.001 10.585 1.818 10.585 4.076z"/><path fill="#9B9894" d="M-50.128 394.395c0 2.139-4.536 3.879-10.127 3.879-5.598 0-10.127-1.74-10.127-3.879 0-2.159 4.53-3.899 10.127-3.899 5.591-.002 10.127 1.738 10.127 3.899z"/><path fill="#999692" d="M-50.588 394.395c0 2.043-4.329 3.703-9.667 3.703-5.345 0-9.669-1.661-9.669-3.703 0-2.063 4.324-3.724 9.669-3.724 5.338-.001 9.667 1.66 9.667 3.724z"/><path fill="#979490" d="M-51.046 394.395c0 1.944-4.124 3.527-9.208 3.527-5.091 0-9.21-1.583-9.21-3.527 0-1.965 4.119-3.549 9.21-3.549 5.084 0 9.208 1.582 9.208 3.549z"/><path fill="#94918E" d="M-51.505 394.395c0 1.848-3.918 3.352-8.75 3.352-4.838 0-8.752-1.504-8.752-3.352 0-1.869 3.914-3.373 8.752-3.373 4.832-.002 8.75 1.503 8.75 3.373z"/><path fill="#928F8C" d="M-51.962 394.395c0 1.75-3.714 3.176-8.293 3.176-4.585 0-8.294-1.426-8.294-3.176 0-1.771 3.709-3.198 8.294-3.198 4.579-.001 8.293 1.425 8.293 3.198z"/><path fill="#908D8A" d="M-52.422 394.395c0 1.653-3.507 3.001-7.833 3.001-4.332 0-7.835-1.348-7.835-3.001 0-1.673 3.503-3.021 7.835-3.021 4.326-.001 7.833 1.348 7.833 3.021z"/><path fill="#8E8B88" d="M-52.88 394.395c0 1.555-3.302 2.825-7.375 2.825-4.079 0-7.377-1.27-7.377-2.825 0-1.576 3.298-2.846 7.377-2.846 4.072 0 7.375 1.267 7.375 2.846z"/><path fill="#8C8986" d="M-53.338 394.395c0 1.459-3.099 2.647-6.917 2.647-3.825 0-6.917-1.188-6.917-2.647 0-1.479 3.092-2.67 6.917-2.67 3.819-.003 6.917 1.19 6.917 2.67z"/><path fill="#8A8785" d="M-53.797 394.395c0 1.361-2.892 2.472-6.457 2.472-3.572 0-6.459-1.11-6.459-2.472 0-1.381 2.888-2.494 6.459-2.494 3.565-.002 6.457 1.11 6.457 2.494z"/><path fill="#878583" d="M-54.255 394.395c0 1.264-2.687 2.296-5.999 2.296-3.32 0-6.001-1.032-6.001-2.296 0-1.284 2.684-2.319 6.001-2.319 3.312-.001 5.999 1.034 5.999 2.319z"/><path fill="#858381" d="M-54.714 394.395c0 1.166-2.48 2.12-5.541 2.12-3.065 0-5.544-.954-5.544-2.12 0-1.187 2.478-2.144 5.544-2.144 3.06 0 5.541.955 5.541 2.144z"/><path fill="#83817F" d="M-55.172 394.395c0 1.067-2.276 1.944-5.083 1.944-2.815 0-5.085-.874-5.085-1.944 0-1.09 2.27-1.968 5.085-1.968 2.806 0 5.083.878 5.083 1.968z"/><path fill="#81807D" d="M-55.631 394.395c0 .972-2.071 1.769-4.624 1.769-2.561 0-4.627-.797-4.627-1.769 0-.992 2.067-1.79 4.627-1.79 2.553-.003 4.624.797 4.624 1.79z"/><path fill="#7F7E7C" d="M-56.089 394.395c0 .875-1.866 1.593-4.166 1.593-2.306 0-4.169-.718-4.169-1.593 0-.896 1.86-1.617 4.169-1.617 2.3-.001 4.166.721 4.166 1.617z"/><path fill="#7D7C7A" d="M-56.548 394.395c0 .777-1.66 1.417-3.707 1.417-2.054 0-3.711-.641-3.711-1.417 0-.799 1.657-1.441 3.711-1.441 2.047-.001 3.707.641 3.707 1.441z"/><path fill="#7B7A78" d="M-57.006 394.395c0 .68-1.455 1.241-3.249 1.241-1.8 0-3.251-.562-3.251-1.241 0-.701 1.451-1.265 3.251-1.265 1.794 0 3.249.563 3.249 1.265z"/><path fill="#797877" d="M-57.464 394.395c0 .584-1.25 1.065-2.791 1.065-1.549 0-2.792-.481-2.792-1.065 0-.604 1.244-1.09 2.792-1.09 1.541 0 2.791.485 2.791 1.09z"/><path fill="#777775" d="M-57.923 394.395c0 .485-1.044.888-2.332.888-1.294 0-2.333-.402-2.333-.888 0-.507 1.039-.914 2.333-.914 1.287-.001 2.332.407 2.332.914z"/><path opacity=".34" fill="#fff" enable-background="new" d="M-60.024 294.288c20.49 0 37.6 14.53 41.27 33.676-2.998-19.927-20.484-35.266-41.547-35.266-23.16 0-42 18.553-42 41.36 0 2.623.252 5.193.728 7.686-.295-1.988-.453-4.025-.453-6.095-.001-22.808 18.838-41.361 42.002-41.361z"/><linearGradient id="s" gradientUnits="userSpaceOnUse" x1="-62.142" y1="-234.811" x2="-62.142" y2="-152.089" gradientTransform="matrix(1 0 0 -1 0 149)"><stop offset="0" stop-color="#fff"/><stop offset=".657" stop-color="#565050"/><stop offset="1" stop-color="#231F20"/></linearGradient><path fill="url(#s)" d="M-62.143 383.812c-23.162 0-42.002-18.557-42.002-41.36 0-22.809 18.84-41.361 42.002-41.361 23.16 0 42.004 18.556 42.004 41.361.001 22.803-18.844 41.36-42.004 41.36z"/><ellipse fill="#7B1315" cx="-60.528" cy="333.791" rx="43.616" ry="42.951"/><path fill="#F15A29" d="M-18.254 334.059c0-22.808-18.843-41.36-42-41.36-23.163 0-42.006 18.553-42.006 41.36 0 17.886 11.595 33.152 27.762 38.911l14.244 22.313 14.249-22.313c16.167-5.76 27.751-21.03 27.751-38.911z"/></g><g clip-path="url(#d)"><linearGradient id="t" gradientUnits="userSpaceOnUse" x1="-59.963" y1="-171.166" x2="-59.963" y2="-213.847" gradientTransform="matrix(1 0 0 -1 0 149)"><stop offset=".281" stop-color="#981C1F"/><stop offset=".431" stop-color="#AE1E23"/><stop offset=".613" stop-color="#C21F25"/><stop offset=".801" stop-color="#CF2026"/><stop offset="1" stop-color="#D32027"/></linearGradient><polygon fill="url(#t)" points="-84.388,320.165 -35.539,320.165 -59.962,362.847"/><polygon fill="#fff" points="-79.334,323.067 -59.962,356.929 -40.585,323.067"/></g><path d="M-212.933 307.333c-.751-.278-1.273-.708-1.57-1.289l-5.45-10.683c-.159-.313-.242-.642-.247-.989-.007-.348.045-.687.156-1.015.11-.328.272-.629.489-.904.215-.275.483-.492.798-.648l21.982-10.875c.315-.156.651-.238 1.004-.246.354-.005.696.048 1.029.155.332.11.639.269.92.481.278.213.498.474.658.786l5.752 11.276-4.283 3.482-3.957-7.755-17.112 8.466.748 1.465 11.323-5.601 3.594 7.038-13.76 6.807c-.613.303-1.303.319-2.074.049zM-207.416 319.934l-5.212-10.215 26.791-13.255 5.213 10.217-4.25 3.547-2.21-4.329-5.375 2.66 2.13 4.172-4.841 2.395-2.13-4.173-6.896 3.411 2.21 4.329-5.43 1.241zM-195.349 337.685c-.315.155-.652.236-1.004.241-.354.006-.7-.05-1.037-.168-.339-.119-.648-.284-.926-.497-.281-.213-.501-.477-.659-.786l-6.006-11.774c-.158-.311-.243-.641-.248-.989-.006-.347.045-.686.156-1.014.11-.328.272-.63.488-.904.215-.275.483-.491.798-.647l21.982-10.876c.317-.156.652-.237 1.004-.244.354-.005.697.045 1.029.152.333.11.641.271.92.481.28.214.5.477.659.788l6.006 11.772c.157.312.24.644.249.99.004.348-.045.688-.149 1.028-.105.339-.265.645-.482.921-.215.276-.483.494-.798.648l-21.982 10.878zm15.954-16.711l-1.285-2.524-17.112 8.467 1.285 2.524 17.112-8.467zM-187.408 335.314l7.307-3.614 4.561 8.938-7.307 3.615-4.561-8.939zM-186.739 360.455l-5.181-10.153 26.791-13.255 3.575 7.008-21.951 10.861 2.178 4.268-5.412 1.271zM-174.69 378.174c-.316.154-.652.237-1.005.242-.353.006-.698-.05-1.037-.168-.338-.119-.648-.284-.928-.497-.279-.213-.499-.476-.657-.786l-6.006-11.773c-.159-.313-.244-.641-.248-.99-.008-.347.046-.687.155-1.014.111-.328.273-.629.49-.904.213-.275.481-.492.796-.648l21.984-10.875c.315-.156.651-.237 1.005-.244.352-.007.695.046 1.028.153.332.107.639.27.92.48.279.214.499.476.658.787l6.004 11.774c.16.311.242.642.249.988s-.043.689-.147 1.03c-.105.336-.265.644-.482.92-.215.277-.483.492-.798.647l-21.981 10.878zm15.954-16.712l-1.286-2.522-17.112 8.468 1.286 2.522 17.112-8.468zM-175.251 382.977c-.158-.311-.241-.641-.249-.989-.005-.35.046-.688.157-1.014.109-.328.271-.63.487-.905.216-.275.483-.492.798-.648l21.982-10.877c.316-.154.652-.235 1.005-.241.354-.007.697.045 1.029.152.333.109.64.27.92.48.279.215.5.477.657.787l5.198 10.184-4.84 2.395-2.828-5.544-17.111 8.465 2.827 5.546-4.839 2.394-5.193-10.185zM-163.029 406.927l1.658-1.328.031-.093-2.289-4.487c.021-.008-.698.163-2.151.521l-3.64-7.136 24.541-5.782-1.209-2.367 5.396-1.303 4.912 9.623-23.613 19.483-3.636-7.131zm10.224-8.452l-5.411 1.273 1.162 2.273 4.249-3.546zM-132.514 412.856l-21.951 10.86-3.592-7.039 21.951-10.861-2.178-4.268 5.429-1.241 6.786 13.299-4.251 3.548-2.194-4.298zM-151.637 429.26l26.79-13.254 3.592 7.038-26.79 13.255-3.592-7.039zM-136.568 452.894c-.315.156-.652.236-1.005.244-.353.005-.698-.053-1.037-.168-.338-.121-.648-.286-.928-.499-.28-.211-.499-.475-.657-.784l-6.006-11.774c-.159-.313-.242-.641-.248-.99-.008-.346.045-.688.155-1.013.11-.328.272-.63.49-.905.214-.276.481-.491.797-.647l21.983-10.875c.316-.156.652-.24 1.004-.246.353-.005.697.046 1.03.154.332.108.639.27.92.479.278.216.497.477.657.788l6.005 11.774c.16.31.243.643.248.986.008.35-.043.691-.146 1.032-.106.336-.265.643-.484.921-.216.274-.481.491-.797.646l-21.981 10.877zm15.958-16.712l-1.287-2.522-17.112 8.468 1.287 2.522 17.112-8.468zM-133.473 464.86l21.761-10.768-1.286-2.522-21.762 10.767-3.575-7.008 26.791-13.255 3.574 7.008-1.771.877c.567-.073 1.141.022 1.711.286.571.263.982.646 1.237 1.144l2.478 4.857c.159.312.241.643.249.988.005.35-.045.692-.148 1.03-.105.338-.266.645-.481.923-.216.275-.484.491-.8.647l-24.385 12.064-3.593-7.038z"/></g><g clip-path="url(#b)"><defs><polygon id="u" points="-542.455,552.146 -607.88,601.536 -586.821,601.536 -586.821,667.988 -561.566,667.988 -561.566,619.961 -523.333,619.961 -523.333,667.988 -498.079,667.988 -498.079,601.536 -477.019,601.536"/></defs><clipPath id="v"><use xlink:href="#u" overflow="visible"/></clipPath><g clip-path="url(#v)"><path fill="#fff" d="M-142.699 887.533h-626.446v-616.881h626.446v616.881zm-220.139-223.72c1.241.481 2.475 1.371 3.72 1.379 13.307.1 26.613.063 39.921.063l.008-.76h-12.205v-26.814h5.958c23.115.004 46.229-.085 69.343.095 3.723.027 6.236-.983 8.213-4.009 1.685-2.578 3.679-4.957 5.534-7.425 1.181-1.528 2.36-3.052 3.539-4.581.976-1.803 2.782-3.606 2.797-5.416.186-25.544.124-51.087.124-76.63h-.639v77.875c-10.972 1.63-21.074 2.057-27.775-8.572-1.424-2.261-3.851-3.91-5.817-5.841l-.406-.392c-4.49-3.791-5.334-8.696-4.887-14.223.342-4.24-.407-8.595.161-12.786 1.439-10.612-6.353-15.116-13.165-20.373-1.189-1.16-2.374-2.323-3.561-3.488-1.058-1.625-1.859-3.504-3.217-4.835-5.657-5.542-11.477-10.919-17.241-16.358l-.427-.396c1.583-.631 3.151-1.765 4.75-1.81 6.938-.202 13.889-.035 20.831-.129 1.49-.023 3.469-.074 4.382-.958 6.21-6.026 12.197-12.278 18.256-18.459-1.318-.289-1.936.168-2.483.698-5.926 5.697-10.913 13.704-18.013 16.482-7.355 2.877-16.765.914-25.255.569-2.402-.098-5.15-1.476-7.013-3.086-4.802-4.147-9.198-8.754-13.757-13.175v.02c-.188-2.205-.538-4.405-.539-6.609-.035-29.79-.025-59.578-.025-89.368v-5.671h-6.453c-26.441-.001-52.884-.073-79.326.075-4.008.022-5.468-.993-5.366-5.149.271-11.074.093-22.159.093-33.242l-.853.003v38.323h-6.621c-21.622 0-43.245 0-64.867-.003-16.351 0-32.706.035-49.057-.021-5.207-.021-10.411-.288-15.617-.445-6.411-7.044-12.823-14.085-19.236-21.132l-2.285-3.126v6.874c0 26.205.03 52.407-.021 78.609-.016 7.557 1.815 7.948-8.291 7.93-15.103-.023-30.208-.005-45.313-.005l.001.676h53.276c.134 1.684.331 3.014.331 4.345.017 50.181.04 100.361-.069 150.54-.007 2.213-1.265 4.424-1.938 6.636-6.617 6.455-13.233 12.906-19.854 19.362l1.293 1.191 18.708-20.418c.624 1.648 1.783 3.294 1.792 4.945.114 25.358.08 50.717.08 76.078v5.156l1.338-.013v-88.335h6.841c58.44 0 116.879.053 175.317-.085 5.688-.018 10.893.088 14.474 5.205 6.839 7.003 13.676 14.007 20.511 21.009zm113.631-326.17h-167.663v64.878h90.608v55.964h77.056c-.001-40.492-.001-80.532-.001-120.842zm-229.454 448.716v-142.724h-95.943v142.724h95.943zm-108.145-303.695h-70.354v224.999c22.64-23.21 44.644-45.86 66.8-68.359 2.653-2.694 3.629-5.394 3.622-9.072-.106-47.289-.068-94.577-.068-141.865v-5.703zm120.642 161.188v142.062h72.584v-142.062h-72.584zm-190.966-306.222v133.222h69.323v-133.222h-69.323zm426.338 423.078v-116.718h-63.842v116.718h63.842zm-148.497 26.177h64.975v-112.77h-64.975v112.77zm-208.288-134.481c-1.179.909-1.741 1.245-2.185 1.699-21.917 22.43-43.855 44.834-65.638 67.388-1.339 1.385-1.987 3.941-2.005 5.96-.159 16.769-.092 33.538-.094 50.309-.002 2.852 0 5.701 0 8.757h69.92c.002-44.657.002-88.926.002-134.113zm30.89-314.966v64.509h56.362v-64.509h-56.362zm136.468 482.011v50.965c.725-1.464.719-2.93.725-4.395.067-16.44.117-32.881.204-49.318.046-8.195-1.897-10.117-10.484-10.117-78.784 0-157.57.004-236.354.012-9.393.002-11.889 3.236-9.593 12.854 84.887-.001 169.866-.001 255.502-.001zm-64.321-481.635v57.664h55.538v-57.664h-55.538zm214.71 198.477v60.315h28.661c0-19.255.059-38.044-.134-56.827-.012-1.174-1.942-3.294-3.035-3.331-8.296-.281-16.607-.157-25.492-.157zm-486.672 334.149h.854v-51.056h64.989c9.233 0 9.234-.001 9.238 9.32.001 13.213.001 26.425.001 39.637.759-18.126.83-36.245.711-54.362-.033-4.69-2.94-7.313-7.646-7.332-20.335-.094-40.671-.122-61.004.026-5.131.035-7.312 2.652-7.312 7.94-.003 11.636.118 23.272.165 34.906.025 6.974.004 13.949.004 20.921zm514.419-533.27l-1.551.056v6.008c.001 45.048-.063 90.097.094 135.141.018 4.942-1.018 8.74-4.9 12.163-4.794 4.225-8.987 9.105-13.107 13.361 4.993-4.522 10.243-9.421 15.656-14.136 2.982-2.593 3.899-5.593 3.892-9.491-.125-46.075-.083-92.15-.083-138.225l-.001-4.877zm-445.142 519.502h-25.21v11.3h25.21v-11.3zm262.705 18.225l.193-.382h-247.092v.382h246.899zm252.021-573.594l2.409-.133c0-4.653.121-9.313-.077-13.961-.056-1.252-1.073-2.469-1.648-3.701-1.195.961-2.888 1.686-3.499 2.926-1.459 2.966-2.412 6.175-4.099 10.727-1.796-4.866-2.874-8.25-4.336-11.463-.446-.974-1.891-1.635-3.022-2.1-.339-.141-1.679.866-1.691 1.363-.122 5.438-.076 10.884-.076 16.324l2.118.058c.334-3.391.669-6.779 1.151-11.68 2.212 4.995 3.77 8.514 5.331 12.031l1.426-.271c1.409-3.469 2.812-6.937 4.216-10.408l1.01.31c.263 3.326.527 6.654.787 9.978zm-298.188.068l1.984-.212v-17.861c-7.609 1.098-4.466 9.403-9.474 12.288-1.236-3.435-2.283-6.836-3.738-10.057-.425-.939-1.944-1.623-3.095-1.917-.453-.114-1.822 1.147-1.837 1.804-.114 4.95-.039 9.902.138 14.849.015.396 1.224.756 2.87 1.698v-11.282l1.056-.028c1.536 3.638 3.072 7.278 4.61 10.919l1.377.008c1.529-3.661 3.06-7.321 4.591-10.981l.752.271.766 10.501zm69.386-.406c9.54 1.166 10.462.134 8.635-9.028-.059-.301.045-.632.068-.948.473-7.153-1.763-8.855-8.703-6.588v16.564zm97.047-12.634c-3.399-5.413-7.554-6.403-11.958-3.935-3.949 2.214-5.651 6.684-4.19 11.01 1.489 4.417 5.258 6.727 10.09 6.183 4.666-.532 7.167-3.403 7.511-8.566h-10.254l.009 1.155c2.045.416 4.088.826 6.462 1.31-2.358 3.552-5.208 3.958-8.217 2.06-3-1.892-3.971-4.778-2.071-7.976 1.801-3.03 4.458-4.096 7.962-2.634 1.483.623 3.101.939 4.656 1.393zm27.17 13.052c5.507-.179 11.45 1.623 13.7-4.404 1.133-3.037.781-7.748-.943-10.415-2.843-4.396-8.084-3.244-12.757-2.819v17.638zm-68.916 1.263c5.035-1.458 9.946-1.592 12.612-4.068 2.058-1.907 2.362-7.023 1.539-10.24-1.306-5.102-6.467-5.074-10.831-4.763-1.178.085-3.069 2.008-3.167 3.203-.374 4.568-.153 9.182-.153 15.868zm-43.961-1.879l.652 1.568c4.947-6.871 9.902-6.226 14.863-.011l.692-1.619c-2.369-5.9-4.742-11.801-7.111-17.707-.722.072-1.445.14-2.168.208-2.309 5.857-4.616 11.708-6.928 17.561zm-76.6-.036l1.239 1.878c4.516-8.707 9.582-4.761 14.656-.734l.292-1.392c-2.337-5.813-4.676-11.626-7.015-17.442l-2.081.236c-2.365 5.819-4.728 11.637-7.091 17.454zm175.493-5.522l1.644.067c.409-3.086 2.143-6.865.936-9.106-2.116-3.932-6.654-2.866-10.16-2.297v17.384l1.545.208c.488-2.146.978-4.29 1.548-6.786 2.27 2.636 4.238 4.919 6.208 7.205l1.31-1.053-3.031-5.622zm-215.221 6.179l1.742-.252v-17.396l-1.522-.203c-.288 1.404-.273 2.974-.951 4.165-.745 1.318-2.126 2.288-3.231 3.408-1.107-1.12-2.459-2.096-3.251-3.4-.733-1.212-.868-2.776-1.266-4.188l-1.258.398v17.25l1.438.28 1.822-7.36c1.845.082 3.631.16 5.31.233.455 2.741.813 4.902 1.167 7.065zm-13.795-4.688c-6.075.931-14.015 5.078-13.793-4.441.216-9.267 7.933-4.713 14.001-3.873-2.954-4.556-6.217-6.002-10.278-4.972-4.497 1.142-7.076 4.222-7.162 8.924-.085 4.459 2.122 7.695 6.414 8.902 4.007 1.127 7.783.46 10.818-4.54zm106.229-.201c-5.873 1.025-13.563 5.434-13.872-3.7-.342-10.097 8.058-5.005 14.195-4.484-3.45-4.635-6.846-6.086-11.159-4.682-4.521 1.477-6.663 4.801-6.425 9.441.214 4.194 2.359 7.261 6.571 8.246 4.078.953 7.821.286 10.69-4.821zm195.293 452.183h.157v-111.73h-.157v111.73zm25.495-463.961c-3.731-2.177-8.548-1.911-8.725.74-.344 5.202-.1 10.441-.1 16.076 3.601-.202 6.345-.362 9.085-.516l.149-1.595-5.877-1.328c-2.979-6.501 5.148-2.824 5.725-5.576-2.265-1.494-4.249-2.806-6.233-4.119 1.921-1.183 3.842-2.369 5.976-3.682zm-33.028 10.538c-.513 4.546 1.242 6.538 4.072 6.134 2.091-.299 4.893-2.039 5.648-3.836 1.582-3.78-1.122-5.774-4.636-7.074-1.01-.374-1.477-2.156-2.195-3.289 1.271-.041 2.545-.171 3.805-.084.706.047 1.386.462 2.075.709l.956-1.418c-1.538-1.081-3.075-3.012-4.61-3.012-1.635 0-4.221 1.545-4.657 2.938-.529 1.69.44 4.095 1.393 5.862.524.978 2.651 1.016 3.472 1.965.806.928.874 2.478 1.267 3.756-1.354.013-2.746.204-4.046-.037-.626-.115-1.088-1.062-2.544-2.614zm-137.932-7.284l1.341-1.534c-1.479-1.095-2.958-3.056-4.438-3.056-1.654 0-4.264 1.47-4.721 2.857-.556 1.692.302 4.18 1.297 5.901.637 1.101 2.889 1.191 3.925 2.221.742.737.666 2.271.955 3.454-1.221.185-2.521.707-3.638.454-1.02-.231-1.841-1.308-2.75-2.01l-1.355 1.705c1.78 1.214 3.676 3.535 5.312 3.367 2.034-.207 4.975-2.184 5.433-3.929.447-1.687-1.572-4.182-2.892-6.062-.585-.832-2.304-.815-3.154-1.57-.589-.526-1.024-1.94-.707-2.536.344-.643 1.727-1.217 2.494-1.056 1.05.219 1.938 1.162 2.898 1.794zm4.749-4.661c0 4.783-.174 8.706.079 12.598.117 1.816.655 4.765 1.724 5.122 2.337.786 5.135.243 7.744.243.013-.684.025-1.366.033-2.049-2.038-.34-4.074-.681-5.955-.996-2.791-6.716 5.21-2.994 5.968-6.288-1.827-2.048-8.404 1.04-5.916-5.461 2.011-.351 4.003-.699 5.998-1.049l-.097-1.652-9.578-.468zm-190.191 12.761c-.834 3.908 1.208 5.687 3.946 5.313 2.087-.285 4.906-2.042 5.648-3.84 1.548-3.764-1.093-5.8-4.65-7.071-1.001-.356-1.473-2.15-2.186-3.282 1.272-.05 2.559-.207 3.819-.11.71.054 1.389.522 2.08.805l1.027-1.256c-1.507-1.159-2.976-3.176-4.532-3.243-1.626-.07-4.113 1.376-4.795 2.814-.688 1.442.034 3.856.823 5.534.468.992 2.529 1.146 3.389 2.096.96 1.058 1.374 2.596 2.025 3.924-1.466-.027-2.954.083-4.388-.137-.667-.101-1.235-.84-2.206-1.547zm391.104-8.137l1.379-1.465c-1.441-1.101-2.89-3.077-4.327-3.072-1.655.007-4.244 1.461-4.709 2.844-.568 1.698.256 4.193 1.235 5.926.633 1.104 2.885 1.21 3.94 2.236.751.729.715 2.245 1.032 3.412-1.228.19-2.555.738-3.668.468-1.047-.253-1.879-1.374-2.802-2.111l-1.424 1.701c1.787 1.248 3.68 3.611 5.331 3.457 2.009-.19 4.945-2.229 5.379-3.972.423-1.713-1.639-4.156-2.923-6.075-.467-.707-2.133-.592-2.717-1.288-.634-.755-.652-2.016-.932-3.052.911-.229 1.89-.765 2.715-.594.902.183 1.667 1.027 2.491 1.585zm-84.96-.007l1.09-1.175c-1.373-1.188-2.952-3.514-4.076-3.315-1.972.341-4.948 2.052-5.16 3.517-.268 1.874 1.654 4.152 2.873 6.111 1.01 1.625 3.698 3.877 3.353 4.411-2.189 3.379-3.794.067-5.636-.931-.208-.111-.619.129-2.523.595 2.22 1.845 3.767 4.165 5.332 4.176 1.942.019 5.078-1.516 5.557-3.031.587-1.872-.85-4.491-1.794-6.622-.294-.664-2.098-.556-2.723-1.233-.87-.948-1.283-2.303-1.89-3.483 1.31.077 2.631.091 3.927.261.578.076 1.112.467 1.67.719zm-253.212-1.549c2.189-.288 3.965-.521 5.74-.753v-1.778c-2.899-.134-5.799-.269-8.88-.415v18.021c3.219-.147 6.056-.278 8.895-.412l.111-1.697-5.912-1.157c-3.116-6.573 4.875-3.095 5.853-6.125-1.713-2.212-8.447.875-5.807-5.684zm257.739-3.424l-1.409.998c1.988 5.799 3.98 11.597 6.086 17.744 2.125-6.412 4.025-12.154 5.926-17.893l-1.318-.712c-1.471 2.362-2.944 4.724-4.591 7.366l-4.694-7.503zm-67.395 474.933h.184v-80.063l-.184.003v80.06zm92.14-473.855c7.197 4.653.538 12.532 5.496 17.294.77-2.881.533-5.79.841-8.644.295-2.749 1.157-5.446 1.88-8.65h-8.217zm-235.278.027c7.589 4.093-.378 12.87 5.101 17.649 2.872-5.786-2.535-12.883 5.631-17.649h-10.732zm-237.056 590.843l.144-.384h-65.502l-.002.384h65.36zm249.606-573.752c3.668-4.184 3.138-15.555 0-17.404v17.404zm153.192 1.263c3.228-5.056 3.046-15.931 0-19.144v19.144zm-204.654 95.239c-7.742-5.737-3.133-14.129-4.985-21.131 1.533 7.071-3.572 15.573 4.985 21.131zm182.612 67.821l-.001-.179h-22.584l.001.179h22.584zm-406.371 359.484l-.107.768h24.382l.005-.768h-24.28z"/><path d="M-172.499 301.303c-.261-3.327-.525-6.651-.788-9.979l-1.01-.308c-1.405 3.471-2.808 6.939-4.216 10.408l-1.426.271c-1.563-3.519-3.119-7.037-5.331-12.032-.482 4.899-.816 8.289-1.151 11.679l-2.118-.058c0-5.44-.045-10.886.076-16.323.012-.497 1.353-1.502 1.691-1.364 1.131.466 2.576 1.127 3.022 2.101 1.461 3.214 2.538 6.598 4.336 11.464 1.688-4.554 2.64-7.762 4.099-10.728.611-1.24 2.304-1.965 3.499-2.925.576 1.232 1.592 2.448 1.648 3.7.198 4.647.077 9.307.077 13.96-.801.047-1.603.09-2.408.134zM-193.067 284.721c-2.133 1.313-4.054 2.496-5.976 3.683 1.984 1.313 3.969 2.622 6.234 4.118-.578 2.753-8.704-.924-5.725 5.577 1.936.436 3.907.88 5.876 1.326-.051.532-.102 1.062-.148 1.596l-9.085.516c0-5.634-.243-10.874.1-16.076.176-2.651 4.991-2.917 8.724-.74zM-226.095 295.259c1.456 1.552 1.918 2.496 2.541 2.611 1.3.244 2.693.051 4.046.038-.393-1.279-.459-2.826-1.266-3.756-.821-.948-2.948-.988-3.472-1.964-.952-1.767-1.92-4.174-1.393-5.861.436-1.394 3.022-2.939 4.658-2.939 1.535 0 3.072 1.932 4.61 3.011l-.956 1.418c-.688-.248-1.37-.661-2.075-.71-1.26-.084-2.534.045-3.805.086.718 1.132 1.185 2.914 2.194 3.287 3.515 1.302 6.219 3.294 4.637 7.076-.757 1.798-3.557 3.538-5.648 3.837-2.83.404-4.584-1.588-4.071-6.134zM-158.365 287.938c-.824-.558-1.589-1.401-2.489-1.587-.826-.171-1.804.365-2.716.594.28 1.036.298 2.299.932 3.052.584.696 2.25.58 2.717 1.289 1.283 1.919 3.345 4.361 2.923 6.073-.435 1.746-3.372 3.782-5.379 3.975-1.651.153-3.546-2.212-5.331-3.46l1.423-1.699c.923.736 1.755 1.859 2.802 2.111 1.113.271 2.44-.278 3.668-.47-.315-1.165-.279-2.683-1.031-3.412-1.054-1.026-3.307-1.129-3.94-2.236-.98-1.73-1.802-4.227-1.235-5.924.465-1.383 3.054-2.837 4.709-2.844 1.437-.006 2.886 1.973 4.327 3.072l-1.38 1.466zM-238.798 282.958c1.531 2.445 3.06 4.892 4.693 7.504l4.59-7.366 1.319.712c-1.901 5.74-3.801 11.48-5.926 17.893-2.106-6.147-4.098-11.945-6.086-17.744.469-.335.939-.668 1.41-.999zM-214.053 284.036h8.218c-.723 3.207-1.585 5.902-1.88 8.652-.31 2.853-.072 5.762-.841 8.642-4.961-4.762 1.7-12.641-5.497-17.294z"/></g><polygon stroke="#000" stroke-width="1.505" stroke-miterlimit="10" points="-542.455,552.146 -607.88,601.536 -586.821,601.536 -586.821,667.988 -561.566,667.988 -561.566,619.961 -523.333,619.961 -523.333,667.988 -498.079,667.988 -498.079,601.536 -477.019,601.536" fill="none"/></g><g clip-path="url(#b)"><defs><rect id="w" x="-21.912" y="270.5" width="200.004" height="200"/></defs><clipPath id="x"><use xlink:href="#w" overflow="visible"/></clipPath><g clip-path="url(#x)"><g fill="#CE0067"><path d="M-113.499 382.167h-44.401c-2.95 0-5.348 2.367-5.348 5.271v32.071c0 2.906 2.398 5.271 5.348 5.271h44.401c2.95 0 5.347-2.365 5.347-5.271v-32.071c0-2.904-2.397-5.271-5.347-5.271zm1.786 37.342c0 .966-.802 1.76-1.786 1.76h-44.401c-.986 0-1.786-.794-1.786-1.76v-32.071c0-.968.799-1.756 1.786-1.756h44.401c.983 0 1.786.788 1.786 1.756v32.071zM-186.343 385.682c-6.339 0-11.495 5.085-11.495 11.339 0 6.253 5.156 11.344 11.495 11.344 6.343 0 11.5-5.091 11.5-11.344-.001-6.254-5.157-11.339-11.5-11.339zm-4.155 12.448c-1.952 0-3.539-1.56-3.539-3.486 0-1.932 1.587-3.499 3.539-3.499 1.958 0 3.54 1.567 3.54 3.499-.001 1.926-1.583 3.486-3.54 3.486zM-170.08 375.714h-32.516c-1.971 0-3.57 1.571-3.57 3.515v76.253c0 1.943 1.599 3.519 3.57 3.519h32.515c1.962 0 3.562-1.575 3.562-3.519v-76.253c.001-1.944-1.599-3.515-3.561-3.515zm-16.263 36.163c-8.302 0-15.059-6.666-15.059-14.856 0-8.196 6.757-14.854 15.059-14.854 8.307 0 15.063 6.658 15.063 14.854 0 8.19-6.758 14.856-15.063 14.856z"/></g><path fill="#CE0067" d="M-227.866 372.745l-.004.007c-.06-.774-.724-1.387-1.535-1.387-.846 0-1.535.67-1.535 1.496v31.703c-2.534-2.307-6.41-3.782-10.756-3.782-7.636 0-13.826 4.552-13.826 10.164 0 5.616 6.19 10.165 13.826 10.165 7.518 0 13.628-4.411 13.818-9.9l.011-.176v-20.015c3.26-.09 11.791.725 12.541 12.275.054.798.69 1.494 1.541 1.494.843 0 1.533-.668 1.533-1.494v-5.413c1.258-23.707-14.472-15.275-15.614-25.137z"/><g fill="#CE0067"><path d="M-129.033 480.661l-11.759-11.603c1.703-2.346 2.622-5.16 2.609-8.116-.018-3.731-1.504-7.24-4.184-9.884-2.703-2.66-6.278-4.126-10.081-4.126-3.767 0-7.298 1.441-9.949 4.056-2.672 2.631-4.127 6.142-4.113 9.871.016 3.731 1.505 7.239 4.18 9.885 2.703 2.659 6.284 4.126 10.083 4.126 2.975 0 5.804-.9 8.173-2.572l11.757 11.602c.833.818 2.14.859 2.923.086l.449-.44c.784-.775.742-2.067-.088-2.885zm-31.708-11.482c-4.674-4.613-4.707-12.057-.073-16.628 2.304-2.271 5.329-3.409 8.366-3.409 3.067 0 6.144 1.163 8.495 3.48 4.672 4.612 4.709 12.054.073 16.63-2.303 2.271-5.33 3.405-8.365 3.405-3.068 0-6.145-1.157-8.496-3.478z"/><polygon points="-143.75,463.282 -143.75,458.797 -149.945,458.797 -149.945,452.681 -154.493,452.681 -154.493,458.797 -160.696,458.797 -160.696,463.282 -154.493,463.282 -154.493,469.395 -149.945,469.395 -149.945,463.282"/></g><path fill="#CE0067" d="M-81.909 489.078c-1.013 0-1.392.168-2.25.994-.132.126-.45.499-.759.861l-.483.554c-1.459 1.558-3.206 2.813-5.194 3.736-2.302 1.068-4.763 1.607-7.314 1.607-4.756 0-8.817-1.623-12.061-4.824-3.246-3.202-4.896-7.209-4.896-11.897 0-4.7 1.591-8.762 4.723-12.082 3.129-3.316 7.104-4.99 11.816-4.99 4.214 0 7.776 1.268 10.595 3.777 2.806 2.507 4.23 5.877 4.23 10.019 0 2.851-.781 5.517-2.329 7.917-1.515 2.353-3.165 3.548-4.904 3.548-.441 0-.953-.145-.953-1.291 0-.205.056-.516.171-.915l.412-1.52c4.155-14.432 4.163-14.526 4.168-14.557.054-.457-.05-.845-.304-1.125-.314-.352-.83-.521-1.533-.496-1.415.048-1.944.56-2.297 1.315-.056.113-.482 1.347-.781 2.215-.652-1.207-1.477-2.127-2.465-2.731-1.152-.709-2.438-1.066-3.828-1.066-3.755 0-6.946 1.629-9.481 4.846-2.364 2.999-3.556 6.503-3.556 10.409 0 2.439.797 4.568 2.383 6.334 1.59 1.771 3.618 2.666 6.026 2.666 1.271 0 2.538-.346 3.764-1.03 1.006-.562 1.927-1.231 2.743-1.99.114.862.476 1.558 1.066 2.073.721.63 1.604.947 2.625.947 2.99 0 5.936-1.425 8.746-4.233 3.204-3.199 4.827-7.146 4.827-11.725 0-4.977-1.911-9.131-5.677-12.351-3.75-3.209-8.343-4.836-13.649-4.836-5.741 0-10.736 2.016-14.841 5.987-4.112 3.977-6.194 8.886-6.194 14.591 0 5.86 2.082 10.851 6.194 14.824 4.105 3.971 9.199 5.986 15.14 5.986 3.553 0 6.938-.859 10.072-2.548 2.857-1.544 5.171-3.637 6.885-6.229.155-.236.578-.938.626-1.048.244-.523.132-.897-.016-1.115-.253-.384-.778-.607-1.447-.607zm-11.909-11.776c0 2.31-.782 4.655-2.319 6.973-1.677 2.473-3.569 3.729-5.628 3.729-1.301 0-2.324-.456-3.122-1.389-.801-.939-1.206-2.181-1.206-3.704 0-2.382.813-4.747 2.407-7.025 1.575-2.241 3.479-3.383 5.656-3.383 1.108 0 2.066.481 2.921 1.479.858.996 1.291 2.111 1.291 3.32z"/><path fill="#CE0067" d="M-29.316 281.918c-.622 0-.854.102-1.381.608l-.465.53-.298.342c-.896.956-1.967 1.728-3.188 2.296-1.413.652-2.925.988-4.488.988-2.924 0-5.414-.999-7.406-2.965-1.992-1.966-3.002-4.425-3.002-7.304 0-2.885.976-5.379 2.897-7.417 1.919-2.038 4.367-3.067 7.255-3.067 2.591 0 4.775.785 6.5 2.324 1.726 1.537 2.597 3.607 2.597 6.149 0 1.753-.477 3.385-1.422 4.856-.937 1.446-1.947 2.178-3.019 2.178-.271 0-.581-.087-.581-.79 0-.129.029-.317.1-.563l.258-.933c2.544-8.86 2.552-8.918 2.552-8.935.035-.281-.029-.518-.184-.69-.192-.215-.506-.317-.937-.306-.873.027-1.198.343-1.416.807-.031.071-.296.83-.481 1.357-.397-.74-.904-1.304-1.51-1.675-.708-.433-1.499-.65-2.354-.65-2.304 0-4.262 1-5.819 2.974-1.45 1.841-2.183 3.992-2.183 6.391 0 1.496.49 2.806 1.463 3.888.975 1.087 2.223 1.637 3.699 1.637.781 0 1.562-.21 2.308-.634.619-.345 1.185-.755 1.686-1.223.073.53.291.957.657 1.277.439.386.984.579 1.608.579 1.837 0 3.642-.873 5.368-2.601 1.964-1.966 2.965-4.388 2.965-7.195 0-3.057-1.172-5.604-3.484-7.581-2.305-1.969-5.121-2.969-8.38-2.969-3.526 0-6.59 1.236-9.115 3.671-2.522 2.443-3.801 5.458-3.801 8.956 0 3.602 1.279 6.664 3.801 9.103 2.519 2.437 5.652 3.674 9.299 3.674 2.178 0 4.255-.522 6.178-1.563 1.751-.947 3.172-2.23 4.228-3.825.093-.144.352-.573.384-.64.151-.325.077-.554-.014-.688-.142-.232-.466-.371-.875-.371zm-7.308-7.227c0 1.419-.482 2.856-1.426 4.28-1.026 1.52-2.188 2.29-3.448 2.29-.806 0-1.433-.275-1.92-.854-.49-.577-.742-1.337-.742-2.271 0-1.464.497-2.917 1.479-4.317.968-1.375 2.137-2.073 3.474-2.073.675 0 1.261.295 1.789.906.526.611.794 1.297.794 2.039z"/><g fill="#CE0067"><path d="M-168.542 263.603c-1.294 0-2.337 1.011-2.337 2.259s1.043 2.26 2.337 2.26c11.902 0 21.576 9.537 21.576 21.26 0 1.245 1.05 2.26 2.339 2.26 1.294 0 2.342-1.015 2.342-2.26 0-14.216-11.776-25.779-26.257-25.779zM-156.158 289.381c0 1.245 1.052 2.26 2.345 2.26 1.294 0 2.339-1.015 2.339-2.26 0-9.463-7.655-17.161-17.066-17.161-1.295 0-2.338 1.013-2.338 2.261 0 1.247 1.043 2.262 2.338 2.262 6.832-.001 12.382 5.668 12.382 12.638zM-153.556 296.659c-1.25-1.234-3.032-1.413-4.052-.405l-3.443 3.383-18.39-18.135 3.667-3.679c1.02-1.006.838-2.763-.413-3.998l-5.754-5.672c-1.253-1.234-3.032-1.414-4.054-.409l-4.319 4.313c-2.818 2.785-3.048 6.813-.543 10.619 8.589 13.063 15.744 19.935 28.611 28.226 3.695 2.38 7.945 2.245 10.767-.54l4.088-4.031c1.024-1.001.838-2.762-.412-3.995l-5.753-5.677z"/></g><path fill="#CE0067" d="M-216.644 286.82h-35.129c-2.012 0-3.64 1.61-3.64 3.596v55.891c0 1.985 4.245 6.389 21.059 6.389s21.349-4.403 21.349-6.389v-55.891c0-1.985-1.627-3.596-3.639-3.596zm-24.379 57.248h-6.056c-.646 0-1.165-.518-1.165-1.148 0-.633.52-1.148 1.165-1.148h6.056c.642 0 1.164.517 1.164 1.148 0 .631-.522 1.148-1.164 1.148zm10.484-.717c0 1.761-1.449 3.191-3.234 3.191h-.872c-1.787 0-3.234-1.431-3.234-3.191v-.862c0-1.76 1.449-3.189 3.234-3.189h.872c1.787 0 3.234 1.43 3.234 3.189v.862zm9.205.717h-6.06c-.643 0-1.166-.518-1.166-1.148 0-.633.524-1.148 1.166-1.148h6.059c.638 0 1.163.517 1.163 1.148-.001.631-.524 1.148-1.162 1.148zm3.233-7.068h-32.214v-45.104h32.214v45.104z"/><g fill="#CE0067"><path d="M-250.52 459.541c-.871.857-.886 2.234-.036 3.071.851.846 2.245.83 3.117-.029 8.004-7.896 21.021-7.9 29.018-.014.852.837 2.249.825 3.121-.037.864-.854.881-2.231.032-3.069-9.699-9.567-25.513-9.531-35.252.078zM-244.641 465.343c-.87.86-.885 2.236-.034 3.076.85.84 2.248.822 3.117-.037 4.593-4.53 12.204-4.404 16.956.286.851.841 2.246.824 3.116-.031.871-.859.886-2.233.035-3.074-6.456-6.371-16.861-6.466-23.19-.22zM-236.178 470.073c-1.813 1.788-1.816 4.682-.008 6.469 1.808 1.779 4.741 1.775 6.553-.012 1.816-1.79 1.82-4.684.012-6.468-1.809-1.783-4.743-1.78-6.557.011zM-211.965 445.867h-42.526c-2.382 0-4.318 1.913-4.318 4.257v31.917c0 2.349 1.936 4.26 4.318 4.26h42.526c2.379 0 4.315-1.911 4.315-4.26v-31.917c0-2.344-1.936-4.257-4.315-4.257zm1.66 36.174c0 .902-.745 1.641-1.661 1.641h-42.526c-.918 0-1.661-.738-1.661-1.641v-31.917c0-.899.742-1.635 1.661-1.635h42.526c.916 0 1.661.735 1.661 1.635v31.917z"/></g><g fill="#CE0067"><path d="M-53.69 455.954c.429.383 1.093.383 1.527 0l12.938-11.431c.266-.206.44-.53.44-.89 0-.625-.512-1.134-1.144-1.134h-4.2059999999999995v-19.961c0-.624-.514-1.132-1.141-1.132h-15.303c-.637 0-1.149.508-1.149 1.132v19.962h-4.198c-.479 0-.9.291-1.073.729-.168.436-.045.933.31 1.246l12.999 11.479zM-33.502 449.42v10.923c0 .524-.434.946-.96.946h-36.93c-.528 0-.961-.422-.961-.946v-11.003h-3.271v11.003c0 2.298 1.9 4.173 4.232 4.173h36.932c2.33 0 4.232-1.877 4.232-4.173v-10.923h-3.274z"/></g><g fill="#CE0067"><path d="M-183.618 344.811h-11.408c-.833 0-1.507.666-1.507 1.483 0 .825.673 1.488 1.507 1.488h11.408c.831 0 1.506-.663 1.506-1.488 0-.817-.675-1.483-1.506-1.483zM-157.557 370.518h-11.409c-.833 0-1.507.666-1.507 1.487 0 .818.672 1.487 1.507 1.487h11.409c.832 0 1.506-.669 1.506-1.487.002-.821-.673-1.487-1.506-1.487zM-151.234 345.021h-12.255v-12.289h-11.05v-10.699c0-1.5-1.235-2.721-2.758-2.721h-24.051c-1.523 0-2.758 1.221-2.758 2.721v18.049c0 1.501 1.235 2.718 2.758 2.718h24.051c1.521 0 2.758-1.217 2.758-2.718v-5.249h8.916v10.191h-9.662c-1.525 0-2.758 1.218-2.758 2.715v18.055c0 1.501 1.233 2.715 2.758 2.715h24.051c1.515 0 2.758-1.214 2.758-2.715v-18.056c0-1.497-1.244-2.717-2.758-2.717zm-25.437-4.94c0 .344-.281.619-.626.619h-24.051c-.351 0-.63-.275-.63-.619v-18.049c0-.34.28-.615.63-.615h24.051c.345 0 .626.275.626.615v18.049zm26.065 25.709c0 .339-.281.617-.628.617h-24.051c-.348 0-.63-.278-.63-.617v-18.053c0-.337.282-.613.63-.613h24.051c.347 0 .628.276.628.613v18.053z"/></g><g fill="#CE0067"><path d="M-129.273 263.603c-6.614 0-12 5.31-12 11.841 0 4.561 2.706 8.769 6.892 10.713.097.044.205.068.307.068.273 0 .539-.152.658-.409.172-.357.016-.783-.348-.95-3.679-1.714-6.057-5.412-6.057-9.422 0-5.741 4.733-10.416 10.549-10.416 5.824 0 10.559 4.675 10.559 10.416 0 3.984-2.358 7.675-6.007 9.393-.361.171-.514.599-.345.957.173.355.612.504.968.333 4.148-1.956 6.835-6.148 6.835-10.683-.001-6.529-5.384-11.841-12.011-11.841zM-125.506 281.588c-.347.204-.453.645-.248.982.208.34.653.447.994.245 2.64-1.577 4.217-4.331 4.217-7.372 0-4.749-3.913-8.61-8.728-8.61-4.809 0-8.719 3.861-8.719 8.61 0 3.013 1.624 5.842 4.25 7.389.117.07.237.102.37.102.249 0 .484-.126.621-.347.206-.341.091-.779-.252-.983-2.185-1.287-3.545-3.647-3.545-6.16 0-3.96 3.266-7.18 7.274-7.18 4.012 0 7.283 3.22 7.283 7.18 0 2.536-1.314 4.833-3.517 6.144zM-127.828 278.571c1.141-.537 1.924-1.678 1.924-3.002 0-1.833-1.507-3.321-3.37-3.321-1.854 0-3.362 1.485-3.362 3.321 0 1.324.786 2.464 1.921 2.999l-3.294 15.422c-.047.204.005.42.142.581.131.165.334.256.542.256h8.11c.389 0 .706-.311.706-.691l-.029-.203-3.29-15.362z"/></g><path fill="#CE0067" d="M-81.997 442.444v-5.63h-3.297c-.347-1.569-.973-3.03-1.826-4.339l2.335-2.304-4.041-3.98-2.335 2.3c-1.325-.84-2.806-1.456-4.395-1.798v-3.254h-5.712v3.254c-1.588.342-3.071.958-4.398 1.798l-2.339-2.3-4.034 3.98 2.334 2.304c-.853 1.309-1.479 2.77-1.824 4.339h-3.301v5.63h3.301c.345 1.569.971 3.031 1.824 4.342l-2.334 2.302 4.034 3.982 2.339-2.306c1.327.843 2.81 1.461 4.398 1.802v3.256h5.712v-3.256c1.589-.341 3.07-.959 4.395-1.802l2.335 2.306 4.041-3.982-2.335-2.302c.853-1.311 1.479-2.772 1.826-4.342h3.297zm-6.78-2.375l-.014.134-.024.318-.011.133-.053.419-.008.047-.072.369-.029.145-.066.28-.036.142c-.186.704-.454 1.372-.793 2.003l-.157.283-.035.059-.165.271-.016.034c-.188.283-.384.558-.594.817l-.035.042-.203.241-.042.053c-.3.339-.621.654-.963.947l-.056.049-.24.196-.044.033c-.266.206-.54.401-.825.577l-.038.028-.273.162-.063.035-.284.152c-.52.27-1.069.499-1.638.672h-.002l-.395.113-.141.034-.288.065-.144.029-.381.069-.043.005-.426.054-.134.015-.323.025-.13.005-.448.014-.445-.014-.133-.005-.322-.025-.135-.015-.427-.054-.042-.005-.38-.069-.143-.029-.291-.065-.141-.034-.395-.113c-.57-.173-1.117-.402-1.64-.672l-.281-.152-.065-.035-.273-.162-.036-.028c-.285-.176-.563-.37-.826-.577l-.045-.033-.239-.196-.06-.049c-.341-.293-.655-.608-.956-.947l-.052-.056-.197-.238-.036-.042c-.207-.26-.405-.534-.588-.816l-.025-.037-.164-.265-.037-.065-.153-.278c-.338-.628-.609-1.302-.796-2.006l-.037-.142-.063-.28-.028-.145-.066-.369-.011-.047-.053-.419-.015-.133-.024-.318-.009-.134-.008-.439.008-.44.009-.128.024-.317.015-.137.053-.415.011-.053.066-.372.028-.142.063-.278.042-.145.106-.385v-.004c.182-.562.411-1.101.682-1.615l.162-.281.032-.061.168-.269.021-.034c.183-.283.378-.554.588-.819l.036-.04.198-.239.045-.058c.3-.335.62-.652.965-.946l.051-.046.244-.198.045-.03c.264-.208.541-.404.832-.584l.031-.021.276-.166.056-.032.288-.155c.523-.271 1.069-.496 1.64-.67l.392-.112.146-.035.28-.064.149-.027.376-.065.045-.008.429-.058.134-.012.323-.024.133-.009.445-.008.448.008.13.009.323.024.134.012.425.052.051.014.375.065.145.027.283.064.144.035.395.109.002.003c.569.174 1.118.399 1.638.67l.284.155.063.035.273.163.029.021c.293.182.57.376.837.584l.04.03.239.198.056.045c.343.295.664.612.963.947l.042.058.202.239.035.04c.208.263.407.536.595.816l.023.037.157.265.036.066.156.279c.274.511.508 1.054.683 1.615l.004.004.106.385.036.145.067.278.029.142.072.372.008.053.053.415.011.137.023.317.014.128.011.44-.008.44z"/><path fill="#CE0067" d="M-115.33 367.58v-5.184h-3.037c-.321-1.443-.898-2.788-1.684-3.992l2.151-2.118-3.719-3.668-2.146 2.119c-1.222-.775-2.587-1.343-4.05-1.653v-2.997h-5.259v2.997c-1.463.311-2.829.878-4.046 1.653l-2.157-2.119-3.711 3.668 2.147 2.118c-.784 1.203-1.359 2.547-1.678 3.992h-3.035v5.184h3.035c.319 1.443.895 2.79 1.678 3.997l-2.147 2.122 3.711 3.66 2.157-2.12c1.217.778 2.583 1.349 4.046 1.658v2.995h5.259v-2.995c1.46-.31 2.828-.88 4.05-1.658l2.146 2.12 3.719-3.66-2.151-2.122c.785-1.204 1.362-2.552 1.684-3.997h3.037zm-6.248-2.186l-.006.121-.025.294-.015.12-.044.389-.012.042-.062.343-.029.131-.059.26-.035.132c-.168.646-.418 1.261-.728 1.844l-.148.26-.028.05-.152.253-.021.03c-.167.26-.349.516-.541.756l-.029.038-.184.223-.045.047c-.275.311-.568.604-.884.873l-.055.043-.222.183-.039.031c-.242.188-.496.366-.758.531l-.033.023-.256.147-.057.032-.257.144c-.484.249-.985.457-1.509.617l-.365.104-.132.03-.265.059-.132.026-.354.066-.037.006-.391.049-.121.012-.3.023-.125.007-.41.011-.407-.011-.126-.007-.292-.023-.125-.012-.396-.049-.037-.006-.354-.066-.131-.026-.263-.059-.129-.03-.367-.104c-.527-.16-1.028-.368-1.507-.617l-.259-.144-.062-.032-.25-.147-.036-.023c-.262-.162-.516-.343-.76-.531l-.041-.031-.219-.183-.054-.043c-.313-.27-.609-.563-.881-.873l-.045-.05-.183-.22-.032-.038c-.194-.24-.376-.493-.54-.752l-.024-.034-.149-.244-.035-.062-.142-.256c-.312-.578-.561-1.198-.732-1.845l-.031-.132-.062-.26-.028-.131-.06-.343-.007-.042-.054-.389-.009-.12-.024-.294-.009-.121-.005-.406.005-.404.009-.122.024-.288.009-.126.054-.383.007-.047.06-.342.028-.131.062-.263.031-.133.105-.349v-.007c.16-.52.371-1.013.624-1.482l.145-.263.035-.056.149-.248.024-.035c.164-.257.347-.509.54-.752l.032-.038.185-.221.043-.046c.272-.313.569-.604.881-.875l.054-.042.219-.184.041-.029c.244-.192.5-.372.766-.536l.027-.021.257-.149.05-.031.266-.142c.48-.249.981-.459 1.507-.618l.363-.104.134-.032.26-.06.134-.025.351-.062.04-.011.396-.047.125-.014.292-.021.126-.006.407-.011.41.011.125.006.294.021.126.014.392.047.048.011.343.062.132.025.265.06.132.032.365.104c.525.159 1.025.369 1.509.618l.257.142.057.031.256.149.033.021c.26.164.517.345.764.536l.034.029.222.184.055.042c.316.271.609.562.884.875l.045.046.184.221.029.038c.192.243.374.489.539.752l.025.035.147.248.036.056.143.26c.257.473.466.966.629 1.484v.007l.101.349.033.134.059.261.027.133.062.342.014.047.045.383.014.124.023.288.006.122.013.404-.012.408z"/><g fill="#CE0067"><path d="M-97.976 357.63v41.621h13.082v-41.621h-13.082zm3.486 4.241h6.112v21.136h-6.112v-21.136zm3.055 33.679c-1.754 0-3.177-1.398-3.177-3.131 0-1.729 1.423-3.131 3.177-3.131 1.751 0 3.169 1.402 3.169 3.131.003 1.732-1.418 3.131-3.169 3.131zM-79.414 357.63v41.621h13.083v-41.621h-13.083zm3.486 4.241h6.112v21.136h-6.112v-21.136zm3.053 33.679c-1.752 0-3.17-1.398-3.17-3.131 0-1.729 1.418-3.131 3.17-3.131 1.755 0 3.174 1.402 3.174 3.131.001 1.732-1.418 3.131-3.174 3.131zM-60.855 357.63v41.621h13.084v-41.621h-13.084zm3.486 4.241h6.112v21.136h-6.112v-21.136zm3.057 33.679c-1.754 0-3.174-1.398-3.174-3.131 0-1.729 1.42-3.131 3.174-3.131s3.175 1.402 3.175 3.131c0 1.732-1.421 3.131-3.175 3.131z"/></g><g fill="#CE0067"><rect x="-41.72" y="386.738" width="32.235" height="27.653"/><path d="M-33.436 378.79c0-4.263 3.516-7.727 7.831-7.727 4.318 0 7.831 3.464 7.831 7.727v5.317h5.44v-5.317c0-7.218-5.952-13.089-13.274-13.089-7.316 0-13.267 5.871-13.267 13.089v5.317h5.437v-5.317h.002z"/></g><path fill="#CE0067" d="M-24.305 441.534l.128.016c.352 0 .643-.284.643-.625l-.005-21.045c0-.226-.128-.425-.31-.534l-.019-.009-.02-.011-.036-.02-.004-.003-.059-.016-.011-.005-.045-.012-.134-.017-.021.003h-16.304l-.025-.003c-.351 0-.639.284-.639.625v16.309l-.002.062.014.13c.026.136.104.262.202.351l4.638 4.561c.101.135.264.225.439.243h.035l.021.001h.019l11.495-.001zm-10.867-1.259v-4.033c0-.203-.095-.383-.25-.496-.104-.081-.235-.131-.384-.131h-4.082v-15.099h15.075v19.759h-10.359z"/><path fill="#CE0067" d="M-120.23 469.823l.103.008c.259 0 .472-.205.472-.462v-15.636c0-.167-.096-.313-.235-.396l-.013-.01-.011-.006-.032-.014-.003-.003-.04-.016h-.008l-.035-.008-.095-.011h-12.152c-.258 0-.473.207-.473.461v12.164l.005.099c.021.104.072.189.149.256l3.447 3.391c.08.099.192.165.326.179h8.593v.004zm-8.067-.934v-2.998c0-.149-.076-.279-.187-.367-.077-.058-.176-.092-.286-.092h-3.036v-11.226h11.198v14.684l-7.689-.001z"/><path fill="#CE0067" d="M-141.882 441.914l.004-.016v-12.355l-.004-.016c0-.113-.021-.229-.06-.335-.155-.415-.552-.693-1.001-.693h-16.665c-.446 0-.846.278-.995.693-.05.129-.074.265-.066.396v12.247c-.007.132.016.268.066.398.147.415.548.69.995.69h16.665c.449 0 .846-.275 1.001-.69l.06-.278v-.041zm-1.062-1.402l-3.486-2.866-2.35-1.934 2.35-1.931 3.486-2.872v9.603zm0-10.962l-4.167 3.425-2.673 2.199c-.389.4-.916.645-1.489.645-.564 0-1.077-.236-1.465-.619l-2.703-2.225-4.162-3.424h8.33l8.329-.001zm-16.659 1.361l3.48 2.87 2.353 1.931-2.353 1.934-3.48 2.866v-9.601zm8.332 10.967h-8.33l4.161-3.426 2.514-2.068c.496.313 1.067.483 1.657.483.586 0 1.16-.171 1.651-.48l2.51 2.065 4.167 3.426h-8.33z"/><g fill="#CE0067"><path d="M-89.511 337.88c-.697 0-1.26.546-1.26 1.221 0 .672.563 1.217 1.26 1.217 6.414 0 11.633 5.142 11.633 11.465 0 .672.565 1.219 1.262 1.219.698 0 1.266-.547 1.266-1.219.001-7.668-6.356-13.903-14.161-13.903zM-89.511 342.527c-.697 0-1.26.547-1.26 1.218 0 .673.563 1.221 1.26 1.221 3.68 0 6.678 3.055 6.678 6.816 0 .672.567 1.219 1.265 1.219.693 0 1.261-.547 1.261-1.219-.003-5.101-4.129-9.255-9.204-9.255z"/><ellipse cx="-88.039" cy="350.356" rx="2.63" ry="2.59"/></g><g fill="#CE0067"><path d="M-206.28 289.004c-.565 0-1.023.44-1.023.988s.458.988 1.023.988c5.208 0 9.443 4.178 9.443 9.308 0 .546.459.986 1.025.986.564 0 1.025-.44 1.025-.986 0-6.225-5.158-11.284-11.493-11.284zM-206.28 292.776c-.565 0-1.023.44-1.023.984 0 .548.458.991 1.023.991 2.991 0 5.42 2.483 5.42 5.533 0 .546.462.989 1.023.989.564 0 1.027-.443 1.027-.989.001-4.14-3.348-7.508-7.47-7.508zM-205.083 297.03c-1.184 0-2.14.94-2.14 2.102 0 1.157.956 2.099 2.14 2.099 1.173 0 2.13-.939 2.13-2.099 0-1.161-.957-2.102-2.13-2.102z"/></g><g fill="#CE0067"><path d="M-127.266 336.44l-6.884-6.791c.999-1.372 1.538-3.02 1.531-4.752-.013-2.183-.885-4.236-2.455-5.785-1.572-1.557-3.674-2.42-5.901-2.42-2.203 0-4.271.849-5.821 2.379-1.564 1.54-2.417 3.59-2.41 5.778.012 2.184.881 4.236 2.449 5.789 1.578 1.555 3.675 2.411 5.903 2.411 1.744 0 3.399-.525 4.779-1.504l6.887 6.79c.482.475 1.253.502 1.708.05l.264-.258c.462-.455.438-1.207-.05-1.687zm-18.557-6.721c-2.736-2.698-2.756-7.058-.042-9.732 1.345-1.331 3.12-1.995 4.891-1.995 1.798 0 3.599.68 4.976 2.038 2.735 2.7 2.754 7.06.041 9.732-1.349 1.33-3.12 1.994-4.895 1.994-1.794-.003-3.597-.678-4.971-2.037z"/><polygon points="-135.877,326.265 -135.877,323.642 -139.507,323.642 -139.507,320.063 -142.167,320.063 -142.167,323.642 -145.798,323.642 -145.798,326.265 -142.167,326.265 -142.167,329.845 -139.507,329.845 -139.507,326.265"/></g><g fill="#CE0067"><path d="M-196.364 354.406c-.397 0-.717.313-.717.698 0 .378.319.69.717.69 3.639 0 6.604 2.919 6.604 6.508 0 .382.323.694.719.694.393 0 .715-.311.715-.694-.001-4.352-3.605-7.896-8.038-7.896zM-192.572 362.302c0 .382.318.693.712.693.398 0 .719-.311.719-.693 0-2.895-2.344-5.252-5.225-5.252-.397 0-.717.309-.717.691 0 .382.319.695.717.695 2.094 0 3.794 1.733 3.794 3.866zM-191.777 364.533c-.385-.378-.93-.434-1.24-.128l-1.056 1.038-5.629-5.555 1.125-1.128c.31-.307.256-.845-.133-1.222l-1.76-1.738c-.382-.376-.926-.431-1.242-.128l-1.32 1.324c-.865.854-.938 2.086-.169 3.25 2.632 4.002 4.826 6.107 8.764 8.642 1.127.732 2.43.69 3.294-.16l1.252-1.235c.314-.31.258-.849-.126-1.224l-1.76-1.736z"/></g><g fill="#CE0067"><path d="M-120.537 330.876c.367-.177.522-.618.34-.974-.184-.359-.624-.499-.992-.318-3.399 1.665-7.534.306-9.224-3.047-.178-.355-.626-.498-.993-.314-.374.181-.524.613-.345.97 2.052 4.059 7.078 5.712 11.214 3.683zM-127.785 325.249c-.186-.357-.626-.499-.996-.316-.369.181-.523.617-.342.975 1.362 2.698 4.659 3.827 7.342 2.51.375-.183.526-.619.348-.977-.183-.355-.628-.497-.994-.314-1.952.957-4.356.114-5.358-1.878zM-129.578 323.536c.533.179 1.068-.02 1.214-.451l.499-1.447 7.863 2.601-.516 1.564c-.148.431.156.905.688 1.081l2.466.815c.532.177 1.066-.022 1.214-.45l.612-1.84c.406-1.19-.109-2.372-1.373-3.107-4.336-2.525-7.367-3.486-12.236-4.051-1.396-.162-2.594.473-2.994 1.662l-.587 1.723c-.149.43.154.908.694 1.083l2.456.817z"/></g><g fill="#CE0067"><path d="M-219.502 355.646c.192-1.798-2.642-1.744-2.692.777 0 0-.083 1.643.359 4.401l-3.879.034c-1.692.027-2.156.996-2.16 2.244 0 .396.008.774.021 1.139-.248.315-.402.764-.402 1.266 0 .69.296 1.288.724 1.572l.109.521-.028.344c0 .582.194 1.096.509 1.442.143.457.302.903.46 1.346.303.828 2.31 1.688 3.788 1.58l8.435-.022 1.494-6.938c-6.782-3.127-6.738-9.706-6.738-9.706z"/><polygon points="-213.388,372.668 -211.928,365.559 -210.233,365.896 -211.694,373.005"/></g><path fill="#CE0067" d="M-188.994 311.151c.684.155 1.254.538 1.637 1.053l5.766-1.487c-.009-.235.015-.481.075-.724.089-.4.262-.76.495-1.07l-3.007-3.532c-.688.328-1.495.442-2.302.26-1.882-.42-3.065-2.273-2.637-4.132.426-1.863 2.302-3.026 4.186-2.606 1.887.423 3.072 2.274 2.643 4.135-.108.47-.31.899-.587 1.27l3.082 3.62c.484-.16 1.014-.197 1.548-.077 1.544.344 2.51 1.856 2.164 3.379-.352 1.524-1.885 2.478-3.432 2.134-.693-.16-1.265-.546-1.658-1.071l-5.782 1.491c.005.225-.013.45-.071.679-.342 1.494-1.846 2.432-3.361 2.093-1.517-.338-2.467-1.824-2.122-3.317.343-1.496 1.852-2.436 3.363-2.098z"/><g fill="#CE0067"><path d="M-222.816 429.227v-8.457c0-.771-.497-1.396-1.111-1.396s-1.116.625-1.116 1.396v8.457c0 .772.502 1.401 1.116 1.401s1.111-.629 1.111-1.401zM-222.213 426.253v1.988c.359.146.608.492.608.897v5.562c0 .535-.441.97-.982.97h-2.688c-.541 0-.98-.433-.98-.97v-5.562c0-.405.25-.752.609-.897v-1.988c-1.458.179-2.581 1.406-2.581 2.886v5.562c0 1.607 1.325 2.908 2.951 2.908h2.688c1.629 0 2.952-1.301 2.952-2.908v-5.562c.002-1.48-1.119-2.707-2.577-2.886zM-222.585 412.387h-2.688c-1.626 0-2.951 1.304-2.951 2.91v5.561c0 1.484 1.122 2.708 2.581 2.886v-1.986c-.36-.145-.609-.492-.609-.899v-5.561c0-.535.44-.971.98-.971h2.688c.541 0 .981.435.981.971v5.561c0 .407-.25.755-.607.899v1.986c1.456-.178 2.579-1.401 2.579-2.886v-5.561c-.003-1.607-1.325-2.91-2.954-2.91z"/></g><g fill="#CE0067"><path d="M-186.781 478.558v-8.457c0-.769-.497-1.398-1.114-1.398-.616 0-1.113.63-1.113 1.398v8.457c0 .771.497 1.399 1.113 1.399.617 0 1.114-.628 1.114-1.399zM-186.554 461.718h-2.686c-1.627 0-2.954 1.303-2.954 2.911v5.562c0 1.482 1.128 2.706 2.582 2.887v-1.989c-.355-.145-.613-.495-.613-.897v-5.562c0-.536.444-.969.986-.969h2.686c.546 0 .988.432.988.969v5.562c0 .402-.254.753-.61.897v1.989c1.455-.184 2.578-1.404 2.578-2.887v-5.562c-.002-1.608-1.323-2.911-2.957-2.911z"/></g><g fill="#CE0067"><path d="M-104.117 370.924v-6.984c0-.639-.41-1.157-.919-1.157-.509 0-.921.52-.921 1.157v6.984c0 .638.412 1.155.921 1.155.509 0 .919-.519.919-1.155zM-103.616 368.463v1.647c.293.118.502.407.502.741v4.594c0 .44-.367.802-.812.802h-2.22c-.451 0-.816-.361-.816-.802v-4.594c0-.334.209-.623.504-.741v-1.647c-1.199.154-2.131 1.162-2.131 2.388v4.593c0 1.328 1.093 2.406 2.441 2.406h2.22c1.342 0 2.436-1.078 2.436-2.406v-4.593c.003-1.226-.924-2.234-2.124-2.388zM-103.925 357.016h-2.22c-1.349 0-2.441 1.076-2.441 2.401v4.598c0 1.219.933 2.229 2.132 2.382v-1.644c-.296-.119-.503-.406-.503-.738v-4.598c0-.442.364-.803.814-.803h2.22c.445 0 .812.36.812.803v4.598c0 .332-.208.619-.504.738v1.644c1.202-.149 2.13-1.16 2.13-2.381v-4.597c-.004-1.327-1.097-2.403-2.44-2.403z"/></g><g fill="#CE0067"><path d="M-107.71 341.065h-9.611c-1.69 0-3.06 1.351-3.06 3.017v6.457h15.734v-6.457c0-1.666-1.366-3.017-3.063-3.017z"/><ellipse cx="-112.513" cy="334.338" rx="5.738" ry="5.662"/><path d="M-105.266 334.336c0 .688-.104 1.354-.288 1.984.472.123.965.191 1.477.191 3.168 0 5.737-2.536 5.737-5.664 0-3.124-2.569-5.664-5.737-5.664-2.138 0-4.001 1.158-4.992 2.866 2.265 1.212 3.803 3.578 3.803 6.287zM-99.274 337.574h-6.781c-.397.758-.917 1.434-1.546 2.006 2.471.06 4.463 2.055 4.463 4.502v2.965h6.923v-6.454c.001-1.667-1.366-3.019-3.059-3.019z"/></g><path fill="#CE0067" d="M-194.813 274.461v-3.217h-1.89c-.194-.896-.551-1.732-1.04-2.481l1.336-1.316-2.309-2.271-1.337 1.314c-.752-.479-1.598-.833-2.506-1.027v-1.856h-3.266v1.856c-.906.194-1.753.548-2.513 1.027l-1.334-1.314-2.305 2.271 1.331 1.316c-.483.749-.839 1.585-1.037 2.481h-1.888v3.217h1.888c.198.895.553 1.732 1.037 2.48l-1.331 1.314 2.305 2.278 1.334-1.32c.76.483 1.607.836 2.513 1.032v1.859h3.266v-1.862c.909-.195 1.754-.547 2.506-1.031l1.337 1.32 2.309-2.278-1.336-1.315c.487-.748.846-1.585 1.04-2.48h1.89v.003zm-3.878-1.358l-.007.075-.012.184-.005.076-.034.238-.001.027-.042.212-.016.08-.035.164-.02.076c-.11.406-.264.79-.454 1.148l-.09.161-.024.031-.089.155-.019.019c-.1.162-.21.318-.334.47l-.019.026-.114.139-.026.029c-.173.193-.356.372-.551.539l-.028.027-.143.113-.024.02c-.151.12-.308.229-.476.332l-.018.012-.157.093-.037.022-.165.086c-.293.151-.603.283-.931.386h-.003l-.222.063-.086.021-.163.034-.082.021-.217.034-.027.008-.245.029-.071.004-.186.017-.079.005-.255.007-.257-.007-.076-.005-.185-.017-.077-.004-.247-.029-.021-.008-.217-.034-.086-.021-.167-.034-.078-.021-.222-.063h-.006c-.328-.103-.638-.234-.938-.386l-.156-.086-.037-.022-.156-.093-.024-.012c-.16-.104-.319-.212-.472-.332l-.025-.02-.138-.113-.029-.027c-.198-.167-.384-.347-.549-.539l-.029-.033-.115-.135-.023-.026c-.118-.15-.229-.308-.335-.468l-.012-.021-.097-.152-.018-.038-.089-.157c-.191-.358-.346-.742-.453-1.148l-.024-.076-.036-.164-.019-.08-.024-.214-.005-.027-.03-.239-.01-.076-.015-.184-.003-.075-.006-.25.006-.255.003-.072.015-.183.01-.077.03-.237.005-.026.034-.216.02-.084.035-.154.025-.085.062-.221c.106-.327.236-.632.391-.923l.088-.163.017-.031.098-.156.012-.021.334-.472.024-.021.114-.14.028-.027c.167-.192.354-.374.55-.545l.029-.024.138-.115.025-.015c.151-.121.313-.233.479-.336l.018-.011.156-.092.033-.021.166-.09c.294-.152.604-.282.933-.382h.005l.223-.062.083-.021.161-.038.085-.017.213-.038.025-.004.247-.033.077-.005.186-.015.074-.008.256-.003.255.003.08.008.181.015.075.005.246.033.029.004.215.038.083.017.161.038.086.021.223.062h.002c.326.1.637.229.931.382l.165.09.037.021.157.092.018.011c.164.103.322.215.475.336l.024.015.142.115.029.024c.197.171.378.353.552.545l.026.027.115.141.017.022c.121.149.236.309.335.47l.019.021.089.151.024.04.09.157c.154.291.285.596.386.924l.067.221.021.084.035.156.015.085.042.213.001.027.034.237.005.079.013.181.006.072.005.254-.011.255z"/><path fill="#CE0067" d="M-35.349 365.156v-1.979h-1.158c-.123-.551-.344-1.065-.646-1.523l.828-.811-1.421-1.399-.818.809c-.472-.291-.992-.512-1.553-.633v-1.142h-2.009v1.142c-.558.121-1.076.342-1.543.633l-.824-.809-1.415 1.399.818.811c-.299.458-.52.973-.646 1.523h-1.158v1.979h1.158c.125.551.347 1.069.646 1.523l-.818.813 1.415 1.399.824-.808c.467.294.985.509 1.543.631v1.144h2.009v-1.144c.561-.122 1.081-.337 1.553-.631l.818.808 1.421-1.399-.828-.813c.302-.454.523-.973.646-1.523h1.158zm-2.382-.833v.044l-.011.112-.009.047-.019.146v.016l-.024.133-.014.05-.024.1-.012.052c-.065.245-.161.479-.28.7l-.05.1-.016.023-.058.094-.008.009-.209.292-.012.016-.072.084-.011.016c-.107.12-.221.232-.344.333l-.019.02-.085.067-.013.013-.292.204-.012.008-.096.058-.021.012-.104.055c-.18.096-.371.179-.573.236l-.136.038-.05.015-.1.021-.055.012-.137.027h-.013l-.148.02-.047.004-.114.008-.043.001-.159.007-.163-.007-.041-.001-.113-.008-.047-.004-.149-.02h-.017l-.134-.027-.051-.012-.1-.021-.05-.015-.142-.038c-.198-.058-.39-.139-.578-.236l-.097-.055-.021-.012-.094-.058-.012-.008-.293-.204-.019-.013-.085-.067-.019-.02c-.119-.101-.236-.213-.336-.33l-.015-.019-.072-.084-.012-.019-.208-.286-.006-.015-.06-.091-.013-.023-.056-.1c-.118-.221-.211-.457-.277-.7l-.013-.052-.024-.1-.012-.05-.023-.133v-.016l-.02-.146-.005-.047-.007-.112.003-.044-.007-.158.007-.149.005-.05.007-.11.007-.047.019-.145.006-.017.017-.133.012-.05.024-.098.013-.05.043-.139c.056-.197.139-.388.236-.567l.056-.1.012-.021.06-.095.006-.014.208-.288.012-.011.073-.088.013-.02c.102-.118.219-.226.336-.334l.02-.016.084-.069.019-.012.293-.203.013-.007.094-.059.02-.013.103-.054c.182-.097.375-.174.573-.24l.141-.035.054-.012.097-.026.05-.012.135-.022h.016l.149-.02.046-.007.113-.008.042-.005h.321l.042.005.114.008.048.007.148.02h.02l.132.022.053.012.1.026.05.012.136.035c.203.066.394.143.573.24l.104.054.021.013.096.059.013.007.291.203.013.012.085.069.018.016c.123.108.239.216.344.334l.012.02.071.088.013.011.208.288.009.014.057.095.017.021.051.1c.093.18.178.37.237.567l.042.139.011.05.025.098.012.05.024.133v.017l.02.145.008.047.012.11v.05l.003.149-.01.158z"/><path fill="#CE0067" d="M-169.484 473.901v-2.026h-1.188c-.125-.564-.348-1.092-.654-1.562l.84-.829-1.452-1.43-.844.826c-.476-.302-1.01-.525-1.582-.646v-1.173h-2.054v1.173c-.572.121-1.109.345-1.582.646l-.839-.826-1.455 1.43.838.829c-.305.47-.531.997-.656 1.562h-1.189v2.026h1.189c.126.564.353 1.092.656 1.562l-.841.83 1.455 1.431.839-.828c.472.304 1.01.525 1.582.644v1.172h2.054v-1.172c.572-.119 1.107-.341 1.582-.644l.843.828 1.456-1.431-.84-.83c.307-.471.53-.997.654-1.562h1.188zm-2.444-.855l-.004.05-.008.11-.004.05-.021.149v.016l-.027.136-.01.055-.027.099-.012.053c-.067.252-.161.493-.28.719l-.061.103-.013.021-.056.1-.014.01-.21.293-.011.02-.071.083-.018.021c-.109.122-.223.235-.347.343l-.021.016-.086.071-.018.015-.292.21-.018.008-.099.058-.021.009-.102.058c-.186.098-.388.182-.591.244l-.143.04-.048.013-.106.022-.048.011-.141.024-.017.006-.154.017-.05.008-.111.01h-.049l-.159.005-.161-.005h-.047l-.113-.01-.048-.008-.155-.017-.018-.006-.138-.024-.051-.011-.103-.022-.049-.013-.143-.04c-.204-.063-.402-.146-.591-.244l-.101-.058-.024-.009-.096-.058-.019-.008-.292-.21-.019-.015-.087-.071-.02-.016c-.119-.107-.237-.221-.347-.343l-.019-.021-.071-.083-.013-.02-.21-.293-.011-.013-.051-.095-.02-.026-.055-.1c-.123-.226-.22-.467-.285-.719l-.012-.053-.026-.099-.013-.055-.025-.136-.005-.016-.017-.149-.004-.05-.009-.11v-.05l-.005-.159.005-.155v-.048l.009-.112.004-.053.017-.148.005-.017.025-.137.013-.048.026-.102.012-.051.041-.138v-.004c.063-.204.143-.398.244-.585l.055-.097.02-.024.051-.096.011-.012.21-.299.013-.014.071-.084.019-.022.347-.341.02-.016.087-.069.019-.015.299-.209.012-.008.099-.062.021-.009.101-.058c.189-.098.385-.179.591-.24l.143-.038.049-.017.103-.021.051-.012.138-.023.018-.003.155-.022.048-.003.113-.012.047-.002.161-.004.159.004.049.002.111.012.05.003.154.022.019.003.138.023.053.012.101.021.048.017.143.038c.202.062.405.143.591.24l.102.058.021.009.099.06.012.01.305.209.012.015.086.069.021.016c.124.107.237.224.347.341l.018.022.071.084.011.014.21.294.014.017.055.096.014.024.061.097c.094.187.179.381.238.585v.004l.042.138.012.051.027.102.01.048.027.137v.017l.021.148.004.053.008.112.004.048.007.155-.007.159z"/><path fill="#CE0067" d="M-219.944 270.445v-2.032h-1.189c-.124-.562-.347-1.092-.656-1.562l.842-.824-1.456-1.434-.841.825c-.475-.3-1.008-.525-1.579-.644v-1.17h-2.056v1.17c-.573.121-1.107.344-1.582.644l-.841-.825-1.452 1.434.84.824c-.309.47-.532 1-.66 1.562h-1.184v2.033h1.184c.128.562.351 1.088.659 1.558l-.839.83 1.452 1.432.841-.83c.476.304 1.01.524 1.582.648v1.17h2.055v-1.17c.571-.124 1.106-.345 1.579-.648l.841.83 1.456-1.432-.841-.832c.309-.471.532-.995.656-1.557h1.189zm-2.445-.855l-.003.046-.006.113-.005.048-.021.152v.016l-.027.134-.008.053-.026.1-.014.051c-.068.255-.16.495-.28.718l-.062.104-.013.022-.056.099-.013.012-.209.294-.014.016-.068.086-.019.017c-.108.126-.221.239-.347.344l-.021.019-.085.071-.015.01-.294.21-.018.011-.097.056-.024.01-.102.058c-.185.101-.379.179-.588.244h-.002l-.139.037-.05.015-.106.024-.051.008-.138.026h-.016l-.155.021-.048.003-.112.01h-.049l-.163.006-.161-.006h-.045l-.113-.01-.055-.003-.149-.021h-.018l-.138-.026-.05-.008-.105-.024-.048-.015-.143-.037c-.205-.065-.404-.144-.591-.244l-.101-.058-.023-.01-.098-.056-.013-.011-.298-.21-.017-.01-.086-.071-.023-.019c-.119-.104-.235-.218-.344-.338l-.015-.022-.072-.086-.012-.016-.215-.294-.008-.016-.056-.095-.016-.022-.056-.104c-.122-.223-.219-.463-.285-.718l-.011-.051-.025-.1-.012-.053-.025-.134-.001-.016-.018-.152-.007-.048-.008-.113v-.046l-.01-.163.01-.157v-.045l.008-.114.007-.049.018-.149.002-.022.025-.132.01-.049.025-.104.012-.049.042-.138v-.006c.064-.2.144-.394.243-.58l.056-.097.016-.023.056-.098.008-.012.215-.298.012-.019.072-.085.016-.017c.108-.121.225-.236.344-.342l.021-.016.086-.069.017-.015.3-.209.011-.008.099-.059.022-.014.102-.055c.187-.096.385-.176.591-.239l.142-.042.048-.012.105-.023.05-.009.138-.025.018-.007.149-.016.055-.004.113-.009h.045l.161-.008.161.008h.049l.113.009.048.004.155.016.019.009.135.025.056.008.101.022.05.012.141.042h.002c.208.063.402.143.587.239l.102.055.024.014.097.059.012.008.304.209.011.015.087.069.019.019c.126.104.239.221.347.339l.019.017.068.085.014.019.209.294.013.016.057.098.012.023.062.097c.095.187.18.38.238.58l.007.006.035.138.014.049.026.104.009.049.027.132v.022l.021.148.005.049.007.114.004.043.005.16-.007.162z"/><path fill="#CE0067" d="M-148.225 336.876v-2.031h-1.189c-.121-.562-.346-1.095-.653-1.561l.837-.826-1.451-1.435-.838.826c-.479-.302-1.012-.525-1.583-.646v-1.17h-2.06v1.17c-.569.121-1.101.346-1.577.646l-.842-.826-1.453 1.435.84.826c-.308.466-.531.999-.655 1.561h-1.189v2.031h1.189c.125.56.349 1.087.655 1.556l-.84.829 1.453 1.432.842-.829c.478.307 1.007.529 1.577.65v1.169h2.06v-1.169c.571-.123 1.104-.345 1.583-.65l.838.829 1.451-1.432-.837-.829c.307-.472.533-.996.653-1.556h1.189zm-2.443-.859v.046l-.013.115-.005.048-.019.15v.018l-.028.134-.008.054-.025.099-.012.05c-.068.256-.167.496-.287.722l-.056.103-.013.021-.056.1-.017.011-.21.294-.012.019-.071.084-.019.021c-.103.122-.221.236-.344.343l-.018.018-.086.073-.018.008-.298.21-.012.011-.098.057-.024.012-.103.055c-.19.1-.385.182-.588.244h-.004l-.141.039-.049.014-.105.023-.05.011-.142.023-.014.005-.153.02-.049.005-.112.008-.054.002-.161.004-.155-.004-.046-.002-.117-.008-.05-.005-.149-.02-.017-.005-.138-.023-.051-.011-.107-.023-.046-.014-.142-.039h-.001c-.202-.063-.399-.143-.584-.244l-.102-.055-.023-.012-.099-.057-.016-.011-.299-.21-.014-.008-.086-.073-.019-.018c-.125-.106-.237-.221-.349-.338l-.017-.025-.07-.084-.013-.019-.21-.294-.011-.013-.059-.098-.012-.021-.06-.103c-.119-.226-.219-.466-.284-.722l-.012-.05-.023-.099-.013-.054-.024-.134-.004-.018-.016-.15-.005-.048-.013-.115v-.046l-.008-.158.008-.159v-.047l.013-.113.005-.049.016-.146.004-.023.024-.131.013-.052.023-.103.012-.051.04-.136v-.004c.064-.199.148-.397.245-.583l.06-.1.012-.023.059-.095.011-.01.21-.298.013-.019.07-.086.017-.017c.112-.125.224-.235.349-.342l.019-.017.086-.072.014-.012.303-.213.012-.005.099-.062.023-.008.102-.058c.186-.098.381-.175.584-.24h.007l.142-.04.047-.013.107-.026.051-.008.138-.026.018-.005.148-.018.051-.004.117-.011h.046l.155-.006.16.006h.055l.111.011.05.004.152.018.021.005.131.026.055.008.099.026.055.013.14.04h.004c.202.065.399.142.589.24l.102.058.024.008.098.062.012.005.299.213.012.012.091.072.019.017c.123.106.241.217.344.342l.019.017.071.086.013.019c.08.093.149.189.21.295l.018.013.051.095.017.023.056.1c.094.186.181.381.243.583l.001.004.042.136.013.051.024.103.009.052.029.131v.023l.017.146.006.049.012.113v.047l.007.159-.016.157z"/><g fill="#CE0067"><path d="M-79.249 270.786c-.459.45-.464 1.175-.019 1.614.448.443 1.184.434 1.637-.019 4.208-4.146 11.048-4.15 15.249-.005.448.439 1.178.432 1.637-.02.458-.452.466-1.178.019-1.614-5.096-5.024-13.404-5.003-18.523.044zM-76.163 273.832c-.453.453-.461 1.178-.016 1.617.449.442 1.181.435 1.639-.016 2.412-2.384 6.41-2.316 8.911.146.441.443 1.18.435 1.635-.016.456-.454.467-1.178.017-1.614-3.388-3.346-8.856-3.396-12.186-.117zM-71.708 276.316c-.954.942-.957 2.462-.008 3.397.95.938 2.493.938 3.445-.006.956-.935.956-2.458.005-3.396-.948-.935-2.488-.933-3.442.005zM-64.864 286.999h-10.595c-.774 0-1.4.619-1.4 1.382s.626 1.384 1.4 1.384h10.595c.768 0 1.399-.621 1.399-1.384s-.629-1.382-1.399-1.382zM-58.988 263.603h-22.347c-1.251 0-2.27 1.003-2.27 2.236v16.765c0 1.236 1.018 2.243 2.27 2.243h22.347c1.246 0 2.264-1.007 2.264-2.243v-16.762c0-1.237-1.018-2.239-2.264-2.239zm.87 19.001c0 .479-.395.868-.872.868h-22.346c-.479 0-.874-.389-.874-.868v-16.762c0-.477.395-.864.874-.864h22.346c.477 0 .872.388.872.864v16.762z"/></g><g fill="#CE0067"><path d="M-98.709 271.534c.519-4.824-7.09-4.683-7.239 2.09 0 0-.224 4.414.979 11.829l-10.419.092c-4.555.073-5.8 2.683-5.813 6.029-.001 1.063.024 2.074.063 3.05-.665.855-1.079 2.065-1.079 3.412 0 1.858.792 3.459 1.941 4.221.091.472.192.942.288 1.396-.04.304-.069.612-.069.93 0 1.554.533 2.938 1.368 3.869.392 1.228.81 2.426 1.243 3.623.801 2.215 6.201 4.526 10.168 4.235l22.665-.06 4.007-18.642c-18.211-8.39-18.103-26.074-18.103-26.074z"/><polygon points="-82.277,317.261 -78.348,298.156 -73.79,299.066 -77.719,318.17"/></g><path fill="#CE0067" d="M-45.292 413.482v-1.951h-1.144c-.118-.544-.335-1.053-.632-1.505l.813-.799-1.403-1.377-.805.8c-.466-.296-.974-.511-1.527-.628v-1.13h-1.975v1.13c-.555.117-1.069.332-1.529.628l-.809-.8-1.397 1.377.808.799c-.296.452-.514.961-.637 1.505h-1.138v1.951h1.138c.123.542.341 1.05.637 1.504l-.808.802 1.397 1.377.809-.797c.46.291.974.501 1.529.622v1.126h1.975v-1.126c.554-.121 1.062-.331 1.527-.622l.805.797 1.403-1.377-.813-.802c.297-.454.514-.962.632-1.504h1.144zm-2.479-.073l-.014.038-.029.107-.019.044-.051.14-.002.015-.059.12-.02.046-.042.09-.026.042c-.123.226-.267.429-.427.616l-.077.083-.019.019-.075.08-.013.011-.264.228-.016.01-.085.069-.019.013c-.129.088-.264.174-.402.244l-.024.015-.096.046-.019.008-.327.134-.012.003-.106.034-.026.005-.11.03c-.193.052-.397.086-.603.102l-.143.002-.05.006-.099-.006h-.054l-.138-.005-.013-.003-.146-.016-.044-.008-.112-.016-.043-.008-.153-.031-.145-.037-.047-.016-.106-.031-.042-.016-.143-.051-.012-.002-.125-.056-.042-.023-.095-.042-.044-.021-.125-.068c-.177-.106-.346-.226-.498-.359l-.084-.074-.022-.018-.075-.076-.011-.011-.233-.26-.012-.016-.067-.084-.017-.021c-.089-.126-.172-.261-.247-.396l-.014-.024-.049-.097-.009-.016-.13-.321-.003-.012-.032-.104-.013-.026-.029-.104c-.06-.243-.093-.488-.102-.737l-.005-.053.001-.1.004-.05.008-.132v-.017l.013-.146.005-.046.02-.109.009-.046.033-.15.037-.147.013-.042.035-.104.016-.043.05-.137.006-.019.05-.121.024-.044.045-.088.024-.045.069-.121v-.001c.104-.179.227-.341.36-.491l.073-.084.019-.018.076-.078.013-.012.264-.23.014-.011.087-.065.025-.015c.125-.094.258-.175.397-.245l.024-.014.097-.047.017-.011.327-.13.015-.005.103-.033.028-.005.105-.029c.199-.051.401-.084.606-.099l.139-.008h.159l.05.002.129.008h.019l.149.016.045.008.112.019.044.005.147.031.153.037.042.016.107.031.045.015.141.051.012.007.124.052.044.023.089.042.05.024.12.07c.181.104.348.22.501.354l.081.076.021.016.08.079.008.008.24.263.008.013.066.088.013.021.25.394.014.024.048.094.007.017.132.324.005.012.032.102.011.026.029.105c.051.196.083.396.102.602v.003l.005.135v.20299999999999999l-.011.129v.018l-.014.147-.008.047-.018.105-.008.047-.035.146-.036.148z"/><path fill="#CE0067" d="M-92.69 412.468v-1.954h-1.146c-.117-.542-.336-1.049-.629-1.5l.807-.799-1.399-1.38-.811.801c-.461-.294-.973-.509-1.523-.627v-1.126h-1.979v1.126c-.549.118-1.063.333-1.522.627l-.813-.801-1.397 1.38.808.799c-.293.451-.514.958-.634 1.5h-1.141v1.954h1.141c.12.542.341 1.049.634 1.505l-.808.797 1.397 1.38.812-.797c.46.295.975.504 1.523.624v1.128h1.979v-1.128c.55-.12 1.062-.329 1.523-.624l.811.797 1.399-1.38-.807-.797c.293-.456.512-.963.629-1.505h1.146zm-2.48-.072l-.012.038-.03.107-.019.044-.052.14-.007.014-.055.12-.018.045-.047.09-.019.042c-.124.228-.269.43-.429.616l-.078.086-.019.016-.078.08-.013.01-.262.229-.02.012-.083.064-.017.014c-.132.092-.268.178-.404.248l-.024.016-.099.046-.017.005-.321.134-.017.003-.106.032-.028.009-.104.027c-.193.055-.397.085-.606.1l-.143.008-.048.003-.1-.003h-.053l-.139-.011h-.013l-.148-.016-.039-.008-.117-.016-.042-.008-.151-.03-.151-.038-.045-.014-.109-.033-.04-.014-.139-.054-.011-.001-.126-.057-.048-.021-.089-.044-.046-.022-.127-.065c-.179-.108-.346-.226-.495-.36l-.083-.07-.02-.019-.082-.079-.011-.009-.232-.263-.013-.015-.063-.084-.02-.021c-.087-.125-.173-.26-.248-.396l-.012-.024-.047-.096-.005-.018-.136-.32-.005-.013-.031-.103-.012-.028-.026-.103c-.069-.243-.104-.485-.112-.74v-.2l.008-.134.005-.015.012-.146.006-.045.024-.113.008-.043.03-.148.036-.146.012-.045.033-.103.017-.045.051-.136.005-.019.05-.119.028-.046.042-.089.025-.043.067-.123c.107-.179.229-.342.363-.489l.074-.086.019-.019.078-.077.013-.012.262-.233.012-.011.088-.063.022-.015c.127-.094.26-.175.402-.246l.018-.013.103-.047.014-.011.326-.129.013-.007.106-.032.024-.004.107-.033c.199-.047.4-.082.607-.1l.139-.004h.16l.048.003.133.008h.018l.147.013.048.01.109.019.043.006.153.03.147.037.044.015.106.033.046.014.139.05.01.007.125.052.045.024.091.042.05.026.118.066c.181.105.352.222.501.355l.083.076.019.016.082.082.009.008.234.26.011.016.069.084.014.017.25.398.01.021.046.1.01.016.132.323.007.012.035.104.008.023.029.108c.048.193.082.394.095.601h.005l.007.137v.051l-.002.1v.052l-.009.131v.016l-.015.147-.008.046-.016.106-.01.047-.031.147-.033.152z"/><path fill="#CE0067" d="M-131.284 307.926v-1.953h-1.143c-.117-.54-.335-1.05-.634-1.498l.816-.801-1.402-1.381-.807.801c-.464-.294-.974-.508-1.533-.625v-1.131h-1.973v1.131c-.55.117-1.066.331-1.522.625l-.812-.801-1.396 1.381.806.801c-.296.448-.514.958-.633 1.498h-1.14v1.953h1.14c.119.543.337 1.051.633 1.507l-.806.796 1.396 1.383.812-.799c.456.292.972.505 1.522.624v1.126h1.973v-1.126c.559-.119 1.069-.332 1.533-.624l.807.799 1.402-1.383-.816-.796c.299-.456.517-.964.634-1.507h1.143zm-2.476-.073l-.012.042-.03.104-.018.045-.05.137-.008.017-.051.121-.021.045-.047.09-.019.041c-.125.227-.269.428-.43.617l-.077.085-.019.015-.078.08-.009.01-.266.232-.015.008-.086.066-.018.014c-.132.091-.262.174-.404.248l-.026.011-.093.047-.021.011-.322.13-.016.003-.104.034-.029.008-.104.028c-.199.053-.397.084-.605.101l-.144.002-.048.006-.103-.006h-.053l-.136-.005-.013-.003-.145-.016-.045-.007-.114-.017-.047-.008-.147-.03-.152-.038-.044-.013-.11-.034-.038-.015-.145-.049-.006-.007-.128-.054-.045-.021-.09-.045-.047-.021-.126-.068c-.178-.103-.338-.226-.494-.358l-.085-.073-.021-.021-.078-.074-.013-.011-.23-.261-.014-.015-.065-.086-.015-.02c-.093-.127-.173-.261-.244-.395l-.012-.023-.055-.098-.005-.016-.133-.321-.004-.015-.033-.103-.01-.026-.03-.104c-.061-.239-.098-.485-.106-.739l-.001-.048.001-.103v-.05l.008-.132.004-.016.013-.146.008-.045.018-.11.012-.045.029-.15.04-.146.015-.044.028-.103.02-.046.051-.136.001-.019.059-.121.02-.044.042-.087.027-.046.068-.121c.107-.18.228-.341.359-.492l.078-.084.018-.019.079-.076.008-.013.267-.23.012-.014.087-.065.023-.014c.125-.092.258-.173.397-.243l.023-.014.102-.047.013-.008.327-.134.013-.004.106-.034.024-.006.108-.03c.198-.05.399-.081.606-.097l.142-.007h.20500000000000002l.132.011h.018l.147.013.049.007.108.019.044.008.153.028.148.038.041.017.107.031.049.016.142.053.012.005.119.051.046.024.09.042.048.023.125.069c.181.105.347.222.496.354l.083.076.02.017.08.079.008.012.235.26.012.013.07.088.013.019c.09.127.173.26.246.396l.012.021.051.098.008.018.131.32.004.014.038.104.007.023.029.105c.049.196.083.396.099.604h.002l.007.138v.05l-.007.1v.054l-.002.129v.016l-.018.145-.007.049-.014.106-.012.05-.03.146-.048.148z"/><path fill="#CE0067" d="M-196.047 309.183v-1.952h-1.148c-.119-.541-.335-1.048-.632-1.502l.812-.798-1.401-1.38-.807.799c-.465-.291-.974-.508-1.527-.625v-1.128h-1.977v1.128c-.552.117-1.068.334-1.527.625l-.805-.799-1.403 1.38.811.798c-.296.454-.514.961-.63 1.502h-1.147v1.952h1.146c.116.541.333 1.053.63 1.505l-.811.8 1.403 1.381.805-.799c.46.292.976.502 1.527.623v1.126h1.978v-1.126c.553-.121 1.061-.331 1.527-.623l.807.799 1.401-1.381-.812-.8c.297-.452.513-.964.632-1.505h1.148zm-2.478-.072l-.016.043-.032.104-.017.042-.05.137-.006.016-.053.121-.024.047-.041.088-.026.044c-.119.227-.26.43-.427.618l-.082.082-.013.016-.076.083-.012.008-.269.232-.012.008-.086.065-.021.016c-.127.09-.263.172-.4.246l-.026.012-.094.05-.018.008-.328.13-.013.004-.103.034-.027.008-.106.029c-.194.051-.397.084-.606.098l-.141.007h-.209l-.131-.007-.017-.001-.145-.019-.048-.005-.112-.02-.043-.006-.149-.032-.148-.036-.047-.017-.107-.031-.042-.014-.142-.051-.013-.004-.125-.054-.044-.022-.093-.045-.042-.023-.124-.068h-.004c-.176-.103-.342-.222-.499-.356l-.08-.072-.019-.019-.081-.075-.012-.011-.232-.265-.012-.011-.066-.085-.015-.02-.249-.396-.012-.026-.048-.095-.008-.016-.13-.32-.008-.016-.031-.104-.006-.025-.029-.107c-.067-.236-.104-.484-.108-.736l-.004-.05.004-.101v-.05l.004-.133.004-.015.016-.146.006-.046.019-.111.01-.044.031-.146.036-.151.013-.042.034-.104.019-.044.047-.14.005-.015.055-.122.023-.044.043-.084.024-.048.072-.12v-.003c.103-.179.22-.341.358-.493l.072-.082.02-.018.076-.076.012-.017.263-.228.019-.012.086-.067.022-.013c.127-.091.258-.177.4-.243l.02-.015.099-.047.018-.008.329-.134.012-.003.104-.034.025-.005.108-.03c.198-.052.397-.083.604-.099l.143-.007h.156l.051.002.13.008h.018l.149.016.044.005.107.019.047.008.153.03.149.038.044.013.106.034.042.014.142.052.013.009.125.05.042.023.091.043.051.023.118.067c.18.106.347.223.502.356l.081.074.019.016.081.081.008.009.236.259.013.016.066.087.012.019c.093.129.176.26.251.396l.01.022.051.097.008.016.132.321.006.015.034.103.005.024.032.105c.049.197.086.394.099.603l.005.138v.204l-.005.128v.02l-.02.143-.006.048-.018.107-.007.047-.035.147-.034.149z"/><path fill="#CE0067" d="M-122.343 438.006v-1.955h-1.142c-.123-.538-.339-1.047-.638-1.499l.82-.8-1.404-1.378-.812.8c-.458-.294-.972-.508-1.526-.626v-1.13h-1.975v1.13c-.549.118-1.065.332-1.523.626l-.81-.8-1.396 1.378.803.8c-.298.452-.512.961-.63 1.499h-1.145v1.955h1.145c.118.542.332 1.052.63 1.504l-.803.801 1.396 1.378.81-.795c.458.288.975.501 1.523.62v1.128h1.975v-1.128c.554-.119 1.067-.332 1.526-.62l.812.795 1.404-1.378-.82-.801c.299-.452.516-.962.638-1.504h1.142zm-2.476-.073l-.011.042-.037.105-.011.042-.05.138-.008.016-.053.122-.023.044-.046.09-.023.045c-.121.223-.264.429-.425.616l-.084.083-.017.015-.075.084-.012.006-.26.232-.017.008-.085.067-.019.015c-.129.089-.267.173-.408.248l-.022.012-.092.044-.023.011-.322.131-.016.006-.103.031-.027.008-.112.029c-.189.052-.397.084-.601.1l-.142.005h-.20400000000000001l-.137-.008h-.011l-.149-.016-.044-.009-.113-.018-.045-.005-.149-.034-.148-.037-.044-.013-.112-.034-.04-.014-.138-.05-.017-.005-.123-.055-.045-.021-.091-.043-.048-.024-.125-.066c-.179-.104-.346-.226-.496-.359l-.083-.074-.021-.016-.08-.078-.012-.008-.23-.26-.009-.018-.072-.085-.011-.019c-.094-.127-.174-.263-.25-.396l-.01-.023-.052-.097-.007-.02-.13-.318-.005-.014-.035-.103-.008-.025-.03-.11c-.064-.235-.098-.483-.107-.731l-.004-.056v-.097l.004-.053.009-.131.004-.018.012-.143.008-.046.016-.11.009-.045.032-.151.037-.146.018-.043.03-.102.019-.049.05-.136.008-.018.051-.115.023-.05.04-.086.029-.043.07-.126c.106-.179.225-.339.358-.489l.077-.084.012-.02.081-.075.014-.015.258-.23.019-.011.088-.063.019-.017c.129-.092.261-.174.399-.244l.024-.016.099-.047.015-.008.327-.131.013-.005.112-.035.021-.003.107-.029c.197-.052.399-.083.602-.099l.144-.01h.154l.054.004.131.007h.018l.146.018.05.005.108.019.044.008.153.028.144.04.051.013.102.033.047.016.138.05.017.005.123.054.039.024.098.042.045.023.123.07c.176.102.348.221.498.353l.085.073.021.019.077.078.009.011.234.261.012.013.065.089.019.019.246.396.01.021.053.097.008.017.131.319.008.017.028.101.012.024.031.107c.046.196.084.395.097.601l.002.003.005.137v.051l-.005.098v.052l-.002.13v.017l-.016.149-.009.046-.018.106-.011.047-.033.146-.041.149z"/><path fill="#CE0067" d="M-158.867 324.411v-1.952h-1.146c-.12-.541-.334-1.049-.628-1.5l.809-.8-1.403-1.38-.807.8c-.461-.291-.974-.508-1.528-.623v-1.131h-1.976v1.131c-.548.115-1.068.332-1.527.623l-.807-.8-1.396 1.38.807.8c-.299.451-.514.959-.636 1.5h-1.137v1.952h1.136c.122.544.337 1.053.637 1.505l-.808.8 1.396 1.378.807-.795c.459.291.979.504 1.527.621v1.127h1.977v-1.127c.553-.117 1.066-.33 1.527-.621l.808.795 1.402-1.378-.809-.8c.293-.452.508-.961.628-1.505h1.147zm-2.476-.071l-.012.042-.03.105-.019.042-.055.14-.005.016-.052.121-.018.047-.048.087-.025.042c-.122.227-.262.43-.426.618l-.078.084-.016.017-.079.081-.013.008-.262.23-.018.012-.083.065-.02.016-.402.247-.029.01-.094.051-.02.008-.323.128-.019.004-.106.033-.024.008-.106.029c-.194.054-.395.084-.603.101l-.142.004-.054.004-.102-.004h-.052l-.134-.004-.012-.003-.149-.017-.042-.008-.112-.016-.048-.01-.149-.03-.147-.036-.049-.014-.106-.032-.043-.018-.137-.05-.012-.004-.128-.054-.046-.021-.095-.048-.041-.02-.125-.068c-.181-.104-.347-.226-.496-.358l-.083-.07-.025-.019-.078-.079-.009-.01-.234-.261-.012-.016-.068-.084-.013-.021c-.09-.124-.175-.259-.247-.396l-.012-.022-.052-.096-.004-.017-.134-.322-.005-.013-.034-.103-.007-.027-.029-.105c-.067-.237-.101-.484-.106-.737l-.004-.05.004-.1v-.052l.005-.132.002-.012.013-.15.007-.046.018-.11.012-.046.03-.146.038-.148.013-.044.031-.103.019-.045.048-.138.008-.016.052-.119.023-.046.042-.088.029-.048.064-.12c.112-.182.23-.342.361-.491l.08-.084.015-.017.081-.08.007-.012.264-.232.015-.011.09-.063.018-.016c.126-.092.263-.173.4-.245l.024-.012.099-.048.015-.008.328-.131.012-.008.107-.031.023-.008.111-.028c.197-.051.398-.085.604-.101l.141-.007h.207l.134.012h.016l.145.014.046.006.111.019.048.01.151.027.147.038.042.016.106.031.049.016.14.05.014.006.119.053.051.023.087.042.046.026.122.068c.183.104.352.22.5.352l.086.078.017.016.08.079.011.008.231.263.013.012.066.088.013.021c.094.127.179.257.249.395l.013.021.047.098.011.014.13.324.005.012.035.104.012.024.029.107c.049.195.082.394.097.598l.001.003.007.137v.20299999999999999l-.008.131v.018l-.017.146-.008.046-.015.106-.009.046-.03.146-.038.152z"/><g fill="#CE0067"><path d="M-57.565 310.585c-1.019 1.008-1.039 2.616-.038 3.6.998.985 2.63.966 3.65-.035 9.378-9.254 24.631-9.258 34.001-.019.994.984 2.631.969 3.649-.038 1.02-1.008 1.039-2.621.038-3.602-11.358-11.205-29.89-11.164-41.3.094zM-50.673 317.381c-1.023 1.006-1.037 2.613-.039 3.599.994.984 2.632.97 3.645-.035 5.387-5.312 14.3-5.16 19.871.331.998.986 2.63.968 3.651-.04 1.018-1.002 1.04-2.615.039-3.601-7.566-7.457-19.753-7.574-27.167-.254zM-40.758 322.921c-2.127 2.097-2.133 5.488-.013 7.577 2.119 2.09 5.554 2.084 7.682-.012 2.124-2.096 2.128-5.485.012-7.579-2.121-2.086-5.559-2.081-7.681.014zM-10.055 291.828h-53.761c-2.123 0-3.849 1.7-3.849 3.796v52.686c0 2.097 1.727 3.797 3.849 3.797h53.761c2.127 0 3.851-1.701 3.851-3.797v-52.686c0-2.096-1.724-3.796-3.851-3.796zm-34.077 54.376h-6.393c-.684 0-1.233-.542-1.233-1.211 0-.668.549-1.214 1.233-1.214h6.393c.682 0 1.231.546 1.231 1.214 0 .669-.549 1.211-1.231 1.211zm11.073-.758c0 1.86-1.532 3.372-3.416 3.372h-.918c-1.887 0-3.416-1.512-3.416-3.372v-.904c0-1.864 1.528-3.372 3.416-3.372h.918c1.884 0 3.416 1.508 3.416 3.372v.904zm9.714.758h-6.391c-.683 0-1.235-.542-1.235-1.211 0-.668.553-1.214 1.235-1.214h6.391c.68 0 1.232.546 1.232 1.214 0 .669-.552 1.211-1.232 1.211zm11.752-7.716h-50.688v-41.298h50.688v41.298z"/></g><path fill="#CE0067" d="M-77.349 322.619c-1.343-5.014-6.942-1.846-7.841-1.294-.957-.582-6.492-3.678-7.831 1.302-1.546 5.767 7.807 10.522 7.841 10.588 0-.001 9.364-4.893 7.831-10.596zm-4.059 4.675h-2.761v2.727h-2.028v-2.727h-2.766v-2.005h2.766v-2.723h2.028v2.723h2.761v2.005z"/><g fill="#CE0067"><polygon points="-75.266,408.231 -84.021,415.04 -84.027,415.04 -84.027,425.644 -78.275,425.644 -78.275,420.326 -72.255,420.326 -72.255,425.644 -66.504,425.644 -66.504,415.04 -66.508,415.04"/><path d="M-66.652 409.15v-4.171h-3.035v1.894l-4.711-3.546c-.527-.336-1.208-.336-1.735 0l-10.741 8.077v3.755l11.609-8.627 11.606 8.627v-3.755l-2.993-2.254z"/></g></g></g></svg>