<svg xmlns="http://www.w3.org/2000/svg" xmlns:xlink="http://www.w3.org/1999/xlink" width="200" height="200" viewBox="-205.5 296.5 200 200" enable-background="new -205.5 296.5 200 200"><rect x="-205.5" y="296.5" fill="#00AEEF" width="200" height="200"/><defs><rect id="a" x="-205.5" y="296.5" width="200" height="200"/></defs><clipPath id="b"><use xlink:href="#a" overflow="visible"/></clipPath><path clip-path="url(#b)" stroke="#6D6E71" stroke-width=".794" stroke-miterlimit="10" d="M-201.36 381.63c2.836.395 6.131.298 8.271 1.126 2.21.855 4.01 3.11 5.987 5.051 2.906 2.862 5.412 5.252 8.552 7.86 1.91 1.589 3.884 3.067 5.991 4.774 1.022.834 1.369 1.227 2.289 1.842 2.512 1.667 5.812 2.824 8.544 3.771 1.301.457 2.625.93 3.993 1.403 6.338 2.221 11.959 5.892 17.101 9.828 6.253 4.79 12.556 8.95 18.528 14.037.918.778 2.22 1.423 3.14 2.247 2.012 1.798 3.568 2.562 6.208 4.29 1.836 1.207 3.535 2.536 5.644 3.897 3.728 2.416 8.285 5.148 12.667 7.528 1.191.649 2.538.964 3.133 1.682.892 1.087.825 2.808 1.426 3.934 1.071 2.021 3.103 3.632 4.56 5.336 1.542 1.806 2.697 3.81 4.562 5.052.207 2.211.943 4.728 1.423 7.017.484 2.321.433 4.968 2.57 5.896 3.646-2.35-1.814-9.721 1.139-13.188 2.979-.33 3.438 2.383 4.45 4.042.502.818 1.278 2.191 1.82 2.979 1.17 1.68 1.704 3.692 3.139 5.331.588.676 1.155 1.854 2.281 1.121 1.635-1.084-.147-3.042-.566-3.931-1.216-2.542-2.448-4.505-3.992-7.02-.711-1.146-1.595-2.287-1.713-3.646 1.685-.226 3.115 1.015 4.274 1.965 2.318 1.896 4.389 4.006 6.845 6.179 1.107.978 2.122 2.839 4.274 2.241.969-3.476-2.703-5.585-4.562-7.583-2.095-2.243-4.547-4.123-6.274-6.452 4.399.032 7.215 3.231 9.979 5.896.872.842 1.896 2.191 3.42 1.967 1.601-2.389-1.183-4.545-2.563-5.896-3.161-3.098-6.75-5.46-9.977-8.701-1.488-1.496-3.437-3.219-3.138-5.617 1.641-1.271 4.106-.22 5.986-.564 3.267-.584 5.707-3.026 5.132-6.171-1.661-.814-2.522.746-4.276 1.124-1.567.337-3.716.271-5.417 0-1.582-.254-3.083-1.225-4.847-1.407-4.729-.482-9.593.783-12.892-.763-1.788-.838-3.401-1.522-4.256-2.633-12.833-8.605-25.14-23.779-33.878-29.729-3.619-2.143-8.148-3.534-11.688-5.612-2.742-1.608-4.247-4.278-6.271-6.735-.579-.705-1.295-1.256-1.995-1.969-3.089-3.114-6.809-5.106-11.406-7.304-3.879-1.849-6.558-5.465-8.552-9.537-.854-1.752-1.483-4.721-2.849-5.899l-.26-.268-.313-.294c-2.419-2.356-5.655-4.231-9.123-5.896-1.012-.481-2.547-.771-3.42-1.405-4.553-3.286-3.06-11.942-.571-15.438-.274.883-.938 2.162-1.141 3.932-.296 2.599.252 5.718.574 7.859 2.576 2.45 6.398 3.836 9.69 5.614 1.621.877 2.994 1.442 4.563 2.524 1.724 1.191 2.687 1.392 5.701 1.969 2.072.393 4.106 1.35 6.842.563 1.292.694 2.673 2.008 4.275 2.244 1.369.201 3.875-.076 5.702-.281.946-.104 1.913-.563 2.849-.563 1.607 0 2.999.653 4.279.563 7.271-.507 9.54-7.795 10.265-14.875-10.87-5.209-22.618-9.547-31.076-17.127-2.74-1.074-3.471-2.054-5.704-2.242-2.793-.238-5.531 2-9.124 1.402 1.126-.729 2.177-.6 3.424-1.125 2.072-.873 3.043-2.693 5.986-2.527 1.298.078 3.582 1.455 5.417 2.527 4.814 2.813 9.749 5.963 14.535 8.426 7.684 3.942 13.321 6.306 19.571 9.604 1.362.787 2.796.934 3.808 1.063 2.768 4.412 7.165 7.428 11.404 10.666 1.737 1.328 3.367 2.836 5.133 4.213 1.716 1.336 3.731 2.252 5.417 3.65 2.133 1.77 4.179 3.93 6.554 5.893.671.557 1.69 1.111 2.282 1.686 1.996 1.938 3.667 4.669 5.7 6.734 3.099 3.15 6.01 4.582 7.7 8.987.413 1.075.6 2.52.854 3.933.244 1.334.281 3.174.855 4.49 1.209 2.783 4.021 4.516 4.562 7.574.368 2.074-.918 4.57.854 5.899 4.401-1.089 3.465-7.595 2.571-11.792 3.515-3.896 8.946 2.645 11.397 5.059 1.393 1.371 2.713 2.659 3.994 3.93 1.36 1.351 2.501 3.307 4.561 3.086 1.626-3.493-1.98-5.594-3.705-7.582-1.979-2.277-3.859-4.5-5.131-7.012 1.661-.578 3.037.859 4.275 1.681 1.203.8 2.48 1.753 3.706 2.53 2.508 1.588 4.98 3.886 8.265 3.646 1.713-2.073-.188-3.229-1.42-4.213-1.148-.908-2.611-2.031-3.711-2.806-2.745-1.936-6.377-2.896-7.979-5.331 1.389-.503 2.669.575 3.995 1.121 1.34.552 2.809.885 4.271 1.403 2.102.752 4.325 2.627 6.841 1.682 2.041-3.904-4.015-4.373-6.841-5.612-1.074-.474-1.905-1.306-2.849-1.685-2.053-.822-4.686-.557-5.703-2.246.57-2.304 3.167-2.609 5.703-3.089 2.449-.456 5.47-.089 6.841-1.686-1.142-2.527-4.138-1.571-6.273-1.4-2.363.188-5.396.896-7.415.556-1.085-.17-2.154-1.319-3.422-1.961-3.822-1.932-10.189-2.721-13.393-5.055-1.724-1.248-2.403-3.209-3.708-4.771-1.374-1.639-3.215-2.463-3.998-4.208-6.742-6.076-12.747-11.872-19.097-18.248-1.024-1.034-2.188-1.994-3.136-3.092-1.845-2.124-3.182-4.025-5.701-5.894-2.092-1.552-4.354-2.967-7.127-4.212-1.34-.601-2.908-.71-4.276-1.405-1.464-.735-3.063-2.384-4.563-3.647-1.53-1.289-2.909-2.695-4.277-3.929-4.503-4.082-8.843-7.254-13.396-10.949-1.472-1.194-2.832-2.506-4.277-3.651-1.868-1.478-3.275-2.091-5.416-2.805-1.77-.585-3.849-1.069-5.987-1.966-1.624-.677-3.282-1.86-4.845-2.807-.823-.496-1.417-1.341-2.262-1.932-.709-.496-1.526-.832-2.3-1.16-1.409-.604-3.44-.701-5.135-1.124-3.423-.853-6.627-1.19-10.832-1.682-4.47-.522-8.249-.759-10.833-3.366-.479-.487-.455-.833-1.139-1.125-1.326-.57-4.006-.375-6.562-.564-2.161-.162-4.452-.371-6.557-.278-3.336.141-6.846.813-10.264.56-3.601-.267-6.823-1.366-9.405-1.402-3.291-.047-6.674 1.218-8.553-.846-1.495.028-1.963 1.065-3.423 1.124-.281-.03-.533-.114-.771-.218v70.859c9.42 2.709 19.483 4.785 26.429 9.927 1.28.317 1.268-1.47 2.28-.558 1.79.266 3.855.777 6.273 1.112zm29.082-46.878c-4.241-3.852-9.459-7.477-13.971-10.666-1.953-1.387-2.35-1.838-3.706-3.654-.482-.643-1.316-1.332-1.713-1.964-2.063-3.28-2.782-7.162-2.849-12.073.351-.42.947-2.035 1.425-1.396-.906.769-.852 1.797-.852 2.8-.027 4.514 3.404 8.73 5.129 11.793 2.177 1.678 4.397 3.867 6.558 5.334 2.19 1.484 3.548 2.785 5.417 4.49 2.084 1.906 4.094 3.402 4.562 5.336zm-32.215 42.389c3.422-1.693 7.618-3.281 12.825-3.652 2.133-.147 4.458.304 6.563 0 3.752-.531 6.541-2.905 9.121-3.364-2.035 1.881-4.154 3.273-6.842 4.207-.607.216-1.142.709-1.709.846-4.097.962-8.931.033-13.401.56-2.329.277-4.471 1.802-6.557 1.403z"/><defs><rect id="c" x="-205.5" y="296.5" width="200" height="200"/></defs><clipPath id="d"><use xlink:href="#c" overflow="visible"/></clipPath><path opacity=".5" clip-path="url(#d)" fill="#D7DF23" enable-background="new" d="M-201.36 423.541c2.836.391 6.131.294 8.271 1.122 2.21.857 4.01 3.112 5.987 5.055 2.906 2.865 5.412 5.251 8.552 7.86 1.91 1.591 3.884 3.07 5.991 4.78 1.022.826 1.369 1.225 2.289 1.835 2.512 1.664 5.812 2.822 8.544 3.771 1.301.459 2.625.928 3.993 1.408 6.338 2.216 11.959 5.885 17.101 9.824 6.253 4.791 12.556 8.949 18.528 14.036.918.778 2.22 1.425 3.14 2.247 2.012 1.803 3.568 2.562 6.208 4.297 1.836 1.2 3.535 2.529 5.644 3.895 3.728 2.417 8.285 5.146 12.667 7.528 1.191.648 2.538.96 3.133 1.686.892 1.085.825 2.799 1.426 3.929 1.071 2.019 3.103 3.63 4.56 5.339 1.542 1.8 2.697 3.804 4.562 5.05.207 2.207.943 4.725 1.423 7.017.484 2.322.433 4.966 2.57 5.896 3.646-2.354-1.814-9.723 1.139-13.191 2.979-.331 3.438 2.383 4.45 4.043.502.817 1.278 2.19 1.82 2.979 1.17 1.679 1.704 3.692 3.139 5.332.588.673 1.155 1.853 2.281 1.123 1.635-1.09-.147-3.041-.566-3.931-1.216-2.542-2.448-4.507-3.992-7.021-.711-1.147-1.595-2.287-1.713-3.647 1.685-.224 3.115 1.017 4.274 1.966 2.318 1.896 4.389 4.006 6.845 6.178 1.107.978 2.122 2.842 4.274 2.24.969-3.474-2.703-5.584-4.562-7.575-2.095-2.244-4.547-4.129-6.274-6.456 4.399.034 7.215 3.229 9.979 5.895.872.843 1.896 2.189 3.42 1.968 1.601-2.393-1.183-4.545-2.563-5.899-3.161-3.097-6.75-5.456-9.977-8.704-1.488-1.493-3.437-3.214-3.138-5.612 1.641-1.273 4.106-.223 5.986-.563 3.267-.587 5.707-3.023 5.132-6.171-1.661-.815-2.522.742-4.276 1.12-1.567.339-3.716.272-5.417 0-1.582-.254-3.083-1.227-4.847-1.404-4.729-.485-9.593.785-12.892-.763-1.788-.837-3.401-1.522-4.256-2.633-12.833-8.606-25.14-23.781-33.878-29.729-3.619-2.145-8.148-3.532-11.688-5.616-2.742-1.608-4.247-4.275-6.271-6.737-.579-.698-1.295-1.252-1.995-1.964-3.089-3.12-6.809-5.104-11.406-7.298-3.879-1.853-6.558-5.468-8.552-9.544-.854-1.753-1.483-4.721-2.849-5.896l-.26-.27-.313-.294c-2.419-2.362-5.655-4.231-9.123-5.897-1.012-.482-2.547-.772-3.42-1.406-4.553-3.285-3.06-11.943-.571-15.439-.274.887-.938 2.165-1.141 3.932-.296 2.604.252 5.723.574 7.864 2.576 2.447 6.398 3.836 9.69 5.613 1.621.876 2.994 1.442 4.563 2.526 1.724 1.188 2.687 1.392 5.701 1.967 2.072.393 4.106 1.349 6.842.562 1.292.694 2.673 2.007 4.275 2.241 1.369.205 3.875-.073 5.702-.275.946-.107 1.913-.563 2.849-.563 1.607 0 2.999.649 4.279.563 7.271-.509 9.54-7.795 10.265-14.872-10.873-5.219-22.623-9.558-31.082-17.134-2.741-1.076-3.472-2.056-5.706-2.248-2.795-.236-5.528 2.004-9.123 1.408 1.125-.73 2.178-.6 3.425-1.126 2.071-.871 3.041-2.698 5.984-2.53 1.302.079 3.583 1.454 5.418 2.53 4.815 2.813 9.747 5.961 14.537 8.423 7.682 3.945 13.318 6.309 19.568 9.607 1.361.781 2.797.931 3.81 1.064 2.765 4.407 7.163 7.423 11.404 10.661 1.736 1.325 3.365 2.836 5.133 4.213 1.713 1.337 3.729 2.249 5.413 3.647 2.136 1.771 4.182 3.933 6.559 5.896.669.555 1.689 1.11 2.28 1.687 1.994 1.939 3.668 4.67 5.698 6.732 3.1 3.149 6.012 4.589 7.702 8.991.413 1.07.599 2.521.853 3.926.244 1.336.281 3.177.855 4.492 1.209 2.781 4.021 4.518 4.564 7.579.365 2.069-.92 4.567.854 5.896 4.4-1.091 3.462-7.592 2.569-11.792 3.516-3.894 8.948 2.644 11.398 5.056 1.393 1.371 2.713 2.661 3.995 3.933 1.359 1.351 2.5 3.309 4.56 3.084 1.628-3.493-1.979-5.591-3.707-7.576-1.976-2.278-3.858-4.505-5.131-7.02 1.664-.576 3.04.865 4.278 1.688 1.202.798 2.482 1.751 3.705 2.525 2.508 1.59 4.979 3.885 8.265 3.645 1.711-2.07-.188-3.228-1.422-4.208-1.145-.912-2.609-2.031-3.709-2.809-2.746-1.937-6.379-2.896-7.979-5.332 1.39-.504 2.669.578 3.992 1.121 1.342.554 2.812.882 4.274 1.404 2.101.753 4.324 2.625 6.839 1.683 2.043-3.902-4.014-4.374-6.839-5.608-1.075-.475-1.908-1.31-2.849-1.686-2.052-.824-4.686-.56-5.703-2.244.571-2.307 3.165-2.616 5.703-3.093 2.45-.458 5.468-.089 6.842-1.683-1.145-2.527-4.14-1.578-6.273-1.406-2.365.189-5.394.896-7.414.558-1.085-.175-2.154-1.32-3.42-1.958-3.824-1.935-10.191-2.723-13.395-5.062-1.723-1.241-2.405-3.209-3.708-4.767-1.373-1.642-3.214-2.465-3.998-4.213-6.741-6.074-12.746-11.869-19.098-18.244-1.021-1.035-2.185-1.991-3.134-3.089-1.846-2.124-3.183-4.034-5.701-5.899-2.094-1.547-4.354-2.968-7.127-4.209-1.34-.598-2.908-.708-4.277-1.404-1.463-.74-3.063-2.385-4.563-3.646-1.532-1.293-2.91-2.696-4.276-3.931-4.504-4.081-8.844-7.255-13.395-10.95-1.471-1.193-2.833-2.506-4.277-3.65-1.87-1.477-3.274-2.094-5.417-2.803-1.77-.588-3.848-1.073-5.986-1.969-1.625-.68-3.281-1.858-4.845-2.81-.825-.496-1.417-1.337-2.262-1.929-.709-.493-1.528-.829-2.3-1.157-1.408-.604-3.441-.701-5.137-1.127-3.423-.847-6.626-1.192-10.832-1.681-4.469-.522-8.248-.758-10.832-3.367-.478-.483-.455-.832-1.14-1.129-1.321-.562-4.002-.366-6.558-.559-2.161-.162-4.452-.369-6.557-.281-3.338.146-6.848.814-10.264.562-3.602-.265-6.823-1.365-9.405-1.399-3.292-.051-6.674 1.215-8.554-.846-1.494.03-1.962 1.063-3.422 1.123-.281-.03-.534-.11-.771-.218v70.86c9.421 2.709 19.483 4.783 26.429 9.923 1.28.32 1.27-1.467 2.28-.558 1.791.271 3.856.783 6.274 1.116zm29.082-46.879c-4.241-3.854-9.459-7.475-13.971-10.668-1.953-1.383-2.35-1.836-3.706-3.649-.482-.644-1.316-1.335-1.713-1.968-2.063-3.275-2.782-7.16-2.849-12.068.351-.425.947-2.039 1.425-1.402-.906.773-.852 1.803-.852 2.804-.027 4.511 3.404 8.729 5.129 11.794 2.177 1.678 4.397 3.872 6.558 5.337 2.19 1.479 3.548 2.782 5.417 4.489 2.084 1.901 4.094 3.399 4.562 5.331zm-32.215 42.39c3.422-1.695 7.618-3.282 12.825-3.655 2.133-.142 4.458.306 6.563 0 3.752-.532 6.541-2.902 9.121-3.362-2.035 1.883-4.154 3.271-6.842 4.211-.607.214-1.142.707-1.709.843-4.097.96-8.931.031-13.401.563-2.329.268-4.471 1.802-6.557 1.4z"/><g fill="#fff"><path d="M-11.208 413.639l-17.921-.018.006-4.706 17.92.016-.005 4.708zM-11.194 400.602l-14.559-.017-.002 1.667 14.562.016-.006 4.707-17.921-.02.006-4.706 1.195.002c-.333-.112-.616-.313-.847-.601-.229-.285-.347-.594-.347-.92l.003-3.26c0-.408.166-.776.5-1.104.333-.327.705-.49 1.119-.49l16.304.019-.007 4.707zM-25.865 386.348l14.684.016-.001 4.705-14.687-.016-.003 2.868-3.235-.787.011-8.897 3.236-.758-.005 2.869zM-11.168 374.694l-.006 6.837-17.922-.018.008-6.838 3.236-.78-.005 2.915 3.611.006.004-2.795 3.234.002-.001 2.796 4.603.003.006-2.916 3.232.788zM-11.159 364.866l-6.945 2.296v.1l6.941.005-.006 4.683-17.918-.018.009-9.143c0-.425.167-.796.499-1.115.332-.316.706-.479 1.118-.477l7.766.007c.331 0 .635.11.909.332.271.221.479.486.607.797l7.023-2.321-.003 4.854zm-14.683.598l-.002 1.79 4.48.004.002-1.787-4.48-.007zM-25.832 353.334l3.608.001.003-2.768 3.235.001-.002 2.77 7.84.01-.002 4.705-17.923-.017.009-6.912 3.235-.757-.003 2.967zM-11.133 340.75l-1.243.268-.051.051-.002 2.988 1.292.297-.004 4.78-14.682-3.423-.001 1.594-3.235-.738.006-6.445 17.927-4.146-.007 4.774zm-7.769 1.805l3.237.764v-1.521l-3.237.757zM-11.125 332.416c0 .41-.163.776-.485 1.104-.323.324-.702.487-1.132.487l-14.685-.016c-.417 0-.789-.162-1.121-.491-.329-.326-.497-.693-.497-1.102l.006-6.814 3.237.003-.002 3.702 11.449.009.004-3.701 3.234.003-.008 6.816zM-11.111 316.805l-.005 6.838-17.922-.019.008-6.838 3.236-.781-.003 2.917 3.609.005.003-2.796 3.235.004-.002 2.793 4.604.004.006-2.916 3.231.789zM-25.786 308.971l3.61.004.003-2.451c0-.408.163-.781.485-1.114.322-.335.691-.501 1.105-.501l7.867.009c.43 0 .807.167 1.133.501.324.336.482.708.482 1.117l-.007 6.764-3.236.758.004-4.438-4.603-.003-.002 2.452c-.002.408-.17.775-.513 1.102-.339.327-.715.49-1.132.49l-6.817-.008c-.417 0-.79-.163-1.122-.491-.331-.327-.498-.694-.494-1.104l.003-6.982 3.238-.733-.004 4.628z"/></g><g fill="#fff"><path d="M-134.848 326.445c-.43.424-.916.637-1.454.635l-9.416-.01c-.541 0-1.024-.21-1.454-.622-.433-.415-.647-.898-.646-1.449l.019-18.801c0-.53.215-1.007.647-1.434.433-.423.918-.636 1.457-.634l9.967.01.935 4.143-6.828-.006-.016 14.656 1.295.002.009-9.688 6.212.008-.013 11.757c-.001.551-.238 1.029-.714 1.433zM-123.813 327.092l-9.027-.009.025-22.939 9.024.007 1.033 4.145-3.851-.004-.007 4.619 3.689.004-.003 4.141-3.689-.002-.006 5.896 3.849.003-1.037 4.139zM-114.768 308.303l-.004 4.62 3.235.002c.541 0 1.031.208 1.474.622.438.415.663.889.663 1.42l-.013 10.067c-.001.553-.223 1.034-.665 1.448-.444.414-.937.621-1.476.619l-8.93-.007-.998-4.146 5.855.008.007-5.896-3.234-.003c-.542 0-1.026-.218-1.456-.655-.428-.435-.646-.92-.646-1.449l.008-8.73c.002-.529.217-1.009.65-1.433.43-.424.917-.638 1.456-.634l9.222.007.965 4.146-6.113-.006zM-97.359 308.317l-.021 18.8-6.215-.006.024-18.799-3.785-.004 1.037-4.14 11.747.011.999 4.146-3.786-.008zM-78.336 326.515c-.442.415-.934.622-1.473.621l-10.384-.01c-.542 0-1.027-.21-1.456-.624-.432-.415-.646-.896-.644-1.45l.021-20.868 6.18.004-.02 18.799 2.231.003.021-18.798 6.213.005-.022 20.87c-.003.551-.227 1.035-.667 1.448zM-67.031 327.148l-3.03-8.895h-.132l-.009 8.89-6.178-.005.024-22.94 12.067.013c.561 0 1.053.213 1.471.639.422.426.633.902.629 1.434l-.007 9.941c-.002.424-.15.812-.439 1.16-.293.352-.645.611-1.051.779l3.063 8.988-6.408-.004zm-.788-18.8l-2.362-.002-.003 5.734 2.359.003.006-5.735zM-48.265 327.166l-.354-1.595-.063-.063-3.949-.002c0 .021-.132.572-.391 1.654l-6.308-.006 4.517-18.793-2.103-.004.976-4.14 8.509.009 5.477 22.944-6.311-.004zm-2.385-9.943l-1.003 4.141 2.006.004-1.003-4.145zM-31.699 327.184l-8.96-.009.024-22.942 6.213.008-.021 18.799 3.752.003-1.008 4.141z"/></g></svg>