<svg xmlns="http://www.w3.org/2000/svg" xmlns:xlink="http://www.w3.org/1999/xlink" width="200" height="200" viewBox="-232.5 270.5 200 200" enable-background="new -232.5 270.5 200 200"><rect x="-232.5" y="270.059" fill="#EE2A7B" width="200" height="200.441"/><defs><rect id="a" x="-232.5" y="270.059" width="200" height="200.441"/></defs><clipPath id="b"><use xlink:href="#a" overflow="visible"/></clipPath><g clip-path="url(#b)"><path fill="#CE0067" d="M-175.91 317.383c0-10.305-8.481-18.688-18.906-18.688-10.421 0-18.903 8.383-18.903 18.688 0 10.308 8.482 18.687 18.903 18.687 10.425-.001 18.906-8.38 18.906-18.687zm-35.072 1.321h5.703c.131 1.938.488 3.862 1.072 5.74h-5.173c-.876-1.756-1.433-3.693-1.602-5.74zm32.328-2.645h-5.658c-.075-2.013-.39-4.015-.944-5.96h4.888c.942 1.813 1.539 3.829 1.714 5.96zm-8.335 0h-6.486v-5.96h5.419c.627 1.932.985 3.939 1.067 5.96zm-6.486-8.612v-6.045l.078.007c1.811 1.807 3.24 3.854 4.287 6.038h-4.365zm-2.678-6.045v6.045h-4.369c1.045-2.184 2.471-4.231 4.279-6.035l.09-.01zm0 8.697v5.96h-6.495c.082-2.021.436-4.027 1.069-5.96h5.426zm-9.176 5.96h-5.653c.175-2.131.779-4.146 1.717-5.96h4.886c-.564 1.944-.874 3.947-.95 5.96zm2.731 2.645h6.444v5.74h-5.235c-.653-1.865-1.055-3.795-1.209-5.74zm6.445 8.388v5.772c-1.705-1.752-3.075-3.702-4.113-5.772h4.113zm2.678 0h4.104c-1.036 2.067-2.403 4.013-4.104 5.762v-5.762zm0-2.648v-5.74h6.433c-.155 1.944-.554 3.875-1.211 5.74h-5.222zm9.119-5.74h5.702c-.168 2.047-.72 3.983-1.602 5.74h-5.176c.58-1.876.938-3.802 1.076-5.74zm2.27-11.257h-4.101c-.734-1.767-1.683-3.46-2.854-5.053 2.756 1.044 5.15 2.808 6.955 5.053zm-18.515-5.049c-1.162 1.589-2.115 3.285-2.849 5.049h-4.09c1.794-2.242 4.189-4.005 6.939-5.049zm-7.112 24.694h4.495c.845 1.938 1.948 3.789 3.298 5.513-3.127-1.03-5.838-2.971-7.793-5.513zm17.991 5.517c1.351-1.729 2.454-3.577 3.3-5.518h4.51c-1.966 2.543-4.677 4.488-7.81 5.518z"/><path fill="#CE0067" d="M-103.747 334.411h-12.43c-.71 0-1.289.659-1.289 1.476v22.959c0 .813 1.504 2.623 7.453 2.623 5.95 0 7.556-1.81 7.556-2.623v-22.96c0-.816-.578-1.475-1.29-1.475zm-8.624 23.512h-2.145c-.229 0-.415-.211-.415-.471 0-.261.186-.472.415-.472h2.145c.228 0 .409.211.409.472.001.258-.181.471-.409.471zm3.708-.294c0 .72-.515 1.312-1.142 1.312h-.31c-.634 0-1.146-.591-1.146-1.312v-.354c0-.722.511-1.313 1.146-1.313h.31c.627 0 1.142.591 1.142 1.313v.354zm3.258.294h-2.14c-.23 0-.416-.211-.416-.471 0-.261.186-.472.416-.472h2.14c.227 0 .41.211.41.472 0 .258-.183.471-.41.471zm1.146-2.907h-11.402v-18.521h11.402v18.521z"/><path fill="#CE0067" d="M-154.17 379.484h-16.958c-.973 0-1.761.902-1.761 2.013v31.318c0 1.113 2.051 3.58 10.167 3.58 8.118 0 10.307-2.467 10.307-3.58v-31.318c0-1.11-.786-2.013-1.755-2.013zm-11.768 32.079h-2.924c-.312 0-.561-.289-.561-.643 0-.356.251-.644.561-.644h2.924c.31 0 .561.287.561.644-.001.354-.252.643-.561.643zm5.061-.405c0 .989-.7 1.79-1.564 1.79h-.417c-.862 0-1.564-.801-1.564-1.79v-.481c0-.983.702-1.783 1.564-1.783h.417c.866 0 1.564.8 1.564 1.783v.481zm4.439.405h-2.924c-.311 0-.561-.289-.561-.643 0-.356.251-.644.561-.644h2.924c.312 0 .567.287.567.644 0 .354-.255.643-.567.643zm1.564-3.963h-15.553v-25.269h15.551v25.269h.002z"/><g fill="#CE0067"><path d="M-173.165 426.2h-50.818c-2.822 0-5.118 2.27-5.118 5.057v33.806c0 2.791 2.295 5.059 5.118 5.059h23.271l16.518 15.804c.298.282.681.43 1.073.43.209 0 .415-.043.609-.124.574-.239.941-.797.94-1.413l-.055-14.697h8.461c2.82 0 5.12-2.267 5.12-5.058v-33.807c.002-2.787-2.298-5.057-5.119-5.057zm2.03 38.863c0 1.102-.915 2.002-2.028 2.002h-10.013c-.409 0-.802.16-1.094.452-.295.287-.455.677-.451 1.079l.043 12.61-14.335-13.713c-.291-.276-.675-.429-1.073-.429h-23.897c-1.115 0-2.027-.9-2.027-2.002v-33.807c0-1.103.913-2.002 2.027-2.002h50.818c1.114 0 2.028.899 2.028 2.002v33.807h.002z"/><ellipse cx="-214.912" cy="447.342" rx="6.147" ry="6.078"/><path d="M-198.572 441.262c-3.399 0-6.152 2.722-6.152 6.081 0 3.354 2.752 6.077 6.152 6.077 3.389 0 6.148-2.723 6.148-6.077 0-3.36-2.759-6.081-6.148-6.081zM-180.401 441.541c-3.237-1.002-6.689.781-7.702 3.982-1.014 3.207.788 6.615 4.027 7.618 3.242 1.001 6.692-.781 7.705-3.985 1.016-3.201-.788-6.61-4.03-7.615z"/></g><g fill="#CE0067"><polygon points="-115.52,278.378 -141.35,298.522 -141.36,298.522 -141.36,329.857 -124.4,329.857 -124.4,314.133 -106.642,314.133 -106.642,329.857 -89.686,329.857 -89.686,298.522 -89.692,298.522"/><path d="M-90.122 281.104v-12.336h-8.934v5.602l-13.905-10.478c-1.56-.997-3.558-.997-5.12 0l-31.677 23.872v11.106l34.238-25.509 34.233 25.509v-11.106l-8.835-6.66z"/></g><g fill="#CE0067"><path d="M-76.615 284.435v41.712h13.082v-41.712h-13.082zm3.482 4.251h6.112v21.185h-6.112v-21.185zm3.058 33.756c-1.755 0-3.175-1.406-3.175-3.141 0-1.729 1.42-3.14 3.175-3.14 1.75 0 3.168 1.411 3.168 3.14 0 1.735-1.418 3.141-3.168 3.141zM-58.055 284.435v41.712h13.082v-41.712h-13.082zm3.486 4.251h6.11v21.185h-6.11v-21.185zm3.055 33.756c-1.751 0-3.175-1.406-3.175-3.141 0-1.729 1.423-3.14 3.175-3.14 1.751 0 3.176 1.411 3.176 3.14 0 1.735-1.425 3.141-3.176 3.141zM-39.496 284.435v41.712h13.081v-41.712h-13.081zm3.489 4.251h6.109v21.185h-6.109v-21.185zm3.057 33.756c-1.755 0-3.176-1.406-3.176-3.141 0-1.729 1.42-3.14 3.176-3.14 1.751 0 3.172 1.411 3.172 3.14 0 1.735-1.421 3.141-3.172 3.141z"/></g><g fill="#CE0067"><rect x="-252.307" y="386.553" width="32.234" height="27.715"/><path d="M-244.024 378.588c0-4.272 3.516-7.744 7.831-7.744 4.318 0 7.832 3.472 7.832 7.744v5.329h5.439v-5.329c0-7.234-5.951-13.118-13.272-13.118-7.316 0-13.268 5.884-13.268 13.118v5.329h5.435v-5.329h.003z"/></g><path fill="#CE0067" d="M-184.844 399.618c-.075-.229-.271-.392-.511-.426l-6.765-.976-3.027-6.059c-.111-.211-.328-.351-.565-.351-.247 0-.46.14-.57.351l-3.026 6.059-6.768.976c-.236.034-.432.197-.511.426-.075.224-.013.472.161.641l4.899 4.72-1.159 6.661c-.038.233.056.472.254.61s.449.155.669.048l6.052-3.144 6.048 3.144c.092.045.195.07.295.07.132 0 .263-.039.37-.118.199-.141.292-.377.255-.61l-1.155-6.661 4.892-4.72c.172-.171.239-.417.162-.641z"/><g fill="#CE0067"><path d="M-66.563 271.265h13.012c1.186 0 2.154-.752 2.154-1.674 0-.926-.968-1.673-2.154-1.673h-13.012c-1.189 0-2.15.748-2.15 1.673 0 .922.961 1.674 2.15 1.674zM-61.986 272.168h-3.057c-.224.536-.76.916-1.379.916h-8.557c-.83 0-1.493-.663-1.493-1.479v-4.031c0-.813.661-1.478 1.493-1.478h8.557c.62 0 1.155.38 1.379.917h3.057c-.276-2.178-2.156-3.864-4.437-3.864h-8.557c-2.476 0-4.479 1.979-4.479 4.425v4.031c0 2.446 2.003 4.427 4.479 4.427h8.557c2.28-.001 4.161-1.685 4.437-3.864zM-40.654 271.604v-4.031c0-2.446-2.004-4.425-4.474-4.425h-8.559c-2.281 0-4.165 1.687-4.443 3.864h3.06c.224-.535.758-.917 1.383-.917h8.559c.821 0 1.494.664 1.494 1.478v4.031c0 .815-.673 1.479-1.494 1.479h-8.559c-.625 0-1.159-.379-1.383-.916h-3.06c.278 2.179 2.162 3.863 4.443 3.863h8.559c2.469.001 4.474-1.979 4.474-4.426z"/></g><path fill="#CE0067" d="M-200.987 383.199c-.04-.129-.167-.209-.304-.189l-2.16.323c-.096-.395-.246-.79-.445-1.165-.949-1.96-2.978-3.223-5.173-3.223-3.156 0-5.729 2.544-5.729 5.664 0 .528 0 1.024.005 1.488.02 2.799.03 4.485-.63 5.137-.24.245-.598.358-1.123.358h-2.702c-.152 0-.277.124-.277.273 0 1.794.638 3.476 1.803 4.728 1.311 1.422 3.196 2.17 5.431 2.17 2.672 0 4.782-.744 6.266-2.216 2.548-2.535 2.595-6.487 2.587-8.294l1.942.463c.125.031.262-.036.315-.159.054-.125.01-.266-.106-.334-.018-.014-1.765-1.115-1.765-2.365 0-1.352 1.908-2.326 1.925-2.339.123-.059.183-.193.14-.32zm-5.646 2.197c-.855 0-1.545-.688-1.545-1.529 0-.847.69-1.536 1.545-1.536.859 0 1.552.689 1.552 1.536 0 .841-.693 1.529-1.552 1.529z"/><path fill="#CE0067" d="M-177.483 418.484v-2.03h-1.189c-.12-.565-.348-1.095-.656-1.565l.848-.834-1.458-1.433-.841.832c-.478-.304-1.012-.53-1.582-.648v-1.174h-2.051v1.174c-.574.121-1.108.345-1.582.648l-.842-.832-1.457 1.433.842.834c-.308.473-.532 1-.657 1.565h-1.186v2.03h1.186c.126.565.35 1.095.657 1.565l-.842.828 1.457 1.437.842-.83c.475.304 1.007.525 1.582.646v1.176h2.051v-1.176c.57-.121 1.105-.343 1.582-.646l.841.83 1.458-1.437-.848-.828c.31-.473.538-1 .656-1.565h1.189zm-2.445-.857v.049l-.01.111-.007.052-.017.149v.017l-.028.135-.013.056-.024.098-.013.051c-.069.257-.16.5-.286.725l-.052.102-.016.02-.058.102-.012.008-.212.296-.008.017-.072.085-.019.02c-.107.123-.226.238-.349.345l-.02.017-.086.07-.018.016-.295.206-.012.01-.098.061-.024.01-.101.053c-.19.103-.385.187-.594.245l-.142.042-.047.013-.104.024-.05.01-.139.025-.018.003-.147.02-.055.008-.113.005-.054.003-.154.004-.162-.004-.048-.003-.113-.005-.047-.008-.156-.02-.013-.003-.142-.025-.053-.01-.103-.024-.044-.013-.144-.042c-.208-.059-.407-.14-.592-.245l-.101-.053-.024-.01-.094-.061-.012-.01-.299-.206-.019-.016-.086-.07-.02-.017c-.124-.106-.241-.222-.347-.345l-.017-.02-.071-.085-.016-.017-.212-.295-.008-.013-.057-.097-.016-.024-.052-.098c-.128-.225-.223-.468-.289-.725l-.013-.051-.026-.098-.008-.056-.028-.135-.001-.017-.02-.149-.001-.052-.011-.111-.001-.049-.004-.16.004-.154.001-.047.011-.116.001-.049.02-.149.001-.018.028-.135.008-.048.026-.104.013-.052.037-.14c.065-.205.146-.399.252-.586l.052-.098.016-.025.057-.099.008-.012.212-.296.016-.013.071-.087.017-.019c.106-.121.223-.239.347-.345l.02-.016.086-.071.019-.013.299-.211.012-.005.099-.063.02-.01.101-.056c.186-.096.382-.183.592-.245l.141-.036.048-.015.103-.022.053-.013.142-.024.014-.002.156-.021.047-.003.113-.01.048-.003.162-.005.154.005.054.003.113.01.055.003.147.021.018.002.14.024.052.013.098.022.05.015.142.036c.208.063.404.147.594.245l.101.056.024.01.099.063.008.005.298.211.019.013.085.071.021.016c.123.105.242.224.348.345l.019.019.072.087.008.013.212.296.012.012.055.099.019.025.052.098c.096.187.185.38.242.586h.004l.04.14.012.052.024.104.013.048.023.135.005.018.016.149.006.049.01.116v.047l.008.154-.008.159z"/><path fill="#CE0067" d="M-151.998 463.73v-2.032h-1.186c-.128-.568-.348-1.096-.656-1.565l.839-.832-1.455-1.435-.842.829c-.472-.302-1.007-.524-1.581-.648v-1.172h-2.054v1.172c-.573.125-1.106.348-1.58.648l-.842-.829-1.451 1.435.837.832c-.306.472-.534.997-.659 1.565h-1.184v2.032h1.184c.126.563.354 1.093.659 1.563l-.837.829 1.451 1.435.842-.827c.475.301 1.007.524 1.58.646v1.174h2.054v-1.174c.574-.122 1.109-.346 1.581-.646l.842.827 1.455-1.435-.839-.829c.31-.474.53-1.001.656-1.563h1.186zm-2.445-.861v.05l-.007.113-.011.05-.017.146v.021l-.027.135-.013.055-.024.1-.013.05c-.065.255-.162.496-.283.721l-.056.104-.012.02-.061.102-.013.009-.208.295-.009.018-.074.085-.018.019c-.108.123-.219.236-.348.344l-.019.017-.088.07-.014.016-.298.211-.012.005-.1.061-.023.011-.102.053c-.19.103-.386.184-.593.244l-.143.043-.046.014-.104.022-.05.012-.14.025-.016.001-.152.02-.046.009-.12.005-.051.004-.157.003-.159-.003-.049-.004-.113-.005-.048-.009-.155-.02-.014-.001-.142-.025-.046-.012-.109-.022-.045-.014-.145-.043c-.2-.061-.401-.139-.591-.244l-.101-.053-.025-.011-.094-.061-.017-.005-.295-.211-.018-.016-.086-.07-.023-.017c-.121-.107-.238-.221-.342-.342l-.015-.021-.079-.085-.013-.018-.208-.292-.012-.017-.056-.095-.017-.024-.054-.102c-.119-.225-.22-.466-.287-.721l-.012-.05-.022-.1-.012-.056-.024-.136v-.019l-.026-.146v-.05l-.013-.113v-.05l-.005-.158.005-.155v-.049l.013-.114v-.05l.026-.149v-.018l.024-.137.012-.046.022-.104.012-.051.041-.137v-.003c.063-.206.146-.402.246-.585l.054-.099.017-.025.056-.096.012-.014.208-.297.013-.016.079-.084.015-.019c.104-.121.221-.239.342-.348l.023-.016.086-.069.018-.011.299-.212.013-.007.101-.062.018-.011.101-.058c.19-.095.389-.182.591-.243l.145-.036.045-.016.109-.022.046-.012.142-.021.014-.006.155-.02.048-.004.113-.013h.049l.159-.006.157.006h.051l.12.013.046.004.152.02.016.006.14.021.052.012.098.022.05.016.143.036c.205.062.403.147.593.243l.102.058.023.011.1.061.011.008.3.212.012.011.088.069.019.016c.128.108.24.227.348.348l.018.019.074.084.009.016c.08.092.146.194.208.297l.013.014.054.096.019.025.056.099c.099.183.182.377.244.585l.001.003.038.137.013.051.024.104.013.046.024.137.003.018.017.149.011.05.007.114v.049l.008.155-.007.158z"/><g fill="#CE0067"><path d="M-207.726 287.226l-8.376-8.281c1.214-1.677 1.867-3.686 1.858-5.798-.012-2.661-1.069-5.168-2.981-7.055-1.922-1.903-4.472-2.946-7.184-2.946-2.677 0-5.197 1.027-7.081 2.894-1.905 1.879-2.942 4.383-2.93 7.05.008 2.661 1.068 5.171 2.979 7.058 1.92 1.896 4.475 2.945 7.187 2.945 2.113 0 4.127-.644 5.817-1.838l8.375 8.282c.596.587 1.526.614 2.079.062l.322-.31c.557-.557.533-1.477-.065-2.063zm-22.59-8.198c-3.326-3.289-3.346-8.607-.046-11.871 1.64-1.622 3.793-2.433 5.954-2.433 2.189 0 4.375.828 6.054 2.482 3.329 3.294 3.357 8.61.053 11.874-1.645 1.621-3.798 2.433-5.954 2.433-2.193.001-4.382-.827-6.061-2.485z"/><polygon points="-218.21,274.817 -218.21,271.616 -222.623,271.616 -222.623,267.253 -225.862,267.253 -225.862,271.616 -230.279,271.616 -230.279,274.817 -225.862,274.817 -225.862,279.182 -222.623,279.182 -222.623,274.817"/></g><g fill="#CE0067"><path d="M-49.915 450.548c-1.295 0-2.343 1.013-2.343 2.265 0 1.25 1.047 2.265 2.343 2.265 11.895 0 21.576 9.559 21.576 21.305 0 1.252 1.043 2.265 2.34 2.265 1.29 0 2.339-1.013 2.339-2.265-.002-14.248-11.777-25.835-26.255-25.835zM-37.532 476.382c0 1.252 1.045 2.265 2.34 2.265 1.294 0 2.346-1.013 2.346-2.265 0-9.483-7.658-17.197-17.069-17.197-1.295 0-2.343 1.015-2.343 2.266 0 1.25 1.047 2.266 2.343 2.266 6.829-.004 12.383 5.679 12.383 12.665zM-34.935 483.679c-1.251-1.239-3.026-1.42-4.053-.409l-3.442 3.393-18.387-18.177 3.662-3.683c1.023-1.009.843-2.771-.409-4.009l-5.756-5.688c-1.25-1.237-3.025-1.418-4.054-.406l-4.314 4.321c-2.822 2.79-3.051 6.825-.547 10.642 8.594 13.091 15.742 19.981 28.612 28.289 3.692 2.383 7.948 2.25 10.768-.539l4.089-4.044c1.018-1.006.837-2.769-.413-4.005l-5.756-5.685z"/></g><g fill="#CE0067"><path d="M-49.862 336.607c.52-4.837-7.087-4.695-7.238 2.094 0 0-.223 4.426.981 11.856l-10.424.092c-4.554.073-5.794 2.683-5.807 6.039-.008 1.068.019 2.084.061 3.056-.669.86-1.08 2.073-1.08 3.421 0 1.864.788 3.467 1.938 4.229.097.478.191.944.291 1.402-.044.304-.068.615-.068.933 0 1.552.532 2.942 1.366 3.873.391 1.232.812 2.436 1.241 3.637.805 2.216 6.209 4.535 10.168 4.239l22.667-.058 4.007-18.683c-18.21-8.41-18.103-26.13-18.103-26.13z"/><polygon points="-33.436,382.437 -29.512,363.294 -24.962,364.203 -28.886,383.345"/></g><path fill="#CE0067" d="M-21.767 421.623c-1.876 0-3.596.681-4.917 1.802l-14.216-7.287c.166-.623.252-1.278.252-1.951 0-1.105-.236-2.152-.664-3.095l10-7.52c1.61 1.273 3.649 2.032 5.872 2.032 5.192 0 9.406-4.161 9.406-9.295 0-5.139-4.214-9.302-9.406-9.302-5.2 0-9.411 4.163-9.411 9.302 0 1.306.281 2.549.769 3.68l-10.247 7.705c-1.165-.708-2.542-1.115-4.009-1.115-4.256 0-7.7 3.402-7.7 7.607 0 4.201 3.442 7.604 7.7 7.604 1.909 0 3.652-.687 4.998-1.824l14.246 7.3c-.148.585-.227 1.195-.227 1.821 0 4.125 3.384 7.471 7.554 7.471 4.171 0 7.557-3.346 7.557-7.471 0-4.122-3.388-7.464-7.557-7.464z"/><path fill="#CE0067" d="M-93.325 456.437c-.109-.343-.456-.557-.816-.499l-5.811.871c-.25-1.065-.647-2.118-1.191-3.139-2.545-5.258-7.998-8.654-13.891-8.654-8.484 0-15.396 6.823-15.396 15.218 0 1.419.011 2.754.019 4.001.043 7.517.064 12.053-1.692 13.804-.658.65-1.622.956-3.023.956h-7.256c-.413 0-.748.33-.748.735 0 4.826 1.719 9.337 4.839 12.701 3.537 3.822 8.588 5.84 14.596 5.84 7.184 0 12.848-2.008 16.834-5.965 6.849-6.802 6.971-17.426 6.952-22.283l5.208 1.251c.354.085.717-.098.858-.428.141-.333.017-.714-.287-.908-.05-.028-4.748-2.991-4.748-6.351 0-3.623 5.133-6.247 5.182-6.271.323-.163.484-.536.371-.879zm-15.172 5.906c-2.3 0-4.161-1.841-4.161-4.114 0-2.272 1.86-4.116 4.161-4.116 2.297 0 4.166 1.841 4.166 4.116 0 2.273-1.868 4.114-4.166 4.114z"/><g fill="#CE0067"><path d="M-113.987 401.005c-1.021 1.009-1.041 2.623-.043 3.609.997.986 2.632.972 3.654-.038 9.375-9.271 24.629-9.276 33.993-.018.998.986 2.638.97 3.655-.037 1.017-1.01 1.037-2.623.038-3.611-11.356-11.226-29.886-11.188-41.297.095zM-107.1 407.815c-1.017 1.01-1.04 2.622-.042 3.613.997.982 2.632.965 3.654-.041 5.385-5.321 14.299-5.173 19.864.335.999.986 2.636.967 3.656-.038 1.017-1.01 1.032-2.625.036-3.614-7.564-7.474-19.75-7.588-27.168-.255zM-97.183 413.368c-2.124 2.104-2.129 5.503-.012 7.596 2.121 2.095 5.556 2.091 7.682-.012 2.126-2.101 2.126-5.498.012-7.592-2.118-2.094-5.56-2.09-7.682.008zM-66.48 382.209h-53.76c-2.128 0-3.846 1.706-3.846 3.804v52.807c0 2.098 1.719 3.803 3.846 3.803h53.76c2.13 0 3.846-1.705 3.846-3.803v-52.807c0-2.101-1.717-3.804-3.846-3.804zm-34.073 54.5h-6.398c-.68 0-1.229-.545-1.229-1.221 0-.671.549-1.212 1.229-1.212h6.398c.678 0 1.228.541 1.228 1.212.002.673-.55 1.221-1.228 1.221zm11.071-.766c0 1.867-1.527 3.379-3.415 3.379h-.925c-1.879 0-3.413-1.512-3.413-3.379v-.91c0-1.865 1.534-3.375 3.413-3.375h.925c1.887 0 3.415 1.51 3.415 3.375v.91zm9.715.766h-6.397c-.677 0-1.229-.545-1.229-1.221 0-.671.553-1.212 1.229-1.212h6.397c.679 0 1.23.541 1.23 1.212 0 .673-.55 1.221-1.23 1.221zm11.751-7.739h-50.687v-41.387h50.687v41.387z"/></g><g fill="#CE0067"><path d="M-145.469 336.376c0 1.347-1.105 2.442-2.465 2.442h-22.135c-1.364 0-2.471-1.096-2.471-2.442v-18.158c0-1.347 1.106-2.438 2.471-2.438h22.135c1.359 0 2.465 1.092 2.465 2.438v18.158zM-123.237 375.471c0 1.351-1.11 2.441-2.472 2.441h-22.132c-1.363 0-2.468-1.092-2.468-2.441v-18.155c0-1.35 1.105-2.441 2.468-2.441h22.135c1.359 0 2.471 1.092 2.471 2.441v18.155h-.002zM-167.698 375.471c0 1.351-1.105 2.441-2.474 2.441h-22.127c-1.36 0-2.471-1.092-2.471-2.441v-18.155c0-1.35 1.109-2.441 2.471-2.441h22.128c1.369 0 2.474 1.092 2.474 2.441v18.155h-.001z"/><polygon points="-135.072,357.142 -138.341,357.142 -138.341,349.418 -179.662,349.418 -179.662,355.926 -182.931,355.926 -182.931,346.188 -135.072,346.188"/><rect x="-160.64" y="337.155" width="3.27" height="10.835"/><ellipse cx="-159.002" cy="348.317" rx="5.241" ry="5.181"/></g><path fill="#CE0067" d="M-93.26 372.47c-.38 0-.521.063-.841.37l-.283.321-.178.205c-.542.583-1.193 1.05-1.933 1.395-.861.396-1.774.601-2.721.601-1.772 0-3.284-.608-4.488-1.801-1.212-1.196-1.823-2.688-1.823-4.439s.589-3.268 1.756-4.507c1.165-1.236 2.644-1.864 4.4-1.864 1.563 0 2.895.477 3.939 1.412 1.047.937 1.576 2.191 1.576 3.736 0 1.064-.291 2.06-.861 2.953-.568.879-1.183 1.323-1.833 1.323-.161 0-.353-.053-.353-.48 0-.08.019-.193.062-.341l.158-.567c1.542-5.384 1.547-5.419 1.547-5.43.021-.172-.017-.318-.112-.421-.118-.133-.312-.194-.57-.187-.528.016-.725.206-.854.489l-.294.826c-.24-.45-.55-.792-.913-1.019-.432-.263-.911-.397-1.427-.397-1.396 0-2.586.608-3.529 1.805-.88 1.123-1.322 2.431-1.322 3.886 0 .912.296 1.707.88 2.364.596.66 1.35.997 2.246.997.478 0 .947-.132 1.401-.392.375-.203.718-.458 1.023-.742.044.325.175.584.397.776.268.234.596.357.973.357 1.113 0 2.212-.534 3.258-1.581 1.194-1.195 1.795-2.667 1.795-4.377 0-1.854-.71-3.405-2.112-4.605-1.395-1.197-3.106-1.805-5.08-1.805-2.142 0-3.998.749-5.525 2.233-1.535 1.485-2.306 3.316-2.306 5.443 0 2.188.771 4.047 2.306 5.53 1.527 1.482 3.422 2.233 5.635 2.233 1.316 0 2.583-.318 3.747-.949 1.068-.577 1.926-1.358 2.564-2.325l.234-.394c.091-.196.048-.331-.005-.417-.093-.133-.288-.215-.534-.215zm-4.434-4.391c0 .858-.288 1.736-.866 2.601-.621.923-1.325 1.393-2.091 1.393-.486 0-.868-.171-1.167-.519-.298-.349-.448-.813-.448-1.381 0-.888.304-1.774.898-2.624.584-.835 1.292-1.261 2.104-1.261.411 0 .769.181 1.087.552.322.37.483.787.483 1.239z"/><path fill="#CE0067" d="M-83.384 342.296c0-5.05-4.152-9.156-9.262-9.156-5.108 0-9.26 4.106-9.26 9.156 0 5.048 4.151 9.155 9.26 9.155 5.11 0 9.262-4.107 9.262-9.155zm-17.18.648h2.791c.068.947.244 1.893.533 2.813h-2.54c-.426-.858-.702-1.81-.784-2.813zm15.841-1.297h-2.773c-.035-.986-.191-1.97-.465-2.917h2.395c.461.885.756 1.873.843 2.917zm-4.087 0h-3.177v-2.917h2.653c.311.944.483 1.926.524 2.917zm-3.177-4.218v-2.962l.036.002c.892.883 1.589 1.889 2.098 2.96h-2.134zm-1.315-2.962v2.962h-2.143c.521-1.071 1.218-2.077 2.103-2.96l.04-.002zm0 4.263v2.917h-3.18c.039-.99.212-1.974.522-2.917h2.658zm-4.493 2.917h-2.769c.086-1.044.381-2.032.842-2.917h2.391c-.275.948-.43 1.93-.464 2.917zm1.337 1.297h3.157v2.813h-2.559c-.326-.916-.522-1.861-.598-2.813zm3.156 4.11v2.827c-.829-.857-1.504-1.814-2.012-2.827h2.012zm1.315 0h2.011c-.507 1.013-1.179 1.969-2.011 2.823v-2.823zm0-1.297v-2.813h3.153c-.075.95-.271 1.895-.594 2.813h-2.559zm4.466-2.813h2.797c-.081 1-.354 1.952-.782 2.813h-2.543c.292-.918.465-1.862.528-2.813zm1.109-5.515h-2.007c-.356-.866-.826-1.698-1.394-2.477 1.349.512 2.521 1.377 3.401 2.477zm-9.07-2.475c-.566.781-1.031 1.608-1.394 2.475h-2.007c.883-1.1 2.055-1.963 3.401-2.475zm-3.483 12.1h2.205c.416.946.95 1.855 1.618 2.7-1.532-.503-2.864-1.456-3.823-2.7zm8.814 2.7c.667-.844 1.206-1.754 1.622-2.7h2.203c-.96 1.244-2.286 2.199-3.825 2.7z"/><path fill="#CE0067" d="M-81.403 356.744c0-2.445-2.967-4.427-6.623-4.427-3.66 0-6.626 1.981-6.626 4.427 0 2.443 2.967 4.427 6.626 4.427.94 0 1.839-.134 2.654-.37l3.22 2.205c.069.048.144.07.229.07.222 0 .4-.182.4-.398 0-.094-.036-.184-.088-.249l-1.771-2.53c1.227-.8 1.979-1.919 1.979-3.155z"/><g fill="#CE0067"><path d="M-41.404 391.736c.018-.406-.293-.748-.699-.764-.402-.021-.741.3-.762.706-.158 3.744-3.376 6.664-7.159 6.505-.4-.015-.741.304-.764.709-.015.406.297.75.702.767 4.592.192 8.489-3.357 8.682-7.923zM-49.896 395.287c-.402-.013-.749.305-.764.708-.02.41.297.756.703.772 3.047.125 5.643-2.18 5.765-5.145.022-.409-.292-.756-.69-.771-.405-.016-.75.299-.768.706-.087 2.154-1.998 3.827-4.246 3.73zM-52.285 396.008c.416-.374.496-.932.188-1.267l-1.049-1.133 6.106-5.546 1.141 1.206c.312.334.882.302 1.295-.077l1.908-1.736c.418-.375.5-.934.189-1.271l-1.335-1.418c-.861-.926-2.16-1.054-3.425-.315-4.336 2.529-6.651 4.688-9.505 8.631-.818 1.131-.83 2.47.032 3.398l1.248 1.336c.309.343.876.307 1.293-.072l1.914-1.736z"/></g><g fill="#CE0067"><path d="M-136.911 453.67c-.304-.276-.769-.266-1.044.026-.276.292-.25.752.048 1.034 2.774 2.553 2.935 6.864.354 9.604-.276.295-.255.758.046 1.035.304.276.769.269 1.047-.025 3.132-3.33 2.928-8.564-.451-11.674zM-139.704 462.361c-.274.289-.251.754.055 1.029.298.28.768.268 1.044-.02 2.082-2.217 1.995-5.666-.205-7.687-.302-.278-.767-.267-1.045.028-.271.29-.252.753.049 1.029 1.596 1.47 1.643 3.99.102 5.621zM-140.7 464.622c-.018-.558-.395-.982-.854-.967l-1.553.053-.292-8.188 1.665-.079c.457-.016.803-.464.782-1.023l-.093-2.562c-.02-.556-.397-.981-.852-.967l-1.96.08c-1.273.047-2.21.938-2.465 2.367-.872 4.904-.722 8.048.459 12.754.334 1.349 1.358 2.227 2.632 2.185l1.843-.065c.457-.014.805-.466.783-1.023l-.095-2.565z"/></g><g fill="#CE0067"><path d="M-47.42 441.186c.161.145.405.145.57 0l4.818-4.261c.097-.081.161-.2.161-.335 0-.232-.192-.421-.429-.421h-1.5619999999999998v-7.446c0-.233-.194-.421-.429-.421h-5.695c-.238 0-.424.189-.424.421v7.446h-1.564c-.179 0-.334.109-.401.271-.064.16-.016.347.115.466l4.84 4.28zM-39.904 438.747v4.077c0 .191-.161.351-.361.351h-13.744c-.197 0-.358-.159-.358-.351v-4.107h-1.217v4.107c0 .857.709 1.557 1.575 1.557h13.743c.872 0 1.578-.699 1.578-1.557v-4.077h-1.216z"/></g><g fill="#CE0067"><path d="M-75.812 446.733h-11.661c-.645 0-1.174.521-1.174 1.157v7.76c0 .645.532 1.163 1.174 1.163h5.343l3.789 3.63c.072.063.157.097.25.097l.137-.03c.132-.053.217-.184.217-.321l-.013-3.375h1.938c.653 0 1.175-.519 1.175-1.163v-7.76c.001-.637-.522-1.158-1.175-1.158zm.467 8.917c0 .256-.205.46-.466.46h-2.292c-.093 0-.19.04-.256.107-.066.063-.101.152-.101.248l.011 2.894-3.289-3.149c-.069-.063-.158-.1-.248-.1h-5.487c-.257 0-.465-.204-.465-.46v-7.76c0-.251.208-.46.465-.46h11.662c.259 0 .466.209.466.46v7.76zM-84.577 451.572c-.174-.094-.449-.179-.812-.265-.367-.084-.596-.165-.69-.244-.075-.063-.109-.137-.109-.226 0-.096.04-.168.117-.225.123-.089.293-.137.515-.137.206 0 .369.042.474.125.104.086.173.219.205.408l.749-.03c-.013-.337-.133-.606-.368-.813-.237-.199-.591-.303-1.056-.303-.285 0-.527.045-.728.128-.203.086-.357.213-.466.372-.107.163-.157.34-.157.525 0 .292.112.535.337.739.164.143.444.263.846.361.313.077.515.133.602.163.131.045.219.1.27.158.053.061.08.134.08.224 0 .134-.064.251-.188.352s-.304.15-.542.15c-.229 0-.411-.056-.542-.171-.138-.112-.227-.288-.268-.529l-.728.067c.048.412.197.724.448.937.252.215.614.325 1.082.325.323 0 .596-.048.808-.137.216-.093.384-.228.501-.411.12-.184.176-.378.176-.59 0-.233-.048-.428-.143-.584-.102-.154-.24-.277-.413-.369z"/><polygon points="-81.605,452.429 -82.279,449.928 -83.4,449.928 -83.4,453.597 -82.7,453.597 -82.7,450.709 -81.968,453.597 -81.246,453.597 -80.505,450.709 -80.505,453.597 -79.815,453.597 -79.815,449.928 -80.937,449.928"/><path d="M-76.8 451.572c-.173-.094-.441-.179-.808-.265-.366-.084-.594-.165-.686-.244-.077-.063-.113-.137-.113-.226 0-.096.036-.168.12-.225.12-.089.291-.137.514-.137.208 0 .364.042.47.125.106.086.173.219.21.408l.747-.03c-.013-.337-.136-.606-.368-.813-.24-.199-.588-.303-1.053-.303-.288 0-.533.045-.732.128-.202.086-.357.213-.461.372-.109.163-.165.34-.165.525 0 .292.117.535.344.739.16.143.442.263.845.361.313.077.512.133.599.163.131.045.218.1.274.158.046.061.072.134.072.224 0 .134-.06.251-.181.352-.123.101-.303.15-.542.15-.232 0-.417-.056-.547-.171-.139-.112-.224-.288-.265-.529l-.729.067c.049.412.194.724.453.937.25.215.61.325 1.082.325.32 0 .589-.048.805-.137.216-.093.385-.228.498-.411.121-.184.179-.378.179-.59 0-.233-.045-.428-.149-.584-.102-.154-.235-.277-.413-.369z"/></g><g fill="#CE0067"><path d="M-207.911 361.759h-11.662c-.646 0-1.176.521-1.176 1.162v7.761c0 .644.533 1.159 1.176 1.159h5.34l3.789 3.629c.069.066.162.1.25.1l.141-.027c.131-.059.219-.188.219-.326l-.018-3.375h1.941c.65 0 1.177-.519 1.177-1.16v-7.763c.002-.639-.526-1.16-1.177-1.16zm.468 8.923c0 .254-.208.461-.468.461h-2.296c-.095 0-.188.035-.251.103-.069.068-.104.156-.104.248l.013 2.894-3.295-3.147c-.067-.066-.153-.097-.247-.097h-5.482c-.257 0-.465-.207-.465-.461v-7.761c0-.252.207-.461.465-.461h11.662c.258 0 .468.209.468.461v7.76zM-216.678 366.602c-.175-.096-.445-.181-.808-.264-.367-.089-.601-.169-.69-.245-.079-.065-.115-.142-.115-.228 0-.093.042-.171.121-.226.125-.089.293-.134.509-.134.212 0 .367.04.478.123.105.084.173.22.205.407l.751-.03c-.013-.339-.138-.604-.37-.81-.236-.197-.59-.303-1.054-.303-.283 0-.531.042-.728.128-.205.085-.359.209-.465.369-.107.163-.165.342-.165.524 0 .295.113.538.343.741.162.142.445.264.844.362l.6.161c.13.047.221.099.272.163.046.055.077.129.077.216 0 .137-.063.255-.186.354-.125.103-.306.152-.545.152-.231 0-.408-.058-.542-.169-.134-.113-.223-.291-.266-.535l-.73.07c.048.412.199.723.45.937.251.216.61.321 1.081.321.322 0 .595-.042.812-.133.213-.088.381-.226.502-.409.115-.185.17-.379.17-.591 0-.231-.046-.428-.141-.585-.1-.155-.238-.28-.41-.366z"/><polygon points="-213.707,367.461 -214.381,364.957 -215.499,364.957 -215.499,368.622 -214.804,368.622 -214.804,365.735 -214.07,368.622 -213.347,368.622 -212.613,365.735 -212.613,368.622 -211.912,368.622 -211.912,364.957 -213.039,364.957"/><path d="M-208.902 366.602c-.174-.096-.441-.181-.808-.264-.362-.089-.591-.169-.688-.245-.075-.065-.109-.142-.109-.228 0-.093.034-.171.116-.226.123-.089.297-.134.513-.134.212 0 .367.04.475.123.108.084.173.22.206.407l.748-.03c-.012-.339-.138-.604-.369-.81-.24-.197-.589-.303-1.053-.303-.284 0-.526.042-.731.128-.203.085-.354.209-.465.369-.106.163-.155.342-.155.524 0 .295.113.538.337.741.165.142.444.264.847.362l.6.161c.125.047.217.099.269.163.053.055.075.129.075.216 0 .137-.058.255-.177.354-.127.103-.305.152-.549.152-.227 0-.409-.058-.542-.169-.135-.113-.221-.291-.27-.535l-.728.07c.049.412.199.723.452.937.253.216.61.321 1.082.321.322 0 .591-.042.808-.133.214-.088.384-.226.5-.409.12-.185.18-.379.18-.591 0-.231-.051-.428-.148-.585-.107-.155-.236-.28-.416-.366z"/></g><g fill="#CE0067"><polygon points="-138.534,387.884 -147.292,394.709 -147.295,394.709 -147.295,405.332 -141.544,405.332 -141.544,400.003 -135.525,400.003 -135.525,405.332 -129.772,405.332 -129.772,394.709 -129.778,394.709"/><path d="M-129.918 388.804v-4.182h-3.032v1.899l-4.715-3.557c-.526-.337-1.205-.337-1.736 0l-10.74 8.097v3.767l11.608-8.648 11.609 8.648v-3.767l-2.994-2.257z"/></g><path fill="#CE0067" d="M-125.892 414.165v-1.958h-1.148c-.113-.541-.331-1.053-.627-1.505l.813-.801-1.403-1.384-.805.805c-.466-.294-.973-.51-1.527-.629v-1.129h-1.979v1.129c-.548.119-1.064.335-1.525.629l-.808-.805-1.399 1.384.805.801c-.292.452-.512.964-.629 1.505h-1.142v1.958h1.142c.117.542.337 1.053.629 1.508l-.805.8 1.399 1.386.808-.802c.461.294.977.505 1.525.626v1.128h1.977v-1.128c.555-.121 1.062-.332 1.53-.626l.805.802 1.402-1.386-.813-.8c.297-.455.515-.966.628-1.508h1.147zm-2.472-.07l-.016.039-.032.105-.019.044-.05.14-.003.014-.053.121-.025.047-.044.088-.022.044c-.122.228-.26.429-.428.619l-.077.083-.019.019-.075.08-.014.008-.266.23-.011.011-.088.066-.018.015c-.132.09-.261.175-.403.245l-.021.013-.099.05-.019.006-.322.133-.016.002-.106.036-.024.006-.107.028c-.2.054-.4.085-.609.1l-.143.007-.049.001-.1-.001h-.055l-.135-.007-.015-.003-.142-.013-.049-.011-.112-.015-.042-.011-.156-.029-.147-.039-.042-.012-.107-.034-.045-.013-.141-.054-.012-.004-.126-.052-.046-.025-.09-.044-.044-.021-.124-.065h-.005c-.174-.105-.343-.228-.496-.36l-.083-.071-.019-.02-.077-.078-.013-.01-.234-.262-.012-.015-.065-.086-.018-.017c-.09-.129-.171-.264-.246-.4l-.012-.023-.05-.095-.005-.016-.134-.321-.006-.016-.029-.103-.006-.026-.032-.105c-.067-.241-.098-.486-.104-.74l-.005-.051v-.098l.005-.054.006-.133v-.014l.014-.146.011-.046.013-.112.014-.046.029-.147.038-.147.012-.044.036-.104.012-.043.054-.141.005-.016.055-.118.021-.048.044-.087.024-.045.069-.121v-.002c.109-.181.224-.342.359-.492l.075-.084.02-.019.076-.079.012-.012.263-.231.015-.013.086-.061.024-.018c.125-.091.256-.174.398-.246l.023-.013.098-.048.017-.008.322-.133.019-.003.103-.034.021-.005.112-.03c.199-.051.403-.084.606-.099l.139-.008h.158l.051.003.129.008h.02l.148.016.044.005.111.019.046.008.148.03.151.036.046.014.108.036.042.013.14.053.015.006.123.05.045.023.091.043.045.025.128.068c.177.107.344.221.496.356l.087.075.012.016.084.081.006.009.24.26.008.016.067.085.013.018c.091.131.177.264.25.398l.012.025.05.095.008.016.13.324.005.012.038.104.005.026.03.107c.052.193.083.393.1.601v.001l.006.136v.206l-.008.129v.02l-.016.146-.008.045-.017.108-.006.046-.035.146-.037.153z"/><path fill="#CE0067" d="M-80.173 465.679v-1.957h-1.138c-.124-.542-.341-1.053-.637-1.507l.811-.801-1.395-1.38-.813.802c-.458-.295-.973-.51-1.525-.629v-1.13h-1.975v1.13c-.552.121-1.07.334-1.524.629l-.813-.802-1.397 1.38.808.801c-.297.454-.515.965-.634 1.507h-1.14v1.957h1.14c.12.544.337 1.052.634 1.507l-.808.801 1.397 1.383.813-.8c.455.295.973.506 1.524.625v1.13h1.975v-1.13c.552-.119 1.066-.33 1.525-.625l.813.8 1.395-1.383-.811-.801c.296-.455.513-.963.637-1.507h1.138zm-2.478-.072l-.011.041-.031.104-.017.044-.046.14-.015.016-.048.121-.024.044-.045.09-.018.043c-.126.227-.267.431-.43.618l-.079.086-.018.016-.071.079-.014.011-.269.229-.011.014-.089.065-.02.013c-.125.093-.26.175-.405.245l-.021.016-.093.045-.021.008-.323.134-.019.002-.101.032-.024.008-.108.03c-.196.055-.4.086-.609.102l-.142.004-.046.003-.103-.003h-.054l-.134-.005-.018-.003-.148-.017-.04-.009-.111-.016-.048-.008-.152-.028-.148-.04-.046-.013-.106-.033-.038-.015-.141-.053-.013-.004-.125-.054-.048-.023-.087-.042-.045-.024-.125-.065h-.002c-.179-.106-.344-.227-.496-.36l-.085-.071-.019-.018-.077-.079-.019-.011-.225-.261-.012-.016-.068-.084-.017-.019-.25-.397-.008-.024-.049-.097-.006-.017-.135-.322-.008-.012-.031-.104-.012-.026-.028-.104c-.059-.242-.095-.487-.103-.739l-.002-.054.002-.098v-.053l.008-.133v-.013l.015-.146.011-.046.014-.11.011-.045.029-.148.032-.147.02-.046.031-.101.016-.046.056-.138.007-.019.049-.117.025-.047.04-.089.025-.044.066-.124c.109-.18.229-.342.363-.492l.075-.082.019-.019.081-.08.011-.014.26-.231.013-.011.088-.063.022-.017c.128-.092.26-.173.4-.244l.023-.015.1-.047.012-.008.33-.133.014-.006.104-.03.024-.007.112-.03c.193-.051.397-.085.604-.101l.143-.006h.148l.055.003.13.011h.02l.148.013.048.007.107.019.048.009.149.028.149.038.042.012.105.035.047.014.144.052.008.006.123.053.048.022.089.043.048.023.125.071c.179.105.346.221.494.354l.084.074.025.02.079.077.005.01.236.263.01.012.067.086.015.02c.089.129.177.262.248.397l.012.024.048.095.011.017.132.324.007.012.035.103.005.026.03.108c.055.193.085.395.1.6v.003l.006.137v.202l-.012.133v.016l-.012.147-.005.047-.019.106-.005.045-.037.146-.045.15z"/><path fill="#CE0067" d="M-24.557 444.068v-1.959h-1.146c-.119-.54-.333-1.049-.632-1.505l.813-.8-1.402-1.384-.81.804c-.461-.295-.97-.509-1.525-.629v-1.13h-1.975v1.13c-.549.12-1.069.334-1.526.629l-.808-.804-1.403 1.384.808.8c-.293.456-.509.965-.626 1.505h-1.148v1.959h1.148c.117.541.333 1.052.626 1.505l-.808.803 1.403 1.384.808-.8c.457.292.977.502 1.526.623v1.129h1.975v-1.129c.555-.121 1.063-.331 1.525-.623l.81.8 1.402-1.384-.813-.803c.298-.453.513-.964.632-1.505h1.146zm-2.479-.073l-.01.042-.035.105-.019.042-.048.14-.005.016-.056.121-.021.047-.042.086-.025.046c-.123.225-.265.432-.428.618l-.081.084-.018.016-.075.082-.013.008-.264.231-.011.011-.086.063-.022.019c-.125.09-.259.171-.4.243l-.024.015-.095.048-.018.008-.329.133-.012.004-.103.031-.028.008-.109.027c-.196.056-.398.086-.604.102l-.142.006-.048.002-.104-.002h-.054l-.133-.006-.015-.002-.148-.017-.044-.008-.113-.02-.041-.005-.153-.03-.149-.038-.044-.012-.106-.036-.042-.015-.143-.051-.012-.004-.125-.056-.042-.021-.092-.045-.043-.022-.125-.068h-.005c-.18-.103-.341-.224-.498-.356l-.084-.075-.016-.019-.079-.074-.014-.011-.232-.261-.012-.016-.067-.086-.014-.017c-.092-.129-.179-.263-.25-.4l-.012-.021-.044-.098-.012-.019-.13-.32-.008-.014-.033-.104-.006-.025-.03-.106c-.064-.24-.099-.489-.106-.739l-.005-.051v-.103l.005-.049.008-.134v-.015l.018-.145.007-.045.018-.114.008-.044.034-.147.033-.147.014-.046.034-.101.018-.048.049-.138.008-.016.051-.119.026-.046.042-.087.025-.047.064-.121c.109-.181.229-.344.365-.497l.075-.082.013-.017.08-.078.012-.012.262-.232.019-.012.085-.067.021-.013c.126-.091.258-.172.401-.244l.02-.013.099-.049.019-.008.328-.132.014-.002.104-.037.021-.005.112-.03c.194-.051.397-.083.602-.099l.142-.007h.154l.053.001.131.008h.019l.144.016.051.009.109.018.044.008.15.029.147.037.048.013.106.034.042.019.142.048.013.008.125.05.043.023.09.042.047.025.122.069h.004c.176.104.344.221.499.355l.083.073.019.019.08.079.012.009.23.26.014.016.066.089.015.017.249.398.011.021.048.098.008.016.138.322v.015l.033.104.01.023.031.105c.044.197.082.397.098.604v.003l.004.136v.20299999999999999l-.008.132v.015l-.015.151-.005.044-.021.108-.01.046-.031.146-.042.15z"/><path fill="#CE0067" d="M-205.112 418.545v-1.958h-1.142c-.118-.542-.338-1.051-.631-1.506l.809-.8-1.398-1.384-.81.805c-.463-.296-.973-.51-1.524-.629v-1.131h-1.979v1.131c-.551.119-1.067.333-1.525.629l-.811-.805-1.395 1.384.803.8c-.292.455-.512.964-.633 1.506h-1.138v1.958h1.138c.121.542.341 1.053.633 1.505l-.803.802 1.395 1.384.811-.801c.458.293.975.505 1.525.625v1.128h1.979v-1.128c.551-.12 1.061-.332 1.524-.625l.81.801 1.398-1.384-.809-.802c.292-.452.513-.963.631-1.505h1.142zm-2.476-.073l-.012.042-.03.105-.019.043-.045.141-.011.014-.051.12-.024.045-.048.091-.023.044c-.12.225-.263.431-.426.618l-.076.084-.019.019-.079.08-.013.005-.26.233-.013.01-.088.067-.019.014c-.131.088-.261.173-.403.245l-.024.014-.093.045-.02.01-.327.133-.012.005-.107.034-.025.005-.109.029c-.195.054-.397.085-.606.099l-.142.006-.049.002-.1-.002h-.054l-.132-.006-.019-.002-.145-.015-.044-.009-.113-.02-.044-.006-.153-.03-.149-.036-.042-.014-.109-.032-.041-.017-.142-.054-.013-.004-.125-.053-.046-.022-.09-.044-.047-.022-.122-.067h-.004c-.175-.104-.347-.225-.496-.357l-.083-.074-.018-.02-.083-.075-.012-.011-.229-.26-.016-.016-.066-.086-.014-.019c-.093-.127-.173-.26-.248-.398l-.011-.022-.046-.096-.013-.018-.129-.324-.009-.012-.029-.102-.01-.027-.029-.105c-.067-.241-.105-.485-.109-.739l-.001-.053v-.102l.001-.05.004-.133.007-.012.012-.147.012-.046.012-.11.012-.046.028-.148.039-.146.012-.045.035-.103.017-.044.054-.142.005-.016.055-.117.019-.048.046-.086.025-.047.066-.124c.107-.179.226-.342.359-.489l.077-.086.015-.02.081-.076.01-.011.265-.233.013-.013.088-.064.021-.016c.13-.091.259-.171.404-.243l.018-.015.102-.047.015-.008.323-.135.017-.002.106-.033.021-.005.108-.03c.198-.051.404-.083.609-.101l.137-.005h.21l.13.008h.02l.148.016.045.006.109.02.043.006.152.032.15.037.046.013.105.034.044.018.142.048.014.008.121.051.046.023.09.043.046.024.126.069c.175.105.344.221.493.355l.086.074.017.018.082.077.009.011.236.263.009.013.065.089.018.016c.089.132.173.261.245.397l.012.023.054.097.008.017.131.323.007.014.028.102.013.027.03.105c.05.194.083.395.101.601v.003l.005.136v.052l-.001.098v.056l-.007.129v.017l-.019.146-.004.047-.018.108-.008.044-.032.147-.039.15z"/><path fill="#CE0067" d="M-149.938 308.774v-1.957h-1.146c-.119-.543-.334-1.054-.632-1.507l.813-.8-1.403-1.383-.807.801c-.461-.292-.973-.509-1.527-.626v-1.131h-1.973v1.131c-.553.117-1.07.334-1.529.626l-.804-.801-1.404 1.383.81.8c-.298.453-.515.964-.632 1.507h-1.142v1.957h1.142c.118.545.334 1.052.632 1.507l-.81.802 1.404 1.382.804-.801c.459.293.977.508 1.529.625v1.131h1.973v-1.13c.555-.117 1.066-.333 1.527-.625l.807.803 1.403-1.384-.813-.803c.298-.452.514-.962.632-1.507h1.146zm-2.477-.071l-.012.038-.035.106-.016.043-.052.141-.007.014-.052.121-.023.048-.043.087-.024.045c-.125.226-.262.429-.429.618l-.077.084-.017.016-.077.08-.011.009-.264.234-.016.008-.083.066-.025.014c-.125.091-.263.176-.401.246l-.024.016-.094.045-.021.008-.326.133-.015.004-.104.032-.025.008-.107.028c-.198.053-.4.085-.607.102l-.138.004-.054.004-.1-.004h-.05l-.137-.007h-.017l-.142-.017-.045-.008-.115-.016-.043-.011-.149-.029-.148-.036-.047-.017-.106-.031-.043-.015-.142-.051-.013-.007-.125-.052-.045-.023-.091-.045-.044-.021-.124-.067c-.18-.105-.347-.226-.498-.358l-.086-.074-.019-.016-.079-.082-.01-.008-.234-.263-.012-.013-.064-.085-.013-.021c-.097-.126-.177-.262-.252-.397l-.012-.025-.046-.093-.007-.018-.135-.322-.005-.014-.033-.102-.005-.027-.03-.105c-.067-.241-.1-.488-.107-.74l-.005-.049.001-.101.004-.051.007-.135.001-.013.013-.147.008-.046.017-.111.008-.045.037-.15.036-.146.012-.044.035-.103.015-.045.051-.139.005-.016.055-.119.025-.049.04-.085.024-.048.07-.12v-.003c.104-.179.228-.342.36-.489l.075-.086.018-.017.081-.079.008-.015.263-.23.017-.01.09-.066.02-.013c.126-.092.26-.174.398-.246l.025-.012.094-.049.02-.009.326-.132.012-.005.11-.033.017-.006.111-.029c.199-.051.401-.082.607-.101l.141-.005h.209l.125.011h.02l.147.014.046.007.109.018.046.009.154.029.146.036.045.018.104.03.049.016.139.05.017.008.118.05.044.025.097.044.044.023.121.068c.18.105.351.224.499.354l.084.075.023.02.077.078.011.008.236.262.008.015.068.088.012.02c.093.125.176.257.251.394l.012.023.048.098.005.016.132.322.006.015.035.103.007.026.035.104c.046.196.082.396.094.602l.003.001.004.137v.202l-.007.133v.019l-.018.147-.007.045-.018.106-.006.046-.036.147-.038.153z"/><path fill="#CE0067" d="M-139.406 272.992v-1.959h-1.143c-.114-.543-.333-1.051-.628-1.505l.809-.799-1.398-1.386-.813.803c-.459-.295-.973-.508-1.52-.626v-1.129h-1.979v1.129c-.552.118-1.068.331-1.525.626l-.812-.803-1.396 1.386.806.799c-.299.454-.511.962-.633 1.505h-1.141v1.959h1.141c.123.541.334 1.052.633 1.506l-.806.8 1.396 1.383.812-.801c.457.296.973.505 1.525.626v1.13h1.979v-1.13c.547-.121 1.06-.33 1.52-.626l.813.801 1.398-1.383-.809-.8c.294-.454.514-.965.628-1.506h1.143zm-2.476-.077l-.013.045-.028.103-.019.044-.053.141-.007.015-.055.122-.017.045-.048.089-.019.042c-.125.227-.268.432-.429.618l-.079.085-.018.016-.077.081-.013.008-.261.231-.019.011-.085.063-.018.016c-.131.092-.263.176-.405.247l-.021.014-.098.047-.02.008-.326.132-.013.004-.102.034-.029.008-.106.027c-.195.056-.397.084-.605.103l-.144.006h-.19999999999999998l-.14-.01h-.01l-.151-.017-.041-.007-.114-.017-.04-.009-.154-.03-.153-.038-.042-.012-.109-.035-.041-.015-.138-.051-.012-.006-.126-.053-.048-.021-.088-.045-.047-.023-.126-.066c-.178-.104-.344-.226-.495-.358l-.084-.075-.016-.016-.079-.078-.015-.009-.229-.263-.017-.015-.065-.086-.017-.02-.248-.396-.013-.026-.046-.095-.01-.016-.132-.322-.006-.015-.032-.103-.01-.028-.029-.106c-.064-.239-.096-.483-.103-.737l-.006-.053v-.099l.006-.053.007-.13v-.015l.012-.147.006-.045.021-.11.011-.047.028-.146.039-.148.012-.045.035-.102.015-.044.055-.141.005-.014.051-.122.025-.044.039-.088.029-.046.064-.121v-.005c.109-.177.228-.34.359-.491l.079-.083.017-.018.079-.078.007-.015.268-.229.012-.013.09-.064.017-.015c.134-.093.263-.177.406-.245l.02-.013.098-.05.017-.006.326-.134.012-.004.107-.033.025-.004.106-.033c.198-.05.401-.082.608-.097l.137-.008h.156l.054.002.132.007h.018l.148.016.048.004.108.019.052.014.148.03.148.036.044.014.103.032.051.017.139.054.012.005.123.05.048.025.088.042.048.026.125.067h.001c.18.104.347.222.496.353l.083.077.023.019.081.076.007.014.237.259.007.013.069.089.016.017.247.396.012.024.048.097.008.019.134.321.005.013.035.105.006.023.029.108c.049.194.086.393.096.603h.007l.001.137v.2l-.008.135v.015l-.016.146-.007.047-.018.11-.008.044-.03.147-.045.145z"/><path fill="#CE0067" d="M-22.984 273.002v-1.957h-1.143c-.124-.544-.338-1.052-.633-1.504l.808-.803-1.397-1.384-.813.803c-.46-.292-.974-.51-1.522-.624v-1.134h-1.983v1.134c-.546.114-1.059.332-1.52.624l-.813-.803-1.397 1.384.808.803c-.296.452-.513.96-.632 1.504h-1.144v1.957h1.144c.119.544.336 1.053.632 1.508l-.808.8 1.397 1.384.813-.8c.46.294.973.505 1.52.624v1.13h1.983v-1.13c.548-.119 1.062-.33 1.522-.624l.813.8 1.397-1.384-.808-.8c.294-.455.509-.964.633-1.508h1.143zm-2.479-.074l-.009.04-.031.108-.019.042-.048.141-.013.015-.048.121-.027.043-.045.091-.018.045c-.126.227-.267.429-.428.618l-.08.084-.019.016-.077.079-.012.008-.262.234-.012.011-.09.063-.019.016c-.132.09-.261.174-.4.249l-.029.012-.088.048-.023.008-.323.129-.019.005-.1.035-.025.008-.109.029c-.196.052-.4.083-.607.102l-.142.005h-.202l-.137-.008-.016-.005-.149-.014-.039-.011-.115-.013-.044-.008-.149-.03-.151-.038-.045-.016-.108-.032-.04-.016-.144-.05-.008-.005-.126-.053-.047-.023-.088-.043-.045-.023-.127-.068h-.001c-.178-.103-.345-.224-.499-.357l-.083-.072-.019-.018-.081-.077-.008-.012-.232-.261-.012-.016-.069-.084-.016-.021c-.088-.126-.174-.262-.244-.396l-.012-.025-.049-.096-.008-.015-.134-.322-.008-.012-.031-.105-.009-.026-.028-.107c-.067-.239-.098-.484-.105-.736l-.005-.053.004-.101.001-.051.008-.133v-.014l.017-.146.008-.048.014-.107.01-.047.03-.15.039-.143.014-.047.035-.104.013-.043.053-.14.008-.019.051-.118.024-.045.04-.088.023-.045.069-.121v-.002c.108-.178.227-.343.36-.494l.076-.081.02-.021.078-.076.013-.016.261-.229.01-.011.091-.065.019-.015c.131-.091.263-.175.403-.246l.024-.011.099-.05.019-.005.324-.136.012-.005.106-.03.024-.009.106-.028c.197-.053.4-.084.605-.099l.144-.007h.208l.128.008h.019l.148.015.047.007.106.019.044.01.152.029.149.039.048.01.102.034.048.016.14.054.017.004.117.052.048.023.093.042.042.025.127.069c.179.105.342.221.494.353l.084.079.025.013.079.082.008.008.234.261.01.016.067.088.013.016c.09.13.179.264.25.398l.012.022.049.096.009.018.133.325.005.012.032.104.008.025.03.104c.055.196.085.396.101.605l.005.137v.05l-.005.102v.198l-.016.147-.008.047-.019.108-.006.045-.034.148-.043.145z"/><path fill="#CE0067" d="M-76.156 373.449v-1.96h-1.148c-.118-.54-.333-1.051-.626-1.503l.807-.801-1.4-1.383-.808.803c-.46-.295-.973-.51-1.527-.629v-1.129h-1.976v1.129c-.548.118-1.069.334-1.525.629l-.808-.803-1.404 1.383.814.801c-.3.452-.514.963-.633 1.503h-1.146v1.96h1.146c.119.542.333 1.051.633 1.507l-.814.799 1.404 1.385.808-.801c.456.293.977.505 1.525.626v1.13h1.976v-1.13c.554-.121 1.067-.333 1.527-.626l.808.801 1.4-1.385-.807-.799c.293-.456.509-.965.626-1.507h1.148zm-2.475-.074l-.017.041-.031.105-.018.043-.049.142-.006.013-.052.121-.025.046-.041.088-.027.044c-.117.228-.264.43-.422.619l-.087.084-.013.016-.075.082-.012.008-.263.232-.018.01-.086.064-.02.017c-.128.089-.26.174-.401.245l-.024.016-.096.046-.019.006-.324.133-.017.005-.103.031-.028.008-.106.029c-.196.053-.397.084-.605.1l-.142.006-.048.005-.106-.005h-.05l-.134-.006-.017-.002-.145-.018-.048-.008-.109-.015-.045-.011-.152-.027-.144-.041-.049-.012-.107-.032-.042-.015-.142-.054-.012-.002-.123-.054-.045-.023-.095-.045-.041-.021-.125-.065c-.18-.107-.347-.229-.503-.361l-.08-.071-.02-.02-.08-.078-.012-.009-.233-.263-.011-.015-.066-.086-.014-.017c-.093-.128-.172-.262-.25-.398l-.014-.024-.047-.095-.008-.018-.129-.32-.005-.015-.033-.104-.008-.026-.032-.104c-.063-.245-.098-.488-.105-.743l-.001-.049.001-.1v-.053l.007-.133.004-.015.015-.145.005-.045.019-.113.011-.045.032-.148.035-.146.013-.048.033-.1.021-.045.048-.14.005-.016.053-.121.024-.045.042-.087.024-.046.072-.123c.102-.181.227-.342.357-.491l.081-.084.012-.02.081-.077.013-.011.264-.231.011-.014.086-.064.023-.013c.127-.091.261-.174.399-.246l.02-.014.098-.047.019-.008.328-.133.013-.004.107-.034.024-.006.107-.031c.2-.049.4-.083.605-.098l.141-.008h.157l.052.003.13.009h.017l.149.013.049.008.108.019.042.009.153.03.148.035.043.015.106.034.045.016.141.05.012.006.125.053.043.021.095.044.048.024.117.07h.005c.178.104.344.221.499.354l.084.075.017.018.08.08.011.008.232.262.013.015.065.085.015.018c.093.131.178.263.249.398l.012.022.048.097.012.017.132.323.002.013.034.105.008.025.031.106c.048.194.083.395.098.6v.003l.011.135v.052l-.006.103v.05l-.005.13v.015l-.02.151-.004.045-.021.106-.005.047-.036.146-.037.152z"/><path fill="#CE0067" d="M-63.471 340.854v-3.007h-1.757c-.179-.835-.516-1.62-.97-2.317l1.244-1.229-2.148-2.123-1.248 1.229c-.705-.447-1.493-.781-2.338-.96v-1.736h-3.039v1.736c-.847.179-1.633.513-2.345.96l-1.242-1.229-2.148 2.123 1.245 1.229c-.456.697-.789 1.482-.973 2.317h-1.753v3.007h1.753c.184.832.518 1.616.973 2.313l-1.245 1.23 2.148 2.122 1.242-1.231c.71.454 1.498.78 2.345.964v1.733h3.039v-1.733c.846-.184 1.633-.51 2.338-.964l1.248 1.231 2.148-2.122-1.244-1.23c.454-.696.792-1.48.97-2.313h1.757zm-3.612-1.274l-.005.074-.015.168-.005.068-.031.227v.023l-.035.197-.019.079-.035.151-.019.074c-.102.374-.247.731-.421 1.071l-.086.146-.021.032-.088.147-.011.016c-.097.152-.2.297-.314.434l-.016.026-.108.129-.022.026c-.16.181-.333.352-.515.511l-.028.021-.132.108-.019.019-.44.306-.023.012-.144.09-.032.021-.152.081c-.274.145-.567.266-.871.359l-.208.062-.079.019-.155.033-.073.016-.206.035-.022.003-.229.031-.068.006-.174.013-.069.005-.238.004-.235-.004-.074-.005-.175-.013-.069-.006-.227-.031-.021-.003-.205-.035-.076-.016-.153-.033-.075-.019-.21-.062c-.305-.093-.597-.213-.87-.359l-.148-.081-.037-.021-.147-.09-.02-.012c-.154-.093-.3-.195-.441-.306l-.019-.019-.13-.108-.031-.021c-.179-.159-.352-.33-.513-.506l-.024-.036-.109-.122-.016-.025c-.115-.14-.213-.281-.312-.433l-.014-.02-.088-.146-.017-.033-.087-.146c-.176-.337-.317-.696-.421-1.071l-.022-.073-.031-.152-.019-.078-.035-.195-.004-.025-.033-.227-.005-.068-.012-.168v-.072l-.007-.237.007-.232v-.069l.012-.171.005-.07.033-.225.004-.023.035-.197.019-.079.031-.15.022-.079.06-.202v-.003c.094-.3.211-.588.361-.862l.087-.152.017-.028.088-.146.014-.018c.095-.151.197-.297.312-.438l.016-.022.109-.128.024-.027c.161-.181.334-.352.513-.511l.031-.021.13-.105.019-.019c.142-.11.293-.213.443-.31l.018-.012.147-.085.029-.019.156-.086c.273-.139.565-.262.87-.357l.209-.058.076-.021.153-.034.076-.015.202-.035.024-.003.227-.031.069-.003.175-.017h.074l.235-.008.238.008h.069l.174.017.072.003.225.031.026.003.198.035.084.015.145.034.082.021.209.058c.305.095.596.217.87.357l.153.086.031.019.146.085.017.012c.153.097.304.199.448.31l.016.019.133.105.03.021c.179.159.352.33.514.511l.021.027.109.128.015.022c.112.141.217.284.313.436l.013.02.088.146.018.03.087.148c.145.275.265.564.361.864v.003l.061.202.017.077.034.149.02.08.036.196v.023l.029.227.005.069.016.171.003.07.008.231-.006.236z"/><g fill="#CE0067"><rect x="-142.937" y="434.131" width="11.996" height="10.316"/><path d="M-139.856 431.163c0-1.591 1.306-2.883 2.917-2.883 1.609 0 2.918 1.292 2.918 2.883v1.982h2.023v-1.982c0-2.693-2.217-4.882-4.941-4.882-2.724 0-4.942 2.188-4.942 4.882v1.982h2.026v-1.982z"/></g><g fill="#CE0067"><rect x="-210.026" y="346.125" width="11.995" height="10.313"/><path d="M-206.948 343.155c0-1.589 1.309-2.881 2.922-2.881 1.602 0 2.912 1.292 2.912 2.881v1.988h2.023v-1.988c0-2.688-2.212-4.88-4.935-4.88-2.728 0-4.94 2.191-4.94 4.88v1.988h2.018v-1.988z"/></g><g fill="#CE0067"><ellipse cx="-41.333" cy="344.736" rx="1.474" ry="1.455"/><path d="M-37.036 343.281c-.815 0-1.467.651-1.467 1.457 0 .802.654 1.452 1.467 1.452.812 0 1.474-.65 1.474-1.452-.001-.804-.663-1.457-1.474-1.457zM-29.717 330.352h-2.551c-.092-.009-.194.008-.28.046l-.019.005-.019.008c-.18.084-.315.259-.341.463l-.813 3.049h-11.376c-.201 0-.379.095-.493.242-.113.142-.16.337-.113.534l1.826 5.658c.032.115.098.213.186.289.106.11.257.178.425.178h7.483l-.202.77h-7.03c-.304 0-.549.251-.549.56 0 .311.247.559.549.559h7.472c.263 0 .479-.181.536-.424l.02-.063.458-1.707c.042-.076.073-.166.08-.258l2.619-8.701h2.134c.341 0 .613-.271.613-.602-.002-.339-.274-.606-.615-.606zm-12.304 9.17c-.552 0-.994-.439-.994-.984 0-.544.442-.986.994-.986.553 0 1.003.442 1.003.986.001.545-.449.984-1.003.984zm0-2.675c-.552 0-.994-.44-.994-.983 0-.547.442-.986.994-.986.553 0 1.003.439 1.003.986.001.542-.449.983-1.003.983zm2.687 2.675c-.554 0-1.002-.439-1.002-.984 0-.544.448-.986 1.002-.986.548 0 .995.442.995.986-.002.545-.447.984-.995.984zm0-2.675c-.554 0-1.002-.44-1.002-.983 0-.547.448-.986 1.002-.986.548 0 .995.439.995.986-.002.542-.447.983-.995.983zm2.679 2.675c-.549 0-.997-.439-.997-.984 0-.544.448-.986.997-.986.552 0 .995.442.995.986.001.545-.441.984-.995.984zm0-2.675c-.549 0-.997-.44-.997-.983 0-.547.448-.986.997-.986.552 0 .995.439.995.986.001.542-.441.983-.995.983z"/></g><path fill="#CE0067" d="M-268.153 310.231c-1.018 1.011-1.038 2.623-.038 3.608.997.987 2.629.968 3.65-.036 9.378-9.273 24.63-9.277 34-.019.995.986 2.632.971 3.649-.038 1.02-1.01 1.039-2.626.038-3.608-11.356-11.229-29.889-11.189-41.299.093z"/><path fill="#CE0067" d="M-220.644 291.435h-53.759c-2.124 0-3.849 1.703-3.849 3.804v52.802c0 2.102 1.727 3.805 3.849 3.805h53.759c2.127 0 3.853-1.704 3.853-3.805v-52.802c0-2.101-1.726-3.804-3.853-3.804zm-34.075 54.496h-6.393c-.684 0-1.232-.544-1.232-1.215 0-.669.548-1.216 1.232-1.216h6.393c.683 0 1.231.547 1.231 1.216 0 .671-.549 1.215-1.231 1.215zm11.073-.761c0 1.865-1.53 3.38-3.416 3.38h-.918c-1.887 0-3.416-1.515-3.416-3.38v-.906c0-1.867 1.529-3.379 3.416-3.379h.918c1.885 0 3.416 1.512 3.416 3.379v.906zm9.713.761h-6.392c-.683 0-1.235-.544-1.235-1.215 0-.669.552-1.216 1.235-1.216h6.392c.68 0 1.231.547 1.231 1.216 0 .671-.551 1.215-1.231 1.215zm11.751-7.735h-50.685v-41.388h50.685v41.388z"/><g fill="#CE0067"><path d="M-159.18 262.938h-37.078c-2.059 0-3.735 1.654-3.735 3.688v24.669c0 2.036 1.677 3.69 3.735 3.69h16.974l12.058 11.532c.216.202.496.311.784.311.151 0 .3-.029.444-.087.417-.178.69-.584.685-1.031l-.04-10.725h6.172c2.057 0 3.733-1.654 3.733-3.69v-24.669c.002-2.033-1.675-3.688-3.732-3.688zm1.479 28.358c0 .807-.664 1.462-1.479 1.462h-7.307c-.298 0-.586.115-.799.328-.208.208-.33.491-.33.789l.035 9.199-10.461-10.004c-.21-.201-.489-.313-.782-.313h-17.433c-.816 0-1.483-.655-1.483-1.462v-24.67c0-.807.667-1.46 1.483-1.46h37.078c.815 0 1.479.653 1.479 1.46v24.671zM-187.06 278.318c-.554-.29-1.414-.569-2.571-.842-1.16-.269-1.893-.528-2.19-.779-.24-.196-.359-.428-.359-.707 0-.301.129-.54.382-.723.393-.282.934-.423 1.627-.423.669 0 1.17.131 1.507.395.332.265.551.693.656 1.29l2.381-.101c-.035-1.071-.429-1.927-1.183-2.566-.746-.646-1.858-.968-3.339-.968-.912 0-1.68.137-2.326.407-.64.269-1.13.666-1.472 1.182-.341.517-.509 1.073-.509 1.666 0 .926.364 1.706 1.086 2.35.514.455 1.415.839 2.687 1.15.995.249 1.628.416 1.909.512.406.14.694.311.859.507.161.19.244.426.244.7 0 .431-.193.807-.583 1.128-.387.32-.967.479-1.733.479-.726 0-1.302-.18-1.73-.538-.423-.361-.71-.927-.847-1.695l-2.321.223c.155 1.305.632 2.297 1.437 2.979.799.686 1.943 1.022 3.437 1.022 1.025 0 1.883-.14 2.569-.422.684-.287 1.218-.719 1.594-1.304.374-.585.561-1.213.561-1.878 0-.738-.155-1.357-.472-1.857-.309-.502-.745-.901-1.301-1.187z"/><polygon points="-177.607,281.052 -179.748,273.092 -183.312,273.092 -183.312,284.761 -181.097,284.761 -181.097,275.577 -178.763,284.761 -176.47,284.761 -174.126,275.577 -174.126,284.761 -171.912,284.761 -171.912,273.092 -175.489,273.092"/><path d="M-162.333 278.318c-.554-.29-1.409-.569-2.57-.842-1.162-.269-1.889-.528-2.188-.779-.24-.196-.356-.428-.356-.707 0-.301.123-.54.378-.723.389-.282.934-.423 1.624-.423.674 0 1.176.131 1.508.395.334.265.556.693.66 1.29l2.378-.101c-.035-1.071-.429-1.927-1.174-2.566-.755-.646-1.866-.968-3.349-.968-.908 0-1.677.137-2.321.407-.646.269-1.134.666-1.476 1.182-.34.517-.508 1.073-.508 1.666 0 .926.359 1.706 1.083 2.35.519.455 1.414.839 2.691 1.15.991.249 1.63.416 1.909.512.41.14.693.311.857.507.165.19.247.426.247.7 0 .431-.198.807-.584 1.128-.39.32-.967.479-1.734.479-.723 0-1.298-.18-1.728-.538-.427-.361-.709-.927-.854-1.695l-2.315.223c.154 1.305.634 2.297 1.433 2.979.8.686 1.949 1.022 3.439 1.022 1.027 0 1.883-.14 2.568-.422.688-.287 1.223-.719 1.597-1.304.374-.585.563-1.213.563-1.878 0-.738-.16-1.357-.473-1.857-.316-.502-.745-.901-1.305-1.187z"/></g><path fill="#CE0067" d="M-159.567 450.542c-2.615 0-4.736-2.104-4.736-4.685v-14.802c0-3.436 2.825-6.229 6.3-6.229 3.481 0 6.308 2.793 6.308 6.229l.001 13.276c0 .434-.355.783-.793.783-.441 0-.794-.35-.794-.783l-.003-13.276c0-2.567-2.116-4.658-4.719-4.658-2.601 0-4.712 2.091-4.712 4.658v14.802c0 1.714 1.41 3.113 3.148 3.113 1.764 0 3.196-1.395 3.196-3.103l-.019-11.491c0-.835-.684-1.516-1.531-1.516-.841 0-1.529.681-1.529 1.516l.006 9.981c0 .429-.354.781-.794.781-.439 0-.794-.353-.794-.781l-.005-9.981c0-1.698 1.402-3.085 3.117-3.085 1.724 0 3.125 1.387 3.125 3.085l.012 11.488c-.001 2.582-2.146 4.678-4.784 4.678z"/></g><path fill="#fff" d="M-188.311 320.883l-.022 22.162-7.311-.007.021-22.162-4.432-.004 1.202-4.884 13.816.015 1.191 4.885-4.465-.005z"/><path fill="#fff" d="M-174.162 343.058l.012-12.165-2.233-.002-.012 12.164-6.179-.005.022-22.99 6.18.005-.008 6.642 2.233.003.007-6.642 6.214.005-.023 22.99-6.213-.005z"/><path fill="#fff" d="M-157.629 343.075l-9.026-.01.021-22.99 9.026.009 1.031 4.152-3.849-.004-.006 4.631 3.689.003-.004 4.15-3.689-.002-.005 5.908 3.849.004-1.037 4.149z"/><path fill="#fff" d="M-200.108 373.245l.028-27.047 7.312.008-.027 27.047-7.313-.008z"/><path fill="#fff" d="M-183.09 373.263l.019-18.681-2.2-.001-.019 18.68-6.211-.005.022-22.992 6.212.006-.001 1.532c.15-.425.416-.787.794-1.085.376-.298.78-.446 1.212-.446l4.303.004c.541 0 1.025.215 1.456.641.43.425.647.905.646 1.437l-.021 20.916-6.212-.006z"/><path fill="#fff" d="M-165.566 354.439l-.02 18.84-6.213-.007.019-18.841-3.784-.002 1.039-4.151 11.745.014.998 4.15-3.784-.003z"/><path fill="#fff" d="M-151.48 373.293l-9.025-.01.023-22.991 9.025.01 1.031 4.151-3.849-.003-.005 4.631 3.689.003-.005 4.151-3.688-.003-.006 5.909 3.85.003-1.04 4.149z"/><path fill="#fff" d="M-139.8 373.303l-3.034-8.91h-.129l-.008 8.908-6.18-.006.023-22.993 12.069.014c.559 0 1.052.213 1.47.642.419.426.63.905.629 1.437l-.009 9.962c0 .426-.147.813-.438 1.165-.293.35-.643.611-1.052.781l3.064 9.007-6.405-.007zm-.791-18.839l-2.361-.002-.005 5.748 2.36.001.006-5.747z"/><path fill="#fff" d="M-123.687 373.321l.019-18.681-2.198-.002-.021 18.681-6.211-.006.023-22.991 6.211.005-.002 1.532c.15-.425.417-.786.794-1.085.377-.298.781-.446 1.214-.446l4.304.004c.54 0 1.023.215 1.455.641.431.427.648.905.646 1.437l-.021 20.916-6.213-.005z"/><path fill="#fff" d="M-107.153 373.336l-9.026-.008.022-22.992 9.026.008 1.032 4.154-3.85-.006-.005 4.631 3.688.004-.004 4.151-3.688-.004-.005 5.908 3.849.004-1.039 4.15z"/><path fill="#fff" d="M-94.806 354.508l-.02 18.843-6.213-.007.019-18.841-3.784-.003 1.038-4.15 11.747.011.996 4.153-3.783-.006z"/><path fill="#fff" d="M-67.839 371.3c0 .554-.224 1.038-.664 1.451-.442.415-.934.623-1.474.622l-10.384-.01c-.541 0-1.025-.209-1.455-.626-.432-.414-.646-.899-.646-1.452l.02-18.841c0-.532.215-1.01.647-1.436.432-.425.918-.637 1.458-.637l10.384.009c.541 0 1.03.215 1.473.64.438.427.663.904.659 1.438l-.018 18.842zm-6.196-16.771l-2.232-.001-.016 14.689 2.233.002.015-14.69z"/><path fill="#fff" d="M-60.315 354.542l-.005 4.632 3.657.002-.005 4.151-3.657-.004-.009 10.061-6.211-.007.022-22.992 9.125.01.998 4.153-3.915-.006z"/><path d="M-182.085 386.274l-.034 33.414-11.025-.011.034-33.414-6.683-.005 1.813-7.366 20.83.021 1.799 7.368-6.734-.007zM-158.559 419.71l.023-21.568-3.952-.004-.023 21.57-10.928-.012.041-40.779 10.929.012-.013 11.795 3.952.004.013-11.795 11.025.011-.042 40.777-11.025-.011zM-145.582 419.725l.041-40.779 11.025.011-.041 40.779-11.025-.011zM-117.679 419.753l.034-33.125-3.952-.004-.033 33.124-10.976-.01.042-40.779 10.976.01-.002 2.696c.261-.738.733-1.371 1.418-1.901.682-.528 1.416-.792 2.194-.792l7.61.008c.486 0 .952.105 1.39.314.439.209.837.482 1.194.819.358.338.644.724.855 1.157.208.434.313.893.312 1.372l-.037 37.12-11.025-.009zM-81.675 418.681c-.813.736-1.676 1.106-2.588 1.104l-16.733-.017c-.488 0-.951-.105-1.391-.313-.438-.209-.826-.481-1.168-.818-.341-.339-.617-.723-.828-1.157-.211-.434-.315-.892-.315-1.373l.032-33.461c.002-.48.106-.939.32-1.372.21-.434.488-.818.829-1.154.344-.337.732-.609 1.171-.818.438-.208.902-.311 1.39-.311l17.661.018 1.701 7.369-12.146-.014-.028 26.048 2.293.002.017-17.234 11.026.01-.023 20.941c0 .93-.406 1.78-1.22 2.55zM-66.619 386.39l-.008 8.184 5.757.005c.487 0 .952.105 1.39.314.44.211.836.483 1.195.819.357.337.642.724.853 1.158.209.431.314.889.314 1.371l-.019 17.91c0 .481-.106.939-.317 1.373-.212.433-.499.816-.855 1.155-.36.336-.757.608-1.197.815-.439.21-.902.313-1.392.312l-15.854-.016-1.748-7.37 10.39.012.01-10.495-5.754-.007c-.488 0-.951-.103-1.393-.313-.438-.208-.828-.489-1.169-.844-.341-.353-.618-.745-.826-1.18-.211-.434-.317-.892-.316-1.373l.015-15.549c.002-.481.107-.938.32-1.373.21-.432.487-.818.829-1.154.341-.337.733-.608 1.17-.817.44-.208.903-.312 1.393-.312l16.342.016 1.701 7.368-10.831-.009z"/></svg>