<svg xmlns="http://www.w3.org/2000/svg" xmlns:xlink="http://www.w3.org/1999/xlink" width="200" height="200" viewBox="-232.223 270.913 200 200" enable-background="new -232.223 270.913 200 200"><defs><rect id="a" x="-232.223" y="270.913" width="200" height="200"/></defs><clipPath id="b"><use xlink:href="#a" overflow="visible"/></clipPath><rect x="-232.223" y="270.913" clip-path="url(#b)" fill="#D7DF23" width="200" height="200"/><defs><rect id="c" x="-232.223" y="270.913" width="200" height="200"/></defs><clipPath id="d"><use xlink:href="#c" overflow="visible"/></clipPath><g clip-path="url(#d)"><defs><rect id="e" x="-232.223" y="270.913" width="200" height="200"/></defs><clipPath id="f"><use xlink:href="#e" overflow="visible"/></clipPath><g fill="#fff" clip-path="url(#f)"><path d="M-160.645 466.216l-72.093-55.033 82.799-105.188 26.17 19.976c5.203-3.262 10.99-5.656 17.2-7.217l-8.218-6.269c-.617-.478-.725-1.336-.245-1.944.468-.599 1.346-.725 1.969-.252l9.981 7.627c5.957-1.162 12.242-1.512 18.695-1.181l-39.107-29.846c-7.006-5.35-17.088-4.087-22.512 2.809l-107.302 136.309c-5.421 6.888-4.154 16.814 2.858 22.159l57.845 44.157c7.011 5.348 17.094 4.093 22.516-2.803l47.446-60.27c-1.624-1.737-3.204-3.52-4.697-5.337l-33.305 42.303zm-53.647-5.168c-4.05-3.084-4.787-8.858-1.645-12.844 3.143-3.996 8.987-4.711 13.029-1.623 4.061 3.094 4.802 8.844 1.66 12.832-3.143 3.996-8.991 4.737-13.044 1.635zM-32.281 344.121c-34.678-26.48-78.939-27.361-98.875-2.034-10.537 13.385-12.099 31.41-6.195 49.322l-24.989 15.774s35.063 4.773 36.911 7.365c5.575 7.71 12.571 14.961 20.913 21.336 34.658 26.452 78.931 27.356 98.88 2.021 19.935-25.338 8.012-67.332-26.645-93.784zm-16.696 84.365l-64.743-49.426 4.709-5.982 64.744 49.418-4.71 5.99zm9.414-11.956l-64.742-49.418 4.704-5.982 64.742 49.42-4.704 5.98zm9.406-11.949l-64.745-49.418 4.707-5.983 64.74 49.424-4.702 5.977z"/></g><defs><rect id="g" x="-232.223" y="270.913" width="200" height="200"/></defs><clipPath id="h"><use xlink:href="#g" overflow="visible"/></clipPath><g fill="#010101" clip-path="url(#h)"><path d="M-205.758 364.573l-22.116-16.974-1.151 1.451 22.116 16.977-5.658 7.148-22.116-16.977-1.148 1.452 22.115 16.976-5.658 7.148-27.219-20.892 5.657-7.148 1.814 1.393c-.347-.584-.53-1.225-.55-1.917-.017-.693.168-1.286.563-1.783l3.036-3.834c.412-.522.994-.862 1.749-1.023.755-.157 1.444-.118 2.065.118-.406-.51-.617-1.151-.636-1.924-.017-.771.182-1.418.593-1.938l3.037-3.836c.49-.619 1.184-.985 2.081-1.096.897-.107 1.661.076 2.291.561l24.764 19.008-5.629 7.11zM-188.093 337.262c.656.504 1.028 1.198 1.117 2.084.088.886-.113 1.64-.604 2.259l-9.459 11.951c-.49.621-1.178.991-2.063 1.11-.884.118-1.654-.074-2.309-.576l-22.305-17.123c-.631-.482-1.001-1.164-1.113-2.049-.109-.884.082-1.634.571-2.255l9.461-11.951c.489-.62 1.19-.992 2.096-1.113.908-.121 1.676.058 2.304.541l22.304 17.122zm-25.504-8.088l-2.033 2.569 17.391 13.35 2.033-2.57-17.391-13.349zM-173.976 319.428c.654.504 1.031 1.193 1.13 2.066.099.874-.106 1.632-.618 2.278l-10.992 13.886-27.219-20.892 10.992-13.886c.51-.645 1.207-1.027 2.092-1.148.882-.118 1.654.075 2.309.577l7.599 5.832c.756.58 1.189 1.852 1.301 3.811 1.778-.509 3.097-.437 3.953.223l9.453 7.253zm-24.976-8.756l-2.151 2.717 5.483 4.21 2.152-2.718-5.484-4.209zm10.396 7.979l-2.152 2.717 6.994 5.368 2.152-2.718-6.994-5.367zM-170.341 319.827l-27.222-20.893 5.657-7.147 27.22 20.892-5.655 7.148zM-155.344 300.877l-8.159 10.313-27.222-20.893 5.658-7.147 22.305 17.118 3.418-4.318 4 4.927zM-145.029 287.848l-8.221 10.386-27.222-20.891 8.221-10.388 5.858 2.58-3.507 4.431 5.484 4.207 3.36-4.242 4.913 3.77-3.359 4.244 6.994 5.369 3.506-4.431 3.973 4.965z"/></g></g></svg>