<svg xmlns="http://www.w3.org/2000/svg" xmlns:xlink="http://www.w3.org/1999/xlink" width="200" height="200" viewBox="-232.5 271 200 200" enable-background="new -232.5 271 200 200"><rect x="-232.5" y="271" fill="#00AEEF" width="200" height="200"/><path d="M-201.557 374.437c.2.255.335.541.403.854.066.314.077.635.027.955-.051.324-.148.63-.295.916-.146.289-.349.53-.606.728l-5.514 4.191 6.574 8.386-5.849 4.449-16.929-21.59 11.364-8.639c.258-.197.547-.328.868-.394.319-.068.644-.085.975-.051.328.034.64.122.932.269.293.143.539.341.738.597l7.312 9.329zm-11.083-3.333l-2.198 1.673 4.217 5.38 2.2-1.672-4.219-5.381zM-182.874 376.71l-8.011-5.26-.102.078 5.574 7.112-4.944 3.759-14.389-18.354 9.655-7.341c.448-.341.975-.468 1.576-.386.604.086 1.072.342 1.404.764l6.235 7.953c.267.34.393.737.38 1.197-.013.456-.132.878-.353 1.264l8.096 5.318-5.121 3.896zm-12.441-14.549l-1.888 1.438 3.599 4.589 1.89-1.437-3.601-4.59zM-164.244 359.9c.346.442.474.962.38 1.563-.095.602-.358 1.064-.789 1.393l-8.31 6.317c-.43.328-.949.457-1.554.39-.604-.07-1.08-.324-1.426-.766l-11.792-15.04c-.333-.423-.461-.936-.382-1.539.078-.603.332-1.067.765-1.396l8.31-6.316c.43-.328.957-.457 1.577-.386.621.07 1.099.318 1.43.742l11.791 15.038zm-15.462-9.604l-1.786 1.357 9.192 11.726 1.787-1.356-9.193-11.727zM-149.858 350.794c-.08.604-.333 1.068-.766 1.396l-7.534 5.726c-.431.326-.948.458-1.553.39-.605-.071-1.081-.324-1.428-.767l-2.979-3.798 4.944-3.759 1.678 2.142 1.036-.787-11.792-15.038 4.97-3.779 13.092 16.696c.349.441.459.966.332 1.578zM-138.562 343.018l-7.222 5.491-14.391-18.354 7.222-5.49 3.427 2.685-3.08 2.343 2.899 3.696 2.95-2.242 2.598 3.313-2.951 2.243 3.698 4.715 3.081-2.341 1.769 3.941zM-132.944 338.749c-.432.328-.949.456-1.555.389-.604-.07-1.081-.323-1.427-.766l-11.792-15.039c-.333-.424-.46-.937-.382-1.54.08-.603.333-1.068.766-1.396l7.196-5.471 2.597 3.313-3.908 2.972 9.194 11.727 3.908-2.971 2.598 3.313-7.195 5.469zM-126.901 310.148l11.792 15.038-4.97 3.78-11.793-15.04-3.029 2.302-1.77-3.943 9.397-7.144 3.399 2.704-3.026 2.303zM-108.976 320.524l-14.389-18.354 4.971-3.778 14.388 18.354-4.97 3.778zM-90.499 303.832c.346.442.473.962.38 1.564-.095.599-.358 1.064-.789 1.393l-8.311 6.316c-.43.328-.948.459-1.554.391-.604-.07-1.079-.325-1.426-.768l-11.793-15.039c-.332-.424-.459-.936-.381-1.54.079-.602.333-1.067.767-1.396l8.308-6.318c.432-.328.957-.455 1.578-.386.621.073 1.099.32 1.429.743l11.792 15.04zm-15.462-9.603l-1.787 1.357 9.193 11.727 1.788-1.358-9.194-11.726zM-79.364 298.011l-11.69-14.911-1.759 1.339 11.691 14.911-4.972 3.779-14.387-18.354 4.97-3.779.958 1.224c-.146-.432-.159-.882-.044-1.348.116-.47.345-.833.69-1.097l3.443-2.617c.43-.328.954-.451 1.564-.375.612.078 1.083.328 1.417.753l13.091 16.696-4.972 3.779z"/><defs><polygon id="a" points="-125.774,344.135 -191.199,393.523 -170.139,393.523 -170.139,459.977 -144.884,459.977 -144.884,411.949 -106.651,411.949 -106.651,459.977 -81.396,459.977 -81.396,393.523 -60.336,393.523"/></defs><clipPath id="b"><use xlink:href="#a" overflow="visible"/></clipPath><g clip-path="url(#b)"><path fill="#fff" d="M273.984 679.522h-626.448v-616.882h626.448v616.882zm-220.139-223.72c1.239.481 2.475 1.371 3.719 1.379 13.307.1 26.612.063 39.92.063l.009-.76h-12.205v-26.814h5.957c23.115.004 46.231-.085 69.345.095 3.722.027 6.235-.983 8.213-4.01 1.686-2.577 3.68-4.956 5.534-7.424l3.539-4.581c.976-1.804 2.783-3.606 2.798-5.416.185-25.544.124-51.088.124-76.63h-.639v77.875c-10.973 1.63-21.074 2.057-27.774-8.572-1.427-2.261-3.852-3.911-5.817-5.841l-.407-.392c-4.489-3.791-5.333-8.697-4.887-14.224.342-4.24-.406-8.594.162-12.786 1.438-10.611-6.354-15.115-13.165-20.373-1.189-1.16-2.375-2.322-3.562-3.488-1.058-1.624-1.858-3.504-3.217-4.834-5.659-5.542-11.478-10.919-17.241-16.358l-.427-.396c1.582-.632 3.151-1.766 4.749-1.81 6.938-.202 13.888-.036 20.829-.129 1.491-.023 3.472-.075 4.383-.958 6.21-6.026 12.198-12.278 18.258-18.46-1.319-.288-1.938.168-2.483.698-5.926 5.698-10.914 13.705-18.014 16.483-7.356 2.877-16.765.913-25.255.569-2.4-.099-5.148-1.477-7.012-3.087-4.804-4.146-9.198-8.753-13.76-13.174v.02c-.186-2.205-.536-4.406-.538-6.609-.034-29.79-.023-59.578-.023-89.368v-5.671h-6.454c-26.441-.002-52.885-.074-79.327.074-4.008.022-5.468-.993-5.365-5.149.271-11.073.093-22.159.093-33.242l-.853.003v38.323h-6.621c-21.622 0-43.246 0-64.868-.004-16.352 0-32.706.037-49.057-.02-5.207-.021-10.412-.289-15.619-.446-6.411-7.043-12.823-14.084-19.236-21.132l-2.285-3.126v6.874c0 26.205.031 52.408-.02 78.61-.017 7.557 1.815 7.947-8.291 7.93-15.104-.024-30.208-.006-45.313-.006l.002.676h53.275c.134 1.684.331 3.015.331 4.346.017 50.181.04 100.36-.069 150.54-.006 2.213-1.264 4.424-1.937 6.635-6.617 6.456-13.233 12.907-19.853 19.363l1.292 1.192c6.236-6.806 12.471-13.615 18.708-20.419.624 1.648 1.783 3.294 1.792 4.945.115 25.358.08 50.717.08 76.078v5.156l1.338-.013v-88.335h6.84c58.44 0 116.879.053 175.318-.085 5.688-.018 10.893.088 14.474 5.205 6.839 7.003 13.677 14.007 20.512 21.01zm113.632-326.171h-167.665v64.877h90.608v55.964h77.058c-.001-40.492-.001-80.532-.001-120.841zm-229.455 448.717v-142.724h-95.944v142.724h95.944zm-108.147-303.696h-70.354v224.999c22.639-23.21 44.644-45.86 66.8-68.359 2.654-2.694 3.629-5.394 3.621-9.072-.105-47.289-.069-94.577-.069-141.865.002-1.839.002-3.675.002-5.703zm120.643 161.188v142.062h72.585v-142.062h-72.585zm-190.967-306.223v133.223h69.323v-133.223h-69.323zm426.34 423.079v-116.718h-63.842v116.718h63.842zm-148.497 26.177h64.975v-112.77h-64.975v112.77zm-208.29-134.481c-1.179.91-1.741 1.246-2.185 1.7-21.916 22.429-43.855 44.834-65.638 67.388-1.339 1.385-1.987 3.941-2.005 5.96-.16 16.769-.093 33.538-.094 50.309-.002 2.852 0 5.701 0 8.758h69.921c.001-44.658.001-88.928.001-134.115zm30.891-314.966v64.509h56.363v-64.509h-56.363zm136.469 482.012v50.964c.724-1.464.718-2.929.724-4.394.068-16.441.117-32.881.204-49.318.048-8.195-1.898-10.117-10.483-10.117-78.785 0-157.572.004-236.356.012-9.393.002-11.889 3.236-9.593 12.854 84.888-.001 169.867-.001 255.504-.001zm-64.321-481.635v57.663h55.538v-57.663h-55.538zm214.711 198.476v60.315h28.661c0-19.255.059-38.044-.135-56.827-.012-1.174-1.941-3.295-3.034-3.331-8.298-.281-16.609-.157-25.492-.157zm-486.675 334.15h.854v-51.054h64.989c9.233 0 9.234-.003 9.237 9.318.002 13.213.002 26.425.002 39.638.758-18.127.83-36.245.711-54.363-.033-4.69-2.94-7.313-7.646-7.332-20.335-.094-40.671-.122-61.004.027-5.132.034-7.312 2.651-7.312 7.939-.003 11.636.119 23.272.165 34.906.025 6.973.004 13.949.004 20.921zm514.422-533.271l-1.552.055v6.008c.002 45.048-.063 90.098.094 135.142.018 4.942-1.019 8.74-4.898 12.163-4.796 4.224-8.988 9.104-13.109 13.36 4.993-4.522 10.243-9.42 15.656-14.135 2.983-2.594 3.899-5.594 3.892-9.491-.125-46.075-.082-92.151-.082-138.225l-.001-4.877zm-445.144 519.502h-25.211v11.301h25.211v-11.301zm262.705 18.226l.193-.382h-247.092v.382h246.899zm252.024-573.596c.805-.043 1.607-.087 2.406-.133 0-4.653.123-9.313-.074-13.961-.057-1.252-1.075-2.468-1.65-3.7-1.193.96-2.887 1.685-3.499 2.925-1.458 2.966-2.41 6.175-4.1 10.728-1.794-4.866-2.873-8.251-4.334-11.464-.447-.974-1.893-1.635-3.022-2.1-.339-.141-1.68.866-1.692 1.363-.12 5.438-.075 10.884-.075 16.325l2.116.058c.336-3.392.67-6.78 1.151-11.681l5.331 12.032 1.427-.271c1.41-3.469 2.812-6.938 4.217-10.408l1.009.31c.263 3.326.527 6.653.789 9.977zm-298.19.068l1.984-.212v-17.86c-7.61 1.097-4.468 9.402-9.474 12.287-1.236-3.435-2.283-6.836-3.738-10.057-.426-.939-1.945-1.623-3.095-1.917-.453-.114-1.822 1.148-1.837 1.805-.114 4.95-.04 9.901.138 14.848.015.396 1.225.756 2.869 1.698v-11.282l1.057-.027c1.535 3.638 3.072 7.278 4.61 10.918l1.378.009c1.527-3.662 3.058-7.322 4.589-10.982l.752.271.767 10.501zm69.385-.405c9.54 1.165 10.462.134 8.635-9.029-.059-.301.045-.631.068-.947.473-7.154-1.763-8.856-8.703-6.588v16.564zm97.048-12.635c-3.399-5.413-7.554-6.403-11.959-3.934-3.948 2.214-5.65 6.684-4.189 11.009 1.488 4.417 5.259 6.728 10.091 6.183 4.664-.531 7.167-3.403 7.512-8.565h-10.255l.009 1.154 6.463 1.31c-2.358 3.552-5.208 3.958-8.217 2.06-3.001-1.892-3.972-4.778-2.072-7.976 1.801-3.03 4.458-4.096 7.961-2.632 1.483.622 3.1.937 4.656 1.391zm27.17 13.052c5.507-.179 11.45 1.623 13.7-4.404 1.133-3.037.78-7.748-.942-10.415-2.843-4.396-8.084-3.244-12.758-2.818v17.637zm-68.917 1.264c5.036-1.458 9.947-1.592 12.613-4.068 2.058-1.906 2.363-7.023 1.54-10.24-1.307-5.101-6.467-5.073-10.832-4.763-1.178.086-3.069 2.008-3.167 3.204-.374 4.566-.154 9.18-.154 15.867zm-43.96-1.879l.651 1.568c4.947-6.872 9.902-6.227 14.864-.011l.693-1.619c-2.37-5.9-4.743-11.801-7.111-17.708-.723.072-1.446.141-2.17.209-2.309 5.856-4.615 11.707-6.927 17.561zm-76.601-.036l1.239 1.878c4.516-8.707 9.582-4.761 14.656-.734l.292-1.392c-2.337-5.813-4.676-11.626-7.016-17.442l-2.081.236c-2.365 5.819-4.726 11.636-7.09 17.454zm175.494-5.523l1.643.067c.41-3.085 2.143-6.865.938-9.106-2.118-3.932-6.654-2.866-10.16-2.297v17.384l1.544.209c.489-2.146.978-4.29 1.548-6.786l6.208 7.204 1.311-1.052-3.032-5.623zm-215.222 6.179l1.743-.252v-17.395l-1.522-.204c-.288 1.404-.274 2.974-.951 4.166-.746 1.317-2.127 2.287-3.232 3.408-1.107-1.121-2.459-2.097-3.25-3.4-.733-1.213-.869-2.777-1.266-4.189l-1.258.399v17.249l1.438.281c.577-2.325 1.152-4.653 1.822-7.361 1.845.083 3.631.16 5.31.233.454 2.743.811 4.903 1.166 7.065zm-13.795-4.687c-6.076.931-14.016 5.079-13.792-4.441.216-9.266 7.932-4.712 14-3.872-2.954-4.557-6.218-6.003-10.278-4.973-4.496 1.142-7.075 4.222-7.162 8.924-.084 4.46 2.123 7.695 6.414 8.903 4.006 1.125 7.783.459 10.818-4.541zm106.228-.202c-5.872 1.025-13.562 5.434-13.87-3.7-.344-10.096 8.058-5.004 14.194-4.484-3.45-4.634-6.846-6.085-11.159-4.682-4.522 1.477-6.664 4.801-6.425 9.441.215 4.194 2.359 7.262 6.571 8.247 4.079.953 7.821.287 10.689-4.822zm195.296 452.184h.157v-111.73h-.157v111.73zm25.494-463.962c-3.731-2.177-8.548-1.91-8.727.74-.341 5.202-.099 10.441-.099 16.077 3.602-.202 6.346-.362 9.084-.517l.149-1.594c-1.967-.446-3.939-.891-5.877-1.328-2.978-6.502 5.148-2.824 5.725-5.576-2.266-1.495-4.248-2.807-6.234-4.12 1.926-1.183 3.847-2.368 5.979-3.682zm-33.029 10.539c-.512 4.546 1.241 6.538 4.073 6.134 2.092-.3 4.893-2.04 5.647-3.836 1.583-3.781-1.12-5.774-4.636-7.075-1.01-.374-1.477-2.156-2.193-3.289 1.271-.04 2.546-.17 3.804-.084.707.048 1.386.462 2.076.709l.954-1.417c-1.537-1.082-3.073-3.013-4.608-3.013-1.634 0-4.222 1.545-4.659 2.938-.527 1.69.442 4.095 1.395 5.862.524.978 2.651 1.016 3.473 1.965.806.928.872 2.478 1.267 3.756-1.354.014-2.746.205-4.046-.036-.628-.116-1.089-1.063-2.547-2.614zm-137.932-7.285c.445-.514.893-1.025 1.341-1.534-1.479-1.095-2.958-3.056-4.438-3.056-1.654 0-4.264 1.47-4.721 2.857-.557 1.692.301 4.18 1.297 5.901.637 1.102 2.889 1.191 3.926 2.221.741.737.666 2.271.955 3.454-1.222.186-2.521.707-3.639.454-1.019-.23-1.84-1.307-2.749-2.009l-1.356 1.704c1.78 1.214 3.677 3.536 5.312 3.368 2.034-.208 4.974-2.185 5.432-3.93.448-1.687-1.571-4.181-2.892-6.062-.584-.832-2.303-.815-3.153-1.569-.589-.526-1.024-1.941-.707-2.537.344-.642 1.727-1.217 2.495-1.056 1.05.221 1.938 1.162 2.897 1.794zm4.749-4.66c0 4.783-.175 8.706.078 12.599.118 1.816.656 4.764 1.725 5.122 2.337.786 5.135.242 7.744.242.013-.684.026-1.366.034-2.048l-5.956-.996c-2.791-6.717 5.209-2.995 5.968-6.289-1.827-2.047-8.404 1.042-5.916-5.461 2.011-.351 4.003-.699 5.997-1.049l-.096-1.651c-2.905-.144-5.808-.286-9.578-.469zm-190.191 12.761c-.835 3.908 1.208 5.687 3.945 5.313 2.087-.284 4.907-2.042 5.649-3.84 1.547-3.764-1.093-5.799-4.65-7.07-1.002-.357-1.474-2.151-2.187-3.282 1.273-.05 2.559-.208 3.819-.11.71.054 1.39.522 2.08.804l1.026-1.256c-1.506-1.158-2.975-3.176-4.531-3.242-1.626-.071-4.113 1.375-4.796 2.813-.688 1.442.034 3.857.823 5.534.468.992 2.528 1.146 3.389 2.096.959 1.058 1.374 2.596 2.026 3.924-1.466-.027-2.954.083-4.389-.137-.666-.102-1.233-.839-2.204-1.547zm391.104-8.138l1.38-1.465c-1.441-1.101-2.889-3.077-4.325-3.071-1.655.006-4.246 1.46-4.71 2.844-.567 1.698.256 4.192 1.233 5.925.635 1.105 2.885 1.21 3.94 2.236.752.729.714 2.245 1.031 3.412-1.229.19-2.554.739-3.667.469-1.049-.254-1.88-1.374-2.802-2.111l-1.423 1.7c1.785 1.248 3.678 3.611 5.33 3.457 2.007-.19 4.944-2.229 5.379-3.972.424-1.712-1.64-4.156-2.925-6.074-.466-.708-2.132-.592-2.715-1.289-.635-.755-.653-2.016-.934-3.051.912-.229 1.891-.766 2.717-.595.905.183 1.668 1.027 2.491 1.585zm-84.959-.007l1.091-1.174c-1.374-1.189-2.954-3.515-4.077-3.316-1.973.341-4.948 2.053-5.161 3.517-.268 1.874 1.654 4.152 2.872 6.112 1.011 1.624 3.7 3.876 3.354 4.41-2.188 3.38-3.793.067-5.635-.93-.209-.112-.618.128-2.524.594 2.221 1.846 3.767 4.166 5.332 4.176 1.942.019 5.078-1.516 5.557-3.031.587-1.871-.851-4.49-1.794-6.622-.294-.664-2.098-.555-2.723-1.233-.87-.947-1.283-2.302-1.89-3.483 1.311.078 2.631.091 3.927.262.579.075 1.115.466 1.671.718zm-253.213-1.548c2.188-.289 3.965-.521 5.74-.754v-1.778c-2.899-.134-5.798-.269-8.88-.414v18.02c3.22-.146 6.056-.278 8.895-.412l.112-1.696-5.912-1.158c-3.116-6.573 4.875-3.094 5.853-6.124-1.714-2.211-8.448.875-5.808-5.684zm257.74-3.424l-1.408.998c1.988 5.799 3.98 11.598 6.086 17.744 2.127-6.412 4.025-12.153 5.927-17.893l-1.319-.711c-1.471 2.362-2.941 4.723-4.589 7.366l-4.697-7.504zm-67.396 474.933h.185v-80.063l-.185.003v80.06zm92.14-473.856c7.199 4.653.539 12.533 5.496 17.294.771-2.881.533-5.79.842-8.643.297-2.75 1.157-5.446 1.883-8.651h-8.221zm-235.277.028c7.589 4.094-.378 12.87 5.101 17.65 2.872-5.786-2.536-12.884 5.63-17.65h-10.731zm-237.058 590.845l.144-.385h-65.502l-.003.385h65.361zm249.607-573.754c3.667-4.184 3.137-15.554 0-17.404v17.404zm153.193 1.262c3.228-5.056 3.047-15.931 0-19.144v19.144zm-204.655 95.241c-7.742-5.737-3.133-14.129-4.986-21.132 1.533 7.071-3.572 15.572 4.986 21.132zm182.614 67.819l-.003-.178h-22.585l.004.178h22.584zm-406.374 359.485l-.106.767h24.381l.005-.767h-24.28z"/><path d="M-61.978 578.348h-95.944v-142.724h95.944v142.724zM-170.125 274.652v5.699c0 47.289-.037 94.579.069 141.867.008 3.679-.968 6.378-3.621 9.072-22.157 22.499-44.161 45.15-66.801 68.359v-225c23.249.003 46.468.003 70.353.003z"/><path fill="#fff" d="M-162.348 179.227l19.237 21.131c1.826.294 3.651.841 5.476.844 23.578.059 47.156-.037 70.731.139 2.957.023 5.9 1.376 8.85 2.113l30.29 30.911c7.269 7.512 14.534 15.021 21.8 22.533 2.051.229 4.101.65 6.149.653 25.748.045 51.498.029 77.246.029h5.794v40.773c-3.041-2.784-6.107-5.095-8.534-7.934-3.273-3.833-6.995-5.207-12.148-5.184-46.426.19-92.855.108-139.281.108h-5.979l.003 1.57c9.155 0 18.314.016 27.471 0 40.169-.078 80.333-.168 120.497-.205 1.486 0 3.477.037 4.373.912 7.493 7.298 16.797 13.538 14.242 26.414-.726 3.652-1.256 6.698-4.025 9.455-3.129 3.107-5.682 6.784-8.481 10.213l-2.472 2.381c-6.454 6.146-12.947 12.259-19.325 18.485-.997.977-1.466 2.474-2.179 3.732l-2.505 2.451c-3.418.735-6.803 1.813-10.261 2.109-4.289.371-8.633.095-12.954.095-37.836.002-75.674-.022-113.511.043-3.203.007-7.431-.526-9.406 1.186-4.943 4.282-8.864 9.71-13.195 14.679-.834.815-1.67 1.632-2.501 2.448-6.016 5.672-12.08 11.297-17.999 17.061-1.116 1.09-1.66 2.746-2.469 4.137l-4.598 4.507c-6.487 6.562-12.976 13.121-19.461 19.683l.151-.199c-.717-1.698-2.056-3.398-2.061-5.098-.11-52.473-.09-104.943-.09-157.414 0-26.533-.021-53.069.047-79.601.004-1.719.703-3.438 1.078-5.16zm99.933 100.354v-70.249h-7.057c-22.78.002-45.561.121-68.335-.141-2.714-.031-5.875-1.601-8.001-3.399-3.971-3.364-7.336-7.421-11.29-11.533-.378 1.229-.651 1.7-.651 2.165-.034 21.234-.093 42.467.038 63.699.01 1.673 1.013 3.622 2.141 4.965 12.193 14.519 12.225 14.493 31.622 14.493h61.533zm-95.47 5.264v130.157c1.334-1.247 2.091-1.908 2.8-2.619 17.101-17.287 34.255-34.529 51.245-51.929 2.6-2.663 5.103-3.949 8.988-3.836 10.893.303 21.805.104 32.875.104v-48.301c-2.136 0-3.862.004-5.586-.003-20.513-.061-41.027-.203-61.541-.114-3.432.016-5.798-1.028-8.154-3.411-6.633-6.707-13.517-13.173-20.627-20.048zm236.599-3.493v-19.175h-5.932c-25.538-.001-51.08-.093-76.62.085-3.856.028-6.361-1.228-8.985-3.868-5.317-5.347-11.077-10.267-17.048-15.72-6.058 5.771-12.78 12.15-19.464 18.559-.473.452-.985 1.147-.993 1.735-.07 6.087-.042 12.174-.042 18.384h129.084zm-42.778 76.638c3.389-1.674 6.074-2.333 7.803-3.974 5.757-5.459 10.803-11.685 16.817-16.827 6.223-5.328 8.434-11.401 7.754-19.351-.625-7.316-.115-14.727-.149-22.094-.012-1.807-.198-3.612-.3-5.304h-52.411c-1.43 5.42-.274 9.522 3.54 13.408 4.944 5.031 9.475 10.511 13.72 16.135 1.709 2.265 2.973 5.396 3.085 8.185.372 9.371.141 18.768.141 29.822zm-49.814-1.686c12.005 0 23.447.08 34.886-.14.977-.02 2.716-1.991 2.749-3.094.234-8.203.219-16.423.038-24.631-.03-1.331-1.002-2.885-1.994-3.908-4.542-4.717-9.191-9.337-13.931-13.86-1.038-.988-2.584-1.996-3.931-2.046-5.846-.223-11.704-.096-17.817-.096v47.775zm-35.796-.896h23.802v-46.219h-23.802v46.219zm55.778-53.363l-.032-.759c-8.16 0-16.32-.023-24.48.003-34.049.104-68.097.215-102.147.356-6.714.029-13.761 1.141-17.679-6.572 2.821 5.2 6.73 7.24 12.852 7.148 26.346-.386 52.695-.176 79.045-.177 17.481-.003 34.959.001 52.441.001z"/><path d="M-49.482 435.84h72.585v142.062h-72.585v-142.062zM-170.896 444.392v134.111h-69.92c0-3.056-.003-5.905 0-8.758.001-16.771-.065-33.539.094-50.309.019-2.019.665-4.573 2.005-5.96 21.783-22.553 43.722-44.957 65.639-67.388.44-.45 1.004-.786 2.182-1.696z"/><path fill="#E2231A" d="M103.824 322.314c-6.003-.862-12.003-1.725-18.509-2.658v108.837h5.572c21.709.001 43.422-.263 65.126.166 6.397.128 10.975-1.279 14.242-6.784.868-1.466 2.695-2.38 4.081-3.548-1.853 2.469-3.848 4.847-5.534 7.426-1.975 3.026-4.491 4.039-8.213 4.009-23.115-.183-46.23-.092-69.345-.095h-5.957v26.814h12.205l-.009.76c-13.309 0-26.613.037-39.92-.063-1.243-.008-2.478-.898-3.719-1.38 9.15.304 18.298.66 27.447.813.758.013 2.189-1.347 2.204-2.088.158-8.142.101-16.292.101-24.61h-52.478l2.215 4.878c-3.581-5.117-8.785-5.222-14.473-5.205-58.439.14-116.879.085-175.32.085h-6.841v88.335l-1.337.013v-5.156c0-25.36.035-50.72-.08-76.078-.009-1.65-1.167-3.297-1.792-4.945l-.147-.136c.673-2.212 1.931-4.42 1.936-6.636.109-50.181.086-100.36.07-150.54 0-1.331-.198-2.661-.331-4.345h-53.276l-.001-.676c15.105 0 30.21-.019 45.313.005 10.106.019 8.274-.373 8.291-7.93.051-26.202.02-52.404.02-78.609v-6.874l2.285 3.126c-.374 1.722-1.072 3.442-1.079 5.164-.069 26.531-.047 53.067-.047 79.601 0 52.471-.02 104.941.09 157.414.004 1.699 1.342 3.399 2.061 5.098 1.619.666 3.236 1.902 4.858 1.908 36.479.11 72.966.17 109.447.052 24.964-.081 49.93-.597 74.894-.643 16.455-.029 32.911.435 49.366.673 1.872.028 3.745.002 6.016.002v-105.43l-1.181-.9c-3.571 3.846-7.145 7.693-10.716 11.538 2.8-3.429 5.352-7.103 8.482-10.213 2.769-2.757 3.299-5.803 4.024-9.455 2.557-12.875-6.748-19.117-14.242-26.414-.896-.874-2.886-.912-4.373-.912-40.165.037-80.328.128-120.497.205-9.157.016-18.315 0-27.471 0l-.002-1.571h5.979c46.426 0 92.854.083 139.28-.107 5.154-.023 8.876 1.352 12.149 5.184 2.426 2.839 5.494 5.15 8.534 7.934v-40.773h-5.794c-25.748 0-51.495.016-77.246-.029-2.05-.004-4.099-.425-6.149-.653 28.499.077 56.99.121 85.483.268 3.717.02 4.183-1.935 4.17-4.901-.076-15.231-.201-30.464.063-45.687.081-4.581-1.842-5.418-5.871-5.388-18.245.129-36.493.043-54.74.041-8.167 0-16.337.103-24.5-.019-3.58-.05-4.983 1.307-4.81 4.873.112 2.296-.535 4.63-.838 6.948.133-2.042.136-4.1.426-6.119.669-4.679-1.594-5.819-5.969-5.756-13.705.204-27.415.02-41.121.188-1.469.019-2.921 1.374-4.382 2.107-2.951-.737-5.893-2.091-8.85-2.112-23.575-.177-47.153-.082-70.731-.14-1.824-.003-3.65-.55-5.477-.844 5.207.156 10.412.427 15.619.446 16.351.057 32.705.02 49.057.02 21.622.003 43.246.003 64.868.003h6.621v-38.322l.853-.003c0 11.083.178 22.169-.093 33.243-.103 4.155 1.356 5.171 5.365 5.147 26.442-.146 52.886-.075 79.327-.073h6.454v5.669c0 29.791-.014 59.581.023 89.371.002 2.202.353 4.403.542 6.624-.24 5.371-.479 10.733-.716 16.099h14.553c-4.838-5.638-9.341-10.886-13.841-16.135 4.56 4.422 8.956 9.027 13.756 13.177 1.863 1.608 4.612 2.986 7.015 3.087 8.489.341 17.899 2.306 25.255-.57 7.1-2.778 12.086-10.785 18.013-16.484.548-.528 1.166-.985 2.482-.696-6.058 6.181-12.045 12.433-18.255 18.458-.914.883-2.892.935-4.383.957-6.942.093-13.893-.074-20.83.128-1.598.049-3.168 1.18-4.747 1.811z"/><path d="M-166.506 431.842c-6.237 6.804-12.472 13.613-18.708 20.419l-1.292-1.192c6.62-6.456 13.237-12.907 19.854-19.363l.146.136zM-62.415 279.581h-61.532000000000004c-19.397 0-19.429.025-31.622-14.493-1.128-1.343-2.132-3.292-2.141-4.965-.132-21.234-.074-42.467-.038-63.699 0-.467.271-.937.651-2.165 3.954 4.115 7.318 8.169 11.29 11.533 2.128 1.799 5.287 3.368 8.001 3.399 22.776.262 45.556.143 68.335.141h7.057c-.001 23.568-.001 46.573-.001 70.249zM-157.885 284.845c7.11 6.875 13.994 13.341 20.625 20.048 2.356 2.384 4.723 3.427 8.154 3.411 20.513-.09 41.025.054 61.541.114 1.725.006 3.449.002 5.586.002v48.3c-11.069 0-21.98.198-32.875-.104-3.885-.11-6.388 1.176-8.988 3.837-16.99 17.398-34.144 34.642-51.245 51.931-.708.71-1.465 1.371-2.8 2.616.002-43.687.002-86.655.002-130.155z"/><path fill="#fff" d="M71.359 333.704c3.569-3.845 7.143-7.693 10.716-11.538l1.181.9v105.429c-2.271 0-4.144.026-6.016-.001-16.455-.239-32.911-.701-49.366-.673-24.964.044-49.93.562-74.894.643-36.48.118-72.968.058-109.447-.053-1.622-.004-3.24-1.241-4.858-1.906l-.151.198c6.486-6.563 12.975-13.123 19.461-19.683l4.598-4.507c6.823-7.065 13.645-14.132 20.468-21.196l2.501-2.45c3.173-3.154 6.615-6.095 9.452-9.521 3.252-3.927 6.997-5.217 12.139-5.13 24.763.418 49.534.493 74.298.604 16.459.078 32.928.406 49.356-.238 4.618-.18 10.823 2.327 14.082-3.825l2.504-2.452c7.167-7.406 14.337-14.815 21.504-22.219.822-.795 1.647-1.589 2.472-2.382zm-133.715 35.757c-9.663 0-19.005.146-28.338-.074-3.619-.089-6.163 1.014-8.591 3.628-13.714 14.752-27.576 29.366-41.371 44.041-1.123 1.198-2.125 2.505-3.652 4.317h81.953c-.001-17.314-.001-34.306-.001-51.912zm139.835-34.416c-8.278 9.036-15.644 17.219-23.176 25.243-4.904 5.225-8.641 12.475-17.903 10.188v51.297h41.08c-.001-28.704-.001-57.064-.001-86.728zm-127.516 34.405v52.379h62.485c-1.494-1.835-2.468-3.148-3.56-4.36-7.731-8.569-15.499-17.104-23.228-25.675-5.784-6.412-13.343-11.931-10.935-22.343-8.704-.001-16.607-.001-24.762-.001zm72.815 46.46l1.326-.342c0-14.479.048-28.963-.133-43.441-.009-.895-1.857-2.512-2.876-2.532-9.561-.189-19.122-.136-28.682-.032-.851.011-2.449.907-2.423 1.311.27 4.126-.733 9.524 1.525 12.124 9.896 11.41 20.755 22.017 31.263 32.912z"/><path d="M78.714 281.352h-129.082c0-6.21-.029-12.295.043-18.384.008-.588.52-1.283.992-1.735 6.682-6.408 13.404-12.788 19.462-18.559 5.971 5.454 11.733 10.373 17.049 15.72 2.624 2.641 5.127 3.895 8.985 3.868 25.542-.178 51.081-.086 76.621-.085h5.93v19.175zM-49.674 355.408v-46.219h23.802v46.219h-23.802zM44.879 360.754c-3.259 6.152-9.466 3.648-14.082 3.827-16.428.644-32.897.315-49.356.237-24.764-.109-49.536-.186-74.298-.604-5.142-.084-8.887 1.205-12.139 5.131-2.837 3.427-6.279 6.365-9.452 9.521 4.331-4.969 8.252-10.396 13.195-14.679 1.975-1.71 6.204-1.179 9.406-1.184 37.837-.065 75.675-.042 113.511-.045 4.321 0 8.667.277 12.954-.095 3.458-.297 6.843-1.374 10.261-2.109zM6.104 302.045c-17.482 0-34.96-.004-52.442 0-26.35.001-52.7-.209-79.045.177-6.124.091-10.033-1.948-12.854-7.148 3.918 7.712 10.964 6.599 17.678 6.572 34.05-.142 68.098-.252 102.148-.356 8.162-.026 16.32-.003 24.479-.003l.036.758z"/><path fill="#E2231A" d="M-116.949 381.316c-6.823 7.065-13.645 14.132-20.468 21.195.809-1.392 1.352-3.048 2.469-4.135 5.922-5.763 11.984-11.389 17.999-17.06z"/><path d="M-142.014 407.019c-6.487 6.562-12.976 13.121-19.461 19.683 6.485-6.562 12.974-13.122 19.461-19.683z"/><path fill="#E2231A" d="M-62.356 369.461v51.914h-81.953c1.527-1.813 2.53-3.121 3.652-4.318 13.795-14.676 27.66-29.29 41.371-44.04 2.428-2.615 4.972-3.719 8.591-3.63 9.334.22 18.676.074 28.339.074z"/><path d="M-50.037 369.45h24.763c-2.411 10.412 5.151 15.929 10.935 22.343 7.729 8.569 15.495 17.106 23.228 25.676 1.093 1.21 2.067 2.525 3.56 4.358h-62.485c-.001-17.473-.001-34.778-.001-52.377z"/></g><polygon stroke="#000" stroke-width="1.505" stroke-miterlimit="10" points="-125.774,344.135 -191.199,393.523 -170.139,393.523 -170.139,459.977 -144.884,459.977 -144.884,411.949 -106.651,411.949 -106.651,459.977 -81.396,459.977 -81.396,393.523 -60.336,393.523" fill="none"/><defs><rect id="c" x="459.552" y="-155.137" width="146.558" height="148.826"/></defs><clipPath id="d"><use xlink:href="#c" overflow="visible"/></clipPath><g clip-path="url(#d)"><path fill="#CE0067" d="M190.396 65.118h-5.379l-.662-3.388c0-1.024-.748-1.86-1.676-1.86h-9.31c-.927 0-1.671.836-1.671 1.86l-.689 3.388h-29.799c-1.172 0-2.119.953-2.119 2.123v32.022c0 1.172.947 2.125 2.119 2.125h49.186c1.17 0 2.119-.953 2.119-2.125v-32.022c.003-1.17-.949-2.123-2.119-2.123zm-22.596 32.422c-7.972 0-14.458-6.5-14.458-14.479 0-7.988 6.486-14.483 14.458-14.483 7.974 0 14.457 6.495 14.457 14.483 0 7.979-6.486 14.479-14.457 14.479zm14.526-30.725h-8.738v-5.172h8.738v5.172z"/><path fill="#CE0067" d="M115.29 45.735l.001-.037v-27.489l-.001-.035c-.005-.253-.049-.501-.138-.744-.332-.926-1.207-1.54-2.188-1.54h-36.521c-.98 0-1.856.614-2.191 1.54-.102.286-.146.589-.136.885v27.249c-.013.297.034.599.136.889.335.923 1.211 1.537 2.191 1.537h36.521c.981 0 1.856-.614 2.188-1.537.074-.202.117-.413.132-.62l.003-.061.003-.037zm-2.326-3.111l-7.64-6.38-5.153-4.303 5.153-4.306 7.64-6.379v21.368zm0-24.403l-9.129 7.624-5.868 4.901c-.848.882-1.992 1.422-3.257 1.422-1.239 0-2.367-.521-3.209-1.371l-5.929-4.952-9.129-7.624h36.521zm-36.521 3.037l7.64 6.378 5.151 4.306-5.151 4.303-7.64 6.377v-21.364zm18.259 24.4h-18.259v-.001l9.129-7.624 5.508-4.6c1.085.692 2.335 1.067 3.63 1.067s2.536-.372 3.623-1.063l5.502 4.595 9.129 7.625-18.262.001z"/><path fill="#CE0067" d="M94.314-24.22l-.006.005c-.041-.576-.524-1.029-1.119-1.029-.619 0-1.121.496-1.121 1.11v23.513c-1.852-1.71-4.682-2.803-7.855-2.803-5.576 0-10.1 3.375-10.1 7.539 0 4.163 4.521 7.538 10.1 7.538 5.491 0 9.953-3.271 10.092-7.345l.01-.13v-14.845c2.381-.068 8.612.537 9.16 9.103.039.592.504 1.11 1.123 1.11.617 0 1.121-.496 1.121-1.11v-4.012c.922-17.586-10.573-11.33-11.405-18.644z"/><path fill="#CE0067" d="M145.15 58.466c-.232 0-.321.04-.517.233l-.176.199-.106.129c-.336.364-.735.656-1.192.869-.528.248-1.089.377-1.677.377-1.088 0-2.02-.38-2.762-1.125-.746-.746-1.121-1.677-1.121-2.768 0-1.093.361-2.04 1.082-2.813.715-.77 1.627-1.161 2.705-1.161.969 0 1.784.297 2.43.88.643.584.969 1.369.969 2.33 0 .665-.18 1.286-.533 1.843-.35.547-.725.827-1.123.827-.104 0-.218-.035-.218-.301l.039-.213.093-.356c.952-3.357.955-3.378.955-3.387.014-.104-.012-.195-.068-.26-.072-.081-.188-.12-.353-.115-.324.012-.445.13-.525.306l-.179.516c-.15-.282-.341-.495-.563-.636-.266-.165-.562-.249-.881-.249-.859 0-1.59.38-2.173 1.13-.54.698-.813 1.512-.813 2.421 0 .567.183 1.063.548 1.474.364.411.829.62 1.38.62.293 0 .582-.079.861-.24.23-.132.441-.287.629-.462.027.199.106.361.244.48.168.148.367.222.602.222.688 0 1.359-.33 2.004-.986.732-.744 1.105-1.662 1.105-2.727 0-1.156-.437-2.124-1.299-2.874-.859-.747-1.912-1.123-3.129-1.123-1.314 0-2.461.468-3.4 1.392-.94.923-1.42 2.067-1.42 3.396 0 1.364.479 2.523 1.42 3.449.939.924 2.107 1.394 3.472 1.394.813 0 1.587-.201 2.306-.595.654-.359 1.184-.848 1.577-1.447l.144-.244c.057-.124.029-.211-.002-.261-.062-.091-.18-.144-.335-.144zm-2.729-2.739c0 .538-.177 1.084-.528 1.623-.387.576-.817.869-1.289.869-.301 0-.535-.107-.715-.324-.188-.217-.277-.507-.277-.861 0-.555.185-1.103.551-1.634.359-.523.799-.787 1.298-.787.252 0 .472.113.667.346.194.228.293.487.293.768z"/><path fill="#CE0067" d="M146.721-16.753c-.08-.254-.332-.413-.6-.37l-4.254.646c-.186-.791-.479-1.572-.877-2.33-1.864-3.904-5.858-6.425-10.178-6.425-6.222 0-11.283 5.066-11.283 11.299 0 1.053.009 2.044.013 2.97.031 5.581.051 8.949-1.237 10.249-.484.483-1.188.71-2.215.71h-5.318c-.303 0-.545.245-.545.546 0 3.584 1.258 6.933 3.543 9.431 2.592 2.837 6.291 4.335 10.697 4.335 5.262 0 9.41-1.489 12.333-4.428 5.021-5.05 5.107-12.939 5.095-16.545l3.818.929c.258.063.525-.073.629-.318.102-.247.014-.53-.213-.674-.035-.021-3.479-2.221-3.479-4.715 0-2.691 3.761-4.639 3.799-4.656.239-.122.356-.398.272-.654zm-11.117 4.386c-1.686 0-3.051-1.367-3.051-3.055s1.365-3.056 3.051-3.056c1.684 0 3.049 1.367 3.049 3.056-.001 1.688-1.366 3.055-3.049 3.055z"/><g fill="#CE0067"><path d="M175.689 15.461h-39.401c-2.188 0-3.97 1.787-3.97 3.979v26.557c0 2.193 1.781 3.976 3.97 3.976h18.04l12.813 12.416c.228.22.528.337.832.337.161 0 .319-.031.471-.097.443-.188.73-.626.729-1.108l-.043-11.548h6.561c2.188 0 3.969-1.782 3.969-3.976v-26.558c-.003-2.191-1.782-3.978-3.971-3.978zm1.573 30.535c0 .868-.705 1.574-1.572 1.574h-7.76c-.32 0-.627.127-.852.352-.225.228-.352.534-.35.854l.037 9.904-11.117-10.771c-.225-.218-.522-.338-.834-.338h-18.526c-.865 0-1.571-.706-1.571-1.574v-26.558c0-.868.706-1.576 1.571-1.576h39.401c.867 0 1.571.708 1.571 1.576l.002 26.557zM146.063 32.025c-.592-.312-1.502-.614-2.732-.905-1.232-.292-2.008-.57-2.325-.839-.253-.211-.378-.467-.378-.764 0-.326.135-.586.4-.779.416-.303.992-.455 1.729-.455.715 0 1.249.143 1.605.426.354.282.587.745.695 1.393l2.532-.111c-.039-1.154-.457-2.077-1.253-2.769-.798-.692-1.979-1.036-3.555-1.036-.965 0-1.786.145-2.469.436-.682.292-1.201.716-1.566 1.271-.359.56-.542 1.157-.542 1.797 0 .993.386 1.837 1.155 2.526.549.493 1.5.908 2.855 1.244 1.057.262 1.732.443 2.029.548.434.154.734.337.908.545.177.206.261.46.261.758 0 .464-.205.867-.618 1.214-.414.343-1.025.517-1.845.517-.771 0-1.38-.193-1.834-.583-.451-.387-.755-.997-.9-1.825l-2.464.239c.165 1.407.671 2.477 1.521 3.21s2.066 1.102 3.654 1.102c1.088 0 1.997-.153 2.729-.459.73-.306 1.292-.772 1.691-1.398.4-.631.601-1.304.601-2.024 0-.795-.167-1.462-.501-2.001-.333-.542-.794-.966-1.383-1.278z"/></g><path fill="#CE0067" d="M115.777 65.645l.072.009c.192 0 .349-.154.349-.344v-11.635c0-.126-.071-.235-.171-.294l-.012-.008-.008-.004-.023-.011-.002-.003-.028-.011h-.009l-.023-.007-.072-.008-.011.002h-8.88l-.012-.002c-.19 0-.346.155-.346.345v9.016l-.002.034.006.073c.017.077.056.144.109.19l2.523 2.525c.061.072.145.122.24.131h6.3v.002zm-5.912-.693v-2.232c0-.109-.055-.208-.139-.272-.056-.043-.129-.067-.207-.067h-2.224v-8.354h8.205v10.927l-5.635-.002z"/><path fill="#CE0067" d="M127.068 65.382l-.002.003c-.02-.246-.227-.439-.479-.439-.267 0-.481.212-.481.475v10.081c-.793-.735-2.008-1.203-3.369-1.203-2.389 0-4.325 1.446-4.325 3.231 0 1.784 1.938 3.229 4.325 3.229 2.354 0 4.269-1.401 4.326-3.147l.004-.055v-6.363c1.021-.029 3.692.23 3.927 3.904.019.252.217.475.481.475.266 0 .481-.215.481-.475v-1.723c.396-7.538-4.53-4.856-4.888-7.993z"/><path fill="#CE0067" d="M129.73 24.969v-1.866h-1.076c-.112-.519-.314-1.003-.596-1.436l.764-.763-1.315-1.319-.764.764c-.433-.279-.914-.484-1.437-.597v-1.078h-1.857v1.078c-.518.112-1.004.317-1.436.597l-.76-.764-1.314 1.319.761.763c-.278.433-.483.917-.597 1.436h-1.076v1.866h1.076c.112.519.317 1.003.597 1.437l-.761.763 1.314 1.316.76-.763c.432.279.918.484 1.436.597v1.078h1.857v-1.078c.521-.112 1.004-.317 1.437-.597l.764.763 1.315-1.316-.764-.763c.28-.433.482-.917.596-1.437h1.076zm-2.21-.787l-.004.043-.008.104-.004.043-.018.141-.002.015-.023.122-.009.049-.021.094-.013.047c-.063.233-.151.455-.259.661l-.053.097-.012.018-.055.092-.006.009-.192.271-.012.015-.065.08-.016.018c-.096.11-.2.217-.314.313l-.018.015-.078.068-.014.009-.27.193-.014.008-.09.055-.021.013-.092.049c-.168.09-.347.165-.535.222l-.129.037-.044.012-.094.021-.047.011-.126.021-.014.003-.142.018-.04.005-.105.007-.043.005-.146.002-.146-.002-.045-.005-.104-.007-.044-.005-.142-.018-.014-.003-.122-.021-.049-.011-.093-.021-.049-.012-.127-.037c-.188-.057-.365-.132-.533-.222l-.094-.049-.021-.013-.091-.055-.01-.008-.271-.193-.015-.009-.078-.068-.021-.015c-.109-.096-.213-.202-.31-.313l-.021-.018-.063-.08-.012-.017-.19-.267-.009-.014-.053-.089-.014-.021-.05-.095c-.11-.206-.196-.428-.26-.661l-.011-.047-.021-.094-.012-.049-.021-.122-.004-.015-.016-.141-.006-.043-.008-.104-.002-.043-.004-.146.004-.146.002-.045.008-.104.006-.043.016-.139.006-.018.021-.123.012-.048.021-.092.012-.048.038-.127v-.001c.057-.187.132-.363.222-.534l.051-.094.014-.021.052-.087.009-.014.189-.27.013-.014.063-.081.017-.018c.099-.109.202-.218.313-.313l.02-.016.078-.063.015-.013.271-.194.01-.005.091-.055.021-.013.094-.051c.168-.088.347-.163.533-.223l.127-.035.049-.012.093-.021.05-.01.121-.022.014-.001.142-.018.044-.005.104-.008.045-.003.146-.004.146.004.043.003.104.008.046.005.138.018.016.001.124.022.047.01.092.021.05.012.125.035c.188.06.367.135.535.223l.092.051.021.013.09.055.012.005.271.194.014.013.078.063.019.016c.113.096.219.204.313.313l.015.018.066.081.012.014.192.27.006.014.054.087.016.022.05.092c.089.171.164.348.222.534v.001l.037.127.012.048.021.092.009.048.022.123.002.018.019.139.004.043.009.104.004.045.002.146-.003.148z"/><path fill="#CE0067" d="M133.768 91.789v-2.082h-1.201c-.123-.579-.354-1.122-.664-1.605l.852-.851-1.471-1.472-.852.851c-.481-.312-1.022-.539-1.602-.665v-1.205h-2.078v1.205c-.578.126-1.119.354-1.602.665l-.852-.851-1.468 1.472.849.851c-.312.483-.541 1.026-.666 1.605h-1.199v2.082h1.199c.125.58.354 1.122.666 1.604l-.849.85 1.468 1.474.852-.85c.481.312 1.022.538 1.602.664v1.204h2.078v-1.205c.578-.126 1.119-.354 1.602-.664l.852.85 1.471-1.474-.852-.85c.312-.481.541-1.023.664-1.604h1.201zm-2.601-.079l-.015.046-.032.114-.019.046-.055.146-.008.015-.057.129-.021.052-.047.094-.025.047c-.125.238-.273.457-.449.656l-.078.09-.02.02-.08.082-.013.009-.276.247-.015.014-.091.069-.021.015c-.136.099-.275.186-.422.262l-.025.012-.102.052-.018.009-.342.142-.017.005-.108.035-.028.007-.112.03c-.208.056-.419.091-.636.108h-.003l-.148.005-.053.002-.107-.002h-.054l-.14-.008-.018-.002-.154-.018-.051-.006-.115-.019-.047-.008-.158-.034-.157-.039-.048-.016-.11-.035-.047-.018-.147-.056-.016-.004-.128-.057-.048-.023-.098-.046-.047-.025-.131-.071c-.189-.112-.363-.237-.525-.38l-.086-.078-.019-.021-.086-.076-.011-.014-.245-.279-.013-.015-.066-.092-.018-.021c-.098-.134-.185-.274-.262-.421l-.013-.022-.051-.104-.007-.021-.141-.34-.005-.019-.036-.108-.007-.023-.032-.115c-.065-.257-.104-.52-.111-.79l-.002-.053v-.106l.002-.055.007-.139.002-.018.017-.156.008-.047.017-.117.01-.047.032-.162.043-.157.012-.045.039-.111.014-.049.055-.146.008-.018.057-.125.021-.051.049-.098.024-.047.07-.131c.111-.188.238-.361.379-.525l.08-.086.018-.021.082-.082.01-.012.279-.245.015-.011.093-.069.02-.017c.136-.097.277-.186.423-.262l.022-.014.104-.05.02-.009.342-.142.012-.003.111-.037.025-.006.113-.032c.209-.055.42-.09.637-.104l.15-.009h.215l.139.01h.018l.156.018.047.006.117.019.047.01.158.032.158.041.047.014.112.038.046.015.148.055.014.007.129.055.052.023.093.048.049.023.129.072h.004c.186.109.361.236.521.379l.088.079.018.017.086.082.009.012.248.279.011.013.069.094.013.021c.098.137.188.276.264.423l.011.021.055.104.007.015.141.347.006.017.035.11.006.024.033.113c.053.207.089.421.104.639v.001l.007.146v.217l-.01.139v.018l-.016.156-.006.049-.021.115-.009.049-.031.16-.046.155z"/><path fill="#CE0067" d="M106.42 8.58v-1.509h-.869c-.091-.419-.254-.811-.48-1.16l.617-.619-1.064-1.064-.617.614c-.349-.223-.74-.39-1.16-.479v-.874h-1.506v.873c-.419.09-.811.257-1.158.479l-.615-.614-1.068 1.065.615.619c-.227.35-.391.741-.482 1.16h-.867v1.509h.867c.092.418.258.812.482 1.161l-.615.617 1.064 1.064.615-.614c.348.226.739.39 1.158.479v.872h1.505v-.872c.421-.09.813-.254 1.161-.479l.617.614 1.064-1.064-.617-.617c.228-.35.391-.743.48-1.161h.873zm-1.789-.638l-.002.037-.006.083-.004.037-.014.111v.011l-.021.101-.009.041-.017.075-.012.037c-.05.19-.117.369-.208.538l-.04.075-.01.015-.045.073-.008.008-.152.22-.009.012-.054.063-.014.014c-.076.093-.162.177-.253.255l-.015.013-.063.053-.014.009-.216.156-.01.006-.072.043-.018.009-.074.04c-.139.075-.282.138-.434.182l-.104.031-.037.01-.076.016-.037.009-.102.018-.012.003-.113.013-.033.006-.084.005-.039.002-.116.003-.114-.003-.037-.002-.082-.005-.037-.006-.112-.013-.013-.003-.103-.018-.036-.009-.076-.016-.035-.01-.104-.031h-.002c-.15-.044-.295-.106-.432-.182l-.073-.04-.019-.009-.071-.043-.011-.006-.217-.156-.013-.009-.063-.053-.015-.013-.254-.254-.012-.015-.054-.063-.01-.012-.156-.219-.006-.01-.041-.071-.006-.019-.041-.072c-.089-.169-.161-.348-.21-.538l-.009-.037-.019-.075-.001-.041-.021-.101v-.011l-.015-.111-.002-.037-.008-.083-.002-.037-.002-.118.005-.116.002-.034.006-.086.004-.036.013-.112v-.012l.021-.101.008-.037.018-.077.01-.036.028-.103v-.003c.048-.151.106-.295.181-.433l.041-.073.012-.019.041-.07.006-.011.156-.221.008-.011.055-.063.012-.014.254-.255.014-.011.064-.053.012-.009.221-.158.008-.005.074-.046.013-.006.077-.044c.136-.071.279-.133.431-.179h.003l.104-.028.035-.009.076-.018.037-.009.103-.018.012-.002.113-.015.036-.003.082-.007.037-.002.115-.004.115.004.039.002.084.007.034.003.112.015.013.002.101.018.04.009.072.018.038.009.104.028c.15.046.295.107.434.179l.074.044.018.006.072.046.009.005.22.158.012.009.063.053.016.011.252.255.014.014.054.063.009.011.153.221.007.011.043.07.012.019.041.073c.07.138.133.281.178.433l.002.003.027.103.012.036.017.077.009.037.018.101.004.012.014.112.004.036.006.086.002.034.004.116-.019.118z"/><path fill="#CE0067" d="M144.58 113.584v-2.232h-1.288c-.133-.619-.376-1.199-.71-1.721l.911-.91-1.575-1.576-.911.91c-.517-.332-1.097-.578-1.716-.711v-1.289h-2.229v1.289c-.617.133-1.196.379-1.713.711l-.912-.91-1.574 1.576.91.91c-.33.521-.575 1.102-.711 1.721h-1.289v2.232h1.289c.136.62.381 1.199.711 1.717l-.91.914 1.574 1.576.912-.913c.517.334 1.096.577 1.713.714v1.292h2.229v-1.292c.619-.137 1.199-.38 1.716-.714l.911.913 1.575-1.576-.911-.914c.334-.518.577-1.097.71-1.717h1.288zm-2.646-.943l-.004.053-.009.127-.003.053-.021.167-.004.015-.025.15-.012.055-.026.112-.015.058c-.073.279-.179.545-.309.793l-.063.112-.016.022-.063.106-.01.015-.229.323-.013.019-.077.095-.019.022c-.117.135-.242.258-.377.375l-.021.02-.095.078-.019.013-.321.228-.016.009-.104.067-.026.015-.112.061c-.201.108-.414.198-.637.267h-.002l-.153.047-.055.012-.112.023-.055.013-.15.028-.015.002-.167.021-.053.006-.127.009-.053.006-.172.004-.175-.004-.051-.006-.127-.009-.052-.006-.168-.021-.016-.002-.15-.028-.057-.013-.109-.023-.058-.012-.151-.047h-.004c-.221-.067-.436-.157-.638-.267l-.108-.061-.026-.015-.106-.067-.015-.009-.323-.228-.015-.013-.095-.078-.022-.02c-.134-.117-.258-.24-.373-.375l-.021-.022-.077-.095-.013-.019-.23-.319-.01-.02-.064-.104-.014-.025-.061-.111c-.132-.25-.238-.515-.311-.793l-.018-.059-.021-.112-.013-.055-.026-.149-.003-.016-.023-.167-.002-.054-.013-.125v-.053l-.006-.177.006-.17v-.055l.013-.128.002-.053.023-.164.003-.02.026-.146.013-.059.021-.111.018-.056.043-.153c.068-.223.159-.438.268-.64l.061-.112.014-.022.064-.107.01-.014.23-.325.013-.016.079-.094.016-.021c.118-.137.242-.259.376-.377l.021-.02.097-.08.015-.012.325-.229.013-.007.108-.065.021-.015.112-.062c.202-.106.417-.196.638-.266h.004l.151-.043.058-.015.109-.026.057-.011.148-.025.018-.004.166-.021.054-.007.127-.009.051-.003.175-.007.172.007.053.003.127.009.053.007.167.021.019.004.146.025.056.011.112.026.055.015.153.043h.002c.222.069.436.159.637.266l.112.062.026.015.104.063.016.009.324.229.014.012.097.08.021.02c.135.118.26.24.377.377l.019.021.077.094.013.016.229.325.01.014.063.107.016.026.063.108c.105.202.193.417.266.64l.043.153.015.056.024.111.014.059.025.146.004.02.021.164.003.053.009.128.004.055.006.17-.009.178z"/><path fill="#CE0067" d="M122.813 50.159c-1.76 0-3.192-1.433-3.192-3.195v-10.102c0-2.343 1.905-4.252 4.246-4.252 2.344 0 4.247 1.909 4.247 4.252l.004 9.062c0 .294-.237.533-.536.533-.293 0-.531-.239-.534-.533l-.001-9.062c0-1.754-1.427-3.179-3.18-3.179-1.751 0-3.175 1.425-3.175 3.179v10.102c0 1.171.953 2.124 2.121 2.124 1.187 0 2.15-.947 2.15-2.117l-.009-7.844c0-.569-.463-1.03-1.031-1.03-.567 0-1.032.461-1.032 1.03l.006 6.812c0 .294-.242.535-.537.536-.293 0-.532-.242-.533-.536l-.006-6.812c0-1.16.943-2.105 2.104-2.105 1.158 0 2.104.945 2.104 2.105l.009 7.843c-.004 1.759-1.45 3.189-3.225 3.189z"/></g></svg>