<svg xmlns="http://www.w3.org/2000/svg" width="200" height="200" viewBox="-232 271 200 200" enable-background="new -232 271 200 200"><rect x="-232" y="271" fill="#D7DF23" width="200" height="200"/><path d="M-208.035 362.975l-2.516-7.352h-.106v7.352h-5.11v-18.971h9.979c.464 0 .869.176 1.218.527.348.352.522.746.522 1.187v8.221c0 .352-.12.672-.362.962-.241.29-.532.505-.87.644l2.542 7.431h-5.297zm-.67-15.546h-1.952v4.741h1.953l-.001-4.741zM-192.062 362.975h-7.465v-18.971h7.465l.857 3.425h-3.184v3.821h3.049v3.427h-3.049v4.874h3.184l-.857 3.424zM-179.565 362.975l-.293-1.317-.055-.053h-3.264c0 .02-.108.477-.321 1.372h-5.217l3.719-15.545h-1.739l.803-3.426h7.037l4.549 18.971h-5.22v-.002zm-1.98-8.221l-.829 3.426h1.658l-.829-3.426zM-159.041 361.261c0 .458-.183.858-.549 1.201-.366.343-.771.513-1.217.513h-10.328v-18.971h10.328c.445 0 .852.176 1.217.527.367.352.549.746.549 1.187v15.543zm-5.138-13.832h-1.846v12.121h1.846v-12.121zM-148.367 362.975h-7.464v-18.971h7.464l.858 3.425h-3.184v3.821h3.05v3.427h-3.05v4.874h3.184l-.858 3.424zM-136.564 362.975l-2.516-7.352h-.106v7.352h-5.11v-18.971h9.98c.464 0 .869.176 1.217.527.349.352.523.746.523 1.187v8.221c0 .352-.12.672-.362.962-.241.29-.532.505-.871.644l2.542 7.431h-5.297zm-.669-15.546h-1.953v4.741h1.953v-4.741zM-122.516 347.429v3.82h2.676c.445 0 .853.172 1.218.515.366.342.55.733.55 1.172v8.325c0 .458-.186.858-.55 1.201-.365.343-.77.513-1.218.513h-7.386l-.828-3.425h4.843v-4.874h-2.675c-.447 0-.848-.182-1.205-.541-.358-.358-.535-.759-.535-1.199v-7.22c0-.439.176-.834.535-1.187.357-.35.758-.525 1.205-.525h7.625l.803 3.425h-5.058z"/><g fill="#fff"><rect x="-218.454" y="283.777" width="16.611" height="16.344"/><rect x="-183.486" y="283.777" width="16.614" height="16.344"/><rect x="-131.045" y="283.777" width="16.617" height="16.344"/><rect x="-200.976" y="300.991" width="16.608" height="16.348"/><rect x="-183.486" y="300.991" width="16.614" height="16.348"/><rect x="-148.518" y="300.991" width="16.604" height="16.348"/><rect x="-78.589" y="300.991" width="16.62" height="16.348"/><rect x="-218.454" y="318.202" width="16.611" height="16.364"/><rect x="-183.486" y="318.202" width="16.614" height="16.364"/><rect x="-148.518" y="318.202" width="16.604" height="16.364"/><rect x="-131.045" y="318.202" width="16.617" height="16.364"/><rect x="-96.078" y="318.202" width="16.616" height="16.364"/><rect x="-61.108" y="318.202" width="16.61" height="16.364"/><rect x="-113.558" y="335.414" width="16.6" height="16.368"/><rect x="-96.078" y="335.414" width="16.616" height="16.368"/><rect x="-96.078" y="352.626" width="16.616" height="16.359"/><rect x="-78.589" y="352.626" width="16.62" height="16.359"/><rect x="-61.108" y="352.626" width="16.61" height="16.359"/><rect x="-200.976" y="369.841" width="16.608" height="16.36"/><rect x="-183.486" y="369.841" width="16.614" height="16.36"/><rect x="-166" y="369.841" width="16.6" height="16.36"/><rect x="-96.078" y="369.841" width="16.616" height="16.36"/><rect x="-61.108" y="369.841" width="16.61" height="16.36"/><rect x="-218.454" y="387.062" width="16.611" height="16.354"/><rect x="-200.976" y="387.062" width="16.608" height="16.354"/><rect x="-148.518" y="387.062" width="16.604" height="16.354"/><rect x="-131.045" y="387.062" width="16.617" height="16.354"/><rect x="-78.589" y="387.062" width="16.62" height="16.354"/><rect x="-61.108" y="387.062" width="16.61" height="16.354"/><rect x="-218.454" y="404.284" width="16.611" height="16.345"/><rect x="-183.486" y="404.284" width="16.614" height="16.345"/><rect x="-166" y="404.284" width="16.6" height="16.345"/><rect x="-148.518" y="404.284" width="16.604" height="16.345"/><rect x="-113.558" y="404.284" width="16.6" height="16.345"/><rect x="-78.589" y="404.284" width="16.62" height="16.345"/><rect x="-218.454" y="421.498" width="16.611" height="16.362"/><rect x="-200.976" y="421.498" width="16.608" height="16.362"/><rect x="-166" y="421.498" width="16.6" height="16.362"/><rect x="-148.518" y="421.498" width="16.604" height="16.362"/><rect x="-131.045" y="421.498" width="16.617" height="16.362"/><rect x="-113.558" y="421.498" width="16.6" height="16.362"/><rect x="-96.078" y="421.498" width="16.616" height="16.362"/><rect x="-78.589" y="421.498" width="16.62" height="16.362"/><rect x="-218.454" y="438.708" width="16.611" height="16.366"/><rect x="-200.976" y="438.708" width="16.608" height="16.366"/><rect x="-183.486" y="438.708" width="16.614" height="16.366"/><rect x="-166" y="438.708" width="16.6" height="16.366"/><rect x="-148.518" y="438.708" width="16.604" height="16.366"/><rect x="-113.558" y="438.708" width="16.6" height="16.366"/><rect x="-96.078" y="438.708" width="16.616" height="16.366"/><rect x="-78.589" y="438.708" width="16.62" height="16.366"/><rect x="-61.108" y="438.708" width="16.61" height="16.366"/></g></svg>