<svg xmlns="http://www.w3.org/2000/svg" xmlns:xlink="http://www.w3.org/1999/xlink" width="200" height="200" viewBox="-232.5 270.5 200 200" enable-background="new -232.5 270.5 200 200"><defs><rect id="a" x="-232.5" y="270.5" width="200" height="200"/></defs><clipPath id="b"><use xlink:href="#a" overflow="visible"/></clipPath><rect x="-232.5" y="270.5" clip-path="url(#b)" stroke="#000" stroke-width="1.355" stroke-miterlimit="10" width="200" height="200"/><defs><rect id="c" x="-232.5" y="270.5" width="200" height="200"/></defs><clipPath id="d"><use xlink:href="#c" overflow="visible"/></clipPath><g clip-path="url(#d)"><path fill="#EE2A7B" d="M-63.824 372.798c0 56.951-46.872 103.122-104.706 103.122-57.823 0-104.689-46.171-104.689-103.122 0-56.923 46.866-103.093 104.689-103.093 57.835 0 104.706 46.17 104.706 103.093z"/><path fill="#D7DF23" d="M-91.495 372.801c0 41.899-34.482 75.867-77.032 75.867-42.543 0-77.021-33.968-77.021-75.867 0-41.88 34.479-75.847 77.021-75.847 42.552 0 77.032 33.967 77.032 75.847z"/><path fill="#fff" d="M-104.546 372.805c0 34.802-28.639 63.019-63.983 63.019-35.339 0-63.976-28.217-63.976-63.019 0-34.787 28.636-63 63.976-63 35.344 0 63.983 28.213 63.983 63z"/><path fill="#E2231A" d="M-129.23 372.808c0 21.377-17.59 38.706-39.3 38.706-21.705 0-39.294-17.329-39.294-38.706 0-21.367 17.589-38.695 39.294-38.695 21.71-.001 39.3 17.327 39.3 38.695z"/><ellipse fill="#fff" cx="-168.527" cy="372.813" rx="15.704" ry="15.465"/></g><g fill="#fff"><path d="M-91.931 452.497l-.002 3.029 2.134.001c.181 0 .354.039.517.117s.311.178.44.302c.133.126.24.271.317.431.078.158.117.327.117.506l-.006 6.629c0 .179-.04.348-.119.508-.08.161-.184.304-.317.428-.132.123-.279.226-.442.302-.163.076-.333.116-.515.116l-5.882-.006-.648-2.727 3.852.004.005-3.884-2.135-.001c-.181 0-.352-.039-.517-.117-.161-.076-.307-.181-.431-.313-.127-.13-.23-.276-.31-.436-.078-.162-.115-.33-.115-.509l.005-5.756c0-.176.038-.347.119-.507.079-.16.181-.303.308-.428.128-.126.27-.225.433-.302.164-.079.336-.115.516-.115l6.062.005.632 2.726-4.018-.003zM-76.148 463.523c0 .179-.04.348-.117.508-.08.161-.184.304-.317.427-.134.125-.28.226-.444.303-.161.078-.334.116-.514.116l-6.841-.007c-.182 0-.352-.039-.517-.117-.161-.077-.307-.177-.432-.303-.126-.125-.229-.267-.309-.428-.078-.16-.115-.33-.115-.508l.012-12.385c0-.176.039-.347.119-.507.08-.16.181-.303.309-.427.125-.124.269-.226.432-.303.164-.077.336-.115.516-.115l6.841.005c.182 0 .352.039.515.118.165.077.312.179.444.303.134.125.239.269.317.427.076.163.116.331.116.51l-.015 12.383zm-4.077-11.015l-1.466-.002-.009 9.64 1.466.003.009-9.641zM-72.602 464.882c-.18 0-.352-.038-.516-.117-.163-.076-.307-.177-.432-.304-.128-.124-.23-.267-.309-.427-.08-.16-.116-.329-.116-.508l.012-12.384c0-.179.038-.347.119-.508.079-.16.183-.303.308-.428.128-.125.272-.225.433-.302.164-.077.336-.117.516-.117l5.917.007-.002 2.726-3.22-.002-.011 9.64 3.221.003-.002 2.728-5.918-.007zM-64.512 464.891l.014-15.092 4.089.004-.015 15.091-4.088-.003zM-50.979 464.901l-.236-1.05-.036-.035-2.604-.003c0-.012-.087.351-.254 1.088l-4.144-.005 2.961-12.362h-1.375l.637-2.726 5.589.005 3.606 15.096-4.144-.008zm-1.57-6.539l-.653 2.726h1.322l-.669-2.726zM-38.765 464.916l-5.897-.005.013-15.093 4.07.004-.012 12.366 2.478.003-.652 2.725z"/></g></svg>