<svg xmlns="http://www.w3.org/2000/svg" xmlns:xlink="http://www.w3.org/1999/xlink" width="200" height="200" viewBox="-232 270.5 200 200" enable-background="new -232 270.5 200 200"><defs><rect id="a" x="-232" y="270.5" width="200" height="200"/></defs><clipPath id="b"><use xlink:href="#a" overflow="visible"/></clipPath><rect x="-232" y="270.5" clip-path="url(#b)" fill="#EE2A7B" width="200" height="200"/><defs><rect id="c" x="-232" y="270.5" width="200" height="200"/></defs><clipPath id="d"><use xlink:href="#c" overflow="visible"/></clipPath><path clip-path="url(#d)" fill="#010101" d="M-84.077 430.832c-13.562-4.781-23.263-8.951-44.925-20.326-.291-3.333-.356-7.19-.201-11.508 4.49-4.749 8.045-11.14 11.434-20.594.271.055.54.082.799.082 6.185 0 8.171-14.362 8.512-17.243.577-4.976.465-10.22-3.964-12.854 1.296-7.276 4.33-18.434 7.21-23.004 7.039-11.16-14.926-31.886-21.164-32.528-1.165-.119-2.255 7.021-6.965 13.748-2.925 4.179 4.033-10.707 4.454-16.369-2.151-.38-12.49-8.346-16.549-9.205-1.518 4.209-2.688 15.51-5.396 23.017.543-1.818-1.101-23.432-2.78-22.755-8.133 3.269-20.167 10.698-29.747 18.542-.705.583 4.932 13.873 4.255 14.456-.765.65-7.83-11.402-8.546-10.752-7.47 6.809-12.362 13.496-10.59 17.653 4.639 10.835 6.824 19.396 7.922 26.971-4.821 2.555-4.96 7.962-4.361 13.079.334 2.883 2.322 17.244 8.502 17.244.266 0 .535-.027.806-.084 3.387 9.454 6.942 15.848 11.432 20.596.178 4.938.064 9.268-.331 12.896-19.832 10.336-29.28 14.356-42.276 18.939-20.095 7.077-19.043 21.552-19.043 21.552v21.914h77.184l2.309-24.196-6.507-9.802 10.457-9.759.495.057.081.008.075-.008.205-.023 10.425 9.725-6.51 9.802 2.313 24.195h80.02v-21.914c.001 0 1.052-14.475-19.035-21.552zm-67.492-1.978c-16.923-1.462-20.585-14.994-20.956-16.572.427-3.83.546-8.428.348-13.677l-.013-.332-.229-.237c-4.547-4.711-8.115-11.188-11.559-20.999l-.311-.886-.875.369c-.351.146-.689.221-1.011.221-3.378 0-5.86-8.14-6.743-15.695-.878-7.494.686-10.896 5.553-12.145l.575-.149.086-.578c2.993-21.261 7.704-38.888 35.124-39.193 27.444.308 32.155 17.933 35.149 39.193l.084.578.575.149c4.873 1.248 6.428 4.65 5.555 12.145-.883 7.556-3.364 15.695-6.75 15.695-.316 0-.654-.074-1.003-.221l-.878-.369-.308.886c-3.446 9.812-7.014 16.288-11.561 21l-.23.236-.012.332c-.196 5.243-.084 9.84.351 13.672-.366 1.456-4.188 15.126-20.961 16.577z"/><defs><rect id="e" x="-232" y="270.5" width="200" height="200"/></defs><clipPath id="f"><use xlink:href="#e" overflow="visible"/></clipPath><g clip-path="url(#f)" fill="#D7DF23"><path d="M-150.856 362.479c-.251.226-.508.337-.768.337h-3.383c-.24 0-.464-.087-.676-.261-.21-.172-.343-.371-.401-.597-.068.226-.208.425-.418.597-.21.174-.43.261-.657.261h-3.399c-.285 0-.54-.111-.768-.337-.228-.256-.343-.515-.343-.774v-11h3.281v9.824h.667v-9.824h3.262v9.824h.684v-9.824h3.263v11c-.003.26-.116.519-.344.774zM-143.698 362.816h-4.768v-12.111h4.768l.546 2.186h-2.032v2.439h1.947v2.188h-1.947v3.11h2.032l-.546 2.188zM-135.718 362.816l-.19-.841-.033-.033h-2.084l-.204.874h-3.332l2.375-9.926h-1.109l.513-2.186h4.492l2.904 12.111h-3.332zm-1.266-5.248l-.529 2.188h1.058l-.529-2.188zM-125.401 362.816l-1.608-4.693h-.066v4.693h-3.264v-12.111h6.373c.295 0 .556.11.776.335.222.225.334.476.334.757v5.248c0 .225-.079.427-.232.613-.152.185-.339.323-.555.412l1.622 4.745-3.38.001zm-.427-9.925h-1.247v3.028h1.247v-3.028zM-114.125 362.816l-.19-.841-.032-.033h-2.085l-.204.874h-3.33l2.374-9.926h-1.111l.515-2.186h4.491l2.905 12.111h-3.333zm-1.265-5.248l-.531 2.188h1.058l-.527-2.188zM-101.245 361.722c0 .292-.114.549-.341.765-.229.221-.49.329-.787.329h-6.373v-12.112h6.373c.297 0 .558.107.787.324.227.221.341.478.341.768v3.381c0 .339-.268.736-.805 1.197.537.381.805.762.805 1.145v4.203zm-2.972-8.831h-1.247v2.439h1.247v-2.439zm0 4.627h-1.247v3.113h1.247v-3.113zM-94.462 362.816h-4.733v-12.111h3.281v9.926h1.98l-.528 2.185zM-87.117 362.816h-4.767v-12.111h4.767l.545 2.186h-2.031v2.439h1.947v2.188h-1.947v3.11h2.031l-.545 2.188zM-74.031 352.891v9.926h-3.279v-9.926h-1.999l.546-2.186h6.202l.529 2.186h-1.999zM-65.215 362.816h-4.768v-12.111h4.768l.546 2.186h-2.032v2.439h1.948v2.188h-1.948v3.11h2.032l-.546 2.188zM-61.506 362.816c-.285 0-.541-.109-.769-.329-.228-.217-.342-.474-.342-.764v-9.927c0-.281.114-.53.342-.756.228-.224.483-.336.769-.336h4.747v2.188h-2.58v7.739h2.58v2.185h-4.747zM-50.268 362.816v-6.409h-1.176v6.409h-3.266v-12.111h3.266v3.498h1.176v-3.498h3.282v12.111h-3.282z"/></g><defs><rect id="g" x="-232" y="270.5" width="200" height="200"/></defs><clipPath id="h"><use xlink:href="#g" overflow="visible"/></clipPath><path clip-path="url(#h)" fill="#D7DF23" d="M-192.48 366.173s3.552-12.394 12.819-9.139c.271.097.547.204.831.328h12.398v-7.57h50.69v-2.01h-71.248s-9.103 5.871-8.004 10.507c1.098 4.639 2.514 7.884 2.514 7.884z"/></svg>