<svg xmlns="http://www.w3.org/2000/svg" xmlns:xlink="http://www.w3.org/1999/xlink" width="200" height="200" viewBox="-232.5 270.5 200 200" enable-background="new -232.5 270.5 200 200"><rect x="-232.5" y="270.5" fill="#F15A29" width="200" height="200"/><path stroke="#000" stroke-width="1.355" stroke-miterlimit="10" d="M-89.81 402.746c-.669-7.313-3.676-14.461-5.947-18.977-1.479-2.944-2.649-4.785-2.649-4.785-8.324-10.352-4.719-26.545-4.719-26.545 3.331-9.294 0-10.618 0-10.618-6.38-1.859-10.459 14.045-14.155 18.58-11.533 14.171-8.779-1.699-8.041-3.714 7.599-20.732 7.292-28.933 4.717-38.232-9.043-32.646-22.2-24.949-22.2-24.949 8.045 26.011 1.519 37.431 1.519 37.431-11.242 37.696-25.938 10.888-25.938 10.888-19.987-23.631-15.587-10.872-13.877-7.434 9.022 18.174-5.83 46.457-5.83 46.457-19.947 38.663 17.197 59.046 22.21 61.578l.552.273c7.49 2.389 5.265-2.123 5.265-2.123-.626-.349-1.193-.701-1.733-1.063-11.874-7.918-3.171-18.973-.143-24.323 2.356-4.166 1.668-15.429 1.668-15.429 6.24-1.793 5.83 17.021 5.83 17.021 7.802 1.492 2.083-23.098 2.083-23.098-1.673-9.953 7.696-19.507 7.696-19.507 3.952-2.495 1.141 5.667 1.141 5.667-2.284 17.126 11.031 29.171 11.031 29.171 1.875-2.292 2.818-10.255 2.818-10.255 3.119 3.249 5.648 6.218 7.682 8.944 10.406 13.998 7.49 21.604 1.882 27.292-13.223 13.422-10.816 11.152-10.816 11.152 41.625-3.585 39.954-43.402 39.954-43.402z"/><defs><rect id="a" x="459.552" y="-.137" width="146.558" height="148.827"/></defs><clipPath id="b"><use xlink:href="#a" overflow="visible"/></clipPath><g clip-path="url(#b)" fill="#CE0067"><path d="M94.314 130.78l-.006.005c-.041-.576-.524-1.029-1.119-1.029-.619 0-1.121.496-1.121 1.11v23.513c-1.852-1.71-4.682-2.803-7.855-2.803-5.576 0-10.1 3.375-10.1 7.539 0 4.162 4.521 7.537 10.1 7.537 5.491 0 9.953-3.271 10.092-7.344l.01-.131v-14.845c2.381-.067 8.612.537 9.16 9.103.039.592.504 1.11 1.123 1.11.617 0 1.121-.496 1.121-1.11v-4.012c.922-17.585-10.573-11.329-11.405-18.643zM129.02 43.747c0-15.162-12.315-27.5-27.451-27.5-15.139 0-27.453 12.338-27.453 27.5s12.314 27.499 27.453 27.499c15.134 0 27.451-12.337 27.451-27.499zm-50.927 1.95h8.277c.196 2.847.716 5.681 1.563 8.442h-7.516c-1.271-2.586-2.078-5.436-2.324-8.442zm46.946-3.898h-8.219c-.104-2.96-.562-5.909-1.371-8.768h7.101c1.363 2.67 2.232 5.632 2.489 8.768zm-12.109 0h-9.418v-8.768h7.871c.912 2.846 1.43 5.794 1.547 8.768zm-9.418-12.666v-8.9l.114.011c2.632 2.659 4.705 5.67 6.222 8.89l-6.336-.001zm-3.892-8.901v8.9h-6.343c1.518-3.22 3.59-6.229 6.219-8.89l.124-.01zm0 12.799v8.768h-9.427c.119-2.974.636-5.922 1.55-8.768h7.877zm-13.315 8.768h-8.212c.257-3.136 1.128-6.098 2.49-8.768h7.094c-.811 2.859-1.267 5.808-1.372 8.768zm3.963 3.898h9.354v8.442h-7.596c-.952-2.745-1.54-5.587-1.758-8.442zm9.352 12.34v8.488c-2.474-2.576-4.462-5.445-5.968-8.488h5.968zm3.892 0h5.959c-1.5 3.038-3.486 5.906-5.959 8.479v-8.479zm0-3.897v-8.442h9.346c-.219 2.854-.806 5.696-1.756 8.442h-7.59zm13.243-8.443h8.284c-.245 3.006-1.053 5.854-2.325 8.442h-7.521c.847-2.761 1.366-5.595 1.562-8.442zm3.294-16.564h-5.951c-1.068-2.602-2.445-5.1-4.142-7.434 4 1.532 7.478 4.127 10.093 7.434zm-26.882-7.431c-1.694 2.336-3.073 4.831-4.14 7.431h-5.941c2.612-3.306 6.084-5.897 10.081-7.431zm-10.336 36.335h6.535c1.231 2.844 2.825 5.573 4.79 8.108-4.545-1.511-8.476-4.37-11.325-8.108zm26.135 8.111c1.968-2.536 3.562-5.265 4.791-8.111h6.548c-2.855 3.738-6.789 6.603-11.339 8.111zM84.671-5.269c-.567 0-1.026.45-1.026 1.005 0 .557.459 1.009 1.026 1.009 5.224 0 9.47 4.249 9.47 9.475 0 .556.461 1.009 1.026 1.009.567 0 1.028-.453 1.028-1.009 0-6.337-5.17-11.489-11.524-11.489zM90.107 6.22c0 .556.459 1.009 1.026 1.009s1.027-.453 1.027-1.009c0-4.218-3.358-7.646-7.491-7.646-.566 0-1.025.45-1.025 1.005 0 .558.459 1.009 1.025 1.009 3-.001 5.438 2.525 5.438 5.632zM91.248 9.466c-.549-.553-1.331-.631-1.777-.182l-1.512 1.508-8.07-8.083 1.607-1.641c.447-.45.369-1.231-.182-1.782l-2.526-2.526c-.548-.552-1.331-.631-1.778-.183l-1.896 1.922c-1.238 1.239-1.336 3.036-.238 4.732 3.771 5.823 6.912 8.888 12.561 12.582 1.623 1.06 3.486 1.001 4.727-.241l1.794-1.798c.446-.446.366-1.23-.183-1.778l-2.527-2.53zM91.34 76.268c.385-3.594-5.191-3.486-5.302 1.555 0 0-.164 3.283.719 8.802l-7.642.067c-3.332.055-4.245 1.994-4.252 4.485-.006.791.015 1.544.043 2.269-.487.64-.793 1.539-.793 2.537 0 1.388.582 2.578 1.425 3.142.065.356.136.703.211 1.043-.031.224-.05.454-.05.688 0 1.156.39 2.188 1.002 2.879.287.914.594 1.807.91 2.699.588 1.647 4.546 3.369 7.449 3.149l16.61-.044 2.937-13.871c-13.341-6.246-13.267-19.4-13.267-19.4z"/><polygon points="106.262,96.074 103.383,110.287 106.721,110.968 109.598,96.75"/><path d="M146.721 138.247c-.08-.254-.332-.413-.6-.37l-4.254.646c-.186-.791-.479-1.572-.877-2.33-1.864-3.904-5.858-6.426-10.178-6.426-6.222 0-11.283 5.066-11.283 11.299 0 1.054.009 2.045.013 2.971.031 5.581.051 8.949-1.237 10.249-.484.483-1.188.71-2.215.71h-5.318c-.303 0-.545.245-.545.546 0 3.584 1.258 6.933 3.543 9.431 2.592 2.838 6.291 4.336 10.697 4.336 5.262 0 9.41-1.49 12.333-4.429 5.021-5.05 5.107-12.938 5.095-16.545l3.818.929c.258.063.525-.072.629-.317.102-.247.014-.53-.213-.675-.035-.021-3.479-2.221-3.479-4.715 0-2.69 3.761-4.639 3.799-4.656.239-.122.356-.398.272-.654zm-11.117 4.386c-1.686 0-3.051-1.367-3.051-3.055s1.365-3.057 3.051-3.057c1.684 0 3.049 1.367 3.049 3.057-.001 1.688-1.366 3.055-3.049 3.055zM131.577 97.09c-.747.749-.761 1.947-.029 2.68s1.929.722 2.677-.028c6.873-6.884 18.047-6.888 24.914-.013.731.732 1.93.72 2.676-.027.748-.75.76-1.948.026-2.682-8.323-8.336-21.902-8.308-30.264.07zM136.626 102.146c-.749.75-.761 1.947-.028 2.683.729.729 1.93.717 2.676-.03 3.945-3.951 10.476-3.841 14.557.249.732.732 1.929.718 2.676-.028.748-.75.76-1.949.029-2.684-5.543-5.55-14.473-5.634-19.91-.19zM143.895 106.27c-1.559 1.562-1.563 4.086-.01 5.64 1.553 1.556 4.07 1.553 5.629-.009 1.557-1.56 1.56-4.082.008-5.637-1.553-1.556-4.074-1.553-5.627.006zM166.393 83.134h-39.394c-1.558 0-2.822 1.267-2.822 2.824v39.209c0 1.558 1.265 2.823 2.822 2.823h39.394c1.56 0 2.819-1.266 2.819-2.823v-39.209c0-1.56-1.261-2.824-2.819-2.824zm-24.968 40.466h-4.688c-.496 0-.899-.404-.899-.906 0-.498.403-.899.899-.899h4.688c.496 0 .897.401.897.899 0 .499-.401.906-.897.906zm8.11-.569c0 1.387-1.122 2.509-2.503 2.509h-.675c-1.381 0-2.502-1.122-2.502-2.509v-.676c0-1.385 1.121-2.506 2.502-2.506h.675c1.381 0 2.503 1.121 2.503 2.506v.676zm7.119.569h-4.687c-.499 0-.901-.404-.901-.906 0-.498.402-.899.901-.899h4.687c.5 0 .9.401.9.899.003.499-.4.906-.9.906zm8.614-5.746h-37.143v-30.73h37.143v30.73zM140.061 62.707v-2.688h-1.552c-.163-.75-.457-1.447-.858-2.073l1.097-1.099-1.897-1.9-1.097 1.099c-.623-.401-1.319-.695-2.065-.859v-1.554h-2.689v1.554c-.747.164-1.443.458-2.066.859l-1.098-1.099-1.896 1.9 1.096 1.099c-.398.626-.694 1.323-.857 2.073h-1.551v2.688h1.551c.163.747.459 1.447.857 2.07l-1.096 1.099 1.896 1.901 1.098-1.1c.623.4 1.319.698 2.066.859v1.555h2.688v-1.555c.744-.161 1.441-.459 2.064-.859l1.098 1.1 1.896-1.901-1.096-1.099c.4-.623.695-1.323.857-2.07h1.554zm-3.192-1.137l-.004.063-.012.153-.006.061-.025.204-.002.021-.033.179-.018.066-.028.134-.017.07c-.09.335-.217.655-.373.955l-.074.134-.019.03-.075.127-.009.016c-.086.138-.181.268-.28.392l-.014.022-.095.113-.021.025c-.143.162-.295.314-.453.453l-.025.022-.115.094-.021.017-.389.277-.018.009-.128.078-.03.019-.133.073c-.246.129-.503.238-.77.32h-.004l-.186.054-.066.016-.133.031-.068.015-.18.033-.02.003-.202.026-.062.006-.152.012-.063.001-.208.006-.21-.006-.063-.001-.149-.012-.062-.006-.203-.026-.019-.003-.181-.033-.066-.015-.137-.031-.064-.016-.188-.054c-.269-.082-.526-.191-.772-.32l-.131-.073-.027-.019-.131-.078-.018-.009-.389-.277-.021-.017-.113-.094-.027-.022c-.158-.139-.309-.291-.449-.45l-.023-.028-.093-.113-.017-.022c-.1-.124-.189-.254-.276-.387l-.01-.021-.077-.126-.018-.031-.073-.134c-.16-.3-.285-.62-.374-.955l-.018-.07-.029-.134-.014-.066-.035-.179-.002-.021-.026-.204-.005-.061-.012-.153-.004-.063-.006-.208.006-.21.004-.063.012-.152.005-.062.026-.199.002-.025.035-.176.014-.069.029-.133.018-.069.053-.184v-.001c.083-.269.19-.527.321-.772l.073-.135.015-.027.08-.129.009-.018.277-.39.017-.021.095-.112.021-.027c.141-.16.291-.314.452-.454l.024-.022.113-.093.021-.017c.125-.099.256-.191.392-.277l.015-.011.131-.078.027-.016.131-.074c.246-.129.506-.239.772-.32l.185-.054.068-.018.134-.03.069-.014.178-.031.021-.004.201-.027.063-.004.15-.012.063-.003.21-.008.208.008.064.003.152.012.063.004.199.027.021.004.18.031.067.014.133.03.069.018.183.054h.005c.266.081.521.191.769.32l.133.074.03.016.128.075.015.014c.139.086.268.179.393.277l.021.017.115.093.022.022c.161.14.313.294.455.454l.021.027.095.112.013.019.281.39.01.02.074.127.018.029.074.135c.129.245.237.502.32.772v.001l.053.184.018.069.029.133.017.069.032.176.002.025.025.199.006.062.012.152.005.063.005.21-.004.208zM146.768 75.902c-.277 0-.379.047-.615.275l-.207.238-.133.152c-.397.433-.873.779-1.416 1.035-.627.295-1.301.446-1.996.446-1.295 0-2.402-.452-3.289-1.337-.885-.889-1.334-1.996-1.334-3.297 0-1.3.434-2.426 1.287-3.345.854-.918 1.939-1.385 3.225-1.385 1.148 0 2.119.354 2.889 1.049.768.695 1.156 1.627 1.156 2.774 0 .79-.216 1.529-.637 2.192-.413.652-.864.982-1.34.982-.121 0-.258-.039-.258-.356l.047-.253.11-.422c1.134-3.997 1.138-4.023 1.138-4.031.017-.128-.015-.236-.082-.312-.086-.099-.228-.145-.418-.139-.387.012-.531.153-.627.363l-.213.614c-.179-.334-.402-.588-.674-.756-.314-.196-.664-.295-1.045-.295-1.021 0-1.893.451-2.584 1.34-.645.833-.971 1.804-.971 2.884 0 .678.218 1.268.65 1.756.434.49.985.74 1.645.74.346 0 .691-.098 1.023-.291.276-.15.526-.34.75-.551.031.241.129.434.291.576.196.174.437.266.715.266.818 0 1.621-.396 2.387-1.174.873-.888 1.316-1.98 1.316-3.25 0-1.377-.521-2.529-1.547-3.42-1.023-.889-2.277-1.34-3.725-1.34-1.566 0-2.928.557-4.051 1.658-1.121 1.103-1.687 2.463-1.687 4.042 0 1.625.563 3.005 1.687 4.106 1.123 1.101 2.51 1.658 4.133 1.658.968 0 1.891-.236 2.744-.705.779-.429 1.412-1.009 1.88-1.727l.17-.292c.069-.146.035-.246-.003-.31-.069-.096-.211-.158-.391-.158zm-3.248-3.26c0 .638-.215 1.29-.635 1.931-.455.686-.973 1.034-1.535 1.034-.354 0-.634-.127-.851-.385-.22-.259-.329-.604-.329-1.025 0-.659.221-1.317.656-1.948.43-.62.949-.936 1.544-.936.299 0 .563.134.797.41.231.274.353.583.353.919zM146.178 18.856c-.785 0-1.076.133-1.738.781-.101.093-.349.389-.586.67l-.371.44c-1.131 1.215-2.479 2.201-4.012 2.925-1.777.84-3.678 1.264-5.65 1.264-3.668 0-6.801-1.271-9.307-3.782-2.507-2.512-3.779-5.649-3.779-9.329 0-3.683 1.226-6.867 3.646-9.471 2.415-2.599 5.485-3.914 9.124-3.914 3.251 0 5.999.999 8.176 2.966 2.168 1.961 3.27 4.604 3.27 7.853 0 2.237-.604 4.326-1.797 6.206-1.174 1.843-2.446 2.782-3.791 2.782-.34 0-.734-.117-.734-1.014 0-.163.041-.401.132-.717l.318-1.189c3.207-11.317 3.213-11.393 3.218-11.412.043-.36-.038-.663-.232-.883-.242-.273-.644-.409-1.184-.39-1.096.037-1.502.438-1.775 1.03-.043.089-.371 1.058-.602 1.738-.504-.949-1.141-1.669-1.902-2.146-.888-.553-1.881-.833-2.959-.833-2.896 0-5.357 1.276-7.316 3.798-1.821 2.354-2.747 5.1-2.747 8.159 0 1.915.622 3.584 1.84 4.972 1.229 1.387 2.799 2.088 4.659 2.088.979 0 1.955-.271 2.898-.813.78-.438 1.491-.962 2.121-1.561.094.68.367 1.223.822 1.628.561.494 1.24.745 2.025.745 2.313 0 4.582-1.119 6.75-3.322 2.474-2.507 3.729-5.601 3.729-9.188 0-3.904-1.476-7.161-4.385-9.684-2.896-2.515-6.438-3.793-10.534-3.793-4.434 0-8.289 1.581-11.463 4.694-3.173 3.116-4.777 6.968-4.777 11.44 0 4.596 1.604 8.506 4.777 11.62 3.174 3.115 7.102 4.694 11.693 4.694 2.738 0 5.354-.671 7.77-1.997 2.207-1.211 3.995-2.853 5.318-4.884.117-.188.441-.734.48-.82.192-.411.102-.704-.011-.877-.196-.298-.603-.474-1.114-.474zm-9.196-9.231c0 1.809-.603 3.65-1.793 5.466-1.289 1.939-2.75 2.924-4.342 2.924-1.006 0-1.795-.354-2.41-1.087-.619-.732-.931-1.708-.931-2.904 0-1.866.626-3.724 1.856-5.51 1.217-1.756 2.688-2.649 4.369-2.649.851 0 1.59.378 2.252 1.159.665.779.999 1.653.999 2.601zM91.423 125.73c-.471 0-.646.076-1.043.468l-.348.401-.226.264c-.675.729-1.48 1.318-2.4 1.75-1.063.505-2.2.756-3.379.756-2.199 0-4.073-.762-5.574-2.264-1.499-1.502-2.26-3.381-2.26-5.584s.731-4.109 2.181-5.666c1.446-1.559 3.286-2.348 5.461-2.348 1.946 0 3.592.6 4.896 1.778 1.297 1.171 1.955 2.755 1.955 4.698 0 1.339-.362 2.59-1.074 3.715-.701 1.104-1.467 1.664-2.27 1.664-.203 0-.439-.069-.439-.604 0-.098.024-.241.078-.432l.191-.711c1.919-6.773 1.922-6.817 1.928-6.831.024-.217-.023-.396-.142-.53-.146-.164-.385-.243-.708-.231-.654.021-.898.263-1.063.615-.026.055-.225.637-.361 1.041-.301-.564-.682-.998-1.139-1.281-.531-.332-1.127-.502-1.771-.502-1.734 0-3.207.768-4.381 2.275-1.092 1.407-1.643 3.055-1.643 4.885 0 1.145.371 2.146 1.101 2.975.735.83 1.675 1.25 2.788 1.25.585 0 1.171-.162 1.734-.485.469-.265.894-.577 1.271-.935.053.406.218.731.488.976.338.296.744.444 1.217.444 1.384 0 2.742-.67 4.04-1.987 1.479-1.5 2.229-3.354 2.229-5.503 0-2.334-.883-4.285-2.623-5.794-1.734-1.506-3.854-2.271-6.307-2.271-2.652 0-4.96.943-6.859 2.81-1.898 1.866-2.861 4.171-2.861 6.848 0 2.751.963 5.093 2.861 6.956 1.899 1.864 4.25 2.811 6.996 2.811 1.641 0 3.207-.399 4.653-1.195 1.321-.725 2.392-1.708 3.185-2.924l.289-.49c.114-.245.057-.422-.007-.523-.114-.183-.358-.289-.664-.289zm-5.505-5.525c0 1.083-.357 2.186-1.072 3.271-.771 1.159-1.646 1.748-2.6 1.748-.604 0-1.073-.213-1.441-.648-.369-.438-.557-1.021-.557-1.736 0-1.119.374-2.23 1.111-3.301.728-1.051 1.606-1.584 2.611-1.584.514 0 .954.229 1.35.691.399.469.598.993.598 1.559zM155.458 64.227c0-1.816-2.172-3.287-4.854-3.287-2.684 0-4.856 1.471-4.856 3.287 0 1.814 2.174 3.287 4.856 3.287.691 0 1.35-.1 1.947-.276l2.357 1.638.167.052h.002c.159 0 .292-.135.292-.296 0-.07-.021-.136-.064-.185l-1.297-1.878c.894-.594 1.45-1.425 1.45-2.342zM114.779 136.193c-.221-.205-.563-.197-.764.02-.203.217-.188.559.033.768 2.037 1.896 2.152 5.097.26 7.131-.201.219-.187.563.033.769.225.205.566.199.77-.019 2.293-2.473 2.146-6.359-.332-8.669zM112.736 142.646c-.2.215-.187.56.035.765.224.208.565.198.769-.015 1.524-1.646 1.459-4.207-.151-5.707-.221-.207-.563-.198-.764.021-.203.216-.188.56.033.765 1.17 1.089 1.203 2.961.078 4.171zM112.006 144.325c-.014-.414-.291-.729-.626-.718l-1.136.039-.219-6.08 1.222-.059c.338-.012.591-.345.573-.76l-.067-1.902c-.015-.412-.29-.729-.626-.718l-1.436.06c-.934.035-1.621.697-1.809 1.758-.64 3.642-.523 5.976.338 9.47.246 1.001.995 1.653 1.928 1.622l1.351-.049c.337-.01.591-.346.575-.76l-.068-1.903zM145.225 43.209c-.707 0-1.348.259-1.847.684l-5.335-2.769c.063-.239.096-.487.096-.744 0-.422-.088-.816-.248-1.18l3.752-2.857c.604.483 1.371.775 2.203.775 1.948 0 3.531-1.587 3.531-3.537 0-1.952-1.583-3.537-3.531-3.537-1.951 0-3.533 1.585-3.533 3.537 0 .497.105.971.289 1.397l-3.845 2.933c-.438-.27-.952-.427-1.507-.427-1.594 0-2.889 1.297-2.889 2.896 0 1.598 1.295 2.893 2.889 2.893.718 0 1.373-.258 1.878-.693l5.349 2.775c-.057.223-.086.455-.086.695 0 1.567 1.271 2.84 2.834 2.84 1.567 0 2.84-1.272 2.84-2.84-.001-1.568-1.273-2.841-2.84-2.841zM81.343 145.324l3.822-3.828c.351-.352.41-.857.138-1.133-.275-.273-.783-.213-1.131.136l-3.822 3.83c-.35.349-.41.854-.137 1.128.275.277.781.218 1.13-.133zM82.956 144.245l-.899.901c.094.226.051.496-.131.679l-2.517 2.521c-.24.243-.636.24-.878-.002l-1.198-1.199c-.241-.242-.24-.638 0-.879l2.515-2.52c.182-.182.452-.229.678-.133l.899-.902c-.729-.564-1.784-.514-2.454.155l-2.515 2.519c-.728.729-.728 1.909 0 2.639l1.198 1.199c.728.729 1.906.729 2.632 0l2.515-2.52c.672-.67.72-1.724.155-2.458zM89.059 137.8l-1.199-1.2c-.726-.728-1.905-.728-2.631 0l-2.516 2.52c-.671.672-.721 1.729-.154 2.459l.898-.9c-.094-.227-.049-.496.133-.68l2.516-2.518c.242-.242.636-.242.877 0l1.199 1.199c.241.242.241.635 0 .879l-2.515 2.52c-.183.184-.453.225-.679.132l-.899.901c.729.566 1.783.518 2.455-.155l2.515-2.519c.725-.729.726-1.911 0-2.638zM78.63 73.988c.089.078.226.078.313 0l2.666-2.393c.055-.043.09-.109.09-.186 0-.129-.104-.233-.235-.233h-.866v-4.176c0-.133-.104-.238-.234-.238h-3.149c-.132 0-.235.105-.235.238v4.176h-.865c-.098 0-.186.059-.221.15-.035.089-.011.195.063.262l2.673 2.4zM82.788 72.619v2.286c0 .108-.089.196-.198.196h-7.604c-.109 0-.198-.088-.198-.196v-2.301h-.675v2.301c0 .479.392.87.873.87h7.604c.48 0 .87-.392.87-.87v-2.286h-.672zM107.975 114.016h-11.301c-.627 0-1.139.514-1.139 1.143v7.615c0 .631.512 1.142 1.139 1.142h5.178l3.672 3.563c.065.062.152.096.24.096l.135-.029c.127-.054.207-.179.207-.316l-.012-3.313h1.881c.629 0 1.142-.511 1.142-1.142v-7.615c-.002-.633-.513-1.144-1.142-1.144zm.452 8.757c0 .252-.202.453-.452.453h-2.227c-.09 0-.178.034-.242.102-.064.064-.102.15-.099.245l.007 2.841-3.188-3.089c-.064-.063-.149-.099-.24-.099h-5.313c-.249 0-.451-.201-.451-.453v-7.616c0-.248.202-.452.451-.452h11.301c.25 0 .453.204.453.452.001 0 .001 7.616 0 7.616zM99.479 118.768c-.17-.091-.433-.178-.785-.26-.354-.083-.575-.164-.668-.24-.071-.062-.106-.135-.106-.22 0-.093.038-.168.115-.224.12-.088.284-.129.495-.129.205 0 .357.039.459.121.104.08.171.213.201.397l.728-.032c-.013-.328-.132-.595-.36-.793-.228-.197-.566-.298-1.021-.298-.274 0-.511.041-.706.124-.196.085-.348.208-.448.366-.104.16-.157.332-.157.517 0 .286.111.525.332.725.155.142.43.258.818.357.303.074.498.127.581.155.125.044.212.099.263.155.051.061.075.131.075.217 0 .134-.06.251-.179.35-.12.1-.295.149-.528.149-.222 0-.396-.058-.526-.169-.131-.11-.215-.286-.26-.521l-.705.068c.045.402.192.711.436.92.244.211.594.314 1.049.314.313 0 .572-.043.781-.131.211-.088.371-.22.486-.4.115-.182.174-.375.174-.582 0-.227-.049-.418-.145-.572-.101-.153-.232-.277-.399-.364z"/><polygon points="102.357,119.609 101.707,117.155 100.62,117.155 100.62,120.756 101.295,120.756 101.295,117.92 102.005,120.756 102.705,120.756 103.42,117.92 103.42,120.756 104.096,120.756 104.096,117.155 103.005,117.155"/><path d="M107.016 118.768c-.168-.091-.432-.178-.783-.26-.354-.083-.575-.164-.668-.24-.072-.062-.107-.135-.107-.22 0-.093.038-.168.115-.224.119-.088.285-.129.496-.129.203 0 .356.039.459.121.102.08.168.213.199.397l.727-.032c-.012-.328-.13-.595-.357-.793-.229-.197-.568-.298-1.021-.298-.277 0-.515.041-.707.124-.198.085-.347.208-.45.366-.104.16-.156.332-.156.517 0 .286.11.525.332.725.156.142.432.258.819.357l.582.155c.124.044.211.099.261.155.049.061.074.131.074.217 0 .134-.061.251-.178.35-.117.1-.295.149-.528.149-.222 0-.396-.058-.528-.169-.129-.11-.214-.286-.257-.521l-.707.068c.05.402.193.711.437.92.246.211.595.314 1.05.314.312 0 .573-.043.784-.131.205-.088.369-.22.482-.4.115-.182.172-.375.172-.582 0-.227-.048-.418-.144-.572-.098-.153-.228-.277-.398-.364zM122.857 106.861v-1.454h-.84c-.086-.401-.244-.781-.461-1.117l.592-.595-1.026-1.027-.593.598c-.338-.219-.715-.379-1.115-.467v-.839h-1.452v.839c-.401.088-.778.248-1.116.467l-.594-.598-1.023 1.027.594.595c-.219.336-.379.716-.465 1.117h-.836v1.454h.836c.086.402.246.781.465 1.119l-.594.594 1.023 1.029.594-.596c.338.219.715.375 1.116.465v.838h1.452v-.838c.4-.09.777-.246 1.115-.465l.593.596 1.026-1.029-.592-.594c.215-.338.375-.717.461-1.119h.84zm-1.815-.052l-.009.029-.024.078-.011.033-.038.104-.006.01-.039.09-.015.035-.034.065-.019.032c-.088.169-.19.318-.313.46l-.055.062-.015.014-.056.06-.008.006-.194.171-.011.008-.063.05-.017.011-.292.182-.017.01-.07.037-.016.004-.238.099-.008.002-.078.026-.021.005-.079.021c-.145.04-.291.063-.443.074l-.104.005-.036.001-.075-.001h-.035l-.102-.005-.009-.002-.109-.01-.034-.008-.08-.011-.035-.008-.108-.022-.112-.028-.031-.009-.075-.025-.032-.01-.104-.04-.012-.003-.09-.038-.035-.019-.066-.033-.032-.016-.091-.049c-.131-.078-.254-.169-.368-.268l-.058-.053-.017-.015-.06-.058-.004-.008-.172-.194-.01-.011-.047-.063-.014-.013-.18-.297-.008-.018-.037-.07-.007-.012-.098-.238-.003-.012-.024-.076-.006-.02-.021-.078c-.049-.18-.074-.361-.08-.55v-.10999999999999999l.002-.04.004-.099.001-.01.011-.108.006-.034.012-.083.006-.034.023-.109.03-.109.009-.033.023-.076.012-.032.038-.104.005-.012.038-.088.017-.035.034-.064.017-.033.052-.09v-.002c.077-.134.163-.254.262-.365l.056-.063.015-.014.056-.059.008-.009.193-.172.012-.01.064-.045.016-.013.292-.183.017-.01.072-.035.01-.006.242-.099.008-.002.078-.025.018-.004.081-.022c.145-.038.294-.063.444-.073l.102-.006h.11099999999999999l.039.002.098.006h.012l.107.012.035.004.084.014.031.006.109.022.109.026.033.011.075.026.036.01.102.039.01.004.091.037.034.018.065.032.034.019.09.051c.133.08.252.164.366.265l.062.056.015.012.058.061.008.006.172.193.006.012.05.063.008.013.187.297.008.019.035.07.006.012.097.24.006.009.022.077.005.02.022.08c.039.144.065.291.073.445v.001l.007.101v.11299999999999999l-.003.039-.004.096v.015l-.013.108-.004.033-.014.08-.004.034-.025.108-.027.11zM133.025 76.754v-1.511h-.871c-.09-.42-.254-.813-.479-1.161l.616-.615-1.064-1.069-.617.617c-.348-.226-.737-.391-1.158-.481v-.871h-1.506v.871c-.42.091-.811.256-1.16.481l-.614-.617-1.063 1.069.615.615c-.228.348-.392.741-.482 1.161h-.869v1.511h.869c.092.417.256.809.482 1.158l-.615.617 1.063 1.065.614-.618c.352.228.74.395 1.16.484v.871h1.506v-.871c.421-.091.813-.258 1.158-.484l.617.618 1.064-1.065-.616-.617c.228-.35.39-.741.479-1.158h.871zm-1.789-.637l-.002.033-.008.084v.035l-.018.114v.013l-.021.1-.006.039-.02.072-.01.039c-.049.19-.119.367-.209.537l-.041.074-.008.016-.045.074-.006.01-.156.219-.008.013-.055.063-.012.014-.252.254-.014.014-.066.053-.012.009-.217.155-.009.008-.075.042-.018.01-.072.04c-.136.074-.281.135-.434.182l-.104.028-.037.011-.076.019-.039.007-.099.02h-.014l-.11.016-.035.003-.084.008-.039.001-.117.003-.115-.003-.035-.001-.084-.008-.036-.003-.112-.016h-.012l-.104-.02-.033-.007-.077-.019-.035-.011-.106-.028c-.149-.047-.295-.106-.433-.182l-.073-.04-.019-.01-.071-.042-.012-.008-.215-.155-.012-.009-.065-.053-.015-.014-.254-.253-.012-.015-.053-.063-.009-.013-.155-.219-.007-.012-.043-.072-.011-.016-.041-.074c-.09-.17-.16-.347-.209-.537l-.01-.039-.018-.072-.007-.039-.021-.1v-.013l-.017-.114-.003-.035-.006-.084-.004-.033-.002-.12.002-.118.004-.035.006-.084.003-.035.017-.111v-.016l.021-.1.007-.036.018-.076.01-.038.029-.102v-.003c.047-.15.106-.296.18-.433l.041-.072.011-.021.043-.071.007-.008.155-.221.009-.014.053-.063.012-.013.254-.254.015-.014.065-.05.012-.011.217-.156.01-.006.073-.044.015-.008.075-.041c.138-.072.282-.133.433-.181l.104-.031.038-.007.077-.02.032-.006.104-.019.013-.004.111-.013.036-.003.084-.008h.035l.114-.004.119.004h.037l.084.008.036.003.11.013.014.004.1.019.041.006.072.02.038.007.104.031c.15.048.297.108.433.181l.072.041.019.008.074.044.01.006.219.156.009.011.065.05.014.014.252.254.013.013.054.063.01.014.156.219.006.01.041.071.012.021.039.072c.072.137.136.281.182.433v.003l.029.102.009.038.021.076.006.036.019.1.002.016.017.111.002.035.008.084v.035l.004.118-.003.12zM84.133 18.115v-1.511h-.869c-.092-.418-.256-.812-.48-1.16l.615-.616-1.064-1.067-.615.616c-.349-.224-.74-.391-1.158-.481v-.871h-1.508v.871c-.42.091-.809.258-1.158.481l-.617-.616-1.064 1.067.617.616c-.227.349-.391.742-.48 1.16h-.872v1.511h.869c.09.418.256.81.48 1.16l-.617.617 1.064 1.065.617-.616c.351.226.738.392 1.158.482v.87h1.508v-.87c.418-.091.811-.257 1.158-.482l.615.616 1.064-1.065-.615-.617c.226-.351.39-.742.48-1.16h.872zm-1.787-.636l-.004.036-.006.082-.004.037-.016.112v.014l-.02.097-.008.042-.018.072-.01.04c-.052.188-.121.367-.209.534l-.041.077-.01.016-.044.074-.008.007-.153.219-.009.014-.054.063-.014.013-.253.256-.014.014-.063.051-.013.008-.217.156-.011.008-.072.043-.018.009-.074.04c-.137.073-.282.134-.432.182h-.002l-.104.029-.036.01-.077.017-.037.008-.102.019h-.012l-.111.015-.035.005-.084.006-.037.003-.118.003-.114-.003-.037-.003-.082-.006-.037-.005-.112-.015h-.013l-.102-.019-.035-.008-.078-.017-.035-.01-.105-.029c-.15-.048-.293-.108-.431-.182l-.075-.04-.018-.009-.071-.043-.013-.008-.217-.156-.011-.008-.063-.051-.016-.014-.253-.254-.012-.015-.054-.063-.01-.014-.154-.217-.006-.014-.043-.069-.011-.016-.041-.077c-.089-.167-.161-.346-.21-.534l-.009-.04-.019-.072-.008-.042-.019-.097-.002-.014-.013-.112-.006-.037-.008-.082v-.036l-.004-.119.004-.118v-.034l.008-.086.006-.036.013-.111.002-.015.019-.099.008-.037.019-.075.009-.038.029-.101v-.005c.046-.148.105-.294.181-.431l.041-.074.011-.018.043-.072.006-.009.154-.222.01-.012.054-.063.012-.014.253-.254.016-.013.063-.051.011-.01.221-.157.009-.006.073-.044.014-.009.077-.041c.138-.073.28-.132.431-.179l.105-.03.035-.009.078-.019.035-.006.102-.02.013-.003.112-.014.037-.001.082-.008.037-.001.114-.003.118.003.037.001.084.008.035.001.111.014.013.003.1.02.039.006.074.019.038.009.104.03h.002c.148.047.295.105.432.179l.074.041.018.009.072.044.008.006.221.157.01.01.065.051.014.013.253.254.014.014.054.063.009.012.153.219.008.012.041.072.013.018.041.074c.07.137.133.282.178.431l.002.005.029.101.01.038.018.075.008.037.018.099.002.015.016.111.004.036.006.086.004.034.002.118-.002.119z"/><rect x="110.363" y="121.686" width="8.794" height="7.66"/><path d="M112.625 119.482c0-1.182.956-2.141 2.137-2.141 1.176 0 2.133.959 2.133 2.141v1.472h1.484v-1.472c0-2-1.621-3.625-3.617-3.625s-3.621 1.625-3.621 3.625v1.472h1.484v-1.472zM122.768 75.616c-.047-.146-.191-.234-.345-.211l-2.425.368c-.105-.451-.271-.896-.496-1.329-1.066-2.225-3.343-3.664-5.807-3.664-3.545 0-6.43 2.891-6.43 6.443l.004 1.691c.021 3.182.029 5.102-.703 5.843-.276.278-.678.405-1.264.405h-3.033c-.17 0-.31.139-.31.309 0 2.045.718 3.957 2.021 5.381 1.479 1.615 3.586 2.469 6.1 2.469 2.999 0 5.363-.85 7.027-2.521 2.863-2.881 2.914-7.379 2.908-9.431l2.176.524c.146.035.3-.041.357-.182.061-.139.008-.302-.121-.383-.021-.014-1.984-1.27-1.984-2.688 0-1.535 2.146-2.646 2.168-2.656.135-.065.203-.222.157-.368zm-6.34 2.5c-.959 0-1.74-.778-1.74-1.742 0-.96.781-1.741 1.74-1.741.963 0 1.74.781 1.74 1.741 0 .964-.777 1.742-1.74 1.742zM106.706 4.488h-5.817c-1.022 0-1.853.831-1.853 1.855v3.968h9.522v-3.967c.003-1.025-.828-1.856-1.852-1.856z"/><ellipse cx="103.799" cy=".354" rx="3.479" ry="3.479"/><path d="M108.186.354c0 .424-.063.832-.174 1.217.283.077.584.118.895.118 1.916 0 3.473-1.557 3.473-3.479 0-1.921-1.557-3.479-3.473-3.479-1.297 0-2.426.71-3.022 1.76 1.369.744 2.301 2.198 2.301 3.863zM111.813 2.346h-4.104c-.238.464-.557.882-.934 1.232 1.492.033 2.695 1.26 2.695 2.766v1.822h4.194v-3.966c.001-1.026-.828-1.854-1.851-1.854z"/></g></svg>